<svg
  viewBox="0 0 1980 259"
  xmlns="http://www.w3.org/2000/svg"
  fill="#ed1c24">
  <title>Actionaid</title>
  <path d="M166.2 74c46.5 0 71.2 22.1 71.2 64.1v117.4h-64.1v-20.3c-18.7 19.3-25.7 23.1-59.5 23.1H67.6c-41.2.4-67.6-8.7-67.6-50.8v-14.7c0-48.7 33.8-51.5 99.3-51.5 37 0 57.4 1 70.5 14.4v-15.8c0-17.5-5.3-23.8-31.7-23.8H98.3c-19.8 0-25.4 1.7-26.1 14.3H6.7c0-48.3 24-56.4 81-56.4h78.5zm1381.6 0c46.5 0 71.2 22.1 71.2 64.1v117.4H1555v-20.3c-18.7 19.3-25.7 23.1-59.5 23.1h-46.2c-41.2.4-67.6-8.7-67.6-50.8v-14.7c0-48.7 33.8-51.5 99.3-51.5 37 0 57.4 1 70.5 14.4v-15.8c0-17.5-5.3-23.8-31.7-23.8h-39.8c-19.7 0-25.4 1.7-26 14.3h-65.6c0-48.3 24-56.4 81-56.4h78.5zM419.3 258.3h-69c-44.8 0-92-8.4-92-84.8v-17.1c0-67.7 33.8-82.4 83.1-82.4h76.1c50 0 80.7 18.2 80.7 59.2v16.2h-65.5c0-18.3-9.6-25-39.1-25h-26.1c-28.2 0-41.6 7.8-41.6 27.4v23.8c0 23.2 14.8 30.2 36 30.2h34.5c19 0 36.3-4.2 36.3-20.7v-4.2h65.5v15.8c0 48-40.2 61.6-79 61.6zm233.8 0h-26.7c-41.6 0-77.5-13-77.5-62.4v-70.7H515V76.8h33.8v-42h67.6v42h105v48.4h-105v68.7c0 13.3 9.9 16 26 16 22 0 27.9-4.8 27.9-21.3v-12h59.2v21.8c0 34-22.6 60-76.5 60zM1021 74c34.6 0 74.3 12 74.3 70.8v42.7c0 59-39.7 70.8-74.3 70.8H920c-34.5 0-74.4-11.9-74.4-70.8v-42.7c0-58.9 39.9-70.8 74.4-70.8h101zm888.9 35.8V1.8h67.6v253.7H1914v-33h-.7c-7.4 22.2-24.3 35.8-65.2 35.8h-19.7c-85.6 0-96.2-30.5-96.2-76V150c0-45.5 10.6-76 96.2-76h20c27.9 0 56.4 7.7 60.6 35.8h.8zm-722.4 145.7h-67.6V76.8h67.6v28.8h.7c12-25 35.6-31.6 71.9-31.6 41.8 0 100.3 1.8 100.3 78.9v102.6h-67.6V153c0-17.6-14-26.3-43.7-26.3h-15.5c-28.9 0-46.1 13.3-46.1 38.9v90zm523.4 0h-67.6V76.8h67.6v178.7zM820.5 203v51.3h-66.2V203h66.2zm-700 13.3c46.5 0 50.7-7 50.7-19 0-13.3-4-18.2-41.2-18.2h-30c-28.5 0-34.5 6.3-34.5 21 0 11.6 9.2 16.2 35.6 16.2h19.4zm1381.6 0c46.5 0 50.7-7 50.7-19 0-13.3-3.9-18.2-41.2-18.2h-30c-28.5 0-34.5 6.3-34.5 21 0 11.6 9.2 16.2 35.6 16.2h19.4zm-526.6-8.4c43.7 0 52.1-5.6 52.1-29.5V154c0-23.8-8.4-29.4-52-29.4h-16.3c-31 0-46.1 7.7-46.1 33.3v16.8c0 25.6 15.1 33.3 46.1 33.3h16.2zm897.6 0c26.8 0 40.9-6 40.9-33v-17.5c0-27-14.1-33-40.9-33h-39.8c-32.4 0-35.5 11.3-35.5 31.3v21c0 20 3.1 31.2 35.5 31.2h39.8zM754.4 76.3h66.3v104.1h-66.3V76.3zm956.4-21.9h-67.6V2h67.6v52.5z"/>
</svg>
