<svg
  viewBox="0 0 120 20"
  xmlns="http://www.w3.org/2000/svg"
  fill="#000">
  <title>Creative Commons CC-BY-NC-SA license logo</title>
  <path d="M17.1 2.9c2 2 2.9 4.3 2.9 7.1s-1 5.2-2.9 7c-2 2-4.4 3-7.1 3-2.7 0-5-1-7-3-2-1.9-3-4.2-3-7C0 7.3 1 5 3 3 4.9.9 7.2 0 10 0s5.2 1 7.1 2.9zM43.3 0c-2.7 0-5 1-7 2.9-2 2-3 4.4-3 7.1 0 2.7 1 5 3 7s4.3 3 7 3c2.8 0 5.2-1 7.2-3a9.5 9.5 0 0 0 2.8-7c0-2.8-1-5.2-2.9-7.1-2-2-4.3-2.9-7-2.9zM110 0c-2.8 0-5.1 1-7 2.9-2 2-3 4.4-3 7.1 0 2.7 1 5 3 7s4.3 3 7 3 5.1-1 7.1-3a9.5 9.5 0 0 0 2.9-7c0-2.8-1-5.2-2.9-7.1-2-2-4.3-2.9-7.1-2.9zM76.7 0c2.8 0 5.1 1 7 2.9 2 2 3 4.3 3 7.1s-1 5.1-2.9 7c-2 2-4.4 3-7.1 3-2.8 0-5.1-1-7-3a9.8 9.8 0 0 1 0-14.1c1.8-2 4.2-2.9 7-2.9zM4.3 4.2A8 8 0 0 0 1.8 10c0 2.2.8 4.2 2.4 5.8a7.9 7.9 0 0 0 5.8 2.4 8 8 0 0 0 5.9-2.4 7.7 7.7 0 0 0 2.3-5.8 8 8 0 0 0-2.4-5.8A7.9 7.9 0 0 0 10 1.8c-2.3 0-4.2.8-5.7 2.4zm39-2.4c2.3 0 4.2.8 5.8 2.4a7.8 7.8 0 0 1 2.4 5.8c0 2.3-.8 4.2-2.3 5.7a8 8 0 0 1-5.9 2.5c-2.2 0-4.1-.8-5.7-2.5A7.9 7.9 0 0 1 35 10a8 8 0 0 1 2.5-5.8 7.8 7.8 0 0 1 5.7-2.4zm34 14.3h-1v-1.6c-1.2 0-2.3-.5-3.1-1.2l1.3-1.4a3 3 0 0 0 2.3 1c.6 0 1.2-.3 1.2-1 0-.3 0-.5-.3-.7l-.9-.4-1.2-.5-1.6-.7-5-2.3a8 8 0 0 0-.5 2.7c0 2.2.8 4.1 2.4 5.7a7.9 7.9 0 0 0 5.8 2.5 8 8 0 0 0 5.8-2.5c.6-.5 1-1 1.4-1.7L80 12.3c-.2 1.3-1.4 2.1-2.7 2.2v1.6zM110 1.8c2.3 0 4.2.8 5.8 2.4a7.8 7.8 0 0 1 2.4 5.8c0 2.3-.8 4.2-2.4 5.7a8 8 0 0 1-5.8 2.5c-2.2 0-4.2-.8-5.8-2.5a7.9 7.9 0 0 1-2.4-5.7 8 8 0 0 1 2.5-5.8 7.8 7.8 0 0 1 5.7-2.4zm-64.6 5c.3 0 .6.4.6.7v4.1H45v4.9h-3.1v-4.9h-1.2v-4c0-.4.3-.7.7-.7h4zm60.2 1.8c.4-2.5 2.1-3.9 4.3-3.9 3.2 0 5.2 2.3 5.2 5.4 0 3-2 5.4-5.2 5.4-2.2 0-4-1.3-4.4-4h2.5c0 1.4 1 1.9 2.2 1.9 1.4 0 2.3-1.3 2.3-3.3 0-2.2-.8-3.3-2.3-3.3-1 0-2 .4-2.2 1.8h.7l-2 2-2-2h.9zM8.6 9c-.3-.5-.7-.8-1.2-.8-.8 0-1.3.6-1.3 1.8 0 1.2.5 1.8 1.3 1.8.6 0 1-.3 1.3-.9l1.2.7c-.6 1-1.4 1.5-2.6 1.5-1 0-1.6-.3-2.2-.8-.5-.6-.8-1.3-.8-2.3 0-1 .3-1.7.9-2.3.5-.5 1.2-.8 2-.8 1.3 0 2.2.5 2.7 1.5L8.6 9zm5.7 0c-.2-.5-.6-.8-1-.8-1 0-1.4.6-1.4 1.8 0 1.2.4 1.8 1.3 1.8.6 0 1-.3 1.2-.9l1.3.7c-.6 1-1.5 1.5-2.6 1.5-1 0-1.6-.3-2.2-.8-.5-.6-.8-1.3-.8-2.3 0-1 .3-1.7.8-2.3.6-.5 1.3-.8 2.1-.8 1.3 0 2.1.5 2.7 1.5l-1.4.6zm62.4-7.2c-2.3 0-4.2.8-5.8 2.4l-1 1.3 3.7 1.8c.4-1.1 1.4-1.8 2.6-1.8V3.9h1.2v1.6c.7 0 1.6.2 2.5.9l-1.3 1.3a3 3 0 0 0-1.8-.5c-.5 0-1.2.1-1.2.7l.1.3 1.3.6.9.3 1.6.8 5.1 2.2a7.8 7.8 0 0 0-2.1-8 7.8 7.8 0 0 0-5.8-2.3zM43.3 3.5a1.4 1.4 0 1 1 0 2.8 1.4 1.4 0 0 1 0-2.8z"/>
</svg>
