<?xml version="1.0" standalone="no"?>
<!DOCTYPE svg PUBLIC "-//W3C//DTD SVG 1.1//EN" "http://www.w3.org/Graphics/SVG/1.1/DTD/svg11.dtd" >
<svg>
<metadata>
Created by FontForge 20090914 at Wed Nov 25 10:03:09 2015
 By www-data
Digitized data (c) Copyright 1997 E+F Designstudios. ITC American Typewriter is a registered trademark of International Typeface Corporation.
</metadata>
<defs>
<font id="AmericanTypewriter-Bold" horiz-adv-x="692" >
  <font-face 
    font-family="American Typewriter"
    font-weight="700"
    font-stretch="normal"
    units-per-em="1000"
    panose-1="2 9 8 4 2 0 4 2 3 4"
    ascent="800"
    descent="-200"
    x-height="502.999"
    cap-height="672.002"
    bbox="-516.001 -433.002 2166.01 1199"
    underline-thickness="20"
    underline-position="-176"
    unicode-range="U+0008-U+FE48"
  />
<missing-glyph horiz-adv-x="500" 
d="M63 0v750h375v-750h-375zM125 63h250v625h-250v-625z" />
    <glyph glyph-name="fi" unicode="fi" horiz-adv-x="674" 
d="M482 517c-21.333 0 -38.8311 5.66797 -52.498 17.001s-20.5 26 -20.5 44c-17.333 8.66699 -35.333 13 -54 13c-57.333 0 -86 -21.333 -86 -64v-12c0 -12.667 6.83301 -20.167 20.5 -22.5s53.5 -3.5 119.5 -3.5c27.333 0 63 1.33301 107 4
c8 0.666992 18 1.33398 30 2.00098c2.66699 0.666992 6.66699 1 12 1c13.333 0 20 -10.667 20 -32v-301c0 -34 6.66699 -51 20 -51c4.66699 0 11 1 19 3c3.33301 1.33301 8.66602 2 15.999 2c26 0 39 -17.333 39 -52c0 -46 -18.667 -69 -56 -69
c-8.66699 0 -28 1.66699 -58 5c-18 2 -38.333 3 -61 3c-10.667 0 -26 -1.33301 -46 -4s-34.667 -4 -44 -4c-30.667 0 -46 22.333 -46 67c0 32.667 11 49 33 49c2.66699 0 5 -0.333008 7 -1h7c9.33301 0 14.333 8.66699 15 26l1 31v193c0 18 -5 29 -15 33
c-6 2 -16.333 3 -31 3h-51l-24 -1c-15.333 -0.666992 -24.833 -3.5 -28.5 -8.5s-5.5 -18.5 -5.5 -40.5v-181c0 -32.667 3.33301 -50.334 10 -53.001c2.66699 -1.33301 6 -2 10 -2h8c2 0.666992 4.66699 1 8 1c20 0 30 -17.333 30 -52c0 -18.667 -4 -34 -12 -46
s-18.667 -18 -32 -18c-3.33301 0 -19.666 2 -48.999 6c-10 1.33301 -26.333 2 -49 2c-29.333 0 -52 -1 -68 -3c-26.667 -3.33301 -44 -5 -52 -5c-16.667 0 -30.167 6.16699 -40.5 18.5s-15.5 28.5 -15.5 48.5c0 37.333 15.333 56 46 56l26 -6c3.33301 -0.666992 6 -1 8 -1
c12.667 0 19 18.667 19 56v203c0 10 -1.33301 16.833 -4 20.5s-8.66699 5.5 -18 5.5h-31c-30.667 0 -46 16 -46 48c0 36 16 54 48 54h25c12.667 0 20.667 1.83301 24 5.5s5.33301 12.167 6 25.5c4 102.667 81.667 154 233 154c65.333 0 116.166 -9.16699 152.499 -27.5
s54.5 -43.833 54.5 -76.5c0 -18.667 -7.33301 -33.834 -22 -45.501s-33.334 -17.5 -56.001 -17.5z" />
    <glyph glyph-name="fl" unicode="fl" 
d="M269 357l0.00488281 -205c0 -27.333 7 -41 21 -41h8c1.33301 0.666992 3.66602 1 6.99902 1c20 0 30 -17.333 30 -52c0 -18.667 -4.5 -34 -13.5 -46s-20.5 -18 -34.5 -18c-1.33301 0 -6.66602 0.666992 -15.999 2c-28.667 4 -53.667 6 -75 6
c-14.667 0 -31 -0.666992 -49 -2c-6.66699 0 -19 -1 -37 -3c-15.333 -2 -27.333 -3 -36 -3c-16 0 -29.5 6.16699 -40.5 18.5s-16.5 27.5 -16.5 45.5c0 38 14 57 42 57c3.33301 0 9 -0.666992 17 -2c11.333 -3.33301 18.666 -5 21.999 -5c8 0 13 3.33301 15 10s3 23.667 3 51
v188c0 16 -1 26 -3 30s-7.33301 6 -16 6h-22c-38.667 0 -58 17.333 -58 52s16.333 52 49 52h27c12 0 19.667 2.5 23 7.5s5.33301 16.833 6 35.5c3.33301 95.333 73.333 143 210 143c20.667 0 48 -2.33301 82 -7c43.333 -6 74.666 -9 93.999 -9
c7.33301 0 19.666 0.666992 36.999 2c3.33301 0.666992 7.66602 1 12.999 1c14 0 23 -5 27 -15c2 -6 3 -17.333 3 -34v-481c0 -7.33301 1 -13 3 -17c2.66699 -8 8.66699 -12 18 -12c5.33301 0 9.66602 0.666992 12.999 2c8 2 14.333 3 19 3c26 0 39 -16.333 39 -49
c0 -48.667 -21.667 -73 -65 -73c-4 0 -12 0.666992 -24 2l-44 5c-12 1.33301 -28.667 2 -50 2c-20.667 0 -40.667 -1.66699 -60 -5c-11.333 -2 -19.333 -3 -24 -3c-12.667 0 -23 6.16699 -31 18.5s-12 27.833 -12 46.5c0 33.333 10.333 50 31 50c4 0 7 -0.333008 9 -1h7
c11.333 0 17 14 17 42v334c0 40.667 -6.5 68.5 -19.5 83.5s-36.5 22.5 -70.5 22.5c-49.333 0 -74 -21 -74 -63v-8c0 -10 1.5 -16.333 4.5 -19s10.833 -4 23.5 -4h26c36.667 0 55 -16.667 55 -50c0 -34.667 -17 -52 -51 -52h-29c-14 0 -22.5 -2 -25.5 -6
s-4.5 -15.333 -4.5 -34z" />
    <glyph glyph-name=".notdef" horiz-adv-x="500" 
d="M63 0v750h375v-750h-375zM125 63h250v625h-250v-625z" />
    <glyph glyph-name="controlNULL" horiz-adv-x="0" 
 />
    <glyph glyph-name="controlNULL" horiz-adv-x="0" 
 />
    <glyph glyph-name="controlBS" horiz-adv-x="0" 
 />
    <glyph glyph-name="controlHT" unicode="&#x9;" horiz-adv-x="250" 
 />
    <glyph glyph-name="controlCR" unicode="&#xd;" horiz-adv-x="250" 
 />
    <glyph glyph-name="controlGS" horiz-adv-x="0" 
 />
    <glyph glyph-name="space" unicode=" " horiz-adv-x="250" 
 />
    <glyph glyph-name="exclam" unicode="!" horiz-adv-x="437" 
d="M217 -17c-25.333 0 -47.333 9.33301 -66 28s-28 41 -28 67s9.33301 48.333 28 67s40.667 28 66 28c26 0 48.333 -9.33301 67 -28s28 -41 28 -67s-9.33301 -48.333 -28 -67s-41 -28 -67 -28zM285 255c-3.33301 -33.333 -19 -50 -47 -50h-39c-28 0 -43.667 16.667 -47 50
l-31 322c-2 20.667 -3 34 -3 40c0 45.333 33.333 68 100 68s100 -22.667 100 -68c0 -12.667 -0.666992 -26 -2 -40z" />
    <glyph glyph-name="quotedbl" unicode="&#x22;" horiz-adv-x="413" 
d="M185 667l-25 -268h-95l-24 268h144zM372 667l-24 -268h-96l-24 268h144z" />
    <glyph glyph-name="numbersign" unicode="#" horiz-adv-x="600" 
d="M475 299h101l-17 -117h-102l-29 -182h-134l30 182h-85l-29 -182h-132l30 182h-102l18 117h101l14 83h-101l18 116h101l27 169h132l-28 -169h85l27 169h133l-27 -169h100l-18 -116h-100zM342 299l13 83h-85l-13 -83h85z" />
    <glyph glyph-name="dollar" unicode="$" horiz-adv-x="655" 
d="M97 471c0 54 18.999 97.999 56.999 131.999s89.667 53 155 57l4 41c2.66699 27.333 16.667 41 42 41c22.667 0 34 -9 34 -27v-10l-4 -46c48 -4 86.167 -17.5 114.5 -40.5s42.5 -51.833 42.5 -86.5c0 -23.333 -7.5 -42.833 -22.5 -58.5s-33.833 -23.5 -56.5 -23.5
c-20 0 -36.667 6 -50 18s-20 26.667 -20 44c0 4.66699 0.666992 10.334 2 17.001l2 8v6c-2.66699 2.66699 -7.66699 4.33398 -15 5.00098l-10 1l-11 -125l6 -2c50.667 -16.667 86 -29.667 106 -39c27.333 -12.667 48.333 -27.667 63 -45c26 -30.667 39 -69.667 39 -117
c0 -62.667 -21.833 -112.834 -65.5 -150.501s-104.5 -58.834 -182.5 -63.501l-2 -28c-1.33301 -16.667 -3.33301 -28 -6 -34c-4.66699 -9.33301 -14 -14 -28 -14c-28 0 -42 12.667 -42 38v5l3 35c-48.667 3.33301 -89.5 20.333 -122.5 51s-49.5 67.334 -49.5 110.001
c0 29.333 7.66699 52.833 23 70.5s35.333 26.5 60 26.5c22.667 0 41.334 -7.16699 56.001 -21.5s22 -32.166 22 -53.499c0 -18 -5 -33.667 -15 -47c12 -10.667 25.333 -16.334 40 -17.001l14 156c-122 30 -183 92.333 -183 187zM292.999 436.999l10 111
c-40.667 -8 -61 -26 -61 -54c0 -26 17 -45 51 -57zM346.999 274.999l-12 -149c26 0.666992 47.333 8 64 22s25 31 25 51c0 40 -25.667 65.333 -77 76z" />
    <glyph glyph-name="percent" unicode="%" horiz-adv-x="801" 
d="M166 50l317.003 484.001c-16.667 -11.333 -34.334 -17 -53.001 -17c-20 0 -39.667 6 -59 18c2.66699 -12.667 4 -24.334 4 -35.001c0 -130 -58 -195 -174 -195c-56.667 0 -100.167 17 -130.5 51s-45.5 83 -45.5 147c0 58.667 15 103.667 45 135s72.667 47 128 47
c50.667 0 93.667 -12.333 129 -37l26 -18c35.333 -24.667 67.666 -37 96.999 -37c36 0 67.667 15 95 45l10 11c13.333 14.667 29.666 22 48.999 22c27.333 0 41 -8.33301 41 -25c0 -8 -8 -24.333 -24 -49l-377 -579c-9.33301 -14 -17.333 -23.333 -24 -28
c-8.66699 -5.33301 -20.667 -8 -36 -8c-27.333 0 -41 7 -41 21c0 8 7.66699 23.667 23 47zM428.003 175.001c0 60 15 106 45 138s73.333 48 130 48c114.667 0 172 -62.667 172 -188c0 -127.333 -58 -191 -174 -191c-55.333 0 -98 16.833 -128 50.5s-45 81.167 -45 142.5z
M262.003 493.001c0 66.667 -19.667 100 -59 100c-43.333 0 -65 -32.333 -65 -97c0 -67.333 21.333 -101 64 -101c40 0 60 32.667 60 98zM663.003 174.001c0 64.667 -19.667 97 -59 97c-42 0 -63 -33 -63 -99c0 -66.667 20.667 -100 62 -100c40 0 60 34 60 102z" />
    <glyph glyph-name="ampersand" unicode="&#x26;" horiz-adv-x="856" 
d="M479 442c-15.333 -14 -37.666 -30.332 -66.999 -48.999l61 -81l8 18c14 31.333 27 55.666 39 72.999c18 26 42.167 46.833 72.5 62.5s61.5 23.5 93.5 23.5c42.667 0 79.167 -13 109.5 -39s45.5 -57.667 45.5 -95c0 -29.333 -9.83301 -54.333 -29.5 -75
s-43.5 -31 -71.5 -31c-20.667 0 -38.667 6.66699 -54 20s-23 29.333 -23 48c0 10 3 19 9 27l6 8c1.33301 4 2 6.66699 2 8c0 4 -3.66699 6 -11 6c-22.667 0 -44 -16 -64 -48c-16 -25.333 -35.333 -61.666 -58 -108.999c2 -3.33301 5 -7.33301 9 -12
c20 -26.667 35.667 -44 47 -52c16 -12 37.333 -18 64 -18c56.667 -0.666992 85 -24.334 85 -71.001c0 -18 -5 -32.667 -15 -44s-22.667 -17 -38 -17c-8 0 -19.5 1.16699 -34.5 3.5s-26.5 3.5 -34.5 3.5c-14.667 0 -29.667 -1 -45 -3s-25.333 -3 -30 -3
c-14 0 -27 4.66699 -39 14c-4.66699 4 -14.334 14.667 -29.001 32l-24 28c-22.667 -30.667 -49.667 -52.667 -81 -66c-35.333 -15.333 -72.333 -23 -111 -23c-69.333 0 -127.333 21 -174 63s-70 94 -70 156c0 70 29 124.333 87 163c16.667 11.333 43.667 27 81 47l20 10
c-28.667 44 -43 83.667 -43 119c0 43.333 16.667 78.5 50 105.5s77 40.5 131 40.5c51.333 0 93.333 -13 126 -39s49 -59.333 49 -100c0 -39.333 -16.333 -74 -49 -104zM321 546.001c0 -18.667 9.33301 -39.999 28 -63.999c33.333 11.333 50 31.666 50 60.999
c0 12 -3.83301 22 -11.5 30s-17.167 12 -28.5 12c-25.333 0 -38 -13 -38 -39zM389 168.002l-105 149c-36 -24.667 -59.5 -44.167 -70.5 -58.5s-16.5 -33.5 -16.5 -57.5c0 -25.333 8.66699 -46 26 -62s40 -24 68 -24c20.667 0 37.667 3.66699 51 11s29 21.333 47 42z" />
    <glyph glyph-name="quotesingle" unicode="'" horiz-adv-x="225" 
d="M185 667l-25 -268h-95l-24 268h144z" />
    <glyph glyph-name="parenleft" unicode="(" horiz-adv-x="637" 
d="M161 112c-12.667 41.333 -18.998 86.999 -18.998 136.999c0 56.667 7.16699 105.834 21.5 147.501s38.166 82.834 71.499 123.501c27.333 32.667 58.833 62.334 94.5 89.001s74.667 48.5 117 65.5s78.5 25.5 108.5 25.5c17.333 0 32 -4.5 44 -13.5s18 -19.833 18 -32.5
c0 -14.667 -5.66699 -27.167 -17 -37.5s-33 -23.166 -65 -38.499c-62 -29.333 -111 -66.333 -147 -111c-50.667 -62.667 -76 -135 -76 -217c0 -82.667 25.333 -155 76 -217c36 -44 85 -80.667 147 -110c31.333 -14.667 52.833 -27.334 64.5 -38.001
s17.5 -23.334 17.5 -38.001c0 -13.333 -6 -24.5 -18 -33.5s-26.333 -13.5 -43 -13.5c-30 0 -66.333 8.5 -109 25.5s-82.334 39.167 -119.001 66.5c-86 63.333 -141.667 136.666 -167 219.999z" />
    <glyph glyph-name="parenright" unicode=")" horiz-adv-x="637" 
d="M477 388c12.667 -41.333 18.999 -87.002 18.999 -137.002c0 -103.333 -31.333 -193.333 -94 -270c-27.333 -33.333 -58.666 -63.333 -93.999 -90s-74.333 -48.5 -117 -65.5s-79 -25.5 -109 -25.5c-17.333 0 -32 4.5 -44 13.5s-18 19.833 -18 32.5
c0 14.667 5.66699 27.334 17 38.001s33.333 23.667 66 39c62.667 29.333 111.667 66 147 110c50.667 62.667 76 135 76 217s-25.333 154.333 -76 217c-36.667 45.333 -85.667 82.333 -147 111c-32 15.333 -53.833 28 -65.5 38s-17.5 22.333 -17.5 37
c0 13.333 6 24.5 18 33.5s26.333 13.5 43 13.5c30.667 0 67 -8.5 109 -25.5s81.667 -39.167 119 -66.5c86.667 -63.333 142.667 -136.666 168 -219.999z" />
    <glyph glyph-name="asterisk" unicode="*" horiz-adv-x="655" 
d="M292 419l9.00098 32l3 8v1c0 4.66699 -2 7 -6 7c-3.33301 0 -5.33301 -0.666992 -6 -2l-6 -7l-21 -22c-5.33301 -6.66699 -11 -13 -17 -19c-8.66699 -8.66699 -19.334 -13 -32.001 -13c-12 0 -22.167 4.33301 -30.5 13s-12.5 19.334 -12.5 32.001
c0 26 18.667 42.333 56 49l33 6c10.667 2 16 4.66699 16 8c0 4 -2 6 -6 6l-42 7c-40 6.66699 -60 22.334 -60 47.001c0 12.667 4.33301 23.667 13 33s19 14 31 14c14.667 0 31.667 -10.667 51 -32l20 -22c6 -6.66699 10.333 -10 13 -10c5.33301 0 8 3.33301 8 10
c-0.666992 3.33301 -1 4.66602 -1 3.99902l-3 9l-10 33l-5 12c-2 4.66699 -3 10.667 -3 18c0 29.333 14.667 44 44 44c28.667 0 43 -14.667 43 -44c0 -7.33301 -1 -13.333 -3 -18l-5 -12l-13 -42c-0.666992 -1.33301 -1 -3 -1 -5c0 -6 2.66699 -9 8 -9
c2.66699 0 7 3.33301 13 10l20 22c19.333 21.333 36.333 32 51 32c12 0 22.333 -4.66699 31 -14s13 -20.333 13 -33c0 -24.667 -20 -40.334 -60 -47.001l-42 -7c-4 0 -6 -2 -6 -6c0 -3.33301 5.33301 -6 16 -8l33 -6c37.333 -6.66699 56 -23 56 -49
c0 -12.667 -4 -23.334 -12 -32.001s-18 -13 -30 -13c-14.667 0 -31.667 10.667 -51 32l-26 29c-0.666992 2 -2.66699 3 -6 3c-4.66699 0 -7 -2.66699 -7 -8l1 -1l2 -8l10 -32l4 -14c2 -7.33301 3 -13.666 3 -18.999c0 -31.333 -14 -47 -42 -47s-42 15 -42 45
c0 9.33301 2 21 6 35z" />
    <glyph glyph-name="plus" unicode="+" horiz-adv-x="500" 
d="M33 280v120h152v153h130v-153h152v-120h-152v-153h-130v153h-152z" />
    <glyph glyph-name="comma" unicode="," horiz-adv-x="328" 
d="M54 88c0 28 9.16699 51.833 27.5 71.5s40.833 29.5 67.5 29.5c32.667 0 60.167 -13.667 82.5 -41s33.5 -61 33.5 -101c0 -80.667 -36 -164.667 -108 -252c-17.333 -21.333 -33.333 -32 -48 -32c-24.667 0 -37 13.667 -37 41c0 16 7.33301 34.667 22 56
c37.333 54 56 91 56 111c0 10 -7.33301 17 -22 21c-49.333 14 -74 46 -74 96z" />
    <glyph glyph-name="hyphen" unicode="-" horiz-adv-x="328" 
d="M89 191c-36 0 -53.9971 23.001 -53.9971 69.001c0 43.333 17.667 65 53 65h30c18 -0.666992 33.333 -1 46 -1c13.333 0 28.666 0.333008 45.999 1h29c36 0 54 -20.667 54 -62c0 -26.667 -4 -45.334 -12 -56.001s-22 -16 -42 -16c-8 0 -20.333 0.333008 -37 1
s-29.334 1 -38.001 1s-21.334 -0.333008 -38.001 -1s-29 -1 -37 -1z" />
    <glyph glyph-name="period" unicode="." horiz-adv-x="328" 
d="M164 -17c-28 0 -51.833 10 -71.5 30s-29.5 44 -29.5 72s9.83301 51.833 29.5 71.5s43.5 29.5 71.5 29.5s51.833 -9.83301 71.5 -29.5s29.5 -43.5 29.5 -71.5s-9.83301 -52 -29.5 -72s-43.5 -30 -71.5 -30z" />
    <glyph glyph-name="slash" unicode="/" horiz-adv-x="582" 
d="M325 227l-32 -81.999l-17 -41l-40 -113l-30 -91c-17.333 -51.333 -30.833 -82.333 -40.5 -93s-30.834 -16 -63.501 -16c-50.667 0 -76 10 -76 30c0 11.333 12.667 45 38 101l34 79c26.667 63.333 43.667 104.333 51 123l93 241l52 148l28 85
c11.333 35.333 22.833 58.666 34.5 69.999s29.834 17 54.501 17c55.333 0 83 -11.333 83 -34c0 -9.33301 -5.33301 -26 -16 -50l-25 -56l-36 -92l-46 -110z" />
    <glyph glyph-name="zero" unicode="0" horiz-adv-x="655" 
d="M331 -18c-95.333 0 -169.167 30.668 -221.5 92.001s-78.5 147.666 -78.5 258.999c0 110 26 196.167 78 258.5s123.667 93.5 215 93.5c94 0 167.5 -30.5 220.5 -91.5s79.5 -145.167 79.5 -252.5c0 -114 -25.5 -202.333 -76.5 -265s-123.167 -94 -216.5 -94z
M326.999 548.001c-39.333 0 -70.333 -19.167 -93 -57.5s-34 -90.833 -34 -157.5s11.333 -119 34 -157s53.667 -57 93 -57c40 0 71.333 19 94 57s34 90.333 34 157c0 67.333 -11.333 120 -34 158s-54 57 -94 57z" />
    <glyph glyph-name="one" unicode="1" horiz-adv-x="655" 
d="M440 613v-448c0 -24 9 -36 27 -36c5.33301 0 13 0.833008 23 2.5s17.667 2.5 23 2.5c43.333 0 65 -21.667 65 -65c0 -22.667 -6.33301 -40.834 -19 -54.501s-29.334 -20.5 -50.001 -20.5c-4.66699 0 -8 0.333008 -10 1l-61 7c-17.333 2 -47.666 3 -90.999 3
c-40 0 -65 -0.666992 -75 -2l-60 -8c-2.66699 -0.666992 -6.33398 -1 -11.001 -1c-22.667 0 -41 6.83301 -55 20.5s-21 31.5 -21 53.5c0 20 5.66699 36 17 48s26.333 18 45 18c6 0 15.167 -0.833008 27.5 -2.5s21.5 -2.5 27.5 -2.5c16 0 26 10.667 30 32
c0.666992 4.66699 1 22 1 52v276c0 31.333 -11.333 47 -34 47c-4 0 -11.333 -0.666992 -22 -2c-13.333 -3.33301 -24.666 -5 -33.999 -5c-38.667 0 -58 22.333 -58 67c0 22.667 7 40.834 21 54.501s32.667 20.5 56 20.5c11.333 0 28.5 -1.66699 51.5 -5s40.167 -5 51.5 -5
c14 0 33.333 2.33301 58 7c10.667 2 21.667 3 33 3c18 0 30.333 -5 37 -15c4.66699 -8 7 -22.333 7 -43z" />
    <glyph glyph-name="two" unicode="2" horiz-adv-x="655" 
d="M334 259c-60.667 -18 -100.331 -33.3311 -118.998 -45.998s-30.334 -32.334 -35.001 -59.001c30 36 68 54 114 54c33.333 0 67.833 -13.5 103.5 -40.5s61.167 -40.5 76.5 -40.5c10 0 21.333 5 34 15c-40 8 -60 30 -60 66c0 20.667 7.5 38.167 22.5 52.5
s33.5 21.5 55.5 21.5c28.667 0 52.334 -11.667 71.001 -35s28 -52.666 28 -87.999c0 -46.667 -16.167 -87.334 -48.5 -122.001s-70.166 -52 -113.499 -52c-45.333 0 -93 19.667 -143 59c-34.667 27.333 -57.334 41 -68.001 41c-6.66699 0 -13 -3.33301 -19 -10
c4 -7.33301 6 -14.333 6 -21c0 -20.667 -7.83301 -37.834 -23.5 -51.501s-35.5 -20.5 -59.5 -20.5c-34.667 0 -63.667 14.167 -87 42.5s-35 63.833 -35 106.5c0 104.667 78.333 187.667 235 249c60 23.333 98.667 41.666 116 54.999s26 31.333 26 54c0 20 -9 36 -27 48
s-41.667 18 -71 18c-28.667 0 -55.334 -6.66699 -80.001 -20c12.667 -16.667 19 -33.667 19 -51c0 -25.333 -9.33301 -46.833 -28 -64.5s-41.334 -26.5 -68.001 -26.5c-30 0 -54.5 10 -73.5 30s-28.5 45.667 -28.5 77c0 54.667 25.167 99.167 75.5 133.5
s115.833 51.5 196.5 51.5c81.333 0 145.833 -18 193.5 -54s71.5 -84.667 71.5 -146c0 -64.667 -26.333 -114.667 -79 -150c-40.667 -27.333 -100 -52.666 -178 -75.999z" />
    <glyph glyph-name="three" unicode="3" horiz-adv-x="655" 
d="M292 425l99.002 109h-143c-28.667 0 -43 -8.33301 -43 -25c0 -6 1.33301 -14.833 4 -26.5s4 -20.5 4 -26.5c0 -56.667 -26.333 -85 -79 -85c-22 0 -40 6.83301 -54 20.5s-21 31.5 -21 53.5c0 10.667 1.83301 27 5.5 49s5.5 38.333 5.5 49
c0 9.33301 -1.33301 22.833 -4 40.5s-4 30.834 -4 39.501c0 32 18.667 48 56 48h6c40 -1.33301 82 -2 126 -2l291 2c21.333 0 36 -4.5 44 -13.5s12 -25.5 12 -49.5c0 -34.667 -12.333 -65 -37 -91l-116 -121c50.667 -5.33301 90.167 -23.833 118.5 -55.5
s42.5 -73.167 42.5 -124.5c0 -70.667 -27.333 -127.334 -82 -170.001s-127.334 -64 -218.001 -64c-78.667 0 -142.667 18 -192 54s-74 82.667 -74 140c0 32 10 59 30 81s44.667 33 74 33c25.333 0 47.166 -8.5 65.499 -25.5s27.5 -37.833 27.5 -62.5
c0 -20.667 -8.33301 -40.667 -25 -60c16.667 -12.667 30.5 -20.834 41.5 -24.501s27.167 -5.5 48.5 -5.5c38 0 69 9.33301 93 28s36 42.667 36 72c0 56.667 -42 86.334 -126 89.001c-30.667 1.33301 -46 17.333 -46 48c0 26 11.333 51.333 34 76z" />
    <glyph glyph-name="four" unicode="4" horiz-adv-x="655" 
d="M506 601l-4.99805 -289h76c40 0 60 -19.667 60 -59c0 -40.667 -22.333 -61 -67 -61h-69v-15c0 -18.667 1.66699 -31.334 5 -38.001c4.66699 -10 15 -15 31 -15c1.33301 0 6.33301 0.666992 15 2c16.667 2.66699 24.667 4 24 4h6c15.333 0 27.833 -5.83301 37.5 -17.5
s14.5 -26.834 14.5 -45.501c0 -21.333 -6.16699 -38.666 -18.5 -51.999s-27.833 -20 -46.5 -20c-12.667 0 -32 2 -58 6c-17.333 2.66699 -45 4 -83 4c-47.333 0 -79.666 -1 -96.999 -3c-40.667 -4.66699 -65.667 -7 -75 -7c-22 0 -40 6.5 -54 19.5s-21 29.833 -21 50.5
c0 42.667 24.667 64 74 64c0.666992 0 16 -1.66699 46 -5c6.66699 -0.666992 13 -1 19 -1c23.333 0 35 17 35 51v15h-283c-44.667 0 -67 18.667 -67 56c0 31.333 13.667 64.333 41 99l229 293c25.333 32 65.666 48 120.999 48c41.333 0 70.166 -6.16699 86.499 -18.5
s24.166 -34.166 23.499 -65.499zM181.002 309h171l3 222z" />
    <glyph glyph-name="five" unicode="5" horiz-adv-x="655" 
d="M245 500l-8.00195 -75.002c48.667 13.333 89 20 121 20c68 0 124 -20.5 168 -61.5s66 -93.167 66 -156.5c0 -71.333 -27.333 -130 -82 -176s-124.334 -69 -209.001 -69c-70 0 -129.167 16.667 -177.5 50s-72.5 74.333 -72.5 123c0 31.333 9.66699 56.833 29 76.5
s44 29.5 74 29.5c26 0 47.5 -7.66699 64.5 -23s25.5 -34.666 25.5 -57.999c0 -15.333 -5.66699 -31 -17 -47c22.667 -14 48.334 -21 77.001 -21c34 0 62 9.16699 84 27.5s33 41.5 33 69.5c0 28.667 -12 52.5 -36 71.5s-53.667 28.5 -89 28.5
c-19.333 0 -40.666 -3 -63.999 -9c-34 -8.66699 -56 -13 -66 -13c-25.333 0 -46.666 8.5 -63.999 25.5s-26 38.167 -26 63.5c0 2 0.333008 5.66699 1 11v12l18 166c-0.666992 20.667 2.33301 48.334 9 83.001c6.66699 14.667 23.667 22 51 22
c-0.666992 0 15 -0.666992 47 -2s65.333 -1.66602 100 -0.999023l174 4h43c29.333 0 44 -12.333 44 -37c0 -10 -0.5 -18.333 -1.5 -25s-1.16699 -15.334 -0.5 -26.001l3 -53v-7c0 -20.667 -6.83301 -37.667 -20.5 -51s-31.167 -20 -52.5 -20
c-33.333 0 -55.333 17.333 -66 52c-3.33301 11.333 -7.83301 18.333 -13.5 21s-15.167 4 -28.5 4h-110c-11.333 0 -18.5 -1.66699 -21.5 -5s-5.16699 -11.333 -6.5 -24z" />
    <glyph glyph-name="six" unicode="6" horiz-adv-x="655" 
d="M357 559c-86 0 -130.667 -57.3301 -134 -171.997c56 33.333 110 50 162 50c68 0 124.667 -21 170 -63s68 -95 68 -159c0 -67.333 -25.667 -123 -77 -167s-116.333 -66 -195 -66c-92.667 0 -166.667 30 -222 90s-83 140.333 -83 241c0 113.333 29 203.666 87 270.999
s136 101 234 101c58.667 0 106.167 -12.833 142.5 -38.5s54.5 -58.834 54.5 -99.501c0 -26.667 -8.33301 -48.334 -25 -65.001s-38.667 -25 -66 -25c-24 0 -43.5 5.5 -58.5 16.5s-22.5 25.167 -22.5 42.5c0 10.667 4.33301 23 13 37c-13.333 4 -29.333 6 -48 6zM461 213.003
c0 28 -11 51.333 -33 70s-49.667 28 -83 28c-32.667 0 -60.167 -9.5 -82.5 -28.5s-33.5 -42.167 -33.5 -69.5c0 -28.667 11.167 -52.667 33.5 -72s49.833 -29 82.5 -29s60.167 9.66699 82.5 29s33.5 43.333 33.5 72z" />
    <glyph glyph-name="seven" unicode="7" horiz-adv-x="655" 
d="M107 682c18.667 0 31.667 -6 39 -18c6 -8.66699 9.66699 -23.667 11 -45c26 44 68.333 66 127 66c37.333 0 73.333 -8.66699 108 -26l46 -23c10.667 -5.33301 19.667 -8 27 -8c8.66699 0 16 4.33301 22 13l15 22c9.33301 13.333 23.666 20 42.999 20
c22 0 40.5 -9.33301 55.5 -28s22.5 -42.334 22.5 -71.001c0 -48 -18.333 -94.667 -55 -140l-51 -58c-48 -52.667 -80.5 -94.5 -97.5 -125.5s-25.5 -63.833 -25.5 -98.5c0 -11.333 1.66699 -28.5 5 -51.5s5 -40.167 5 -51.5c0 -23.333 -7.66699 -42 -23 -56s-36 -21 -62 -21
c-36 0 -64.333 13.833 -85 41.5s-31 65.834 -31 114.501c0 78 26 143.667 78 197c25.333 26 56 53.667 92 83c43.333 35.333 75.333 64.666 96 87.999c-28 -12.667 -52.667 -19 -74 -19c-28.667 0 -63.667 11.667 -105 35l-46 26c-11.333 6 -21.666 9 -30.999 9
c-20 0 -30 -11 -30 -33c0 -0.666992 0.666992 -3.66699 2 -9l9 -34c3.33301 -12.667 5 -24.334 5 -35.001c0 -53.333 -26 -80 -78 -80c-49.333 0 -74 23.333 -74 70c0 14 1 27.667 3 41c5.33301 35.333 8 56 8 62c0 8.66699 -1.66699 21.834 -5 39.501s-5 30.834 -5 39.501
c0 18.667 5.5 34 16.5 46s25.167 18 42.5 18z" />
    <glyph glyph-name="eight" unicode="8" horiz-adv-x="655" 
d="M35 194c0 75.333 41.667 131.667 125 169c-61.333 26.667 -92 70.667 -92 132c0 55.333 24.5 100.833 73.5 136.5s111.167 53.5 186.5 53.5s137.5 -18 186.5 -54s73.5 -81.667 73.5 -137c0 -60.667 -31 -104.334 -93 -131.001c84 -37.333 126 -93.666 126 -168.999
c0 -62.667 -27 -113.667 -81 -153s-124.667 -59 -212 -59s-158 19.5 -212 58.5s-81 90.167 -81 153.5zM325 563.001c-26.667 0 -48.334 -6.00098 -65.001 -18.001s-25 -27.667 -25 -47c0 -20 8.66699 -36.5 26 -49.5s39.333 -19.5 66 -19.5s49 6.5 67 19.5
s27 29.167 27 48.5c0 18.667 -9.16699 34.334 -27.5 47.001s-41.166 19 -68.499 19zM328 301c-38 0 -69.168 -8.83301 -93.501 -26.5s-36.5 -40.167 -36.5 -67.5s11.667 -49.5 35 -66.5s54.333 -25.5 93 -25.5c39.333 0 71 8.5 95 25.5s36 39.167 36 66.5
c0 26.667 -12.167 49 -36.5 67s-55.166 27 -92.499 27z" />
    <glyph glyph-name="nine" unicode="9" horiz-adv-x="655" 
d="M408 163c14 22.667 24.3311 54.001 30.998 94.001c-58 -31.333 -111.333 -47 -160 -47c-69.333 0 -126.5 21.5 -171.5 64.5s-67.5 97.5 -67.5 163.5c0 73.333 24.833 132.833 74.5 178.5s114.167 68.5 193.5 68.5c94 0 168.5 -30.333 223.5 -91s82.5 -142.667 82.5 -246
c0 -112.667 -29.667 -201.834 -89 -267.501s-140.333 -98.5 -243 -98.5c-62 0 -113 11.833 -153 35.5s-60 53.5 -60 89.5c0 26 9.33301 47.333 28 64s42.334 25 71.001 25c25.333 0 46.333 -6.33301 63 -19s25 -28.667 25 -48c0 -4.66699 -1 -11 -3 -19c12 -4 23 -6 33 -6
c56.667 0 97.334 19.667 122.001 59zM432.998 450.001c0 27.333 -11.667 51.668 -35 73.001s-50 32 -80 32c-29.333 0 -55.166 -10.5 -77.499 -31.5s-33.5 -45.5 -33.5 -73.5c0 -30 10.667 -55 32 -75s47.666 -30 78.999 -30c32.667 0 60 10.167 82 30.5
s33 45.166 33 74.499z" />
    <glyph glyph-name="colon" unicode=":" horiz-adv-x="328" 
d="M164 -17c-28 0 -51.833 10 -71.5 30s-29.5 44 -29.5 72s9.83301 51.833 29.5 71.5s43.5 29.5 71.5 29.5s51.833 -9.83301 71.5 -29.5s29.5 -43.5 29.5 -71.5s-9.83301 -52 -29.5 -72s-43.5 -30 -71.5 -30zM164 314c-28 0 -51.833 9.83301 -71.5 29.5
s-29.5 43.5 -29.5 71.5s9.83301 52 29.5 72s43.5 30 71.5 30s51.833 -10 71.5 -30s29.5 -44 29.5 -72s-9.83301 -51.833 -29.5 -71.5s-43.5 -29.5 -71.5 -29.5z" />
    <glyph glyph-name="semicolon" unicode=";" horiz-adv-x="328" 
d="M54 88c0 28 9.16699 51.833 27.5 71.5s40.833 29.5 67.5 29.5c32.667 0 60.167 -13.667 82.5 -41s33.5 -61 33.5 -101c0 -80.667 -36 -164.667 -108 -252c-17.333 -21.333 -33.333 -32 -48 -32c-24.667 0 -37 13.667 -37 41c0 16 7.33301 34.667 22 56
c37.333 54 56 91 56 111c0 10 -7.33301 17 -22 21c-49.333 14 -74 46 -74 96zM155 314c-28 0 -51.833 9.83301 -71.5 29.5s-29.5 43.5 -29.5 71.5s9.83301 52 29.5 72s43.5 30 71.5 30s52 -10 72 -30s30 -44 30 -72s-10 -51.833 -30 -71.5s-44 -29.5 -72 -29.5z" />
    <glyph glyph-name="less" unicode="&#x3c;" horiz-adv-x="500" 
d="M33 389l434 220v-128l-297 -147l296 -148l1 -128l-434 222v109z" />
    <glyph glyph-name="equal" unicode="=" horiz-adv-x="500" 
d="M33 370v113h434v-113h-434zM33 197v113h434v-113h-434z" />
    <glyph glyph-name="greater" unicode="&#x3e;" horiz-adv-x="500" 
d="M467 279l-434 -221v129l297 147l-296 147l-1 128l434 -221v-109z" />
    <glyph glyph-name="question" unicode="?" horiz-adv-x="619" 
d="M288 -17c-26 0 -48.167 9.33301 -66.5 28s-27.5 41 -27.5 67s9.16699 48.333 27.5 67s40.5 28 66.5 28s48.333 -9.33301 67 -28s28 -41 28 -67s-9.33301 -48.333 -28 -67s-41 -28 -67 -28zM313 553c-36.667 0 -64.999 -9 -84.999 -27
c20.667 -16.667 31 -35.334 31 -56.001c0 -26 -10 -48.167 -30 -66.5s-44 -27.5 -72 -27.5c-30.667 0 -55.667 10.167 -75 30.5s-29 46.833 -29 79.5c0 57.333 26.333 104.833 79 142.5s119.334 56.5 200.001 56.5c78.667 0 142 -19.333 190 -58s72 -89.667 72 -153
c0 -28 -5.83301 -55.167 -17.5 -81.5s-27.167 -46.5 -46.5 -60.5c-25.333 -19.333 -65 -35 -119 -47c-16 -3.33301 -26.333 -7.33301 -31 -12s-7.33398 -12.667 -8.00098 -24c-0.666992 -18.667 -4.33398 -30.667 -11.001 -36s-21.334 -8.66602 -44.001 -9.99902l-28 -2h-10
c-26 0 -44 5.16699 -54 15.5s-15 28.833 -15 55.5c0 34 7.83301 59.167 23.5 75.5s44.5 29.166 86.5 38.499c65.333 14.667 98 43.334 98 86.001c0 24 -9.66699 43.5 -29 58.5s-44.666 22.5 -75.999 22.5z" />
    <glyph glyph-name="at" unicode="@" horiz-adv-x="733" 
d="M465 454l6.99805 37.999l89 -1l-37 -189c-4 -20.667 -6 -35.334 -6 -44.001c0 -20.667 7.33301 -31 22 -31c15.333 0 30.333 10.667 45 32c24.667 35.333 37 77 37 125c0 62.667 -21.667 114 -65 154s-99.333 60 -168 60c-76 0 -139.833 -26.167 -191.5 -78.5
s-77.5 -116.833 -77.5 -193.5c0 -55.333 14.667 -105.666 44 -150.999s67.333 -75.666 114 -90.999c32 -10.667 69.333 -16 112 -16c57.333 0 117.333 10 180 30l20 -80c-62 -20 -129.667 -30 -203 -30c-102 0 -184.667 29.667 -248 89c-70.667 66.667 -106 150 -106 250
c0 98.667 34 181.834 102 249.501s151.333 101.5 250 101.5c90.667 0 165.834 -27.833 225.501 -83.5s89.5 -125.834 89.5 -210.501c0 -60.667 -16.5 -114.167 -49.5 -160.5s-71.167 -69.5 -114.5 -69.5c-18.667 0 -35.167 5 -49.5 15s-23.833 23 -28.5 39
c-29.333 -42 -70.666 -63 -123.999 -63c-40 0 -73.5 15 -100.5 45s-40.5 67.333 -40.5 112c0 53.333 17.5 100 52.5 140s75.833 60 122.5 60c44 0 76.333 -16 97 -48zM442.998 339.999l-1.00293 5c-1.33301 19.333 -7.66602 34.833 -18.999 46.5s-25.666 17.5 -42.999 17.5
c-22.667 0 -42.5 -10.333 -59.5 -31s-25.5 -44.667 -25.5 -72c0 -20.667 5.83301 -37.5 17.5 -50.5s26.834 -19.5 45.501 -19.5c22.667 0 42.5 10.333 59.5 31s25.5 45 25.5 73z" />
    <glyph glyph-name="A" unicode="A" horiz-adv-x="801" 
d="M477 207l-133.004 -0.00292969c-38 0 -57 -22.667 -57 -68c0 -10.667 5.66699 -16 17 -16c3.33301 0 8.33301 0.5 15 1.5s11.667 1.5 15 1.5c24.667 0 37 -19.667 37 -59c0 -21.333 -5.66699 -38.666 -17 -51.999s-26.333 -20 -45 -20c-9.33301 0 -30 2.33301 -62 7
c-14 2 -33.667 3 -59 3c-27.333 0 -48.666 -1 -63.999 -3c-35.333 -4.66699 -56.333 -7 -63 -7c-20.667 0 -37.5 6.33301 -50.5 19s-19.5 29.334 -19.5 50.001c0 46.667 17.667 70 53 70c4 0 10.333 -0.5 19 -1.5s15 -1.5 19 -1.5c12.667 0 23 7 31 21
c2 4 6.66699 16.333 14 37l138 393c16 44.667 34 72.667 54 84c14.667 7.33301 47 11 97 11c56 0 91.333 -3.5 106 -10.5s26.667 -26.5 36 -58.5l128 -426c10 -34 21.667 -51 35 -51c4 0 11 1 21 3h11c37.333 0 56 -22 56 -66c0 -22 -6.66699 -39.667 -20 -53
s-30.666 -20 -51.999 -20c-9.33301 0 -21.666 1 -36.999 3c-18.667 3.33301 -31 5 -37 5c-14.667 1.33301 -33.667 2 -57 2c-25.333 0 -42.333 -0.666992 -51 -2c-34 -5.33301 -55.333 -8 -64 -8c-18 0 -32.833 6.83301 -44.5 20.5s-17.5 30.834 -17.5 51.501
c0 39.333 12.667 59 38 59c3.33301 0 8.33301 -0.5 15 -1.5s11.667 -1.5 15 -1.5c12.667 0 19 7 19 21c0 18 -3.66699 33 -11 45s-16.666 18 -27.999 18zM461.996 359.997l-48 205.001l-62 -213c-0.666992 -2 -1 -4.33301 -1 -7c0 -8 8.33301 -12 25 -12h62
c17.333 0 26 4.66699 26 14c0 -0.666992 -0.666992 3.66602 -2 12.999z" />
    <glyph glyph-name="B" unicode="B" horiz-adv-x="746" 
d="M683 507c0 -73.333 -40.999 -119.669 -122.999 -139.002l25 -10c52 -20.667 86.333 -48 103 -82c12.667 -26 19 -53 19 -81c0 -63.333 -22.833 -112.5 -68.5 -147.5s-109.5 -52.5 -191.5 -52.5c-26 0 -53.333 1 -82 3l-71 5c-18.667 1.33301 -39 2 -61 2
c-16 0 -39.333 -1.66699 -70 -5s-52.667 -5 -66 -5h-8c-21.333 0 -38.5 6.66699 -51.5 20s-19.5 31 -19.5 53c0 18.667 5.16699 34.334 15.5 47.001s23.166 19 38.499 19c6 0 14.167 -1.16699 24.5 -3.5s18.166 -3.5 23.499 -3.5c18 0 27 22.667 27 68v277
c0 44.667 -9 67 -27 67c-5.33301 0 -13.166 -1.16699 -23.499 -3.5s-18.5 -3.5 -24.5 -3.5c-15.333 0 -28.166 6.33301 -38.499 19s-15.5 28.334 -15.5 47.001c0 22 6.5 39.833 19.5 53.5s30.167 20.5 51.5 20.5h4c2 -0.666992 3.33301 -1 4 -1l71 -7c20 -2 46.667 -3 80 -3
c26 0 46.667 0.666992 62 2l68 6c15.333 1.33301 37.666 2 66.999 2c44 0 83.667 -4.66699 119 -14s64 -27.833 86 -55.5s33 -59.167 33 -94.5zM319.001 439.997c0 -13.333 2.66699 -21.667 8 -25c3.33301 -2.66699 11.666 -4 24.999 -4h31c34.667 0 62.167 6.33301 82.5 19
s30.5 29.667 30.5 51c0 44.667 -34.667 67 -104 67c-25.333 0 -42.666 -2 -51.999 -6c-14 -6.66699 -21 -21 -21 -43v-59zM520.001 201.996c0 27.333 -12.3311 49.333 -36.998 66s-57.334 25 -98.001 25h-30c-14.667 0 -24.334 -2.16699 -29.001 -6.5s-7 -12.5 -7 -24.5v-73
c0 -25.333 7.33301 -42.833 22 -52.5s41.334 -14.5 80.001 -14.5c29.333 0 53.166 7.33301 71.499 22s27.5 34 27.5 58z" />
    <glyph glyph-name="C" unicode="C" horiz-adv-x="637" 
d="M314 685c64 0 119.666 -23.333 166.999 -70c-0.666992 2 -1 5.33301 -1 10c0 37.333 20 56 60 56c18.667 0 33.834 -5.83301 45.501 -17.5s17.5 -26.834 17.5 -45.501c0 -8.66699 -1 -21.334 -3 -38.001c-3.33301 -27.333 -5 -47 -5 -59
c0 -8.66699 1.16699 -21.5 3.5 -38.5s3.5 -29.833 3.5 -38.5c0 -20.667 -7.5 -37.334 -22.5 -50.001s-34.5 -19 -58.5 -19c-50.667 0 -75.334 21 -74.001 63l1 31c0.666992 22 -8.33301 40.167 -27 54.5s-42.334 21.5 -71.001 21.5c-89.333 0 -134 -70.667 -134 -212
c0 -73.333 10.833 -126.833 32.5 -160.5s56.167 -50.5 103.5 -50.5c29.333 0 53.333 6.83301 72 20.5s27.667 31.5 27 53.5l-1 36c-0.666992 20.667 6 37.334 20 50.001s32 19 54 19c28 0 50.167 -9.33301 66.5 -28s24.5 -44 24.5 -76
c0 -63.333 -25.167 -115.166 -75.5 -155.499s-115.166 -60.5 -194.499 -60.5c-97.333 0 -174.166 31 -230.499 93s-84.5 146.667 -84.5 254c0 110.667 25.333 197.834 76 261.501s120 95.5 208 95.5z" />
    <glyph glyph-name="D" unicode="D" horiz-adv-x="746" 
d="M120 127c18 0 26.999 22.665 26.999 67.998v277c0 44.667 -9 67 -27 67c-5.33301 0 -13.166 -1.16699 -23.499 -3.5s-18.5 -3.5 -24.5 -3.5c-15.333 0 -28.166 6.33301 -38.499 19s-15.5 28.334 -15.5 47.001c0 22 6.66699 39.667 20 53s30.666 20 51.999 20
c11.333 0 34.666 -2 69.999 -6c23.333 -2.66699 45.666 -4 66.999 -4c8 0 26.667 1 56 3l73 5c19.333 1.33301 38.333 2 57 2c120.667 0 207 -51 259 -153c29.333 -57.333 44 -119 44 -185s-14 -126.667 -42 -182s-65.333 -96 -112 -122
c-41.333 -22.667 -90.666 -34 -147.999 -34c-22.667 0 -42 0.666992 -58 2l-73 6c-16 1.33301 -34.667 2 -56 2c-26.667 0 -49 -1 -67 -3l-40 -4c-15.333 -2 -25.333 -3 -30 -3c-21.333 0 -38.666 6.66699 -51.999 20s-20 31 -20 53c0 18.667 5.16699 34.334 15.5 47.001
s23.166 19 38.499 19c6 0 14.333 -1.16699 25 -3.5s18.334 -3.5 23.001 -3.5zM379.999 542.998c-22.667 0 -37.835 -3.49902 -45.502 -10.499s-11.5 -20.833 -11.5 -41.5v-315c0 -20.667 3.83301 -34.667 11.5 -42s22.834 -11 45.501 -11c36.667 0 69.667 15 99 45
c34 35.333 51 87.666 51 156.999c0 78 -17 135.667 -51 173c-15.333 16.667 -32 28.667 -50 36c-15.333 6 -31.666 9 -48.999 9z" />
    <glyph glyph-name="E" unicode="E" horiz-adv-x="746" 
d="M382 545c-22 0 -36.667 -2 -44 -6c-10 -6 -15 -19.333 -15 -40v-56c0 -11.333 1.5 -19.833 4.5 -25.5s10.833 -8.5 23.5 -8.5c29.333 0 44 10.667 44 32v13c-0.666992 4 -1 9 -1 15c0 28 16.333 42 49 42c34 0 51 -17 51 -51c0 -9.33301 -0.666992 -19.666 -2 -30.999
c-2.66699 -22 -4 -42.333 -4 -61c0 -17.333 1.33301 -39.333 4 -66s4 -45.334 4 -56.001c0 -39.333 -17.667 -59 -53 -59c-33.333 0 -50 17 -50 51v5c0 3.33301 0.666992 11.333 2 24c0 16 -14.333 24 -43 24c-19.333 0 -29 -10.667 -29 -32v-75
c0 -23.333 4.16699 -39.166 12.5 -47.499s23.833 -12.5 46.5 -12.5h58c42.667 0 72.5 3.66699 89.5 11s25.5 20.333 25.5 39c0 9.33301 -1 20.5 -3 33.5s-3 23.833 -3 32.5c0 24.667 7 44 21 58s33 21 57 21c48.667 0 73 -26.667 73 -80c0 -17.333 -1 -35.666 -3 -54.999
c-3.33301 -32 -5 -52 -5 -60c0 -7.33301 1.66699 -21.666 5 -42.999c2 -12.667 3 -25.667 3 -39c0 -31.333 -19.667 -47 -59 -47c-12.667 0 -33.667 1 -63 3c-48.667 3.33301 -126.334 5.66602 -233.001 6.99902h-89c-33.333 0 -61 -1 -83 -3l-76 -7
c-0.666992 0 -2 -0.333008 -4 -1h-5c-20.667 0 -37.5 7 -50.5 21s-19.5 31.667 -19.5 53c0 18.667 5.16699 34.334 15.5 47.001s23.5 19 39.5 19c5.33301 0 13.333 -1.16699 24 -3.5s18.334 -3.5 23.001 -3.5c18 0 27 22.667 27 68v277c0 44.667 -9 67 -27 67
c-4 0 -12 -1.33301 -24 -4c-8.66699 -2 -16.334 -3 -23.001 -3c-15.333 0 -28.333 6.33301 -39 19s-16 28.334 -16 47.001c0 48.667 24.333 73 73 73c11.333 0 34.333 -1.33301 69 -4c52 -4 102.333 -6 151 -6c4.66699 0 44.667 1 120 3
c54.667 1.33301 90.667 2.66602 108 3.99902c28.667 2 58.667 3 90 3c37.333 0 56 -16.333 56 -49c0 -10.667 -1.16699 -26.334 -3.5 -47.001s-3.5 -36.334 -3.5 -47.001s1.5 -25.834 4.5 -45.501s4.5 -34.5 4.5 -44.5c0 -19.333 -7.16699 -35.666 -21.5 -48.999
s-32.166 -20 -53.499 -20c-50 0 -75 25.667 -75 77c0 8.66699 1.5 20.667 4.5 36s4.5 26.666 4.5 33.999c0 14.667 -7.66699 23.667 -23 27c-5.33301 1.33301 -19.333 2 -42 2h-99z" />
    <glyph glyph-name="F" unicode="F" horiz-adv-x="710" 
d="M323 261l-0.00390625 -57.998l1 -34c0 -10.667 1 -19 3 -25c3.33301 -11.333 12.333 -17 27 -17c7.33301 0 18 1.16699 32 3.5s24.667 3.5 32 3.5c39.333 0 59 -22.667 59 -68c0 -21.333 -6.83301 -38.5 -20.5 -51.5s-31.834 -19.5 -54.501 -19.5
c-17.333 0 -43.166 1.66699 -77.499 5s-60.166 5 -77.499 5c-34 0 -61 -1 -81 -3c-46 -4.66699 -71.667 -7 -77 -7c-21.333 0 -38.5 6.66699 -51.5 20s-19.5 31 -19.5 53c0 19.333 5.16699 35.166 15.5 47.499s23.5 18.5 39.5 18.5c5.33301 0 13.333 -1.16699 24 -3.5
s18.334 -3.5 23.001 -3.5c13.333 0 21.666 8.66699 24.999 26c1.33301 6.66699 2 20.667 2 42v277c0 21.333 -0.666992 35 -2 41c-3.33301 17.333 -11.666 26 -24.999 26c-5.33301 0 -13.166 -1.16699 -23.499 -3.5s-18.5 -3.5 -24.5 -3.5
c-15.333 0 -28.166 6.33301 -38.499 19s-15.5 28.334 -15.5 47.001c0 48.667 24.667 73 74 73c15.333 0 40 -1.33301 74 -4c51.333 -4 93.333 -6 126 -6c22.667 0 48 0.333008 76 1c18.667 0.666992 56 1.33398 112 2.00098c22.667 0 50.334 0.666992 83.001 2l60 5
c8 0.666992 11.333 1 10 1c33.333 0 50 -14.667 50 -44c0 -12 -1.33301 -25.333 -4 -40c-4 -22 -6 -40 -6 -54c0 -10.667 1.83301 -26.334 5.5 -47.001s5.5 -36.334 5.5 -47.001c0 -23.333 -7 -42.333 -21 -57s-32.333 -22 -55 -22s-40.5 7.33301 -53.5 22
s-19.5 34.334 -19.5 59.001c0 7.33301 1.33301 20 4 38c2 13.333 3 23.666 3 30.999c0 22.667 -16.667 34 -50 34h-109c-26 0 -42.5 -3.16699 -49.5 -9.5s-10.5 -23.5 -10.5 -51.5v-47c0 -20.667 9 -31 27 -31c28 0 42 9.66699 42 29c0 2 -0.666992 8.33301 -2 19v8
c-0.666992 3.33301 -1 5.66602 -1 6.99902c0 26 15.667 39 47 39c36.667 0 55 -17.333 55 -52c0 -6.66699 -0.666992 -17.334 -2 -32.001s-2 -33.667 -2 -57c0 -13.333 1.33301 -33.5 4 -60.5s4 -47.167 4 -60.5c0 -40.667 -17.333 -61 -52 -61c-35.333 0 -53 18.667 -53 56
c0 1.33301 0.333008 3.33301 1 6v5v11c0 16.667 -12.667 25 -38 25c-12.667 0 -20.834 -1.66699 -24.501 -5s-5.5 -10.666 -5.5 -21.999z" />
    <glyph glyph-name="G" unicode="G" horiz-adv-x="710" 
d="M320 685c70 0 128.332 -23.666 174.999 -70.999c6 39.333 26 59 60 59c41.333 0 62 -20 62 -60c0 -6.66699 -1.33301 -20 -4 -40c-4 -30 -6 -50.333 -6 -61c0 -12 0.666992 -21 2 -27c1.33301 -21.333 2 -33.333 2 -36c0 -17.333 -7.66699 -31.833 -23 -43.5
s-35 -17.5 -59 -17.5c-38.667 0 -62 19 -70 57s-19.5 64.167 -34.5 78.5s-38.833 21.5 -71.5 21.5c-43.333 0 -76.833 -20.167 -100.5 -60.5s-35.5 -97.5 -35.5 -171.5c0 -62.667 11.5 -111.5 34.5 -146.5s54.833 -52.5 95.5 -52.5c26 0 47.5 7.5 64.5 22.5
s25.5 33.833 25.5 56.5c0 28 -11.667 42 -35 42h-6c-2.66699 -0.666992 -5 -1 -7 -1c-10.667 -1.33301 -16.667 -2 -18 -2c-13.333 0 -24.666 5.83301 -33.999 17.5s-14 26.167 -14 43.5c0 20 6.66699 36 20 48s30.666 18 51.999 18c14 0 35.167 -1.83301 63.5 -5.5
s49.833 -5.5 64.5 -5.5c22 0 46.333 1.66699 73 5c21.333 2.66699 36 4 44 4c21.333 0 38.5 -6.5 51.5 -19.5s19.5 -30.5 19.5 -52.5c0 -19.333 -4.66699 -35.5 -14 -48.5s-21 -19.5 -35 -19.5l-24 2c-18 0 -27 -15 -27 -45c0 -12.667 0.333008 -26 1 -40l2 -43
c0.666992 -14.667 1 -28.667 1 -42c0 -44.667 -24.667 -67 -74 -67c-46.667 0 -70 16.333 -70 49v6c-46 -36.667 -98.333 -55 -157 -55c-51.333 0 -99.666 13.5 -144.999 40.5s-78.333 62.167 -99 105.5c-26.667 55.333 -40 119.666 -40 192.999c0 112 26 200.667 78 266
s122.667 98 212 98z" />
    <glyph glyph-name="H" unicode="H" horiz-adv-x="856" 
d="M323 483l-0.00488281 -69.999h210v70c0 20.667 -0.333008 32 -1 34c-2 14 -8.33301 21 -19 21c-4.66699 0 -8.66699 -0.333008 -12 -1h-9c-29.333 0 -44 20.333 -44 61c0 22 6.16699 39.667 18.5 53s28.5 20 48.5 20c13.333 0 33.333 -1.66699 60 -5s46.667 -5 60 -5
c17.333 0 39 1.33301 65 4c45.333 4.66699 67.666 7 66.999 7c21.333 0 38.5 -6.83301 51.5 -20.5s19.5 -31.5 19.5 -53.5c0 -18.667 -5.16699 -34.334 -15.5 -47.001s-23.166 -19 -38.499 -19c-6 0 -14.167 1.16699 -24.5 3.5s-18.166 3.5 -23.499 3.5
c-13.333 0 -22 -8.33301 -26 -25c-1.33301 -6.66699 -2 -20.667 -2 -42v-277c0 -45.333 9 -68 27 -68c5.33301 0 13.333 1.16699 24 3.5s18.667 3.5 24 3.5c15.333 0 28.333 -6.33301 39 -19s16 -28.334 16 -47.001c0 -22 -6.5 -39.833 -19.5 -53.5
s-30.167 -20.5 -51.5 -20.5h-4c-1.33301 0.666992 -2.66602 1 -3.99902 1c-13.333 0 -33.333 1.66699 -60 5s-47 5 -61 5c-26 0 -48 -1.33301 -66 -4c-27.333 -4 -46.666 -6 -57.999 -6c-19.333 0 -35.166 6.83301 -47.499 20.5s-18.5 31.5 -18.5 53.5
c0 40.667 14.667 61 44 61c4 0 7 -0.333008 9 -1h7c2.66699 -0.666992 4.33398 -1 5.00098 -1c10.667 0 17 7.33301 19 22c0.666992 7.33301 1 18.666 1 33.999v99h-210v-99v-35c2 -14 8.66699 -21 20 -21c0.666992 0 2.33398 0.333008 5.00098 1h6c2 0.666992 5 1 9 1
c29.333 0 44 -20.333 44 -61c0 -22 -6.16699 -39.833 -18.5 -53.5s-28.166 -20.5 -47.499 -20.5c-12 0 -30.167 1.66699 -54.5 5s-42.833 5 -55.5 5c-28.667 0 -53.667 -1.33301 -75 -4c-32 -4 -54.333 -6 -67 -6c-21.333 0 -38.5 6.66699 -51.5 20s-19.5 31 -19.5 53
c0 18.667 5.33301 34.334 16 47.001s23.667 19 39 19c5.33301 0 13.166 -1.16699 23.499 -3.5s18.166 -3.5 23.499 -3.5c18 0 27 22.667 27 68v277c0 44.667 -9 67 -27 67c-5.33301 0 -13.166 -1.16699 -23.499 -3.5s-18.5 -3.5 -24.5 -3.5
c-15.333 0 -28.166 6.33301 -38.499 19s-15.5 28.334 -15.5 47.001c0 22 6.66699 39.667 20 53s30.666 20 51.999 20c6.66699 0 28 -2 64 -6c24 -2.66699 48 -4 72 -4c20.667 0 40 1.33301 58 4c26.667 4 45.667 6 57 6c20 0 36 -6.83301 48 -20.5s18 -31.5 18 -53.5
c0 -40 -14.667 -60 -44 -60h-9c-2.66699 0.666992 -6.33398 1 -11.001 1c-11.333 0 -18 -7 -20 -21v-34z" />
    <glyph glyph-name="I" unicode="I" horiz-adv-x="473" 
d="M120 127c13.333 0 21.665 8.66895 24.998 26.002c1.33301 6.66699 2 20.667 2 42v277c0 21.333 -0.666992 35 -2 41c-3.33301 17.333 -11.666 26 -24.999 26c-5.33301 0 -13.166 -1.16699 -23.499 -3.5s-18.5 -3.5 -24.5 -3.5c-15.333 0 -28.166 6.33301 -38.499 19
s-15.5 28.334 -15.5 47.001c0 22.667 6.5 40.5 19.5 53.5s30.5 19.5 52.5 19.5c10 0 33.333 -2 70 -6c24.667 -2.66699 48.667 -4 72 -4c18.667 0 45.5 1.66699 80.5 5s58.167 5 69.5 5c48.667 0 73 -24.333 73 -73c0 -18.667 -5.16699 -34.334 -15.5 -47.001
s-23.166 -19 -38.499 -19c-5.33301 0 -13.333 1.16699 -24 3.5s-18.667 3.5 -24 3.5c-18 0 -27 -22.333 -27 -67v-277c0 -45.333 9 -68 27 -68c5.33301 0 13.333 1.16699 24 3.5s18.667 3.5 24 3.5c15.333 0 28.166 -6.33301 38.499 -19s15.5 -28.334 15.5 -47.001
c0 -21.333 -6.5 -39 -19.5 -53s-29.5 -21 -49.5 -21c-4 0 -7 0.333008 -9 1l-63 8c-16 2 -33.667 3 -53 3c-30 0 -61.333 -1.66699 -94 -5c-39.333 -4 -65 -6 -77 -6c-21.333 0 -38.666 6.66699 -51.999 20s-20 31 -20 53c0 19.333 5.16699 35.166 15.5 47.499
s23.5 18.5 39.5 18.5c5.33301 0 13.166 -1.16699 23.499 -3.5s18.166 -3.5 23.499 -3.5z" />
    <glyph glyph-name="J" unicode="J" horiz-adv-x="674" 
d="M231 163c-24 0 -42.334 12.665 -55.001 37.998c-7.33301 -10 -11 -19.667 -11 -29c0 -18 8.16699 -32.833 24.5 -44.5s37.166 -17.5 62.499 -17.5c45.333 0 79 16.333 101 49c14 20.667 21 53 21 97v231c0 18.667 -2 31.334 -6 38.001c-5.33301 9.33301 -16 14 -32 14
c-7.33301 0 -18.166 -1.16699 -32.499 -3.5s-25.166 -3.5 -32.499 -3.5c-14.667 0 -26.834 6 -36.501 18s-14.5 27.667 -14.5 47c0 22.667 6.83301 40.667 20.5 54s31.5 20 53.5 20c14.667 0 33.667 -1.33301 57 -4c34.667 -4 70.334 -6 107.001 -6
c22 0 48.833 1.66699 80.5 5s52.167 5 61.5 5c23.333 0 42.333 -6.66699 57 -20s22 -30.666 22 -51.999c0 -18.667 -5.66699 -34.5 -17 -47.5s-25.666 -19.5 -42.999 -19.5c-8.66699 0 -17 1.33301 -25 4c-14 2 -20.667 3 -20 3c-16.667 0 -25 -17.333 -25 -52v-263
c0 -43.333 -5.5 -78 -16.5 -104s-30.167 -50 -57.5 -72c-54.667 -44 -121.334 -66 -200.001 -66c-74.667 0 -136.667 19.167 -186 57.5s-74 86.833 -74 145.5c0 47.333 16.333 87.833 49 121.5s71.667 50.5 117 50.5c36 0 66.667 -10.5 92 -31.5s38 -46.5 38 -76.5
c0 -24 -7.83301 -44.333 -23.5 -61s-34.5 -25 -56.5 -25z" />
    <glyph glyph-name="K" unicode="K" horiz-adv-x="819" 
d="M323 482l-0.00292969 -108.001l145 134c23.333 21.333 35 37 35 47c0 5.33301 -1.33301 9.33301 -4 12s-7 5.66699 -13 9c-12.667 9.33301 -19 21.666 -19 36.999c0 17.333 6 31.333 18 42s27.667 16 47 16c12.667 0 31.167 -1.66699 55.5 -5s42.833 -5 55.5 -5
c14 0 33.333 2 58 6c16.667 2.66699 31 4 43 4c22 0 39.5 -6.16699 52.5 -18.5s19.5 -29.166 19.5 -50.499c0 -19.333 -5.16699 -35.833 -15.5 -49.5s-22.5 -20.5 -36.5 -20.5c-4.66699 0 -11.167 1.16699 -19.5 3.5s-14.833 3.5 -19.5 3.5c-8 0 -19.333 -5.66699 -34 -17
l-18 -14l-97 -85c-20 -17.333 -30 -29.666 -30 -36.999c0 -4 3.66699 -12.333 11 -25l26 -46l71 -121c26 -44.667 46.667 -67 62 -67c4 0 10.833 1.16699 20.5 3.5s17.167 3.5 22.5 3.5c36 0 54 -22 54 -66c0 -22 -6.66699 -39.667 -20 -53s-31 -20 -53 -20
c-12.667 0 -27.667 1.33301 -45 4c-26 4 -49.333 6 -70 6c-12 0 -29.833 -1.66699 -53.5 -5s-41.5 -5 -53.5 -5c-17.333 0 -32 5.33301 -44 16s-18 24 -18 40c0 15.333 9.33301 30.666 28 45.999c8.66699 6.66699 13 14 13 22c0 7.33301 -5.33301 20.333 -16 39l-53 92
c-12 21.333 -20.333 32 -25 32c-4 0 -7.66699 -1.66699 -11 -5l-10 -10l-59 -49v-34v-35c2 -14 8.66699 -21 20 -21c0.666992 0 2.33398 0.333008 5.00098 1h6c2 0.666992 5 1 9 1c29.333 0 44 -20.667 44 -62c0 -22 -6 -39.667 -18 -53s-28.333 -20 -49 -20
c-9.33301 0 -23 1.33301 -41 4c-20.667 2.66699 -34.667 4.33398 -42 5.00098c-10 0.666992 -21.667 1 -35 1c-15.333 0 -37.5 -1.66699 -66.5 -5s-50.833 -5 -65.5 -5c-21.333 0 -38.666 6.66699 -51.999 20s-20 31 -20 53c0 19.333 5.16699 35.166 15.5 47.499
s23.5 18.5 39.5 18.5c5.33301 0 13.166 -1.16699 23.499 -3.5s18.166 -3.5 23.499 -3.5c18 0 27 22.667 27 68v277c0 21.333 -0.666992 35 -2 41c-3.33301 17.333 -11.666 26 -24.999 26c-5.33301 0 -13.166 -1.16699 -23.499 -3.5s-18.5 -3.5 -24.5 -3.5
c-15.333 0 -28.166 6.33301 -38.499 19s-15.5 28.334 -15.5 47.001c0 22.667 6.5 40.5 19.5 53.5s30.5 19.5 52.5 19.5c14.667 0 37.167 -1.66699 67.5 -5s53.5 -5 69.5 -5c12.667 0 31.667 1.66699 57 5s44.333 5 57 5c20 0 36 -6.66699 48 -20s18 -31.333 18 -54
c0 -40 -14.667 -60 -44 -60h-9c-2.66699 0.666992 -6.66699 1 -12 1c-10.667 0 -17 -7 -19 -21v-35z" />
    <glyph glyph-name="L" unicode="L" 
d="M355 539c-21.333 0 -31.999 -18.3301 -31.999 -54.9971v-282c0 -26 1 -42.333 3 -49c5.33301 -17.333 16.666 -27.333 33.999 -30c4 -0.666992 9 -1.16699 15 -1.5s12.667 -0.5 20 -0.5h49c54 0 81 16.667 81 50c0 10 -1.33301 20.667 -4 32
c-3.33301 16.667 -5 29.667 -5 39c0 21.333 8 39.166 24 53.499s36 21.5 60 21.5c53.333 0 80 -26.333 80 -79c0 -6 -0.333008 -13.333 -1 -22s-1.66699 -18.667 -3 -30s-2.33301 -21.333 -3 -30s-1 -15.667 -1 -21c0 -6.66699 0.166992 -13.334 0.5 -20.001
s0.833008 -13.334 1.5 -20.001c1.33301 -13.333 2.33301 -23.833 3 -31.5s1 -12.167 1 -13.5c0 -36.667 -21.667 -55 -65 -55c-11.333 0 -25 0.333008 -41 1s-34.667 1.66699 -56 3c-64 4 -156 6 -276 6c-18 0 -34.167 -0.5 -48.5 -1.5s-27.5 -2.33301 -39.5 -4
s-23.167 -3 -33.5 -4s-20.5 -1.5 -30.5 -1.5c-20.667 0 -37.5 7 -50.5 21s-19.5 31.667 -19.5 53c0 19.333 5.16699 35.166 15.5 47.499s23.5 18.5 39.5 18.5c5.33301 0 13.166 -1.16699 23.499 -3.5s18.166 -3.5 23.499 -3.5c18 0 27 22.667 27 68v277
c0 44.667 -9 67 -27 67c-5.33301 0 -13.166 -1.16699 -23.499 -3.5s-18.5 -3.5 -24.5 -3.5c-15.333 0 -28.166 6.33301 -38.499 19s-15.5 28.334 -15.5 47.001c0 48.667 24.667 73 74 73c9.33301 0 38 -2 86 -6c16 -1.33301 31.167 -2.33301 45.5 -3s28.166 -1 41.499 -1
c11.333 0 22.333 0.333008 33 1s21.334 1.66699 32.001 3c32 4 55 6 69 6c22 0 39.5 -6.5 52.5 -19.5s19.5 -30.5 19.5 -52.5c0 -19.333 -5 -35.333 -15 -48s-22.667 -19 -38 -19c-7.33301 0 -17.833 1.16699 -31.5 3.5s-24.167 3.5 -31.5 3.5z" />
    <glyph glyph-name="M" unicode="M" horiz-adv-x="1074" 
d="M456 609l83 -364.998l87 350c7.33301 29.333 15.5 49.5 24.5 60.5s21.833 16.5 38.5 16.5c14.667 0 37 -1.66699 67 -5s52.667 -5 68 -5c16 0 55.667 2.66699 119 8c18 1.33301 31.333 2 40 2c22 0 39.667 -6.5 53 -19.5s20 -30.833 20 -53.5
c0 -18.667 -5.16699 -34.334 -15.5 -47.001s-23.166 -19 -38.499 -19c-6 0 -14.333 1.16699 -25 3.5s-18.334 3.5 -23.001 3.5c-18 0 -27 -22.333 -27 -67v-277c0 -45.333 8.66699 -68 26 -68c5.33301 0 13.333 1.16699 24 3.5s18.667 3.5 24 3.5
c15.333 0 28.333 -6.33301 39 -19s16 -28.334 16 -47.001c0 -22.667 -6.66699 -40.5 -20 -53.5s-31 -19.5 -53 -19.5c-12.667 0 -34 2 -64 6c-20 2.66699 -40 4 -60 4c-12.667 0 -31.334 -1.66699 -56.001 -5s-43.334 -5 -56.001 -5c-20 0 -36.167 6.66699 -48.5 20
s-18.5 31 -18.5 53c0 41.333 13.667 62 41 62c4 0 7 -0.333008 9 -1h7c2.66699 -0.666992 4.33398 -1 5.00098 -1c10.667 0 17 7.33301 19 22c0.666992 6.66699 1 18 1 34v377l-139 -492c-12 -42.667 -31.667 -64 -59 -64h-64c-26.667 0 -45 19 -55 57l-133 499v-377
c0 -31.333 3 -49 9 -53c2 -2 5.66699 -3 11 -3c1.33301 0 3.33301 0.333008 6 1h6c2 0.666992 5 1 9 1c26.667 0 40 -20.333 40 -61c0 -22.667 -6 -40.667 -18 -54s-28 -20 -48 -20c-9.33301 0 -21.333 1 -36 3l-35 5c-14 1.33301 -30 2 -48 2c-22.667 0 -41.667 -1 -57 -3
l-62 -8c-20.667 0 -37.667 7 -51 21s-20 31.667 -20 53c0 19.333 5.16699 35.166 15.5 47.499s23.5 18.5 39.5 18.5c5.33301 0 13.166 -1.16699 23.499 -3.5s18.166 -3.5 23.499 -3.5c13.333 0 21.666 8.66699 24.999 26c1.33301 6.66699 2 20.667 2 42v277
c0 21.333 -0.666992 35 -2 41c-3.33301 17.333 -11.666 26 -24.999 26c-5.33301 0 -13.166 -1.16699 -23.499 -3.5s-18.5 -3.5 -24.5 -3.5c-15.333 0 -28.166 6.33301 -38.499 19s-15.5 28.334 -15.5 47.001c0 48.667 24.667 73 74 73c16 0 42.667 -1.66699 80 -5
s65.333 -5 84 -5c30 0 61.333 2 94 6c22 2.66699 39.333 4 52 4c16.667 0 28.334 -4 35.001 -12s13 -24.667 19 -50z" />
    <glyph glyph-name="N" unicode="N" horiz-adv-x="874" 
d="M417 604l175.999 -428.001v296c0 44.667 -8.66699 67 -26 67c-4.66699 0 -11.5 -1.16699 -20.5 -3.5s-15.833 -3.5 -20.5 -3.5c-14 0 -25.833 6.33301 -35.5 19s-14.5 28.334 -14.5 47.001c0 22 6.33301 39.667 19 53s29.334 20 50.001 20c10.667 0 29 -1.66699 55 -5
s49 -5 69 -5c18 0 39 1.33301 63 4c36 4 58.333 6 67 6c21.333 0 38.666 -6.66699 51.999 -20s20 -31 20 -53c0 -18.667 -5.33301 -34.334 -16 -47.001s-23.667 -19 -39 -19c-6 0 -14 1.16699 -24 3.5s-17.667 3.5 -23 3.5c-13.333 0 -22 -8.33301 -26 -25
c-1.33301 -6.66699 -2 -20.667 -2 -42v-407c0 -44 -18 -66 -54 -66c-6.66699 0 -16.834 0.5 -30.501 1.5s-23.834 1.5 -30.501 1.5c-0.666992 0 -17 -0.666992 -49 -2h-22c-19.333 0 -33.666 4.66699 -42.999 14c-5.33301 5.33301 -13 19.666 -23 42.999l-193 440v-302
c0 -45.333 8.66699 -68 26 -68c4.66699 0 11.834 1.16699 21.501 3.5s16.834 3.5 21.501 3.5c14 0 25.833 -6.33301 35.5 -19s14.5 -28.334 14.5 -47.001c0 -48.667 -23.333 -73 -70 -73c-13.333 0 -35.333 2 -66 6c-20.667 2.66699 -41.334 4 -62.001 4
c-17.333 0 -40.666 -1.66699 -69.999 -5s-48 -5 -56 -5c-48.667 0 -73 24.333 -73 73c0 18.667 5.16699 34.334 15.5 47.001s23.166 19 38.499 19c6 0 14.167 -1.16699 24.5 -3.5s18.166 -3.5 23.499 -3.5c18 0 27 22.667 27 68v277c0 44.667 -9 67 -27 67
c-5.33301 0 -13.166 -1.16699 -23.499 -3.5s-18.5 -3.5 -24.5 -3.5c-15.333 0 -28.166 6.33301 -38.499 19s-15.5 28.334 -15.5 47.001c0 22 6.66699 39.667 20 53s30.666 20 51.999 20c14 0 34.333 -1.66699 61 -5s47.667 -5 63 -5c12.667 0 34.334 1.33301 65.001 4
c14 0.666992 30 2 48 4c8 1.33301 16.667 2 26 2c18 0 32 -7 42 -21c4 -5.33301 11.333 -20.666 22 -45.999z" />
    <glyph glyph-name="O" unicode="O" 
d="M348 -18c-101.333 0 -179.667 30.668 -235 92.001s-83 148.333 -83 261c0 108.667 27.5 194.167 82.5 256.5s130.833 93.5 227.5 93.5c101.333 0 180.333 -30.333 237 -91s85 -145.334 85 -254.001c0 -112.667 -27.5 -200.5 -82.5 -263.5s-132.167 -94.5 -231.5 -94.5z
M346.999 545.001c-86.667 0 -130.001 -70.667 -130.001 -212c0 -67.333 8.33301 -117.333 25 -150c20.667 -40.667 55.334 -61 104.001 -61c86 0 129 68.667 129 206c0 76 -10.167 131.167 -30.5 165.5s-52.833 51.5 -97.5 51.5z" />
    <glyph glyph-name="P" unicode="P" 
d="M350 223c-18 0.666992 -27 -9.33496 -27 -30.002v-32c0 -22.667 10 -34 30 -34c8 0 18 1 30 3c14.667 2.66699 27 4 37 4c16.667 0 30 -6 40 -18s15 -28 15 -48c0 -22 -6.66699 -39.667 -20 -53s-30.666 -20 -51.999 -20c-18.667 0 -46.334 1.66699 -83.001 5
s-64.334 5 -83.001 5c-28.667 0 -52.667 -1 -72 -3l-49 -5c-13.333 -1.33301 -22.333 -2 -27 -2c-21.333 0 -38.5 6.66699 -51.5 20s-19.5 31 -19.5 53c0 18.667 5.16699 34.334 15.5 47.001s23.166 19 38.499 19c6 0 14.333 -1.16699 25 -3.5s18.334 -3.5 23.001 -3.5
c18 0 27 22.667 27 68v277c0 21.333 -0.666992 35 -2 41c-3.33301 17.333 -11.666 26 -24.999 26c-5.33301 0 -13.166 -1.16699 -23.499 -3.5s-18.5 -3.5 -24.5 -3.5c-15.333 0 -28.166 6.33301 -38.499 19s-15.5 28.334 -15.5 47.001c0 22 6.66699 39.833 20 53.5
s30.666 20.5 51.999 20.5h3c1.33301 -0.666992 2.66602 -1 3.99902 -1c16 0 40.333 -1.66699 73 -5s57.334 -5 74.001 -5c32 0 67 1.33301 105 4c48 3.33301 75.333 5 82 5c72.667 0 131.5 -20.5 176.5 -61.5s67.5 -94.833 67.5 -161.5
c0 -69.333 -23.167 -124.333 -69.5 -165s-109.5 -61 -189.5 -61c-6.66699 0 -19.334 0.333008 -38.001 1zM323 391.998c0 -18.667 1.66699 -30.167 5 -34.5s12.333 -6.83301 27 -7.5l16 -1c78.667 -4.66699 118 26.333 118 93c0 64 -35.333 96 -106 96
c-17.333 0 -29.333 -1 -36 -3c-12 -3.33301 -19.333 -11.333 -22 -24c-1.33301 -6.66699 -2 -16.667 -2 -30v-89z" />
    <glyph glyph-name="Q" unicode="Q" 
d="M595 99c-22.667 -31.333 -55.333 -58.666 -98 -81.999c8 -33.333 18.333 -50 31 -50c7.33301 0 12.333 1.5 15 4.5s7 12.167 13 27.5c8 20.667 24 31 48 31c18.667 0 33.667 -6.5 45 -19.5s17 -30.167 17 -51.5c0 -36.667 -13.667 -65.834 -41 -87.501
s-64 -32.5 -110 -32.5c-58 0 -100 14.667 -126 44c-12.667 14 -23.334 41.333 -32.001 82c-0.666992 3.33301 -2 9.33301 -4 18h-11c-96 0 -169.667 27 -221 81c-60.667 64 -91 154 -91 270c0 108.667 27.667 194.334 83 257.001s131 94 227 94
c100.667 0 179.334 -30.833 236.001 -92.5s85 -147.5 85 -257.5c0 -96.667 -22 -175.334 -66 -236.001zM342.001 275c54.667 0 87.333 -35.333 98 -106c14.667 24 24.334 49.667 29.001 77c3.33301 18 5 45.667 5 83c0 75.333 -10.167 130.166 -30.5 164.499
s-52.833 51.5 -97.5 51.5s-77.5 -17.167 -98.5 -51.5s-31.5 -88.5 -31.5 -162.5c0 -67.333 7.33301 -116.666 22 -147.999s39.667 -50.333 75 -57c-2 12.667 -8.66699 24.667 -20 36c-17.333 17.333 -26 34 -26 50c0 18 7.16699 33 21.5 45s32.166 18 53.499 18z" />
    <glyph glyph-name="R" unicode="R" horiz-adv-x="765" 
d="M624 384c-19.333 -13.333 -49.6719 -24.665 -91.0049 -33.998c48 -8 82 -22.167 102 -42.5s30 -50.5 30 -90.5c0 -12 -0.333008 -23.667 -1 -35v-12c0 -27.333 8 -41 24 -41c4 0 10.167 0.833008 18.5 2.5s14.5 2.5 18.5 2.5c14.667 0 26.5 -6.16699 35.5 -18.5
s13.5 -28.5 13.5 -48.5c0 -22 -6.5 -39.5 -19.5 -52.5s-30.167 -19.5 -51.5 -19.5c-7.33301 0 -18.666 0.833008 -33.999 2.5s-26.666 2.5 -33.999 2.5c-8 0 -19.833 -0.833008 -35.5 -2.5s-27.5 -2.5 -35.5 -2.5c-24.667 0 -44.5 10.167 -59.5 30.5
s-22.5 47.166 -22.5 80.499c0 3.33301 0.333008 5.66602 1 6.99902l2 58v7c0 34.667 -8.83301 58.667 -26.5 72s-49.5 20 -95.5 20c-18.667 0 -30.334 -5 -35.001 -15c-3.33301 -6.66699 -5 -19 -5 -37v-23c0 -45.333 8.33301 -68 25 -68
c4.66699 0 11.834 1.16699 21.501 3.5s17.167 3.5 22.5 3.5c14 0 25.833 -6.33301 35.5 -19s14.5 -28.334 14.5 -47.001c0 -48.667 -23.333 -73 -70 -73c-16 0 -37.667 1.66699 -65 5s-51 5 -71 5c-21.333 0 -46 -1.66699 -74 -5s-51.667 -5 -71 -5
c-48.667 0 -73 24.333 -73 73c0 18.667 5.16699 34.334 15.5 47.001s23.166 19 38.499 19c6 0 14.333 -1.16699 25 -3.5s18.334 -3.5 23.001 -3.5c18 0 27 22.667 27 68v277c0 21.333 -0.666992 35 -2 41c-3.33301 17.333 -11.666 26 -24.999 26
c-5.33301 0 -13.166 -1.16699 -23.499 -3.5s-18.5 -3.5 -24.5 -3.5c-15.333 0 -28.166 6.33301 -38.499 19s-15.5 28.334 -15.5 47.001c0 21.333 6.5 39 19.5 53s29.833 21 50.5 21c4 0 7 -0.333008 9 -1l71 -7c20 -2 41.333 -3 64 -3c39.333 0 89 2 149 6
c40 2.66699 69.667 4 89 4c63.333 0 113.5 -15.833 150.5 -47.5s55.5 -74.834 55.5 -129.501c0 -50 -17.333 -86.667 -52 -110zM396.994 538.001c-26.667 0 -44 -1.66699 -52 -5c-14.667 -6.66699 -22 -21 -22 -43v-60c0 -15.333 2.5 -25.333 7.5 -30s14.5 -7 28.5 -7
c86.667 0 130 25.667 130 77c0 45.333 -30.667 68 -92 68z" />
    <glyph glyph-name="S" unicode="S" horiz-adv-x="619" 
d="M278 685c69.333 0 124.001 -23.6631 164.001 -70.9961c0.666992 23.333 5.16699 39.333 13.5 48s22.833 13 43.5 13c42.667 0 64 -18 64 -54c0 -10 -1 -24.667 -3 -44s-3 -34 -3 -44c0 -6 0.666992 -14.667 2 -26s2 -20 2 -26v-5c0 -39.333 -22.667 -59 -68 -59
c-38 0 -60.667 16 -68 48l-5 21c-10 43.333 -45.333 65 -106 65c-57.333 0 -86 -20 -86 -60c0 -20.667 6.16699 -34.667 18.5 -42s43.5 -16 93.5 -26c84 -16.667 145 -41.667 183 -75s57 -78.666 57 -135.999c0 -67.333 -23 -122.5 -69 -165.5s-104.667 -64.5 -176 -64.5
c-59.333 0 -116.333 21.333 -171 64c-2 -37.333 -22 -56 -60 -56c-43.333 0 -65 21.333 -65 64c0 14 1 29 3 45c2.66699 21.333 4 37.666 4 48.999c0 7.33301 -0.833008 18.666 -2.5 33.999s-2.5 26.666 -2.5 33.999c0 17.333 7.16699 31.5 21.5 42.5s32.833 16.5 55.5 16.5
c25.333 0 43.5 -5.5 54.5 -16.5s18.833 -31.5 23.5 -61.5c7.33301 -50 45.333 -75 114 -75c28 0 50.333 6.66699 67 20s25 30.666 25 51.999c0 23.333 -7.33301 39.833 -22 49.5s-49.667 21.167 -105 34.5l-66 16c-28.667 7.33301 -55.334 20.333 -80.001 39
c-48 36 -72 84.333 -72 145c0 61.333 20.5 111.166 61.5 149.499s94.167 57.5 159.5 57.5z" />
    <glyph glyph-name="T" unicode="T" 
d="M225 127c22.667 0 34.0039 20.668 34.0039 62.001v288c0 44.667 -16.333 67 -49 67s-49 -11.333 -49 -34c0 -6.66699 1.16699 -16.834 3.5 -30.501s3.5 -23.834 3.5 -30.501c0 -59.333 -25 -89 -75 -89c-23.333 0 -41.666 7.5 -54.999 22.5s-20 35.167 -20 60.5
c0 8.66699 1.33301 24.334 4 47.001c2 17.333 3 33.333 3 48c0 8 -1 24.333 -3 49c-1.33301 16.667 -2 30 -2 40c0 29.333 14.667 44 44 44c15.333 0 34.666 -1 57.999 -3c53.333 -4.66699 128 -7 224 -7c96.667 0 171.667 2.33301 225 7c23.333 2 42.333 3 57 3
c30 0 45 -14.667 45 -44c0 -10 -0.833008 -24.833 -2.5 -44.5s-2.5 -34.5 -2.5 -44.5c0 -10.667 1 -26.667 3 -48c2.66699 -28 4 -44 4 -48c0 -25.333 -6.83301 -45.333 -20.5 -60s-31.834 -22 -54.501 -22c-50 0 -75 28.667 -75 86c0 8 1 18.667 3 32s3 23.333 3 30
c0 24 -14.667 36 -44 36c-19.333 0 -33 -5 -41 -15s-12 -27.333 -12 -52v-288c0 -41.333 11.333 -62 34 -62c7.33301 0 18.166 1.16699 32.499 3.5s25.166 3.5 32.499 3.5c40 0 60 -20 60 -60c0 -52.667 -25 -79 -75 -79c-19.333 0 -42.333 1.33301 -69 4
c-40 4 -74.333 6 -103 6c-29.333 0 -63.666 -2 -102.999 -6c-26 -2.66699 -49 -4 -69 -4c-50 0 -75 24.333 -75 73c0 44 20.333 66 61 66c7.33301 0 18.166 -1.16699 32.499 -3.5s25.166 -3.5 32.499 -3.5z" />
    <glyph glyph-name="U" unicode="U" horiz-adv-x="837" 
d="M702 482l-0.00292969 -43.9971l1 -88v-31c0 -74.667 -1 -119.334 -3 -134.001c-5.33301 -50.667 -21.666 -90.334 -48.999 -119.001c-52.667 -56 -132.334 -84 -239.001 -84c-110 0 -188 29 -234 87c-28 35.333 -42 87.666 -42 156.999c0 6 1 43 3 111
c1.33301 45.333 2 81.666 2 108.999v39c0 36 -9.66699 54 -29 54c-4.66699 0 -12 -1.16699 -22 -3.5s-18 -3.5 -24 -3.5c-15.333 0 -28.166 6.16699 -38.499 18.5s-15.5 27.833 -15.5 46.5c0 22.667 7.16699 40.667 21.5 54s33.166 20 56.499 20
c14.667 0 36.667 -1.66699 66 -5s51.333 -5 66 -5c12.667 0 31.5 1.66699 56.5 5s43.833 5 56.5 5c20 0 36 -6.66699 48 -20s18 -31.333 18 -54c0 -40 -13.667 -60 -41 -60h-10c-3.33301 0.666992 -7.66602 1 -12.999 1c-11.333 0 -18 -7 -20 -21v-35v-229
c0 -46 7.83301 -78.5 23.5 -97.5s42.167 -28.5 79.5 -28.5s64.5 9.83301 81.5 29.5s25.5 51.834 25.5 96.501v229c0 24.667 -1.33301 40.167 -4 46.5s-8.66699 9.5 -18 9.5c-4.66699 0 -8.66699 -0.333008 -12 -1h-10c-27.333 0 -41 20.333 -41 61
c0 22 6.16699 39.667 18.5 53s28.5 20 48.5 20c12.667 0 31.834 -1.66699 57.501 -5s44.834 -5 57.501 -5c14.667 0 36.667 1.66699 66 5s51.333 5 66 5c22.667 0 40.834 -6.66699 54.501 -20s20.5 -31.333 20.5 -54c0 -19.333 -5.16699 -35 -15.5 -47
s-23.833 -18 -40.5 -18c-5.33301 0 -12.833 1.16699 -22.5 3.5s-16.834 3.5 -21.501 3.5c-19.333 0 -29 -19 -29 -57z" />
    <glyph glyph-name="V" unicode="V" horiz-adv-x="765" 
d="M295 499l90.0059 -321.999l95 322c3.33301 11.333 5 19.333 5 24c0 11.333 -5.33301 16.666 -16 15.999l-14 -1h-2c-30.667 0 -46 20 -46 60c0 48.667 21.333 73 64 73c14 0 34.667 -1.66699 62 -5s48 -5 62 -5c21.333 0 40.666 1.33301 57.999 4c26 4 45 6 57 6
c20.667 0 37.334 -6.5 50.001 -19.5s19 -29.833 19 -50.5c0 -19.333 -4.83301 -35.666 -14.5 -48.999s-21.5 -20 -35.5 -20c-4.66699 0 -11.334 1.16699 -20.001 3.5s-14.334 3.5 -17.001 3.5c-16 0 -33.333 -28.667 -52 -86l-122 -371c-18 -54.667 -44.333 -82 -79 -82
c-6.66699 0 -16.667 0.5 -30 1.5s-23.333 1.5 -30 1.5s-16.334 -0.5 -29.001 -1.5s-22.334 -1.5 -29.001 -1.5c-35.333 0 -65.333 38.667 -90 116l-119 374c-10.667 32.667 -22.667 49 -36 49c-4.66699 0 -10.834 -1.16699 -18.501 -3.5s-15.167 -3.5 -22.5 -3.5
c-14.667 0 -26.5 6.16699 -35.5 18.5s-13.5 28.166 -13.5 47.499c0 48.667 24.333 73 73 73c13.333 0 33.666 -1.66699 60.999 -5s48 -5 62 -5c20 0 42.667 1.66699 68 5s43 5 53 5c44 0 66 -24.667 66 -74c0 -39.333 -13.667 -59 -41 -59h-10c-2 0.666992 -5 1 -9 1
c-12 0 -18 -5.66699 -18 -17c0 -6 1.33301 -13.667 4 -23z" />
    <glyph glyph-name="W" unicode="W" horiz-adv-x="1020" 
d="M626 602l67.0029 -430l63 330c2 7.33301 3 13.666 3 18.999c0 12 -5.66699 18 -17 18c-2 0 -6.33301 -0.666992 -13 -2h-6c-2.66699 -0.666992 -4.66699 -1 -6 -1c-25.333 0 -38 20 -38 60c0 50 22.333 75 67 75c11.333 0 27.333 -1.33301 48 -4
c31.333 -4 52.333 -6 63 -6c1.33301 0 28 3 80 9c8.66699 0.666992 16 1 22 1c20 0 36.5 -6.83301 49.5 -20.5s19.5 -30.834 19.5 -51.501c0 -18 -4.83301 -33.667 -14.5 -47s-21.167 -20 -34.5 -20c-7.33301 0 -14.166 1.16699 -20.499 3.5s-11.833 3.5 -16.5 3.5
c-11.333 0 -19.666 -8.33301 -24.999 -25c0 -0.666992 -3 -13.667 -9 -39l-91 -404c-6.66699 -27.333 -11.667 -44 -15 -50c-7.33301 -14 -21 -21 -41 -21c-7.33301 0 -18 0.666992 -32 2c-6.66699 0.666992 -18.334 1 -35.001 1c-14 0 -26.333 -0.333008 -37 -1l-32 -2h-5
c-17.333 0 -29.333 6 -36 18s-13.334 39.333 -20.001 82l-54 349l-55 -349c-6.66699 -42.667 -13.334 -70 -20.001 -82s-18.667 -18 -36 -18c-6 0 -18.333 0.666992 -37 2c-9.33301 0.666992 -21.333 1 -36 1c-7.33301 0 -18.5 -0.5 -33.5 -1.5s-26.167 -1.5 -33.5 -1.5
c-20 0 -33.667 7 -41 21c-3.33301 5.33301 -8.33301 22 -15 50l-12 51l-80 353l-8 39c-6 16.667 -14.333 25 -25 25c-5.33301 0 -11 -1 -17 -3c-8 -2.66699 -14.667 -4 -20 -4c-13.333 0 -25 6.66699 -35 20s-15 29.333 -15 48c0 20.667 6.66699 37.667 20 51s30 20 50 20
c11.333 0 28.166 -1.66699 50.499 -5s39.5 -5 51.5 -5c10.667 0 31.667 2 63 6c20.667 2.66699 36.667 4 48 4c44.667 0 67 -23.667 67 -71c0 -42.667 -12.667 -64 -38 -64c-1.33301 0 -3.33301 0.333008 -6 1h-7c-6.66699 1.33301 -10.667 2 -12 2
c-11.333 0 -17 -6.33301 -17 -19c0 -5.33301 0.666992 -11.333 2 -18l64 -330l66 430c4.66699 28.667 9.66699 47.334 15 56.001s14.666 13 27.999 13c8 0 20.333 -0.833008 37 -2.5s29 -2.5 37 -2.5s20.167 0.833008 36.5 2.5s28.5 2.5 36.5 2.5
c16.667 0 28 -7.66699 34 -23c2 -5.33301 5 -20.666 9 -45.999z" />
    <glyph glyph-name="X" unicode="X" horiz-adv-x="764" 
d="M156 186l100.993 142.001l-100 153c-22.667 34.667 -44.667 52 -66 52h-14c-4 -0.666992 -9.66699 -1 -17 -1c-36.667 0 -55 21 -55 63c0 22.667 7.16699 41 21.5 55s32.833 21 55.5 21c12.667 0 24.334 -0.666992 35.001 -2c43.333 -5.33301 69.333 -8 78 -8
c12.667 0 31.334 1.66699 56.001 5s43.334 5 56.001 5c18.667 0 33.834 -6.5 45.501 -19.5s17.5 -29.833 17.5 -50.5c0 -18.667 -5.66699 -31.667 -17 -39l-16 -10c-8 -4.66699 -12 -10.334 -12 -17.001c0 -8.66699 4.33301 -21 13 -37l49 -91l57 91
c11.333 18 17 30.333 17 37c0 6 -4.33301 11.667 -13 17c-20 12.667 -30 28.667 -30 48c0 21.333 5.66699 38.5 17 51.5s26.333 19.5 45 19.5c12 0 30 -1.66699 54 -5s42.333 -5 55 -5c12 0 29.667 1.66699 53 5s40.666 5 51.999 5c18 0 33.333 -7.33301 46 -22
s19 -32.667 19 -54c0 -18.667 -5 -34 -15 -46s-23 -18 -39 -18c-1.33301 0 -3.33301 0.333008 -6 1h-7c-9.33301 1.33301 -15 2 -17 2c-15.333 0 -35.666 -17.667 -60.999 -53l-100 -138l100 -157l18 -24l15 -22c7.33301 -6 15.333 -9 24 -9c6.66699 0 12.667 0.666992 18 2
c2.66699 0 6 0.333008 10 1h9c34.667 0 52 -21.333 52 -64c0 -21.333 -6.66699 -39.166 -20 -53.499s-30.333 -21.5 -51 -21.5c-6 0 -23.333 2.33301 -52 7c-12 2 -31.667 3 -59 3c-28.667 0 -50 -1 -64 -3c-32 -4.66699 -50 -7 -54 -7c-16.667 0 -30 6.16699 -40 18.5
s-15 28.166 -15 47.499c0 16 2.33301 27.167 7 33.5s14.667 13.833 30 22.5c9.33301 5.33301 14 11 14 17c0 4.66699 -4 14 -12 28l-57 99l-58 -88c-13.333 -20 -20 -33.667 -20 -41c0 -5.33301 3 -10 9 -14l19 -12c14 -8.66699 21 -23.667 21 -45
c0 -44 -20.333 -66 -61 -66c-2.66699 0 -26 2.66699 -70 8c-18 2 -34 3 -48 3c-17.333 0 -33.666 -1.33301 -48.999 -4c-26 -4.66699 -43.667 -7 -53 -7c-21.333 0 -38.666 7 -51.999 21s-20 32 -20 54c0 42.667 17.333 64 52 64c4.66699 0 11.334 -0.666992 20.001 -2
s15 -2 19 -2c7.33301 0 12.833 1.5 16.5 4.5s11.5 11.833 23.5 26.5z" />
    <glyph glyph-name="Y" unicode="Y" horiz-adv-x="746" 
d="M320 490l54.002 -107.997l60 108c11.333 20.667 17 34 17 40c0 7.33301 -6.66699 14.666 -20 21.999c-17.333 9.33301 -26 25.333 -26 48c0 47.333 24 71 72 71c15.333 0 30 -1 44 -3c32.667 -4.66699 54.667 -7 66 -7c12 0 29.5 1.66699 52.5 5s40.167 5 51.5 5
c21.333 0 38.5 -6.66699 51.5 -20s19.5 -31.333 19.5 -54c0 -18.667 -4.83301 -34.167 -14.5 -46.5s-21.834 -18.5 -36.501 -18.5c-6 0 -15 1.33301 -27 4c-8.66699 2 -15.334 3 -20.001 3c-9.33301 0 -16.333 -2.33301 -21 -7s-14.334 -18.667 -29.001 -42l-132 -211
c-14.667 -24 -22.667 -50 -24 -78l-1 -28c-1.33301 -30.667 9.33398 -46 32.001 -46c7.33301 0 17.666 1.16699 30.999 3.5s23.333 3.5 30 3.5c16 0 29.167 -6.33301 39.5 -19s15.5 -29 15.5 -49c0 -22 -6.66699 -39.333 -20 -52s-31.333 -19 -54 -19
c-16.667 0 -42 1.66699 -76 5s-59.667 5 -77 5c-18.667 0 -46.334 -1.66699 -83.001 -5s-64.334 -5 -83.001 -5c-22 0 -39.667 6.66699 -53 20s-20 30.666 -20 51.999c0 44.667 19 67 57 67c6.66699 0 16.834 -1.16699 30.501 -3.5s23.834 -3.5 30.501 -3.5
c19.333 0 29 15.333 29 46v28c0 20.667 -8.66699 45 -26 73l-148 243c-8.66699 14.667 -20 22 -34 22c-4 0 -10.333 -1 -19 -3c-11.333 -2.66699 -20.333 -4 -27 -4c-32 0 -48 20.333 -48 61c0 52 23.333 78 70 78c12 0 31 -1.66699 57 -5s46 -5 60 -5c18.667 0 42 2 70 6
c18.667 2.66699 33.667 4 45 4c45.333 0 68 -25 68 -75c0 -20.667 -7.66699 -35 -23 -43c-9.33301 -5.33301 -16 -9 -20 -11s-6 -5.33301 -6 -10v-3c0 -6 1.33301 -11.333 4 -16c0.666992 -2.66699 4.33398 -10.334 11.001 -23.001z" />
    <glyph glyph-name="Z" unicode="Z" horiz-adv-x="637" 
d="M50 148l318.998 403.003h-135c-19.333 0 -32.5 -2.83301 -39.5 -8.5s-10.5 -15.834 -10.5 -30.501c0 -9.33301 0.333008 -16.666 1 -21.999l2 -13c1.33301 -11.333 2 -18 2 -20c0 -19.333 -7.5 -35.833 -22.5 -49.5s-33.167 -20.5 -54.5 -20.5
c-23.333 0 -41.833 6.66699 -55.5 20s-20.5 31.666 -20.5 54.999c0 4.66699 1.33301 19.667 4 45c2 19.333 3 32.666 3 39.999c0 6.66699 -1 22 -3 46c-0.666992 8 -1 19.333 -1 34c0 18 5.66699 30 17 36c8 4 22 6.33301 42 7l44 1c3.33301 0 26.333 -0.666992 69 -2
c20 -0.666992 55 -1 105 -1h105c12.667 0 31.667 0.666992 57 2s44.333 2 57 2c42.667 0 64 -23 64 -69c0 -23.333 -12.333 -50.333 -37 -81l-323 -400h148c28.667 0 46.334 0.666992 53.001 2c18.667 5.33301 28 17.666 28 36.999c0 7.33301 -0.833008 19 -2.5 35
s-2.5 28 -2.5 36c0.666992 22 7.66699 39.833 21 53.5s31.333 20.5 54 20.5c22 0 39.667 -7 53 -21s20 -32.667 20 -56c0 -8 -1 -20.667 -3 -38c-2.66699 -23.333 -4 -42.333 -4 -57c0 -8.66699 1.16699 -21.834 3.5 -39.501s3.5 -30.834 3.5 -39.501
c0 -40 -24.667 -60 -74 -60h-5l-52 3c-11.333 0.666992 -45.666 1 -102.999 1h-105c-50.667 0.666992 -85.667 0.333984 -105 -0.999023c-31.333 -2 -58 -3 -80 -3c-22.667 0 -40.667 6.33301 -54 19s-20 29.334 -20 50.001c0 14.667 7 33.667 21 57z" />
    <glyph glyph-name="bracketleft" unicode="[" horiz-adv-x="637" 
d="M400 -187l-85.001 -2c-6.66699 0 -17.667 -0.666992 -33 -2s-27 -2 -35 -2c-26 0 -42.333 10 -49 30c-3.33301 8.66699 -5 30 -5 64v689c0 34 1.66699 55.333 5 64c6.66699 20.667 23 31 49 31c8 0 19.667 -0.833008 35 -2.5s26.333 -2.5 33 -2.5l85 -2l81 2
c6 0 16.333 0.666992 31 2c8.66699 0.666992 19.334 1 32.001 1c48 0 72 -21.333 72 -64c0 -21.333 -7.33301 -38.333 -22 -51s-34.334 -19 -59.001 -19c-6 0 -23 1.33301 -51 4l-42 4c-28 2.66699 -45.667 4 -53 4c-12.667 0 -21.667 -2.5 -27 -7.5s-8 -17.167 -8 -36.5
v-542c0 -20.667 2.83301 -33.334 8.5 -38.001s14.5 -7 26.5 -7c12.667 0 30.334 1.33301 53.001 4l42 5c16.667 2 33.667 3 51 3c24.667 0 44.334 -6.33301 59.001 -19s22 -29.667 22 -51c0 -42.667 -24 -64 -72 -64c-4.66699 0 -15.334 0.333008 -32.001 1
c-8 0.666992 -18.333 1.33398 -31 2.00098l-40 2h-41z" />
    <glyph glyph-name="backslash" unicode="\" horiz-adv-x="500" 
d="M27 750h127l303 -833h-127z" />
    <glyph glyph-name="bracketright" unicode="]" horiz-adv-x="637" 
d="M444 615l-0.000976562 -714c0 -33.333 -1.66699 -54.666 -5 -63.999c-6.66699 -20 -23 -30 -49 -30c-9.33301 0 -17.333 0.333008 -24 1c-16 1.33301 -30.667 2.33301 -44 3l-85 2l-80 -2c-7.33301 -0.666992 -18 -1.33398 -32 -2.00098c-10.667 -0.666992 -22 -1 -34 -1
c-46.667 0 -70 21.333 -70 64c0 21.333 7.33301 38.333 22 51s34.667 19 60 19c5.33301 0 22 -1.33301 50 -4l42 -4c28 -2.66699 45.667 -4 53 -4c16 0 26.333 4.33301 31 13c2.66699 6 4 16.333 4 31v543c0 19.333 -2.66699 31.5 -8 36.5s-14.666 7.5 -27.999 7.5
c-6.66699 0 -24 -1.33301 -52 -4c-48.667 -4.66699 -79.334 -7 -92.001 -7c-24.667 0 -44.5 6.16699 -59.5 18.5s-22.5 29.166 -22.5 50.499c0 42.667 23.333 64 70 64c8 0 19.5 -0.5 34.5 -1.5s25.5 -1.5 31.5 -1.5l39 -1c24 -0.666992 37.667 -0.666992 41 0l85 2
c16.667 0.666992 31.334 1.33398 44.001 2.00098c18.667 1.33301 26.667 2 24 2c20 0 34 -5 42 -15s12 -28.333 12 -55z" />
    <glyph glyph-name="asciicircum" unicode="^" horiz-adv-x="500" 
d="M250 567l-110 -233h-135l160 337h170l161 -337h-136z" />
    <glyph glyph-name="underscore" unicode="_" horiz-adv-x="500" 
d="M0 -163v117h500v-117h-500z" />
    <glyph glyph-name="grave" unicode="`" horiz-adv-x="492" 
d="M305 547c-12.667 0 -32.9971 5.33105 -60.9971 15.998l-91 35c-43.333 16.667 -65 37.334 -65 62.001c0 18.667 6.16699 34.834 18.5 48.501s26.166 20.5 41.499 20.5c17.333 0 35.666 -5.33301 54.999 -16l93 -51c21.333 -12 33.666 -19.333 36.999 -22
c12 -9.33301 18 -21 18 -35c0 -14.667 -4.83301 -28 -14.5 -40s-20.167 -18 -31.5 -18z" />
    <glyph glyph-name="a" unicode="a" horiz-adv-x="583" 
d="M477 -17c-54.667 0 -91.332 22.0039 -109.999 66.0039c-46.667 -44 -102 -66 -166 -66c-52.667 0 -94.667 13.833 -126 41.5s-47 64.5 -47 110.5c0 70 30.333 115.333 91 136c26 8.66699 56 16 90 22c47.333 8 79.5 17.167 96.5 27.5s25.5 26.166 25.5 47.499
c0 15.333 -6.5 28.166 -19.5 38.499s-29.167 15.5 -48.5 15.5c-22 0 -33 -7 -33 -21c0 -4.66699 0.333008 -9.33398 1 -14.001v-4c0 -18.667 -7.83301 -34.334 -23.5 -47.001s-35.167 -19 -58.5 -19c-26.667 0 -48.667 8 -66 24s-26 36 -26 60c0 36 19 64.333 57 85
s90.333 31 157 31c72 0 125.667 -11 161 -33c38 -24 57 -68.667 57 -134v-207c0 -21.333 5.33301 -32 16 -32c5.33301 0 10.333 0.333008 15 1c2 0.666992 4.33301 1 7 1c15.333 0 28.333 -5.33301 39 -16s16 -23.667 16 -39c0 -22 -9.83301 -40 -29.5 -54
s-44.834 -21 -75.501 -21zM332.002 197.004v21.999c-4.66699 -2.66699 -34 -11 -88 -25c-36.667 -9.33301 -55 -23.666 -55 -42.999c0 -30.667 18 -46 54 -46c59.333 0 89 30.667 89 92z" />
    <glyph glyph-name="b" unicode="b" horiz-adv-x="601" 
d="M232 638v-189c43.333 45.333 91.666 68 144.999 68c58.667 0 106.167 -23.833 142.5 -71.5s54.5 -110.167 54.5 -187.5c0 -83.333 -20.333 -150 -61 -200s-95 -75 -163 -75s-121.667 26.667 -161 80c1.33301 -10.667 2 -19 2 -25c0 -30.667 -18.333 -46 -55 -46
c-38 0 -57 19.333 -57 58v456c0 34 -5.66699 51 -17 51c-4.66699 0 -10.667 -1.33301 -18 -4c-4 -1.33301 -9.33301 -2 -16 -2c-32 0 -48 18.333 -48 55c0 20 5.5 36.167 16.5 48.5s25.833 18.5 44.5 18.5c8.66699 0 21.334 -1 38.001 -3s29.334 -3 38.001 -3
c20 0 37.667 1 53 3s26.666 3 33.999 3c18.667 0 28 -11.667 28 -35zM326 110c58 0 87 46.667 87 140s-28.333 140 -85 140c-27.333 0 -49.833 -13.167 -67.5 -39.5s-26.5 -59.5 -26.5 -99.5c0 -94 30.667 -141 92 -141z" />
    <glyph glyph-name="c" unicode="c" horiz-adv-x="528" 
d="M327 344c0 10 3.33203 20 9.99902 30c-15.333 10.667 -32.333 16 -51 16c-29.333 0 -53.166 -12.167 -71.499 -36.5s-27.5 -56.833 -27.5 -97.5c0 -42 9.66699 -75.667 29 -101s45 -38 77 -38c32.667 0 56.667 17.667 72 53c9.33301 22 17.333 36 24 42
c9.33301 8 24 12 44 12c22.667 0 41 -6.83301 55 -20.5s21 -31.167 21 -52.5c0 -45.333 -22 -84.666 -66 -117.999s-96.667 -50 -158 -50c-78.667 0 -141.334 24.167 -188.001 72.5s-70 113.166 -70 194.499c0 82 24 147 72 195s112.667 72 194 72
c58.667 0 107.167 -13.833 145.5 -41.5s57.5 -62.834 57.5 -105.501c0 -26.667 -8.66699 -48.167 -26 -64.5s-39.666 -24.5 -66.999 -24.5c-22.667 0 -41 5.83301 -55 17.5s-21 26.834 -21 45.501z" />
    <glyph glyph-name="d" unicode="d" horiz-adv-x="637" 
d="M239 510c50.667 0 97.332 -19.666 139.999 -58.999v72c0 24 -8.33301 36 -25 36c-4 0 -12 -0.666992 -24 -2c-8.66699 -2.66699 -17.334 -4 -26.001 -4c-12.667 0 -23.334 5.33301 -32.001 16s-13 24 -13 40c0 42.667 22.667 64 68 64
c14.667 0 25.334 -0.333008 32.001 -1c26.667 -2.66699 44.667 -4 54 -4c8.66699 0 21.334 0.666992 38.001 2s29 2 37 2c16.667 0 28.167 -3.83301 34.5 -11.5s9.5 -21.834 9.5 -42.501v-455c0 -34 6.33301 -51 19 -51c4 0 9 1 15 3c4 1.33301 9.33301 2 16 2
c28.667 0 43 -17 43 -51c0 -20.667 -5 -37.5 -15 -50.5s-23.333 -19.5 -40 -19.5h-6l-35 6c-8 1.33301 -19.333 2 -34 2c-17.333 0 -31.666 -0.666992 -42.999 -2c-16.667 -2 -25.667 -3 -27 -3c-20.667 0 -31 12 -31 36v37c-34.667 -59.333 -86.667 -89 -156 -89
c-61.333 0 -111.833 25.167 -151.5 75.5s-59.5 113.833 -59.5 190.5c0 78 19.5 141 58.5 189s90.167 72 153.5 72zM273.998 384.001c-24.667 0 -44.833 -11.668 -60.5 -35.001s-24.5 -55 -26.5 -95v-13c0 -40.667 7.83301 -72.667 23.5 -96s36.834 -35 63.501 -35
c29.333 0 53.166 12.667 71.499 38s27.5 59 27.5 101c0 40.667 -9 73.334 -27 98.001s-42 37 -72 37z" />
    <glyph glyph-name="e" unicode="e" horiz-adv-x="546" 
d="M515 293c0 -28 -3.50098 -46.6699 -10.501 -56.0029s-20.833 -14 -41.5 -14h-244c-12 0 -19.5 -1.16699 -22.5 -3.5s-4.5 -8.16602 -4.5 -17.499c0 -28 9 -51.333 27 -70s40.667 -28 68 -28c28 0 56.667 15.333 86 46c20 21.333 42 32 66 32
c20 0 36.167 -5.66699 48.5 -17s18.5 -25.666 18.5 -42.999c0 -38.667 -21.167 -71.5 -63.5 -98.5s-93.833 -40.5 -154.5 -40.5c-79.333 0 -142.666 24 -189.999 72s-71 112 -71 192c0 80.667 23.5 145.834 70.5 195.501s108.5 74.5 184.5 74.5
c70.667 0 127.167 -20.333 169.5 -61s63.5 -95 63.5 -163zM196.999 342.997c0 -4 1.00098 -7.33301 3.00098 -10s9 -4 21 -4h112c10 0 16.167 1.16699 18.5 3.5s3.5 6.5 3.5 12.5c0 17.333 -7.66699 32.5 -23 45.5s-33.333 19.5 -54 19.5
c-26.667 0 -48.334 -10.333 -65.001 -31c-10.667 -13.333 -16 -25.333 -16 -36z" />
    <glyph glyph-name="f" unicode="f" horiz-adv-x="401" 
d="M330 559c0 7.33301 2.66602 15.999 7.99902 25.999c-6 2.66699 -12.667 4 -20 4c-32.667 0 -49 -15.667 -49 -47v-20c0 -12.667 7.33301 -19 22 -19h30c38.667 0 58 -18 58 -54c0 -37.333 -18.333 -56 -55 -56h-33c-14.667 0 -22 -8.66699 -22 -26v-201
c0 -21.333 0.333008 -33 1 -35c2 -14 9 -21 21 -21c2.66699 0 8.66699 0.666992 18 2c7.33301 2 15 3 23 3c31.333 0 47 -18.333 47 -55c0 -18.667 -5.66699 -34 -17 -46s-25.666 -18 -42.999 -18c-1.33301 0 -21.666 2 -60.999 6c-13.333 1.33301 -32.666 2 -57.999 2
c-28 0 -50.667 -1 -68 -3c-28.667 -3.33301 -46.334 -5 -53.001 -5c-18.667 0 -33.667 6.16699 -45 18.5s-17 28.5 -17 48.5c0 37.333 16.333 56 49 56c5.33301 0 11.333 -1.16699 18 -3.5s11.334 -3.5 14.001 -3.5c12 0 18 18.667 18 56v199c0 14 -3 22 -9 24
c-2.66699 1.33301 -7 2 -13 2h-24c-35.333 0 -53 17.333 -53 52c0 38.667 18.333 58 55 58h18c11.333 0 18.666 1.83301 21.999 5.5s5.33301 12.5 6 26.5c2 46 20.167 82.333 54.5 109s80.166 40 137.499 40c48 0 86.5 -9.66699 115.5 -29s43.5 -45 43.5 -77
c0 -20 -7.33301 -36.667 -22 -50s-33 -20 -55 -20c-18 0 -32.833 4.83301 -44.5 14.5s-17.5 21.834 -17.5 36.501z" />
    <glyph glyph-name="g" unicode="g" horiz-adv-x="564" 
d="M289 517l38.0039 -2.00391c0.666992 34 12 60.5 34 79.5s52.333 28.5 91 28.5c31.333 0 57.5 -8 78.5 -24s31.5 -36.333 31.5 -61c0 -16.667 -5.5 -30.667 -16.5 -42s-24.833 -17 -41.5 -17c-18.667 0 -32.334 7 -41.001 21l-10 16c-2.66699 4.66699 -7 7 -13 7
c-14 0 -21 -9.66699 -21 -29c0 -4.66699 0.333008 -8 1 -10c64 -22.667 96 -68 96 -136c0 -51.333 -19.833 -92.666 -59.5 -123.999s-91.834 -47 -156.501 -47c-34.667 0 -70.334 7.66699 -107.001 23l-5 2c-10 -8 -15 -16.667 -15 -26c0 -22.667 16 -36.667 48 -42
c10.667 -2 35 -3 73 -3h11l64 1c64 0.666992 113.333 -11.666 148 -36.999s52 -61.333 52 -108c0 -59.333 -26 -106.166 -78 -140.499s-122.667 -51.5 -212 -51.5c-80 0 -144.167 14.833 -192.5 44.5s-72.5 69.167 -72.5 118.5c0 53.333 33.667 90.333 101 111
c-53.333 10.667 -80 41 -80 91c0 26 5.83301 46.5 17.5 61.5s32.5 29.167 62.5 42.5c-24 26.667 -36 56 -36 88c0 46.667 20.167 85.834 60.5 117.501s90.166 47.5 149.499 47.5zM297.004 411.996c-18.667 0 -34.167 -6.16699 -46.5 -18.5s-18.5 -27.833 -18.5 -46.5
s6.16699 -34.334 18.5 -47.001s27.833 -19 46.5 -19s34.167 6.33301 46.5 19s18.5 28 18.5 46c0 18.667 -6.16699 34.334 -18.5 47.001s-27.833 19 -46.5 19zM277.004 13.9961c-16 0 -36 1.33301 -60 4c-30 -12 -45 -27.333 -45 -46c0 -35.333 39.333 -53 118 -53
c79.333 0 119 17.667 119 53c0 28.667 -26 43 -78 43c-2 0 -11 -0.333008 -27 -1h-27z" />
    <glyph glyph-name="h" unicode="h" horiz-adv-x="655" 
d="M259 638l-0.00195312 -182.999c28.667 24.667 52.667 41.167 72 49.5s43.333 12.5 72 12.5c62 0 106 -19.333 132 -58c17.333 -26 26 -67.333 26 -124v-172c0 -33.333 6.66699 -50 20 -50c5.33301 0 10 0.666992 14 2s9.33301 2 16 2c29.333 0 44 -17 44 -51
c0 -46.667 -19.667 -70 -59 -70c-11.333 0 -28 1.33301 -50 4s-38.667 4 -50 4c-10.667 0 -26.5 -1.33301 -47.5 -4s-36.833 -4 -47.5 -4c-16.667 0 -30.167 5.66699 -40.5 17s-15.5 26.333 -15.5 45c0 34 12.667 52 38 54c11.333 0.666992 18.333 3.66699 21 9
s4 14.333 4 27v153c0 55.333 -21 83 -63 83c-57.333 0 -86 -39.667 -86 -119v-118c0 -14 1.5 -22.833 4.5 -26.5s11.167 -6.5 24.5 -8.5c20.667 -3.33301 31 -20 31 -50c0 -44 -18.333 -66 -55 -66c-8 0 -22.333 1.33301 -43 4s-39.667 4 -57 4c-14 0 -29 -1 -45 -3
c-26.667 -3.33301 -43.667 -5 -51 -5c-18 0 -32.667 6.16699 -44 18.5s-17 28.166 -17 47.499c0 38 16.333 57 49 57c4 0 9.5 -1.16699 16.5 -3.5s12.5 -3.5 16.5 -3.5c11.333 0 17 18.667 17 56v333c0 37.333 -5.66699 56 -17 56c-4.66699 0 -10.667 -1.33301 -18 -4
c-4 -1.33301 -9.33301 -2 -16 -2c-32 0 -48 18.333 -48 55c0 20 5.66699 36.167 17 48.5s26 18.5 44 18.5c8.66699 0 21.334 -1 38.001 -3s29.334 -3 38.001 -3c20.667 0 38.5 1 53.5 3s26.5 3 34.5 3c18 0 27 -11.667 27 -35z" />
    <glyph glyph-name="i" unicode="i" horiz-adv-x="364" 
d="M241 503c18.667 0 28 -12.999 28 -38.999v-301c0 -34 6.33301 -51 19 -51c2.66699 0 7.5 0.833008 14.5 2.5s12.833 2.5 17.5 2.5c28 0 42 -17.333 42 -52c0 -46 -19.667 -69 -59 -69c-6.66699 0 -25.334 1.66699 -56.001 5c-18.667 2 -40 3 -64 3
c-12 0 -29.667 -1.33301 -53 -4s-40.666 -4 -51.999 -4c-18 0 -32.667 6.16699 -44 18.5s-17 28.166 -17 47.499c0 38 16 57 48 57l26 -6c2.66699 -0.666992 5 -1 7 -1c12 0 18 18.667 18 56v162c0 38 -5.66699 57 -17 57c-2 0 -8 -1.66699 -18 -5
c-6.66699 -1.33301 -12 -2 -16 -2c-32 0 -48 18.667 -48 56c0 20 5.66699 36.167 17 48.5s26.333 18.5 45 18.5c7.33301 0 18 -1 32 -3c23.333 -3.33301 42 -5 56 -5c11.333 0 26 1.33301 44 4s28 4 30 4zM184 541.001c-24.667 0 -46 9 -64 27s-27 39.333 -27 64
c0 25.333 8.83301 46.833 26.5 64.5s39.167 26.5 64.5 26.5s46.833 -8.83301 64.5 -26.5s26.5 -39.167 26.5 -64.5s-8.83301 -46.833 -26.5 -64.5s-39.167 -26.5 -64.5 -26.5z" />
    <glyph glyph-name="j" unicode="j" horiz-adv-x="328" 
d="M37 -77c0 -9.33301 -2.33496 -18 -7.00195 -26c5.33301 -1.33301 11.333 -2 18 -2c22.667 0 38.5 10 47.5 30s13.5 55.667 13.5 107v298c0 38 -6 57 -18 57c-4 0 -10.5 -1.16699 -19.5 -3.5s-15.167 -3.5 -18.5 -3.5c-28.667 0 -43 18.667 -43 56
c0 44.667 19.667 67 59 67c10 0 24.5 -1.33301 43.5 -4s33.5 -4 43.5 -4s25 1.33301 45 4s31 4 33 4c18.667 0 28 -13 28 -39v-458c0 -37.333 -3.33301 -66.5 -10 -87.5s-19.334 -41.5 -38.001 -61.5c-40.667 -44 -96.667 -66 -168 -66
c-49.333 0 -89.666 10.167 -120.999 30.5s-47 46.833 -47 79.5c0 23.333 8.33301 43 25 59s37.334 24 62.001 24c20.667 0 37.834 -5.83301 51.501 -17.5s20.5 -26.167 20.5 -43.5zM173.998 541c-25.333 0 -47 8.83301 -65 26.5s-27 39.167 -27 64.5s9 46.833 27 64.5
s39.667 26.5 65 26.5s46.833 -8.83301 64.5 -26.5s26.5 -39.167 26.5 -64.5c0 -24.667 -8.83301 -46 -26.5 -64s-39.167 -27 -64.5 -27z" />
    <glyph glyph-name="k" unicode="k" horiz-adv-x="674" 
d="M259 635l-0.000976562 -339.999l47 41l23 20c18 15.333 27 27.333 27 36c0 5.33301 -3 10.666 -9 15.999l-16 15c-8.66699 8 -13 19.333 -13 34c0 30.667 17.333 46 52 46c12 0 30.333 -1.33301 55 -4s43.334 -4 56.001 -4c19.333 0 43.333 1.33301 72 4s43.667 4 45 4
c39.333 0 59 -20 59 -60c0 -38.667 -15.333 -58 -46 -58c-6 0 -13.333 1 -22 3s-15.334 3 -20.001 3c-9.33301 0 -24 -7.33301 -44 -22l-42 -31c-17.333 -12.667 -26 -22.667 -26 -30c0 -3.33301 1.33301 -7 4 -11l9 -13l78 -123c21.333 -34 38.333 -51 51 -51
c4 0 9.33301 1 16 3l21 3c30 0 45 -19 45 -57c0 -42 -19.667 -63 -59 -63c-10.667 0 -26.667 1.33301 -48 4s-37.333 4 -48 4c-18 0 -35.667 -1.33301 -53 -4s-30 -4 -38 -4c-13.333 0 -25 5.33301 -35 16s-15 23.334 -15 38.001c0 8 4 19.667 12 35
c4.66699 6.66699 7 13 7 19c0 8 -7.33301 22.333 -22 43l-33 46c-12.667 17.333 -20.334 26 -23.001 26c-6.66699 0 -17 -6.33301 -31 -19l-36 -33v-20c0 -25.333 5.33301 -38 16 -38c4 0 9.66699 1 17 3s13.333 3 18 3c27.333 0 41 -16 41 -48c0 -47.333 -19 -71 -57 -71
c-9.33301 0 -23.666 1.33301 -42.999 4s-47.666 4 -84.999 4c-20.667 0 -38 -1 -52 -3c-22.667 -3.33301 -38 -5 -46 -5c-18 0 -32.667 6.16699 -44 18.5s-17 28.166 -17 47.499c0 38 16.333 57 49 57c-0.666992 0 7.66602 -2 24.999 -6c2.66699 -0.666992 5 -1 7 -1
c12 0 18 18.667 18 56v333c0 37.333 -5.66699 56 -17 56c-4.66699 0 -10.667 -1.33301 -18 -4c-4 -1.33301 -9.33301 -2 -16 -2c-32 0 -48 18.333 -48 55c0 44.667 21.333 67 64 67c10.667 0 20.334 -0.666992 29.001 -2c21.333 -3.33301 38 -5 50 -5
c9.33301 0 24 1.33301 44 4c15.333 2 26.333 3 33 3c21.333 0 32 -12.667 32 -38z" />
    <glyph glyph-name="l" unicode="l" horiz-adv-x="364" 
d="M231 673c18.667 0 28.0029 -12.333 28.0029 -37v-473c0 -33.333 6.66699 -50 20 -50c5.33301 0 10 0.666992 14 2s9.33301 2 16 2c29.333 0 44 -17.333 44 -52c0 -46 -20 -69 -60 -69c-0.666992 0 -26 2 -76 6c-15.333 1.33301 -31.666 2 -48.999 2
c-14.667 0 -30.334 -1 -47.001 -3c-28 -3.33301 -45.667 -5 -53 -5c-18 0 -32.667 6.16699 -44 18.5s-17 28.5 -17 48.5c0 37.333 16.333 56 49 56c4 0 9.5 -1.16699 16.5 -3.5s12.5 -3.5 16.5 -3.5c11.333 0 17 18.667 17 56v333c0 37.333 -5.66699 56 -17 56
c-4.66699 0 -10.667 -1.33301 -18 -4c-4 -1.33301 -9.33301 -2 -16 -2c-32 0 -48 18.333 -48 55c0 20.667 5.66699 37 17 49s26.666 18 45.999 18c5.33301 0 16.666 -1 33.999 -3c22.667 -2.66699 39.667 -4 51 -4c15.333 0 28.666 1.33301 39.999 4c15.333 2 27.333 3 36 3
z" />
    <glyph glyph-name="m" unicode="m" horiz-adv-x="965" 
d="M235 473l-0.000976562 -46c50 60 105.667 90 167 90c51.333 0 93.666 -25 126.999 -75c33.333 28.667 61.833 48.334 85.5 59.001s51.167 16 82.5 16c63.333 0 110.666 -21 141.999 -63c21.333 -28.667 32 -74.667 32 -138v-153c0 -34 6.33301 -51 19 -51
c4 0 9.33301 1 16 3c3.33301 1.33301 8.33301 2 15 2c29.333 0 44 -17.333 44 -52c0 -20.667 -5.33301 -37.334 -16 -50.001s-24.667 -19 -42 -19c-2 0 -11.667 1 -29 3l-22 3c-10.667 1.33301 -24.667 2 -42 2c-21.333 0 -42 -1.33301 -62 -4s-34 -4 -42 -4
c-16 0 -29.167 6.16699 -39.5 18.5s-15.5 27.833 -15.5 46.5c0 30.667 12.333 48.334 37 53.001c12.667 2 20.167 5.66699 22.5 11s3.5 20 3.5 44v103c0 42.667 -4.5 71.834 -13.5 87.501s-26.167 23.5 -51.5 23.5c-56.667 0 -85 -40.333 -85 -121v-93
c0 -22.667 1 -37 3 -43s7.33301 -10 16 -12c20.667 -4.66699 31 -21.334 31 -50.001c0 -45.333 -18.667 -68 -56 -68c-7.33301 0 -17.666 1 -30.999 3c-22 3.33301 -36.667 5 -44 5c-8 0 -19.833 -1.33301 -35.5 -4s-27.5 -4 -35.5 -4c-32.667 0 -49 21 -49 63
c0 30 10.333 47.667 31 53c11.333 2.66699 17.333 10.667 18 24c0.666992 18 1 29 1 33v113c0 38 -4.5 64.333 -13.5 79s-25.167 22 -48.5 22c-58.667 0 -88 -40.333 -88 -121v-121c0 -10.667 1.33301 -17.5 4 -20.5s9.33398 -5.5 20.001 -7.5c26 -4.66699 39 -22 39 -52
c0 -43.333 -18.333 -65 -55 -65c-11.333 0 -28.166 1.33301 -50.499 4s-39.166 4 -50.499 4c-15.333 0 -31 -1 -47 -3c-26.667 -3.33301 -43.667 -5 -51 -5c-18.667 0 -33.5 6.16699 -44.5 18.5s-16.5 28.166 -16.5 47.499c0 38 16 57 48 57
c5.33301 0 11.333 -1.16699 18 -3.5s11.667 -3.5 15 -3.5c11.333 0 17 18.667 17 56v162c0 38 -5.66699 57 -17 57c-2.66699 0 -7.83398 -1.16699 -15.501 -3.5s-13.5 -3.5 -17.5 -3.5c-32 0 -48 18.667 -48 56c0 19.333 5.5 35.333 16.5 48s25.5 19 43.5 19
c4 0 15 -1.66699 33 -5c10.667 -2 20.667 -3 30 -3c8 0 19.833 1.33301 35.5 4s27.5 4 35.5 4c17.333 0 26 -10 26 -30z" />
    <glyph glyph-name="n" unicode="n" horiz-adv-x="674" 
d="M235 475l0.00195312 -47.999c51.333 60 109.333 90 174 90c69.333 0 118.333 -26 147 -78c15.333 -26.667 23 -68.667 23 -126v-150c0 -34 6.66699 -51 20 -51c3.33301 0 8.33301 1 15 3c3.33301 1.33301 8.33301 2 15 2c29.333 0 44 -17.333 44 -52
c0 -46 -20 -69 -60 -69c-10.667 0 -26.667 1.33301 -48 4s-37.333 4 -48 4c-16.667 0 -34.334 -1.33301 -53.001 -4s-34 -4 -46 -4c-39.333 0 -59 20.333 -59 61c0 35.333 13.667 54 41 56c18 1.33301 27 9.66602 27 24.999v140c0 38.667 -5 65.834 -15 81.501
s-27 23.5 -51 23.5c-27.333 0 -49.833 -9.33301 -67.5 -28s-26.5 -42.334 -26.5 -71.001v-104c0 -30 1.33301 -48.167 4 -54.5s10.334 -10.5 23.001 -12.5c24 -3.33301 36 -21.333 36 -54c0 -42 -17.667 -63 -53 -63c-10 0 -22.333 1 -37 3c-24.667 3.33301 -43 5 -55 5
s-29.833 -1.33301 -53.5 -4s-41.5 -4 -53.5 -4c-42 0 -63 22.333 -63 67c0 37.333 16 56 48 56c5.33301 0 11.333 -1.16699 18 -3.5s11.667 -3.5 15 -3.5c11.333 0 17 18.667 17 56v162c0 38 -5.66699 57 -17 57c-2.66699 0 -7.83398 -1.16699 -15.501 -3.5
s-13.5 -3.5 -17.5 -3.5c-32 0 -48 18.333 -48 55c0 20 5.5 36.333 16.5 49s25.5 19 43.5 19c5.33301 0 16.666 -1.66699 33.999 -5c10 -2 18.667 -3 26 -3c8 0 21.667 1.33301 41 4s30 4 32 4c18 0 27 -9.33301 27 -28z" />
    <glyph glyph-name="o" unicode="o" horiz-adv-x="564" 
d="M286 -17c-82.667 0 -146.502 23.332 -191.502 69.999s-67.5 112.334 -67.5 197.001c0 84 22.333 149.5 67 196.5s107.334 70.5 188.001 70.5c79.333 0 141.833 -23.333 187.5 -70s68.5 -110.667 68.5 -192c0 -85.333 -22.167 -152 -66.5 -200s-106.166 -72 -185.499 -72z
M281.998 393.999c-29.333 0 -52.5 -12.833 -69.5 -38.5s-25.5 -60.834 -25.5 -105.501c0 -45.333 8.5 -80.666 25.5 -105.999s40.833 -38 71.5 -38c62 0 93 48 93 144s-31.667 144 -95 144z" />
    <glyph glyph-name="p" unicode="p" horiz-adv-x="601" 
d="M220 467l-0.00390625 -29.999c41.333 53.333 93 80 155 80c60.667 0 109 -23.5 145 -70.5s54 -110.167 54 -189.5c0 -82 -18.333 -147 -55 -195s-86 -72 -148 -72c-24.667 0 -47 4.66699 -67 14c-12.667 6 -32 18.667 -58 38v-77c0 -20.667 8 -31 24 -31
c6.66699 0 14.334 1 23.001 3c12 1.33301 20.667 2 26 2c30.667 0 46 -17.333 46 -52c0 -40 -20.667 -60 -62 -60c-12 0 -30.333 1.33301 -55 4c-30.667 3.33301 -61 5 -91 5c-12.667 0 -41 -2.66699 -85 -8c-8 -0.666992 -14 -1 -18 -1
c-17.333 0 -31.666 6.16699 -42.999 18.5s-17 28.166 -17 47.499c0 37.333 16.333 56 49 56c5.33301 0 10.333 -1 15 -3c12 -2.66699 17.667 -4 17 -4c12 0 18 19 18 57v331c0 38 -5.66699 57 -17 57c-2 0 -8 -1.66699 -18 -5c-6.66699 -1.33301 -12 -2 -16 -2
c-32 0 -48 18.667 -48 56c0 19.333 5.33301 35.333 16 48s24.334 19 41.001 19h7l35 -5c4.66699 -1.33301 14.334 -2 29.001 -2c19.333 0 37.333 1.33301 54 4c8.66699 1.33301 15 2 19 2c16.667 0 25 -11.667 25 -35zM330.996 390.001c-26 0 -46.333 -12 -61 -36
s-22 -57.333 -22 -100c0 -42 7.33301 -75.333 22 -100s34.334 -37 59.001 -37c25.333 0 45.666 12.333 60.999 37s23 58 23 100c0 41.333 -7.5 74.333 -22.5 99s-34.833 37 -59.5 37z" />
    <glyph glyph-name="q" unicode="q" horiz-adv-x="582" 
d="M229 517c59.333 0 107.332 -23.332 143.999 -69.999v28c0 26.667 22.667 40 68 40c50.667 0 76 -16.667 76 -50v-474c0 -30.667 7 -46 21 -46c4 0 10.333 1 19 3c2.66699 0.666992 7 1 13 1c27.333 0 41 -17 41 -51c0 -47.333 -19.667 -71 -59 -71
c-12.667 0 -31.5 1.5 -56.5 4.5s-43.833 4.5 -56.5 4.5c-16 0 -39.667 -1.5 -71 -4.5s-54.666 -4.5 -69.999 -4.5c-36 0 -54 19.667 -54 59c0 34.667 17 52 51 52c5.33301 0 13 -0.5 23 -1.5s17.667 -1.5 23 -1.5c10.667 0 17.667 4 21 12c1.33301 4 2 13 2 27v77
c-36 -40.667 -79.667 -61 -131 -61c-61.333 0 -111 24.167 -149 72.5s-57 111.166 -57 188.499c0 82 18 146.833 54 194.5s85.333 71.5 148 71.5zM275.999 390.001c-27.333 0 -49 -12.3311 -65 -36.998s-24 -57.334 -24 -98.001s8 -73.834 24 -99.501s36.667 -38.5 62 -38.5
c27.333 0 49 12.333 65 37s24 57.667 24 99c0 42.667 -7.66699 76.167 -23 100.5s-36.333 36.5 -63 36.5z" />
    <glyph glyph-name="r" unicode="r" horiz-adv-x="510" 
d="M234 472l-0.000976562 -84.999c9.33301 34 20.333 59 33 75c29.333 36.667 70.333 55 123 55c36.667 0 67.5 -11.833 92.5 -35.5s37.5 -52.834 37.5 -87.501c0 -27.333 -8 -49.833 -24 -67.5s-36.333 -26.5 -61 -26.5c-18.667 0 -34.5 6 -47.5 18s-19.5 26.667 -19.5 44
c0 9.33301 4.33301 22.333 13 39h-6c-44.667 0 -74.667 -23.667 -90 -71c-12 -38 -18 -81.667 -18 -131v-38c0 -24 2 -39.333 6 -46c2.66699 -4 7.33398 -6 14.001 -6c6 0 14.333 1.33301 25 4s18.667 4 24 4c14.667 0 27.167 -5.16699 37.5 -15.5s15.5 -22.833 15.5 -37.5
c0 -19.333 -6.5 -35.5 -19.5 -48.5s-28.833 -19.5 -47.5 -19.5c-10 0 -28.667 1.66699 -56 5c-16.667 2 -37.667 3 -63 3s-47.666 -1 -66.999 -3c-32 -3.33301 -51.667 -5 -59 -5c-41.333 0 -62 22.333 -62 67c0 37.333 16 56 48 56c5.33301 0 11.333 -1.16699 18 -3.5
s11.667 -3.5 15 -3.5c11.333 0 17 18.667 17 56v162c0 38 -5.66699 57 -17 57c-2.66699 0 -7.83398 -1.16699 -15.501 -3.5s-13.5 -3.5 -17.5 -3.5c-32 0 -48 18.333 -48 55c0 20 5.33301 36.333 16 49s24.334 19 41.001 19c6.66699 0 16 -1.33301 28 -4s23.333 -4 34 -4
c8 0 19.667 1.33301 35 4s26.666 4 33.999 4c20.667 0 31 -10.333 31 -31z" />
    <glyph glyph-name="s" unicode="s" horiz-adv-x="510" 
d="M226 517c51.333 0 94.668 -14.333 130.001 -43c2.66699 28 20.667 42 54 42c34 0 51 -12 51 -36c0 -8 -1.33301 -17 -4 -27c-2 -12 -3 -23.333 -3 -34c0 -2 0.333008 -7.33301 1 -16v-23v-4c0 -35.333 -17.667 -53 -53 -53c-25.333 0 -47.333 12.667 -66 38
c-22.667 30.667 -50.334 46 -83.001 46c-38.667 0 -58 -13.333 -58 -40c0 -14 6.33301 -23.833 19 -29.5s46 -13.167 100 -22.5c44 -8 76.5 -17 97.5 -27s38.167 -24.333 51.5 -43c16.667 -24 25 -52 25 -84c0 -50.667 -19.5 -93 -58.5 -127s-87.833 -51 -146.5 -51
s-112 18.667 -160 56c0 -32.667 -16.667 -49 -50 -49c-36 0 -54 14.667 -54 44c0 6.66699 0.666992 17 2 31s2 24.333 2 31c0 6 -0.5 15 -1.5 27s-1.5 21 -1.5 27c0 30 18.667 45 56 45c18 0 31.667 -2.66699 41 -8s19.333 -15.666 30 -30.999
c16.667 -24.667 32 -40.834 46 -48.501s34.667 -11.5 62 -11.5c48 0 72 15 72 45c0 20.667 -19.333 35 -58 43l-58 12c-47.333 10 -80.833 20 -100.5 30s-35.167 25.833 -46.5 47.5s-17 46.5 -17 74.5c0 50 16.5 90.667 49.5 122s76.167 47 129.5 47z" />
    <glyph glyph-name="t" unicode="t" horiz-adv-x="437" 
d="M240 366l0.00195312 -40.998l-1 -62l-2 -67c-0.666992 -22 -1 -31 -1 -27c0 -39.333 12.667 -59 38 -59c24 0 36 17.667 36 53c0 5.33301 -0.333008 9.33301 -1 12v13c-0.666992 4.66699 -1 8 -1 10c0 36 18 54 54 54c42 0 63 -33.667 63 -101
c0 -52.667 -15.667 -93.834 -47 -123.501s-75 -44.5 -131 -44.5c-110 0 -165 58 -165 174c0 18.667 0.833008 46.667 2.5 84s2.5 65.333 2.5 84v32c0 16.667 -1.5 27.167 -4.5 31.5s-10.167 6.5 -21.5 6.5h-16c-12.667 0 -23 4.83301 -31 14.5s-12 22.167 -12 37.5
s4.16699 28.5 12.5 39.5s18.166 16.5 29.499 16.5h19c16 0 25.333 4.66699 28 14c2 5.33301 3 14.333 3 27v49c0 23.333 6.16699 39.333 18.5 48s34.833 13 67.5 13c23.333 0 39.166 -3.33301 47.499 -10s12.5 -21.334 12.5 -44.001v-54c0 -19.333 1.83301 -31.333 5.5 -36
s13.167 -7 28.5 -7h72c39.333 0 59 -18.333 59 -55c0 -35.333 -18 -53 -54 -53h-82c-14 0 -22.333 -2.33301 -25 -7s-4 -12 -4 -22z" />
    <glyph glyph-name="u" unicode="u" horiz-adv-x="637" 
d="M414 28l-0.00195312 39.001c-44 -56 -102.333 -84 -175 -84c-30.667 0 -58.667 6.66699 -84 20s-43.5 31.166 -54.5 53.499s-16.5 63.5 -16.5 123.5v155c0 23.333 -1.5 37 -4.5 41s-7.83301 6 -14.5 6h-10c-2 -0.666992 -5.33301 -1 -10 -1c-30 0 -45 18.333 -45 55
c0 44.667 20.333 67 61 67c8 0 20.333 -1.33301 37 -4s29 -4 37 -4s20 1.33301 36 4s28 4 36 4c20 0 30 -14 30 -42l2 -266c2 -52 22.667 -78 62 -78c60 0 90 41.667 90 125v93c0 34 -7.66699 51 -23 51c-4 0 -9.16699 -0.833008 -15.5 -2.5s-11.5 -2.5 -15.5 -2.5
c-24.667 0 -37 17.667 -37 53c0 46 18.667 69 56 69c9.33301 0 23 -1.33301 41 -4s31.333 -4 40 -4c2.66699 0 17 1.66699 43 5c15.333 2 26.333 3 33 3c21.333 0 32 -12 32 -36v-304c0 -33.333 6.33301 -50 19 -50c5.33301 0 10 0.666992 14 2s9.66699 2 17 2
c28.667 0 43 -17.333 43 -52c0 -46 -19.667 -69 -59 -69c-8 0 -19.833 1.33301 -35.5 4s-27.5 4 -35.5 4c-7.33301 0 -18.166 -1.33301 -32.499 -4s-25.166 -4 -32.499 -4c-19.333 0 -29 10.667 -29 32z" />
    <glyph glyph-name="v" unicode="v" horiz-adv-x="655" 
d="M260 333l69.001 -220l74 220l8 22c2 7.33301 3 12.666 3 15.999c0 9.33301 -8.66699 15.666 -26 18.999c-25.333 5.33301 -38 24 -38 56c0 38 18 57 54 57c12 0 29.833 -1.33301 53.5 -4s41.5 -4 53.5 -4c18.667 0 37 1.33301 55 4s31 4 39 4c39.333 0 59 -21 59 -63
c0 -40 -17 -60 -51 -60c-1.33301 0 -3 0.333008 -5 1h-5c-4.66699 1.33301 -9 2 -13 2c-11.333 0 -20.666 -10.333 -27.999 -31c-2.66699 -7.33301 -9.33398 -24.666 -20.001 -51.999l-86 -224c-20.667 -54.667 -50.334 -80.667 -89.001 -78l-47 3l-47 -3h-4
c-31.333 0 -54.333 20 -69 60l-104 281c-8 20 -13.667 32.167 -17 36.5s-8.33301 6.5 -15 6.5h-5c-2 -0.666992 -3.66699 -1 -5 -1c-5.33301 -1.33301 -11 -2 -17 -2c-13.333 0 -24.333 5.33301 -33 16s-13 24.334 -13 41.001c0 44.667 20.333 67 61 67
c10 0 25.167 -1.33301 45.5 -4s35.5 -4 45.5 -4c14 0 38 1.66699 72 5c20.667 2 36 3 46 3c36 0 54 -19 54 -57c0 -34.667 -13.333 -53.334 -40 -56.001c-16.667 -2 -25 -8.66699 -25 -20c0 -3.33301 3.33301 -15.666 10 -36.999z" />
    <glyph glyph-name="w" unicode="w" horiz-adv-x="892" 
d="M237 349l43.0088 -213.999l64 295c6.66699 29.333 16.5 48.833 29.5 58.5s36.833 14.5 71.5 14.5c39.333 0 65.166 -4.83301 77.499 -14.5s22.166 -33.167 29.499 -70.5l57 -283l53 224c1.33301 5.33301 2 10 2 14c0 10 -8 15 -24 15
c-32.667 0.666992 -49 19.334 -49 56.001c0 39.333 19 59 57 59c11.333 0 28 -1.33301 50 -4s38.667 -4 50 -4c10.667 0 26.667 1.33301 48 4s37.333 4 48 4c17.333 0 31.333 -5.66699 42 -17s16 -26.333 16 -45c0 -17.333 -4.33301 -31.5 -13 -42.5
s-19.667 -16.5 -33 -16.5c-4.66699 0 -8 0.333008 -10 1c-9.33301 1.33301 -14.333 2 -15 2c-8.66699 0 -16.334 -12 -23.001 -36c0 -0.666992 -3 -10 -9 -28l-83 -260c-13.333 -42.667 -31 -64 -53 -64c-6.66699 0 -16.667 1 -30 3s-23.333 3 -30 3s-16.334 -1 -29.001 -3
s-22 -3 -28 -3c-24.667 0 -42 26 -52 78l-49 263l-58 -255c-8.66699 -38 -15.834 -61.833 -21.501 -71.5s-15.5 -14.5 -29.5 -14.5c-7.33301 0 -17.333 1 -30 3s-23.667 3 -33 3c-7.33301 0 -18 -1 -32 -3s-24.667 -3 -32 -3c-20.667 0 -35.667 17 -45 51l-80 304
c-4.66699 20.667 -13.667 31 -27 31c-2.66699 0 -6.83398 -0.5 -12.501 -1.5s-9.83398 -1.5 -12.501 -1.5c-28 0 -42 19.333 -42 58c0 43.333 19.667 65 59 65c10.667 0 26.5 -1.33301 47.5 -4s36.833 -4 47.5 -4c11.333 0 28.666 1.33301 51.999 4s40.666 4 51.999 4
c36 0 54 -20 54 -60c0 -34 -13 -52 -39 -54c-12.667 -1.33301 -20.5 -2.83301 -23.5 -4.5s-4.5 -5.83398 -4.5 -12.501v-9c0 -2.66699 0.666992 -7.33398 2 -14.001z" />
    <glyph glyph-name="x" unicode="x" horiz-adv-x="655" 
d="M140 163l66.002 93l-75 98c-16 21.333 -30.333 32 -43 32c-3.33301 0 -8.83301 -0.666992 -16.5 -2s-13.167 -2 -16.5 -2c-12.667 0 -23.334 5.16699 -32.001 15.5s-13 23.166 -13 38.499c0 19.333 5.5 35.333 16.5 48s25.167 19 42.5 19c10 0 25.167 -1.33301 45.5 -4
s35.833 -4 46.5 -4c10 0 29.333 1.66699 58 5c17.333 2 30.666 3 39.999 3c38.667 0 58 -18.333 58 -55c0 -13.333 -6.33301 -25.666 -19 -36.999c-6 -5.33301 -9 -10.333 -9 -15c0 -7.33301 5 -19 15 -35l31 -49l35 49c8 11.333 12 20.666 12 27.999
c0 5.33301 -4.33301 10.333 -13 15c-15.333 8 -23 21 -23 39c0 40 18.667 60 56 60c9.33301 0 21.666 -1 36.999 -3c25.333 -3.33301 41.666 -5 48.999 -5c6 0 21 1.33301 45 4s39 4 45 4c17.333 0 31.5 -5.5 42.5 -16.5s16.5 -25.5 16.5 -43.5
c0 -15.333 -4.5 -29 -13.5 -41s-18.833 -18 -29.5 -18c-3.33301 0 -8.66602 0.5 -15.999 1.5s-12.666 1.5 -15.999 1.5c-9.33301 0 -18 -5.33301 -26 -16l-13 -17l-67 -92l83 -120c12.667 -18 23.667 -27 33 -27c3.33301 0 8 0.666992 14 2s10.667 2 14 2
c14.667 0 26.5 -5.33301 35.5 -16s13.5 -24.667 13.5 -42c0 -42.667 -21.667 -64 -65 -64c-8 0 -19.667 1 -35 3c-25.333 3.33301 -44.333 5 -57 5c-10.667 0 -26.167 -1.33301 -46.5 -4s-35.833 -4 -46.5 -4c-16.667 0 -30.667 5.66699 -42 17s-17 25.333 -17 42
c0 12.667 6.33301 23.667 19 33s19 16.666 19 21.999c0 7.33301 -6 19.666 -18 36.999l-31 44l-40 -56c-9.33301 -13.333 -14 -22.666 -14 -27.999c0 -6.66699 6.33301 -13.167 19 -19.5s19 -17.166 19 -32.499c0 -38.667 -20.667 -58 -62 -58
c-9.33301 0 -23.5 0.833008 -42.5 2.5s-33.167 2.5 -42.5 2.5c-6.66699 0 -30.667 -1.66699 -72 -5c-12.667 -1.33301 -23.667 -2 -33 -2c-40.667 0 -61 21.333 -61 64c0 16.667 4.5 30.334 13.5 41.001s20.833 16 35.5 16c4 0 10 -0.666992 18 -2s14 -2 18 -2
c10 0 21.667 8.33301 35 25z" />
    <glyph glyph-name="y" unicode="y" horiz-adv-x="619" 
d="M249 352l67.9961 -215.002l68 206c5.33301 16 8 28 8 36c0 7.33301 -5.33301 13 -16 17l-18 7c-14 5.33301 -21 19.333 -21 42c0 16.667 4.83301 30.5 14.5 41.5s21.834 16.5 36.501 16.5c10 0 25.333 -1.33301 46 -4s36 -4 46 -4c10.667 0 26.667 1.33301 48 4
s37.333 4 48 4c40 0 60 -21.667 60 -65c0 -15.333 -4.5 -28.833 -13.5 -40.5s-19.833 -17.5 -32.5 -17.5c-2.66699 0 -7.16699 0.666992 -13.5 2s-10.833 2 -13.5 2c-12 0 -21.667 -10 -29 -30l-13 -35l-86 -224c-26.667 -69.333 -45.167 -114.333 -55.5 -135
s-25.166 -43.334 -44.499 -68.001c-53.333 -67.333 -118.666 -101 -195.999 -101c-47.333 0 -86.333 11.333 -117 34s-46 51.667 -46 87c0 24.667 7.83301 44.834 23.5 60.501s35.5 23.5 59.5 23.5c20.667 0 37.334 -6.16699 50.001 -18.5s19 -28.166 19 -47.499
c0 -7.33301 -0.666992 -14.666 -2 -21.999c8.66699 -4 17 -6 25 -6c18 0 35.167 10.667 51.5 32s24.5 39.333 24.5 54c0 13.333 -11.333 47 -34 101l-112 265c-8 18.667 -16 28 -24 28c-0.666992 0 -5.66699 -0.666992 -15 -2h-4c-2 -0.666992 -3.66699 -1 -5 -1
c-34 0 -51 19 -51 57c0 18.667 5.83301 34.5 17.5 47.5s26.167 19.5 43.5 19.5c10.667 0 26.5 -1.33301 47.5 -4s36.833 -4 47.5 -4c12.667 0 34 1.33301 64 4s46 4 48 4c36.667 0 55 -19.333 55 -58c0 -27.333 -14 -43.333 -42 -48c-14 -2 -21 -8 -21 -18
c0 -5.33301 2 -14.333 6 -27z" />
    <glyph glyph-name="z" unicode="z" horiz-adv-x="546" 
d="M45 115l248.002 269h-102c-25.333 0 -38 -6.33301 -38 -19c0 -2.66699 1 -10 3 -22c0 -1.33301 0.333008 -3 1 -5v-5c0 -16.667 -6 -30.5 -18 -41.5s-27 -16.5 -45 -16.5c-38 0 -57 20.333 -57 61c0 6 0.666992 17.333 2 34
c1.33301 14.667 1.66602 26.334 0.999023 35.001l-4 50v6c0 28 16.667 42 50 42h11l115 -3c23.333 -0.666992 49 -1 77 -1c39.333 0 83.333 1 132 3h10c49.333 0 74 -23 74 -69c0 -22.667 -7.66699 -42.334 -23 -59.001l-19 -21l-221 -238h68c26 0 42.667 0.666992 50 2
c21.333 4 32 14 32 30c0 -4 -0.666992 6 -2 30v6c0 37.333 19.667 56 59 56c40 0 60 -22.333 60 -67v-17c-4 -40 -6 -61 -6 -63c0 -6.66699 0.666992 -16.167 2 -28.5s2 -21.833 2 -28.5c0 -14.667 -4 -24.667 -12 -30s-23 -8 -45 -8h-13l-48 2l-73 2
c-48.667 1.33301 -81.334 2 -98.001 2c-14.667 0 -36.667 -1 -66 -3s-51.333 -3 -66 -3c-20 0 -36 5.5 -48 16.5s-18 25.833 -18 44.5c0 20 8.33301 39 25 57z" />
    <glyph glyph-name="braceleft" unicode="{" horiz-adv-x="500" 
d="M304 366c0 -34 -4.00195 -59.333 -12.002 -76s-24 -33.334 -48 -50.001c22.667 -14.667 38.334 -31.167 47.001 -49.5s13 -44.166 13 -77.499v-135c0 -26.667 7.33301 -43.667 22 -51c8 -4 27 -6 57 -6c6.66699 0 13.334 0.333008 20.001 1v-115l-65 -2h-12
c-54.667 0 -93.667 11 -117 33s-35 59 -35 111v155c0 50 -18.333 78.667 -55 86v110c30 6 47 21 51 45l4 23v162c0 52.667 11.5 90 34.5 112s62.167 33 117.5 33h6c2.66699 -0.666992 4.66699 -1 6 -1l65 -2v-114h-20c-30 0 -49 -2 -57 -6
c-14.667 -7.33301 -22 -24.333 -22 -51v-135z" />
    <glyph glyph-name="bar" unicode="|" horiz-adv-x="500" 
d="M185 -250v1000h130v-1000h-130z" />
    <glyph glyph-name="braceright" unicode="}" horiz-adv-x="500" 
d="M219 113c0 34 4.00098 59.332 12.001 75.999s24 33.667 48 51c-22.667 14.667 -38.334 31 -47.001 49s-13 43.667 -13 77v135c0 27.333 -7.33301 44.333 -22 51c-8 4 -27.333 6 -58 6h-20v114l66 2c1.33301 0 3.33301 0.333008 6 1h6c54.667 0 93.667 -11.167 117 -33.5
s35 -59.5 35 -111.5v-154c0 -25.333 3 -44 9 -56c8.66699 -16 23.667 -26 45 -30v-110c-30.667 -7.33301 -47.667 -22.666 -51 -45.999l-3 -23v-162c0 -52 -11.667 -89 -35 -111s-62.333 -33 -117 -33h-12l-66 2v115c7.33301 -0.666992 14.333 -1 21 -1c30 0 49 2 57 6
c14.667 7.33301 22 24.333 22 51v135z" />
    <glyph glyph-name="asciitilde" unicode="~" horiz-adv-x="667" 
d="M234 621c-16.667 0 -29.6709 -4 -39.0039 -12s-20.666 -24.333 -33.999 -49l-71 47c2 4 4.66699 9.66699 8 17c20 46 40.333 77.833 61 95.5s48.334 26.5 83.001 26.5c22 0 56.333 -8.66699 103 -26c41.333 -15.333 70.333 -23 87 -23c28 0 51.667 17 71 51l74 -43
c-18 -36.667 -33.167 -63 -45.5 -79s-28.666 -29.167 -48.999 -39.5s-41.833 -15.5 -64.5 -15.5c-15.333 0 -49.666 9.33301 -102.999 28c-42 14.667 -69 22 -81 22z" />
    <glyph glyph-name="uni007F.controlDEL" horiz-adv-x="0" 
 />
    <glyph glyph-name="nonbreakingspace" unicode="&#xa0;" horiz-adv-x="250" 
 />
    <glyph glyph-name="exclamdown" unicode="&#xa1;" horiz-adv-x="437" 
d="M219 517c26.667 0 49.167 -9.33301 67.5 -28s27.5 -41 27.5 -67c0 -26.667 -9.16699 -49.167 -27.5 -67.5s-40.833 -27.5 -67.5 -27.5c-26 0 -48.167 9.16699 -66.5 27.5s-27.5 40.833 -27.5 67.5c0 26 9.16699 48.333 27.5 67s40.5 28 66.5 28zM152 244
c3.33301 33.333 19 50 47 50h39c28 0 43.667 -16.667 47 -50l31 -321c1.33301 -14 2 -27.333 2 -40c0 -45.333 -33.333 -68 -100 -68s-100 22.667 -100 68c0 6 1 19.333 3 40z" />
    <glyph glyph-name="cent" unicode="&#xa2;" horiz-adv-x="655" 
d="M372 622l0.00195312 -47c103.333 -12 155 -54.667 155 -128c0 -26.667 -7.33301 -48.167 -22 -64.5s-34 -24.5 -58 -24.5c-18.667 0 -34.834 5.16699 -48.501 15.5s-20.5 22.833 -20.5 37.5c0 9.33301 4 19.333 12 30c-12 10.667 -25 16 -39 16
c-24.667 0 -45.167 -10.833 -61.5 -32.5s-24.5 -48.167 -24.5 -79.5c0 -32.667 7.83301 -59.667 23.5 -81s35.834 -32 60.501 -32c22 0 39.667 12 53 36c10 18.667 18.333 31 25 37c9.33301 8 22.666 12 39.999 12c47.333 0 71 -20.333 71 -61
c0 -38.667 -15.333 -71.667 -46 -99s-70.667 -44 -120 -50v-69c0 -22 -13.333 -33 -40 -33c-24.667 0 -37 11.333 -37 34v3c0 6.66699 0.333008 14 1 22v48c-56.667 8 -100.834 32.333 -132.501 73s-47.5 93.334 -47.5 158.001c0 84.667 27.667 147.667 83 189
c24 18 56.333 30.667 97 38v44c0 32 4.66699 50.333 14 55c5.33301 2.66699 13 4 23 4c20.667 0 32.667 -6.33301 36 -19c2 -6.66699 3 -17.334 3 -32.001z" />
    <glyph glyph-name="sterling" unicode="&#xa3;" horiz-adv-x="801" 
d="M365 504c0 -21.333 13.668 -57.3291 41.001 -107.996l19 1l73 2l54 3c12 0.666992 19.667 1 23 1c22 0 37 -3 45 -9s12 -17 12 -33c0 -29.333 -15.667 -44 -47 -44c-0.666992 0 -10 0.666992 -28 2c-36.667 2.66699 -67.334 4 -92.001 4h-22
c21.333 -35.333 32 -69.333 32 -102c0 -16.667 -3.33301 -34.334 -10 -53.001c60.667 -35.333 114.667 -53 162 -53c14 0 25.833 3.16699 35.5 9.5s14.5 14.166 14.5 23.499c0 10 -4.33301 15 -13 15c-4 0 -9 -1.33301 -15 -4c-12 -3.33301 -22 -5 -30 -5
c-16 0 -29.333 5.66699 -40 17s-16 25.333 -16 42c0 23.333 8.66699 42.166 26 56.499s40.333 21.5 69 21.5c40.667 0 74.667 -13.667 102 -41s41 -61 41 -101c0 -46.667 -18.5 -86.167 -55.5 -118.5s-82.167 -48.5 -135.5 -48.5c-43.333 0 -107.666 21.333 -192.999 64
l-18 9c-22 -19.333 -40.667 -33 -56 -41c-38.667 -21.333 -86 -32 -142 -32c-57.333 0 -105 13.667 -143 41s-57 61.666 -57 102.999c0 38.667 15.667 71.667 47 99s69 41 113 41c45.333 0 95.666 -11 150.999 -33c-1.33301 22.667 -14 53 -38 91
c-14 0 -34 -0.666992 -60 -2l-40 -3c-18 -1.33301 -29.667 -2 -35 -2c-32 0 -48 14.333 -48 43s14 43 42 43c15.333 0 26.833 -0.333008 34.5 -1s21.834 -1.66699 42.501 -3l22 -1c-20.667 41.333 -31 77.333 -31 108c0 50.667 22.167 93.167 66.5 127.5
s99.166 51.5 164.499 51.5c57.333 0 104.166 -13.167 140.499 -39.5s54.5 -59.833 54.5 -100.5c0 -27.333 -8.5 -49.833 -25.5 -67.5s-38.5 -26.5 -64.5 -26.5c-22.667 0 -40.667 6.16699 -54 18.5s-20 28.833 -20 49.5c0 10.667 2.33301 21 7 31
c-15.333 8 -29.333 12 -42 12c-17.333 0 -32.166 -5.66699 -44.499 -17s-18.5 -25 -18.5 -41zM192.001 96.0039c26.667 0 53 11.667 79 35c-30 17.333 -56.333 26 -79 26c-31.333 0 -47 -9.66699 -47 -29c0 -21.333 15.667 -32 47 -32z" />
    <glyph glyph-name="currency" unicode="&#xa4;" horiz-adv-x="667" 
d="M90 67l-69.999 69.999l103 103c-29.333 44.667 -44 90.667 -44 138c0 46.667 15 92.334 45 137.001l-105 104l71 71l104 -104c45.333 29.333 92 44 140 44c47.333 0 93 -14.333 137 -43l103 102l70 -70l-102 -102c30.667 -48 46 -94.667 46 -140
c0 -46 -14.667 -91.333 -44 -136l103 -103l-69 -71l-103 103c-44.667 -30 -92 -45 -142 -45c-46.667 0 -93.334 14.667 -140.001 44zM469.001 376.999c0 38 -13.167 70.333 -39.5 97s-58.166 40 -95.499 40c-38 0 -70.167 -13.333 -96.5 -40s-39.5 -59 -39.5 -97
c0 -37.333 13.333 -69.333 40 -96s58.667 -40 96 -40s69.166 13.333 95.499 40s39.5 58.667 39.5 96z" />
    <glyph glyph-name="yen" unicode="&#xa5;" horiz-adv-x="765" 
d="M653 354l-126.995 -0.000976562l-33 -61h162c27.333 0 41 -13 41 -39c0 -24.667 -12.667 -37 -38 -37h-194l-1 -44c-0.666992 -30.667 10 -46 32 -46c7.33301 0 17.666 1.16699 30.999 3.5s23.333 3.5 30 3.5c16.667 0 30 -6.33301 40 -19s15 -29 15 -49
c0 -22 -6.66699 -39.333 -20 -52s-31.333 -19 -54 -19c-16.667 0 -42 1.66699 -76 5s-59.667 5 -77 5c-18.667 0 -46.334 -1.66699 -83.001 -5s-64.334 -5 -83.001 -5c-21.333 0 -38.833 6.66699 -52.5 20s-20.5 30.666 -20.5 51.999c0 44.667 19 67 57 67
c7.33301 0 17.833 -1.16699 31.5 -3.5s23.834 -3.5 30.501 -3.5c18.667 0 28 15.333 28 46v44h-174c-16.667 0 -28.667 2.16699 -36 6.5s-11 13.833 -11 28.5c0 27.333 14.333 41 43 41h144l-33 61h-108c-16.667 0 -28 1.66699 -34 5c-8.66699 5.33301 -13 15.333 -13 30
c0 26.667 14 40 42 40h71l-31 50l-22 38c-8.66699 14.667 -20 22 -34 22c-4 0 -10.333 -1 -19 -3c-11.333 -2.66699 -20.333 -4 -27 -4c-31.333 0 -47 20.333 -47 61c0 52 23.333 78 70 78c10 0 26.333 -1.66699 49 -5s44.334 -5 65.001 -5c20 0 42 2 66 6
c16 2.66699 31 4 45 4c20.667 0 37.167 -6.83301 49.5 -20.5s18.5 -31.834 18.5 -54.501c0 -18.667 -8 -33 -24 -43c-4.66699 -3.33301 -11.334 -7.66602 -20.001 -12.999c-4.66699 -3.33301 -7 -7.33301 -7 -12c0 -5.33301 4.33301 -18 13 -38l53 -124l67 142
c4.66699 8.66699 7 16.334 7 23.001s-7.33301 13.667 -22 21c-18 8.66699 -27 24.334 -27 47.001c0 48 24 72 72 72c15.333 0 30 -1 44 -3c32 -4.66699 52.667 -7 62 -7c13.333 0 32.666 2 57.999 6c16.667 2.66699 31 4 43 4c21.333 0 38.5 -6.66699 51.5 -20
s19.5 -31.333 19.5 -54c0 -18.667 -4.83301 -34.167 -14.5 -46.5s-21.834 -18.5 -36.501 -18.5c-6 0 -15 1.33301 -27 4c-8.66699 2 -15 3 -19 3c-12.667 0 -24.334 -7.66699 -35.001 -23l-16 -26l-38 -61h79c27.333 0 41 -12.667 41 -38c0 -24.667 -12.333 -37 -37 -37z
" />
    <glyph glyph-name="brokenbar" unicode="&#xa6;" horiz-adv-x="500" 
d="M185 -250v400h130v-400h-130zM185 350v400h130v-400h-130z" />
    <glyph glyph-name="section" unicode="&#xa7;" horiz-adv-x="655" 
d="M91 260c0 25.333 5.33105 47.3301 15.998 65.9971s30.334 40.334 59.001 65.001c-26 35.333 -39 71.666 -39 108.999c0 55.333 19 100 57 134s88.333 51 151 51c56.667 0 104.5 -13.5 143.5 -40.5s58.5 -60.167 58.5 -99.5c0 -24.667 -7.66699 -44.834 -23 -60.501
s-35 -23.5 -59 -23.5c-20.667 0 -38.167 6 -52.5 18s-21.5 26.667 -21.5 44c0 12 4.33301 24.667 13 38c-17.333 8.66699 -33.666 13 -48.999 13c-46.667 0 -70 -17 -70 -51c0 -13.333 4.16699 -23 12.5 -29s32.166 -16.333 71.499 -31
c54.667 -20 94.334 -36.667 119.001 -50c58 -31.333 87 -75.333 87 -132c0 -45.333 -24 -85.666 -72 -120.999c31.333 -33.333 47 -72.666 47 -117.999c0 -56 -20.5 -101.833 -61.5 -137.5s-94.167 -53.5 -159.5 -53.5c-57.333 0 -106.333 14.167 -147 42.5
s-61 62.166 -61 101.499c0 22.667 8.33301 42.167 25 58.5s36.667 24.5 60 24.5c21.333 0 38.5 -5.5 51.5 -16.5s19.5 -25.167 19.5 -42.5c0 -12 -3.66699 -24 -11 -36c20 -12 41.333 -18 64 -18c20.667 0 37.667 5 51 15s20 22.667 20 38
c0 20.667 -15.333 36.334 -46 47.001l-99 35c-47.333 16.667 -78.833 30.334 -94.5 41.001s-29.667 27.334 -42 50.001s-18.5 45.667 -18.5 69zM346.998 306.997l-87 32.001c-17.333 -13.333 -26 -28 -26 -44c0 -13.333 4.16699 -23.666 12.5 -30.999s24.5 -15.333 48.5 -24
l95 -34c18.667 7.33301 28 20.666 28 39.999c0 23.333 -23.667 43.666 -71 60.999z" />
    <glyph glyph-name="dieresis" unicode="&#xa8;" horiz-adv-x="492" 
d="M143 550c-24 0 -44.5 8.5 -61.5 25.5s-25.5 37.167 -25.5 60.5s8.5 43.5 25.5 60.5s37.5 25.5 61.5 25.5s44.333 -8.33301 61 -25s25 -37 25 -61s-8.5 -44.333 -25.5 -61s-37.167 -25 -60.5 -25zM349 550c-24 0 -44.5 8.33301 -61.5 25s-25.5 37 -25.5 61
c0 23.333 8.5 43.5 25.5 60.5s37.5 25.5 61.5 25.5s44.333 -8.33301 61 -25s25 -37 25 -61c0 -23.333 -8.5 -43.5 -25.5 -60.5s-37.167 -25.5 -60.5 -25.5z" />
    <glyph glyph-name="copyright" unicode="&#xa9;" horiz-adv-x="756" 
d="M378 685c96.667 0 179.332 -34.333 247.999 -103s103 -151.667 103 -249c0 -96.667 -34.167 -179.334 -102.5 -248.001s-151.166 -103 -248.499 -103c-96.667 0 -179.334 34.333 -248.001 103s-103 151.334 -103 248.001c0 97.333 34.333 180.333 103 249
s151.334 103 248.001 103zM377.998 50c76.667 0 141.835 27.667 195.502 83s80.5 122 80.5 200c0 78.667 -26.833 145.5 -80.5 200.5s-118.834 82.5 -195.501 82.5s-141.834 -27.667 -195.501 -83s-80.5 -122 -80.5 -200s27 -144.667 81 -200s119 -83 195 -83zM368.999 536
c38 0 72.333 -13.333 103 -40v5c0 21.333 12.333 32 37 32c26.667 0 40 -12 40 -36c0 -6 -0.833008 -15.167 -2.5 -27.5s-2.5 -21.5 -2.5 -27.5c0 -10.667 0.666992 -18.667 2 -24c1.33301 -13.333 2 -20.666 2 -21.999c0 -26 -17 -39 -51 -39c-32 0 -47.333 12.333 -46 37
l1 19c0 12 -6 22 -18 30s-26.667 12 -44 12c-55.333 0 -83 -40.667 -83 -122s28.333 -122 85 -122c18 0 33 4 45 12s17.667 18.333 17 31l-1 21c-0.666992 12 3.33301 21.667 12 29s20 11 34 11c38 0 57 -20.333 57 -61c0 -36.667 -15.667 -66.334 -47 -89.001
s-72 -34 -122 -34c-62 0 -110.167 17.833 -144.5 53.5s-51.5 85.834 -51.5 150.501c0 61.333 16 110.166 48 146.499s75.333 54.5 130 54.5z" />
    <glyph glyph-name="ordfeminine" unicode="&#xaa;" horiz-adv-x="437" 
d="M323 391c-32.667 0 -54.999 11.667 -66.999 35c-28.667 -23.333 -62.667 -35 -102 -35c-32 0 -57.5 7.5 -76.5 22.5s-28.5 34.833 -28.5 59.5s8 43 24 55s45 21 87 27c28.667 4 48.167 8.83301 58.5 14.5s15.5 14.167 15.5 25.5c0 19.333 -13.667 29 -41 29
c-13.333 0 -20 -4 -20 -12v-9c0 -23.333 -16.667 -35 -50 -35c-15.333 0 -28.5 4.16699 -39.5 12.5s-16.5 18.833 -16.5 31.5c0 41.333 43.333 62 130 62c48 0 82.167 -6.83301 102.5 -20.5s30.5 -36.167 30.5 -67.5v-110c0 -11.333 3.33301 -17 10 -17
c3.33301 0 6.66602 0.333008 9.99902 1h4c22 0 33 -9.66699 33 -29c0 -11.333 -6 -20.833 -18 -28.5s-27.333 -11.5 -46 -11.5zM48.001 330h340v-33h-340v33zM235.001 505v11c-9.33301 -4.66699 -24 -8.66699 -44 -12c-29.333 -4.66699 -44 -12.667 -44 -24
c0 -16.667 11.333 -25 34 -25c36 0 54 16.667 54 50z" />
    <glyph glyph-name="guillemotleft" unicode="&#xab;" horiz-adv-x="546" 
d="M223 342l-53.001 -72.001c-5.33301 -7.33301 -8 -13.333 -8 -18c0 -3.33301 2.66699 -7.66602 8 -12.999l8 -10l42 -46c25.333 -28 38 -48.333 38 -61c0 -24.667 -13.333 -37 -40 -37c-18.667 0 -42 12.333 -70 37l-80 70c-30.667 26.667 -46 47.667 -46 63
c0 13.333 6.66699 26.333 20 39l102 99c27.333 26.667 48 40 62 40c10.667 0 19.834 -4 27.501 -12s11.5 -17.667 11.5 -29c0 -13.333 -7.33301 -30 -22 -50zM461.999 341.999l-53 -72c-5.33301 -7.33301 -8 -13.333 -8 -18c0 -3.33301 2.33301 -7.66602 7 -12.999l9 -10
l42 -46c25.333 -28 38 -48.333 38 -61c0 -24.667 -13.667 -37 -41 -37c-18.667 0 -42 12.333 -70 37l-79 70c-31.333 28 -47 49 -47 63c0 12.667 7 25.667 21 39l102 99c27.333 26.667 48 40 62 40c10 0 18.833 -4.16699 26.5 -12.5s11.5 -17.833 11.5 -28.5
c0 -14.667 -7 -31.334 -21 -50.001z" />
    <glyph glyph-name="logicalnot" unicode="&#xac;" horiz-adv-x="500" 
d="M467 0h-130v150h-304v117h434v-267z" />
    <glyph glyph-name="softhyphen" unicode="&#xad;" horiz-adv-x="549" 
d="M46 205v62h457v-62h-457z" />
    <glyph glyph-name="registered" unicode="&#xae;" horiz-adv-x="500" 
d="M250 760c55.333 0 102.5 -19.5 141.5 -58.5s58.5 -86.167 58.5 -141.5c0 -54.667 -19.5 -101.667 -58.5 -141s-86.167 -59 -141.5 -59c-54.667 0 -101.667 19.667 -141 59s-59 86.333 -59 141c0 55.333 19.5 102.5 58.5 141.5s86.167 58.5 141.5 58.5zM250 386
c48 0 89 17 123 51s51 75 51 123s-17 89 -51 123s-75 51 -123 51s-89 -17 -123 -51s-51 -75 -51 -123s17 -89 51 -123s75 -51 123 -51zM339 615c0 -22.667 -14.665 -37.667 -43.998 -45c27.333 -4.66699 41 -18.667 41 -42v-4c-0.666992 -2 -1 -3.66699 -1 -5v-4
c0 -8 2.33301 -12 7 -12h6c1.33301 0.666992 3.33301 1 6 1c10 0 15 -6.66699 15 -20c0 -14.667 -7.33301 -22 -22 -22h-10c-3.33301 0.666992 -7 1 -11 1c-4.66699 0 -8.66699 -0.333008 -12 -1h-10c-16 0 -24 11 -24 33v3l1 19c0 19.333 -12.667 29 -38 29
c-8 0 -12 -5.33301 -12 -16v-7c0 -14 2.66699 -21 8 -21c1.33301 0 3.66602 0.333008 6.99902 1c1.33301 0.666992 3.66602 1 6.99902 1c9.33301 0 14 -6.66699 14 -20c0 -14.667 -7 -22 -21 -22c-8 0 -14.667 0.333008 -20 1c-11.333 1.33301 -18.666 2 -21.999 2
c-2.66699 0 -10 -0.666992 -22 -2c-6 -0.666992 -13 -1 -21 -1c-15.333 0 -23 7.33301 -23 22c0 13.333 5.33301 20 16 20c2 0 4.66699 -0.333008 8 -1s6 -1 8 -1c4.66699 0 7 7 7 21v84c0 14 -2.66699 21 -8 21h-3c-1.33301 -0.666992 -2.83301 -1.16699 -4.5 -1.5
s-4.16699 -0.5 -7.5 -0.5c-10.667 0 -16 6.66699 -16 20c0 14.667 7 22 21 22h3l22 -2c3.33301 -0.666992 9.66602 -1 18.999 -1c12.667 0 28 0.666992 46 2c9.33301 0.666992 18.333 1 27 1c42 0 63 -17.667 63 -53zM253.002 628c-10 0 -16.167 -1.16797 -18.5 -3.50098
s-3.5 -6.16602 -3.5 -11.499v-18c0 -8 4 -12 12 -12c26 0 39 8 39 24c0 14 -9.66699 21 -29 21z" />
    <glyph glyph-name="macron" unicode="&#xaf;" horiz-adv-x="492" 
d="M56 636c0 36.667 18.334 55.667 55.001 57c15.333 0 38.666 -0.666992 69.999 -2c37.333 -1.33301 61.333 -2 72 -2c13.333 0 33 0.666992 59 2s45.667 2 59 2c43.333 0 65 -19 65 -57c0 -38.667 -20.667 -58 -62 -58c-14 0 -35.333 0.833008 -64 2.5s-50 2.5 -64 2.5
c-14.667 0 -36.167 -0.833008 -64.5 -2.5s-49.833 -2.5 -64.5 -2.5c-40.667 0 -61 19.333 -61 58z" />
    <glyph glyph-name="degree" unicode="&#xb0;" horiz-adv-x="500" 
d="M250 356c-42.667 0 -79 15 -109 45s-45 66 -45 108c0 41.333 15 76.833 45 106.5s66.333 44.5 109 44.5s79 -14.833 109 -44.5s45 -65.167 45 -106.5c0 -42 -15 -78 -45 -108s-66.333 -45 -109 -45zM250 584c-21.333 0 -39.5 -7.33301 -54.5 -22
s-22.5 -32.334 -22.5 -53.001c0 -21.333 7.5 -39.333 22.5 -54s33.167 -22 54.5 -22s39.5 7.33301 54.5 22s22.5 32.334 22.5 53.001s-7.5 38.5 -22.5 53.5s-33.167 22.5 -54.5 22.5z" />
    <glyph glyph-name="plusminus" unicode="&#xb1;" horiz-adv-x="500" 
d="M7 358v120h178v173h130v-173h178v-120h-185v-174h-123v174h-178zM7 25v120h486v-120h-486z" />
    <glyph glyph-name="twosuperior" unicode="&#xb2;" horiz-adv-x="432" 
d="M220 421c-40 -12 -66.166 -22.166 -78.499 -30.499s-19.833 -21.166 -22.5 -38.499c20 23.333 45 35 75 35c22 0 44.833 -8.83301 68.5 -26.5s40.5 -26.5 50.5 -26.5c6.66699 0 14 3.33301 22 10c-26 5.33301 -39 19.666 -39 42.999c0 14 4.83301 25.667 14.5 35
s21.834 14 36.501 14c19.333 0 35.166 -7.66699 47.499 -23s18.5 -34.666 18.5 -57.999c0 -30.667 -10.833 -57.5 -32.5 -80.5s-46.5 -34.5 -74.5 -34.5c-30 0 -61.667 13 -95 39c-22.667 18 -37.667 27 -45 27c-4 0 -8 -2 -12 -6c2.66699 -5.33301 4 -10 4 -14
c0 -14 -5.16699 -25.5 -15.5 -34.5s-23.5 -13.5 -39.5 -13.5c-22.667 0 -41.834 9.33301 -57.501 28s-23.5 42 -23.5 70c0 69.333 52 124.333 156 165c39.333 15.333 64.666 27.333 75.999 36s17 20.667 17 36c0 13.333 -5.83301 23.833 -17.5 31.5s-27.167 11.5 -46.5 11.5
s-37 -4.33301 -53 -13c8 -10.667 12 -22 12 -34c0 -16.667 -6.16699 -30.834 -18.5 -42.501s-27.166 -17.5 -44.499 -17.5c-20 0 -36.167 6.66699 -48.5 20s-18.5 30.333 -18.5 51c0 36 16.5 65.333 49.5 88s76.167 34 129.5 34c54 0 96.667 -11.833 128 -35.5
s47 -55.834 47 -96.501c0 -42.667 -17.333 -75.667 -52 -99c-26.667 -18 -66 -34.667 -118 -50z" />
    <glyph glyph-name="threesuperior" unicode="&#xb3;" horiz-adv-x="432" 
d="M193 531l65.001 70.999h-94c-19.333 0 -29 -5.33301 -29 -16c0 -4 1 -9.83301 3 -17.5s3 -13.5 3 -17.5c0 -37.333 -17.667 -56 -53 -56c-14 0 -25.667 4.5 -35 13.5s-14 20.833 -14 35.5c0 6.66699 1.16699 17.334 3.5 32.001s3.5 25.334 3.5 32.001
s-0.833008 15.834 -2.5 27.501s-2.5 20.167 -2.5 25.5c0 21.333 12.333 32 37 32h4c26 -0.666992 53.667 -1 83 -1l192 1c14 0 23.667 -3 29 -9s8 -17 8 -33c0 -22.667 -8 -42.667 -24 -60l-77 -80c33.333 -3.33301 59.333 -15.5 78 -36.5s28 -48.167 28 -81.5
c0 -46.667 -18 -84.167 -54 -112.5s-84 -42.5 -144 -42.5c-52 0 -94.167 11.833 -126.5 35.5s-48.5 54.5 -48.5 92.5c0 21.333 6.5 39.166 19.5 53.499s29.167 21.5 48.5 21.5c16.667 0 31.167 -5.5 43.5 -16.5s18.5 -24.833 18.5 -41.5c0 -13.333 -5.66699 -26.333 -17 -39
c11.333 -8.66699 20.666 -14.167 27.999 -16.5s18 -3.5 32 -3.5c24.667 0 45 6.16699 61 18.5s24 28.166 24 47.499c0 37.333 -27.667 57 -83 59c-20.667 0.666992 -31 11 -31 31c0 17.333 7.66699 34.333 23 51z" />
    <glyph glyph-name="acute" unicode="&#xb4;" horiz-adv-x="492" 
d="M154 606c0 12.667 6.33398 24.335 19.001 35.002c4.66699 3.33301 16.667 10.333 36 21l93 51c19.333 10.667 37.666 16 54.999 16c16 0 30 -6.83301 42 -20.5s18 -29.834 18 -48.501c0 -24.667 -21.667 -45.334 -65 -62.001l-91 -35c-28 -10.667 -48.333 -16 -61 -16
c-16.667 0 -29.667 10.333 -39 31c-4.66699 10.667 -7 20 -7 28z" />
    <glyph glyph-name="mu" unicode="&#xb5;" horiz-adv-x="500" 
d="M156 -173h-129v653h129v-254c0 -89.333 32.667 -134 98 -134c62 0 93 46 93 138v250h128v-480h-128v56c-22.667 -44 -54.667 -66 -96 -66c-40 0 -71.667 20.333 -95 61v-224z" />
    <glyph glyph-name="paragraph" unicode="&#xb6;" horiz-adv-x="667" 
d="M327 -92l-110 0.000976562v413h-12c-52.667 0 -95.5 15.667 -128.5 47s-49.5 72.333 -49.5 123c0 39.333 9.83301 73.166 29.5 101.499s47 47.833 82 58.5s74.833 16 119.5 16h336v-100h-74v-659h-110v659h-83v-659z" />
    <glyph glyph-name="periodcentered" unicode="&#xb7;" horiz-adv-x="222" 
d="M111 242c-30.667 0 -56.834 10.833 -78.501 32.5s-32.5 47.834 -32.5 78.501s10.833 57 32.5 79s47.834 33 78.501 33s56.834 -11 78.501 -33s32.5 -48.333 32.5 -79s-10.833 -56.834 -32.5 -78.501s-47.834 -32.5 -78.501 -32.5z" />
    <glyph glyph-name="cedilla" unicode="&#xb8;" horiz-adv-x="492" 
d="M214 0l93.0029 0.000976562l-29 -64c21.333 3.33301 34.666 5 39.999 5c28.667 0 52.5 -8.16699 71.5 -24.5s28.5 -36.5 28.5 -60.5c0 -33.333 -15.5 -61.166 -46.5 -83.499s-69.167 -33.5 -114.5 -33.5c-40.667 0 -74.667 6.66699 -102 20s-41 29.666 -41 48.999
c0 9.33301 3.33301 17.666 10 24.999s14.334 11 23.001 11c6 0 15 -2 27 -6c33.333 -11.333 60.666 -17 81.999 -17c39.333 0 59 9.66699 59 29c0 18.667 -18.333 28 -55 28c-6.66699 0 -14.334 -0.333008 -23.001 -1c-16.667 -1.33301 -27.334 -2 -32.001 -2
c-24.667 0 -37 10.667 -37 32c0 10.667 3.33301 21.667 10 33z" />
    <glyph glyph-name="onesuperior" unicode="&#xb9;" horiz-adv-x="432" 
d="M290 655l-0.00292969 -296.001c0 -16 6 -24 18 -24c4 0 9.16699 0.5 15.5 1.5s11.5 1.5 15.5 1.5c28 0 42 -14 42 -42c0 -15.333 -4.16699 -27.5 -12.5 -36.5s-19.166 -13.5 -32.499 -13.5c-3.33301 0 -5.66602 0.333008 -6.99902 1l-40 4
c-11.333 1.33301 -31.333 2 -60 2c-26.667 0 -43 -0.333008 -49 -1l-40 -5c-2 -0.666992 -4.33301 -1 -7 -1c-15.333 0 -27.5 4.5 -36.5 13.5s-13.5 20.833 -13.5 35.5c0 13.333 3.66699 23.833 11 31.5s17 11.5 29 11.5c4 0 10.167 -0.5 18.5 -1.5s14.5 -1.5 18.5 -1.5
c10.667 0 17.334 7 20.001 21v35v182c0 20.667 -7.33301 31 -22 31c-2.66699 0 -7.66699 -0.666992 -15 -2c-8.66699 -2 -16 -3 -22 -3c-25.333 0 -38 14.667 -38 44c0 15.333 4.5 27.5 13.5 36.5s21.167 13.5 36.5 13.5c8 0 19.5 -1.16699 34.5 -3.5s26.167 -3.5 33.5 -3.5
c9.33301 0 22.333 1.66699 39 5c6.66699 1.33301 13.667 2 21 2c12 0 20.333 -3.33301 25 -10c2.66699 -5.33301 4 -14.666 4 -27.999z" />
    <glyph glyph-name="ordmasculine" unicode="&#xba;" horiz-adv-x="437" 
d="M220 391c-50 0 -88.835 12.499 -116.502 37.499s-41.5 59.833 -41.5 104.5c0 44 13.833 78.5 41.5 103.5s65.834 37.5 114.501 37.5s86.834 -12.333 114.501 -37s41.5 -58.667 41.5 -102c0 -45.333 -13.5 -80.666 -40.5 -105.999s-64.833 -38 -113.5 -38zM62.998 329.999
h310v-33h-310v33zM219.998 608.999c-40 0 -60 -25.667 -60 -77c0 -50.667 20 -76 60 -76c37.333 0 56 25.667 56 77c0 50.667 -18.667 76 -56 76z" />
    <glyph glyph-name="guillemotright" unicode="&#xbb;" horiz-adv-x="546" 
d="M323 176l53 72.001c5.33301 7.33301 8 13.333 8 18c0 3.33301 -2.33301 7.66602 -7 12.999l-9 10l-42 46c-25.333 28 -38 48.667 -38 62c0 24 13.333 36 40 36c18.667 0 42 -12.333 70 -37l80 -70c30.667 -26.667 46 -47.667 46 -63c0 -13.333 -6.66699 -26.333 -20 -39
l-102 -99c-27.333 -26.667 -48 -40 -62 -40c-10 0 -19 4 -27 12s-12 17.333 -12 28c0 14 7.33301 31 22 51zM84 176.001l53 72c5.33301 7.33301 8 13.333 8 18c0 3.33301 -2.33301 7.66602 -7 12.999l-9 10l-42 46c-25.333 28 -38 48.667 -38 62c0 24 13.333 36 40 36
c19.333 0 43 -12.333 71 -37l79 -70c30.667 -27.333 46 -48.333 46 -63c0 -13.333 -6.66699 -26.333 -20 -39l-102 -99c-27.333 -26.667 -48 -40 -62 -40c-10 0 -18.833 4.16699 -26.5 12.5s-11.5 17.833 -11.5 28.5c0 14.667 7 31.334 21 50.001z" />
    <glyph glyph-name="onequarter" unicode="&#xbc;" horiz-adv-x="739" 
d="M544 657c0 -4 -2.00098 -10 -6.00098 -18l-309 -626c-4.66699 -10 -9.66699 -16.333 -15 -19s-15 -4 -29 -4c-21.333 0 -34.666 2.33301 -39.999 7c-2.66699 2.66699 -4 6.66699 -4 12c0 6 1.33301 11.667 4 17l313 631c6.66699 13.333 20 20 40 20
c30.667 0 46 -6.66699 46 -20zM176.999 707l0.00195312 -224c0 -12 4.66699 -18 14 -18c2.66699 0 6.5 0.333008 11.5 1s8.83301 1 11.5 1c21.333 0 32 -10.667 32 -32c0 -11.333 -3.16699 -20.5 -9.5 -27.5s-14.5 -10.5 -24.5 -10.5h-5l-31 4
c-8.66699 1.33301 -23.667 2 -45 2c-20 0 -32.667 -0.333008 -38 -1l-30 -5h-5c-11.333 0 -20.5 3.5 -27.5 10.5s-10.5 15.833 -10.5 26.5c0 10 2.83301 18 8.5 24s13.167 9 22.5 9c2.66699 0 7.16699 -0.333008 13.5 -1s10.833 -1 13.5 -1c8 0 13 5.33301 15 16
c0.666992 2 1 10.667 1 26v138c0 15.333 -5.66699 23 -17 23c-2 0 -5.66699 -0.333008 -11 -1c-6.66699 -1.33301 -12.334 -2 -17.001 -2c-19.333 0 -29 11 -29 33c0 11.333 3.5 20.5 10.5 27.5s16.167 10.5 27.5 10.5c6 0 14.667 -0.833008 26 -2.5s20 -2.5 26 -2.5
c6.66699 0 16.334 1 29.001 3c5.33301 1.33301 10.666 2 15.999 2c9.33301 0 15.666 -2.66699 18.999 -8c2 -4 3 -11 3 -21zM653.001 301l-1.99707 -145.002h38c20 0 30 -9.66699 30 -29c0 -20.667 -11.333 -31 -34 -31h-34v-7c0 -9.33301 0.666992 -15.666 2 -18.999
c2.66699 -5.33301 8 -8 16 -8c0.666992 0 3 0.333008 7 1c8.66699 1.33301 12.667 2 12 2h3c8 0 14.333 -2.83301 19 -8.5s7 -13.167 7 -22.5c0 -10.667 -3 -19.5 -9 -26.5s-13.667 -10.5 -23 -10.5c-6.66699 0 -16.334 1.33301 -29.001 4c-8.66699 1.33301 -22.667 2 -42 2
c-23.333 0 -39.333 -0.666992 -48 -2c-20.667 -2.66699 -33.334 -4 -38.001 -4c-10.667 0 -19.5 3.33301 -26.5 10s-10.5 15.334 -10.5 26.001c0 21.333 12.333 32 37 32l23 -3h9c12 0 18 8.33301 18 25v8h-142c-22 0 -33 9.33301 -33 28c0 15.333 6.66699 31.666 20 48.999
l115 147c12.667 16 32.667 24 60 24c20.667 0 35.167 -3.16699 43.5 -9.5s12.166 -17.166 11.499 -32.499zM491.004 154.998h85l2 111z" />
    <glyph glyph-name="onehalf" unicode="&#xbd;" horiz-adv-x="733" 
d="M544 657c0 -4 -2.00098 -10 -6.00098 -18l-309 -626c-4.66699 -10 -9.66699 -16.333 -15 -19s-15 -4 -29 -4c-21.333 0 -34.666 2.33301 -39.999 7c-2.66699 2.66699 -4 6.66699 -4 12c0 6 1.33301 11.667 4 17l313 631c6.66699 13.333 20 20 40 20
c30.667 0 46 -6.66699 46 -20zM176.999 707l0.00195312 -224c0 -12 4.66699 -18 14 -18c2.66699 0 6.5 0.333008 11.5 1s8.83301 1 11.5 1c21.333 0 32 -10.667 32 -32c0 -11.333 -3.16699 -20.5 -9.5 -27.5s-14.5 -10.5 -24.5 -10.5h-5l-31 4
c-8.66699 1.33301 -23.667 2 -45 2c-20 0 -32.667 -0.333008 -38 -1l-30 -5h-5c-11.333 0 -20.5 3.5 -27.5 10.5s-10.5 15.833 -10.5 26.5c0 10 2.83301 18 8.5 24s13.167 9 22.5 9c2.66699 0 7.16699 -0.333008 13.5 -1s10.833 -1 13.5 -1c8 0 13 5.33301 15 16
c0.666992 2 1 10.667 1 26v138c0 15.333 -5.66699 23 -17 23c-2 0 -5.66699 -0.333008 -11 -1c-6.66699 -1.33301 -12.334 -2 -17.001 -2c-19.333 0 -29 11 -29 33c0 11.333 3.5 20.5 10.5 27.5s16.167 10.5 27.5 10.5c6 0 14.667 -0.833008 26 -2.5s20 -2.5 26 -2.5
c6.66699 0 16.334 1 29.001 3c5.33301 1.33301 10.666 2 15.999 2c9.33301 0 15.666 -2.66699 18.999 -8c2 -4 3 -11 3 -21zM567.001 130c-30 -9.33301 -49.6699 -17.1641 -59.0029 -23.4971s-15.333 -16.166 -18 -29.499c15.333 18 34.333 27 57 27
c16.667 0 34 -6.66699 52 -20s30.667 -20 38 -20c5.33301 0 11 2.33301 17 7c-20 4 -30 15 -30 33c0 10.667 3.83301 19.5 11.5 26.5s16.834 10.5 27.501 10.5c14.667 0 26.667 -5.83301 36 -17.5s14 -26.167 14 -43.5c0 -23.333 -8.16699 -43.833 -24.5 -61.5
s-35.166 -26.5 -56.499 -26.5c-22.667 0 -46.667 10 -72 30c-17.333 14 -28.666 21 -33.999 21c-3.33301 0 -6.33301 -1.66699 -9 -5c2 -4 3 -7.66699 3 -11c0 -10 -4 -18.5 -12 -25.5s-18 -10.5 -30 -10.5c-17.333 0 -31.833 7.16699 -43.5 21.5s-17.5 32.166 -17.5 53.499
c0 52 39.333 93.333 118 124c30 12 49.333 21.333 58 28s13 15.667 13 27c0 10 -4.5 18 -13.5 24s-20.833 9 -35.5 9s-28 -3.33301 -40 -10c6 -8.66699 9 -17.334 9 -26.001c0 -12.667 -4.66699 -23.334 -14 -32.001s-20.666 -13 -33.999 -13
c-14.667 0 -26.834 5 -36.501 15s-14.5 22.667 -14.5 38c0 27.333 12.667 49.666 38 66.999s58 26 98 26c40.667 0 73 -9 97 -27s36 -42.333 36 -73c0 -32.667 -13.333 -57.667 -40 -75c-20 -14 -49.667 -26.667 -89 -38z" />
    <glyph glyph-name="threequarters" unicode="&#xbe;" horiz-adv-x="779" 
d="M584 657c0 -4 -2.00098 -10 -6.00098 -18l-309 -626c-4.66699 -10 -9.66699 -16.333 -15 -19s-15 -4 -29 -4c-21.333 0 -34.666 2.33301 -39.999 7c-2.66699 2.66699 -4 6.66699 -4 12c0 6 1.33301 11.667 4 17l313 631c6.66699 13.333 20 20 40 20
c30.667 0 46 -6.66699 46 -20zM692.999 301l-1.99707 -145.002h38c20 0 30 -9.66699 30 -29c0 -20.667 -11.333 -31 -34 -31h-34v-7c0 -9.33301 0.666992 -15.666 2 -18.999c2.66699 -5.33301 8 -8 16 -8c0.666992 0 3 0.333008 7 1c8.66699 1.33301 12.667 2 12 2h3
c8 0 14.333 -2.83301 19 -8.5s7 -13.167 7 -22.5c0 -10.667 -3 -19.5 -9 -26.5s-13.667 -10.5 -23 -10.5c-6.66699 0 -16.334 1.33301 -29.001 4c-8.66699 1.33301 -22.667 2 -42 2c-23.333 0 -39.333 -0.666992 -48 -2c-20.667 -2.66699 -33.334 -4 -38.001 -4
c-10.667 0 -19.5 3.33301 -26.5 10s-10.5 15.334 -10.5 26.001c0 21.333 12.333 32 37 32l23 -3h9c12 0 18 8.33301 18 25v8h-142c-22 0 -33 9.33301 -33 28c0 15.333 6.66699 31.666 20 48.999l115 147c12.667 16 32.667 24 60 24c20.667 0 35.167 -3.16699 43.5 -9.5
s12.166 -17.166 11.499 -32.499zM531.002 154.998h85l2 111zM146.002 602.998l49.999 53.9971h-72c-14 0 -21 -4 -21 -12c0 -3.33301 0.666992 -7.83301 2 -13.5s2 -10.167 2 -13.5c0 -28 -13.333 -42 -40 -42c-10.667 0 -19.5 3.33301 -26.5 10s-10.5 15.667 -10.5 27
c0 5.33301 0.833008 13.5 2.5 24.5s2.5 19.167 2.5 24.5c0 4.66699 -0.666992 11.334 -2 20.001s-2 15.334 -2 20.001c0 16 9.33301 24 28 24h3c20 -0.666992 41 -1 63 -1l146 1c10.667 0 18 -2.33301 22 -7s6 -13 6 -25c0 -17.333 -6.33301 -32.333 -19 -45l-58 -61
c25.333 -2.66699 45.166 -11.834 59.499 -27.501s21.5 -36.5 21.5 -62.5c0 -35.333 -13.667 -63.666 -41 -84.999s-63.666 -32 -108.999 -32c-39.333 0 -71.333 9 -96 27s-37 41.333 -37 70c0 16 5 29.5 15 40.5s22.333 16.5 37 16.5c12.667 0 23.5 -4.16699 32.5 -12.5
s13.5 -18.833 13.5 -31.5c0 -10 -4 -20 -12 -30c8 -6 14.833 -10 20.5 -12s13.834 -3 24.501 -3c18.667 0 34 4.66699 46 14s18 21.333 18 36c0 28.667 -21 43.667 -63 45c-15.333 0.666992 -23 8.66699 -23 24c0 12.667 5.66699 25.334 17 38.001z" />
    <glyph glyph-name="questiondown" unicode="&#xbf;" horiz-adv-x="619" 
d="M331 517c26 0 48.167 -9.33301 66.5 -28s27.5 -41 27.5 -67s-9.16699 -48.333 -27.5 -67s-40.5 -28 -66.5 -28c-26.667 0 -49.167 9.33301 -67.5 28s-27.5 41 -27.5 67s9.16699 48.333 27.5 67s40.833 28 67.5 28zM306 -54c36 0 64.3291 9.33105 84.9961 27.998
c-20.667 16.667 -31 35.334 -31 56.001c0 26 9.83301 48.167 29.5 66.5s43.834 27.5 72.501 27.5c30.667 0 55.5 -10.167 74.5 -30.5s28.5 -46.833 28.5 -79.5c0 -57.333 -26.167 -104.833 -78.5 -142.5s-118.833 -56.5 -199.5 -56.5c-78.667 0 -142 19.333 -190 58
s-72 89.334 -72 152.001c0 28 6 55.167 18 81.5s27.333 46.5 46 60.5c26.667 20 66.334 36 119.001 48c16 4 26.333 8 31 12s7.33398 12 8.00098 24c0.666992 18 4.5 30 11.5 36s21.5 9.33301 43.5 10l28 1h10c26 0 44 -5.16699 54 -15.5s15 -28.833 15 -55.5
c0 -33.333 -7.83301 -58.333 -23.5 -75s-44.5 -29.667 -86.5 -39c-65.333 -14.667 -98 -43.334 -98 -86.001c0 -23.333 9.83301 -42.666 29.5 -57.999s44.834 -23 75.501 -23z" />
    <glyph glyph-name="Agrave" unicode="&#xc0;" horiz-adv-x="801" 
d="M477 207l-133.004 -0.00292969c-38 0 -57 -22.667 -57 -68c0 -10.667 5.66699 -16 17 -16c3.33301 0 8.33301 0.5 15 1.5s11.667 1.5 15 1.5c24.667 0 37 -19.667 37 -59c0 -21.333 -5.66699 -38.666 -17 -51.999s-26.333 -20 -45 -20c-9.33301 0 -30 2.33301 -62 7
c-14 2 -33.667 3 -59 3c-27.333 0 -48.666 -1 -63.999 -3c-35.333 -4.66699 -56.333 -7 -63 -7c-20.667 0 -37.5 6.33301 -50.5 19s-19.5 29.334 -19.5 50.001c0 46.667 17.667 70 53 70c4 0 10.333 -0.5 19 -1.5s15 -1.5 19 -1.5c12.667 0 23 7 31 21
c2 4 6.66699 16.333 14 37l138 393c16 44.667 34 72.667 54 84c14.667 7.33301 47 11 97 11c56 0 91.333 -3.5 106 -10.5s26.667 -26.5 36 -58.5l128 -426c10 -34 21.667 -51 35 -51c4 0 11 1 21 3h11c37.333 0 56 -22 56 -66c0 -22 -6.66699 -39.667 -20 -53
s-30.666 -20 -51.999 -20c-9.33301 0 -21.666 1 -36.999 3c-18.667 3.33301 -31 5 -37 5c-14.667 1.33301 -33.667 2 -57 2c-25.333 0 -42.333 -0.666992 -51 -2c-34 -5.33301 -55.333 -8 -64 -8c-18 0 -32.833 6.83301 -44.5 20.5s-17.5 30.834 -17.5 51.501
c0 39.333 12.667 59 38 59c3.33301 0 8.33301 -0.5 15 -1.5s11.667 -1.5 15 -1.5c12.667 0 19 7 19 21c0 18 -3.66699 33 -11 45s-16.666 18 -27.999 18zM486.996 715.997c-16.667 0 -37.332 5 -61.999 15l-90 36c-44 17.333 -66 38 -66 62c0 18 6.16699 34 18.5 48
s26.166 21 41.499 21s33.666 -5.66699 54.999 -17l93 -50c20 -10.667 32.333 -18 37 -22c12 -9.33301 18 -21 18 -35c0 -14.667 -4.66699 -28 -14 -40s-19.666 -18 -30.999 -18zM461.998 359.997l-48 205.001l-62 -213c-0.666992 -2 -1 -4.33301 -1 -7
c0 -8 8.33301 -12 25 -12h62c17.333 0 26 4.66699 26 14c0 -0.666992 -0.666992 3.66602 -2 12.999z" />
    <glyph glyph-name="Aacute" unicode="&#xc1;" horiz-adv-x="801" 
d="M477 207l-133.004 -0.00292969c-38 0 -57 -22.667 -57 -68c0 -10.667 5.66699 -16 17 -16c3.33301 0 8.33301 0.5 15 1.5s11.667 1.5 15 1.5c24.667 0 37 -19.667 37 -59c0 -21.333 -5.66699 -38.666 -17 -51.999s-26.333 -20 -45 -20c-9.33301 0 -30 2.33301 -62 7
c-14 2 -33.667 3 -59 3c-27.333 0 -48.666 -1 -63.999 -3c-35.333 -4.66699 -56.333 -7 -63 -7c-20.667 0 -37.5 6.33301 -50.5 19s-19.5 29.334 -19.5 50.001c0 46.667 17.667 70 53 70c4 0 10.333 -0.5 19 -1.5s15 -1.5 19 -1.5c12.667 0 23 7 31 21
c2 4 6.66699 16.333 14 37l138 393c16 44.667 34 72.667 54 84c14.667 7.33301 47 11 97 11c56 0 91.333 -3.5 106 -10.5s26.667 -26.5 36 -58.5l128 -426c10 -34 21.667 -51 35 -51c4 0 11 1 21 3h11c37.333 0 56 -22 56 -66c0 -22 -6.66699 -39.667 -20 -53
s-30.666 -20 -51.999 -20c-9.33301 0 -21.666 1 -36.999 3c-18.667 3.33301 -31 5 -37 5c-14.667 1.33301 -33.667 2 -57 2c-25.333 0 -42.333 -0.666992 -51 -2c-34 -5.33301 -55.333 -8 -64 -8c-18 0 -32.833 6.83301 -44.5 20.5s-17.5 30.834 -17.5 51.501
c0 39.333 12.667 59 38 59c3.33301 0 8.33301 -0.5 15 -1.5s11.667 -1.5 15 -1.5c12.667 0 19 7 19 21c0 18 -3.66699 33 -11 45s-16.666 18 -27.999 18zM281.996 773.997c0 13.333 6.33398 25.001 19.001 35.001c4.66699 4 16.667 11.333 36 22l93 50
c21.333 11.333 39.666 17 54.999 17c16 0 30 -6.83301 42 -20.5s18 -29.834 18 -48.501c0 -24 -22 -44.667 -66 -62l-90 -36c-24.667 -10 -45 -15 -61 -15c-16.667 0 -29.667 10.333 -39 31c-4.66699 10.667 -7 19.667 -7 27zM461.997 359.998l-48 205.001l-62 -213
c-0.666992 -2 -1 -4.33301 -1 -7c0 -8 8.33301 -12 25 -12h62c17.333 0 26 4.66699 26 14c0 -0.666992 -0.666992 3.66602 -2 12.999z" />
    <glyph glyph-name="Acircumflex" unicode="&#xc2;" horiz-adv-x="801" 
d="M477 207l-133.004 -0.00292969c-38 0 -57 -22.667 -57 -68c0 -10.667 5.66699 -16 17 -16c3.33301 0 8.33301 0.5 15 1.5s11.667 1.5 15 1.5c24.667 0 37 -19.667 37 -59c0 -21.333 -5.66699 -38.666 -17 -51.999s-26.333 -20 -45 -20c-9.33301 0 -30 2.33301 -62 7
c-14 2 -33.667 3 -59 3c-27.333 0 -48.666 -1 -63.999 -3c-35.333 -4.66699 -56.333 -7 -63 -7c-20.667 0 -37.5 6.33301 -50.5 19s-19.5 29.334 -19.5 50.001c0 46.667 17.667 70 53 70c4 0 10.333 -0.5 19 -1.5s15 -1.5 19 -1.5c12.667 0 23 7 31 21
c2 4 6.66699 16.333 14 37l138 393c16 44.667 34 72.667 54 84c14.667 7.33301 47 11 97 11c56 0 91.333 -3.5 106 -10.5s26.667 -26.5 36 -58.5l128 -426c10 -34 21.667 -51 35 -51c4 0 11 1 21 3h11c37.333 0 56 -22 56 -66c0 -22 -6.66699 -39.667 -20 -53
s-30.666 -20 -51.999 -20c-9.33301 0 -21.666 1 -36.999 3c-18.667 3.33301 -31 5 -37 5c-14.667 1.33301 -33.667 2 -57 2c-25.333 0 -42.333 -0.666992 -51 -2c-34 -5.33301 -55.333 -8 -64 -8c-18 0 -32.833 6.83301 -44.5 20.5s-17.5 30.834 -17.5 51.501
c0 39.333 12.667 59 38 59c3.33301 0 8.33301 -0.5 15 -1.5s11.667 -1.5 15 -1.5c12.667 0 19 7 19 21c0 18 -3.66699 33 -11 45s-16.666 18 -27.999 18zM527.996 728.997l-110 41.001l-113 -41c-24 -8.66699 -41.333 -13 -52 -13c-11.333 0 -20.833 5 -28.5 15
s-11.5 22.333 -11.5 37c0 20.667 17.333 39.667 52 57l67 34c42 21.333 71.333 32 88 32s44.667 -10.667 84 -32l63 -34c32 -17.333 48 -35.333 48 -54c0 -14.667 -4 -27.334 -12 -38.001s-17.333 -16 -28 -16c-10 0 -25.667 4 -47 12zM461.996 359.998l-48 205.001
l-62 -213c-0.666992 -2 -1 -4.33301 -1 -7c0 -8 8.33301 -12 25 -12h62c17.333 0 26 4.66699 26 14c0 -0.666992 -0.666992 3.66602 -2 12.999z" />
    <glyph glyph-name="Atilde" unicode="&#xc3;" horiz-adv-x="801" 
d="M477 207l-133.004 -0.00292969c-38 0 -57 -22.667 -57 -68c0 -10.667 5.66699 -16 17 -16c3.33301 0 8.33301 0.5 15 1.5s11.667 1.5 15 1.5c24.667 0 37 -19.667 37 -59c0 -21.333 -5.66699 -38.666 -17 -51.999s-26.333 -20 -45 -20c-9.33301 0 -30 2.33301 -62 7
c-14 2 -33.667 3 -59 3c-27.333 0 -48.666 -1 -63.999 -3c-35.333 -4.66699 -56.333 -7 -63 -7c-20.667 0 -37.5 6.33301 -50.5 19s-19.5 29.334 -19.5 50.001c0 46.667 17.667 70 53 70c4 0 10.333 -0.5 19 -1.5s15 -1.5 19 -1.5c12.667 0 23 7 31 21
c2 4 6.66699 16.333 14 37l138 393c16 44.667 34 72.667 54 84c14.667 7.33301 47 11 97 11c56 0 91.333 -3.5 106 -10.5s26.667 -26.5 36 -58.5l128 -426c10 -34 21.667 -51 35 -51c4 0 11 1 21 3h11c37.333 0 56 -22 56 -66c0 -22 -6.66699 -39.667 -20 -53
s-30.666 -20 -51.999 -20c-9.33301 0 -21.666 1 -36.999 3c-18.667 3.33301 -31 5 -37 5c-14.667 1.33301 -33.667 2 -57 2c-25.333 0 -42.333 -0.666992 -51 -2c-34 -5.33301 -55.333 -8 -64 -8c-18 0 -32.833 6.83301 -44.5 20.5s-17.5 30.834 -17.5 51.501
c0 39.333 12.667 59 38 59c3.33301 0 8.33301 -0.5 15 -1.5s11.667 -1.5 15 -1.5c12.667 0 19 7 19 21c0 18 -3.66699 33 -11 45s-16.666 18 -27.999 18zM491.996 842.997c10.667 0 20.001 2.66699 28.001 8l29 19c8 5.33301 16.333 8 25 8c30 0 45 -16.333 45 -49
c0 -27.333 -13.667 -51.5 -41 -72.5s-59 -31.5 -95 -31.5c-26 0 -61 9.66699 -105 29c-15.333 6.66699 -28 10 -38 10c-9.33301 0 -18.333 -3 -27 -9l-25 -17c-12 -8 -22.333 -12 -31 -12c-12.667 0 -23.834 5 -33.501 15s-14.5 21.667 -14.5 35c0 28 13 52.667 39 74
s56 32 90 32c23.333 0 57 -8.66699 101 -26c22 -8.66699 39.667 -13 53 -13zM461.997 359.997l-48 205.001l-62 -213c-0.666992 -2 -1 -4.33301 -1 -7c0 -8 8.33301 -12 25 -12h62c17.333 0 26 4.66699 26 14c0 -0.666992 -0.666992 3.66602 -2 12.999z" />
    <glyph glyph-name="Adieresis" unicode="&#xc4;" horiz-adv-x="801" 
d="M477 207l-133.004 -0.00292969c-38 0 -57 -22.667 -57 -68c0 -10.667 5.66699 -16 17 -16c3.33301 0 8.33301 0.5 15 1.5s11.667 1.5 15 1.5c24.667 0 37 -19.667 37 -59c0 -21.333 -5.66699 -38.666 -17 -51.999s-26.333 -20 -45 -20c-9.33301 0 -30 2.33301 -62 7
c-14 2 -33.667 3 -59 3c-27.333 0 -48.666 -1 -63.999 -3c-35.333 -4.66699 -56.333 -7 -63 -7c-20.667 0 -37.5 6.33301 -50.5 19s-19.5 29.334 -19.5 50.001c0 46.667 17.667 70 53 70c4 0 10.333 -0.5 19 -1.5s15 -1.5 19 -1.5c12.667 0 23 7 31 21
c2 4 6.66699 16.333 14 37l138 393c16 44.667 34 72.667 54 84c14.667 7.33301 47 11 97 11c56 0 91.333 -3.5 106 -10.5s26.667 -26.5 36 -58.5l128 -426c10 -34 21.667 -51 35 -51c4 0 11 1 21 3h11c37.333 0 56 -22 56 -66c0 -22 -6.66699 -39.667 -20 -53
s-30.666 -20 -51.999 -20c-9.33301 0 -21.666 1 -36.999 3c-18.667 3.33301 -31 5 -37 5c-14.667 1.33301 -33.667 2 -57 2c-25.333 0 -42.333 -0.666992 -51 -2c-34 -5.33301 -55.333 -8 -64 -8c-18 0 -32.833 6.83301 -44.5 20.5s-17.5 30.834 -17.5 51.501
c0 39.333 12.667 59 38 59c3.33301 0 8.33301 -0.5 15 -1.5s11.667 -1.5 15 -1.5c12.667 0 19 7 19 21c0 18 -3.66699 33 -11 45s-16.666 18 -27.999 18zM317.996 717.997c-24 0 -44.5 8.5 -61.5 25.5s-25.5 37.167 -25.5 60.5s8.5 43.5 25.5 60.5s37.5 25.5 61.5 25.5
s44.333 -8.33301 61 -25s25 -37 25 -61s-8.5 -44.333 -25.5 -61s-37.167 -25 -60.5 -25zM523.996 717.997c-24 0 -44.5 8.33301 -61.5 25s-25.5 37 -25.5 61c0 23.333 8.5 43.5 25.5 60.5s37.5 25.5 61.5 25.5c23.333 0 43.5 -8.33301 60.5 -25s25.5 -37 25.5 -61
c0 -23.333 -8.5 -43.5 -25.5 -60.5s-37.167 -25.5 -60.5 -25.5zM461.996 359.997l-48 205.001l-62 -213c-0.666992 -2 -1 -4.33301 -1 -7c0 -8 8.33301 -12 25 -12h62c17.333 0 26 4.66699 26 14c0 -0.666992 -0.666992 3.66602 -2 12.999z" />
    <glyph glyph-name="Aring" unicode="&#xc5;" horiz-adv-x="801" 
d="M477 207l-133.004 -0.00292969c-38 0 -57 -22.667 -57 -68c0 -10.667 5.66699 -16 17 -16c3.33301 0 8.33301 0.5 15 1.5s11.667 1.5 15 1.5c24.667 0 37 -19.667 37 -59c0 -21.333 -5.66699 -38.666 -17 -51.999s-26.333 -20 -45 -20c-9.33301 0 -30 2.33301 -62 7
c-14 2 -33.667 3 -59 3c-27.333 0 -48.666 -1 -63.999 -3c-35.333 -4.66699 -56.333 -7 -63 -7c-20.667 0 -37.5 6.33301 -50.5 19s-19.5 29.334 -19.5 50.001c0 46.667 17.667 70 53 70c4 0 10.333 -0.5 19 -1.5s15 -1.5 19 -1.5c12.667 0 23 7 31 21
c2 4 6.66699 16.333 14 37l138 393c16 44.667 34 72.667 54 84c14.667 7.33301 47 11 97 11c56 0 91.333 -3.5 106 -10.5s26.667 -26.5 36 -58.5l128 -426c10 -34 21.667 -51 35 -51c4 0 11 1 21 3h11c37.333 0 56 -22 56 -66c0 -22 -6.66699 -39.667 -20 -53
s-30.666 -20 -51.999 -20c-9.33301 0 -21.666 1 -36.999 3c-18.667 3.33301 -31 5 -37 5c-14.667 1.33301 -33.667 2 -57 2c-25.333 0 -42.333 -0.666992 -51 -2c-34 -5.33301 -55.333 -8 -64 -8c-18 0 -32.833 6.83301 -44.5 20.5s-17.5 30.834 -17.5 51.501
c0 39.333 12.667 59 38 59c3.33301 0 8.33301 -0.5 15 -1.5s11.667 -1.5 15 -1.5c12.667 0 19 7 19 21c0 18 -3.66699 33 -11 45s-16.666 18 -27.999 18zM417.996 707.997c-32.667 0 -60.665 11.667 -83.998 35s-35 51.666 -35 84.999s11.667 61.666 35 84.999
s51.666 35 84.999 35s61.666 -11.667 84.999 -35s35 -51.666 35 -84.999s-11.833 -61.666 -35.5 -84.999s-52.167 -35 -85.5 -35zM461.998 359.997l-48 205.001l-62 -213c-0.666992 -2 -1 -4.33301 -1 -7c0 -8 8.33301 -12 25 -12h62c17.333 0 26 4.66699 26 14
c0 -0.666992 -0.666992 3.66602 -2 12.999zM418.998 877.998c-13.333 0 -24.833 -5 -34.5 -15s-14.5 -21.667 -14.5 -35c0 -14 4.66699 -25.833 14 -35.5s21 -14.5 35 -14.5c13.333 0 24.833 4.83301 34.5 14.5s14.5 21.5 14.5 35.5s-4.83301 25.833 -14.5 35.5
s-21.167 14.5 -34.5 14.5z" />
    <glyph glyph-name="AE" unicode="&#xc6;" horiz-adv-x="1056" 
d="M288 262l-14 -21.998l-33 -54c-10 -16.667 -15 -29.334 -15 -38.001c0 -9.33301 7.33301 -14 22 -14c5.33301 0 9.33301 0.333008 12 1h13c30.667 0 46 -22.667 46 -68c0 -22 -6.5 -39.5 -19.5 -52.5s-30.167 -19.5 -51.5 -19.5c-14 0 -35.167 1.66699 -63.5 5
s-49.833 5 -64.5 5c-25.333 0 -47 -1.33301 -65 -4c-26.667 -4 -45 -6 -55 -6c-20 0 -36 6.5 -48 19.5s-18 30.5 -18 52.5c0 45.333 17.667 68 53 68c6 0 12 -1 18 -3c10 -2 16.667 -3 20 -3c11.333 0 36 34.333 74 103l221 397c8.66699 16 17.334 27 26.001 33
s21.667 9 39 9h32c140 -3.33301 224.333 -5 253 -5c71.333 0 157 1.66699 257 5h8c23.333 0 39.166 -3.66699 47.499 -11s12.5 -21 12.5 -41c0 -7.33301 -0.666992 -20.666 -2 -39.999c-2 -28.667 -3 -45 -3 -49c0 -10 1.33301 -24.5 4 -43.5s4 -33.167 4 -42.5
c0 -22 -7 -39.833 -21 -53.5s-32.333 -20.5 -55 -20.5c-49.333 0 -74 25.333 -74 76c0 8 1.5 19.833 4.5 35.5s4.5 27.5 4.5 35.5c0 13.333 -4.16699 21.666 -12.5 24.999s-29.5 5 -63.5 5h-59c-23.333 0 -39 -1 -47 -3c-17.333 -4.66699 -26 -15.334 -26 -32.001v-73
c0 -20.667 8.33301 -31 25 -31c26 0 39 11.333 39 34c0 5.33301 -0.333008 9.33301 -1 12v8c-0.666992 4 -1 7 -1 9c0 26.667 16.333 40 49 40c33.333 0 50 -16 50 -48v-10c-0.666992 -4.66699 -1 -8 -1 -10c-2.66699 -18.667 -4 -39.334 -4 -62.001
c0 -17.333 1.66699 -46.666 5 -87.999c2 -24.667 3 -40 3 -46c0 -38.667 -17 -58 -51 -58c-34.667 0 -52 17.667 -52 53v21c0 19.333 -10 29 -30 29c-20.667 0 -31 -8.33301 -31 -25v-81c0 -24.667 5.33301 -41.334 16 -50.001s30.667 -13 60 -13h41
c34 0 55.667 1.33301 65 4c23.333 6 35 20.667 35 44c0 8 -1.16699 19.667 -3.5 35s-3.5 27 -3.5 35c0 23.333 7.16699 42.166 21.5 56.499s33.166 21.5 56.499 21.5c22 0 39.667 -7.33301 53 -22s20 -34 20 -58c0 -12 -1.5 -30.667 -4.5 -56s-4.5 -44.666 -4.5 -57.999
c0 -9.33301 1.33301 -22.833 4 -40.5s4 -31.167 4 -40.5c0 -32.667 -23.667 -49 -71 -49c-5.33301 0 -29 1 -71 3c-36 2 -78 3.66699 -126 5c-39.333 1.33301 -67.333 2 -84 2h-77l-95 -3l-52 -7c-2 -0.666992 -5 -1 -9 -1c-19.333 0 -35.333 7 -48 21s-19 31.667 -19 53
c0 18.667 4.83301 34.334 14.5 47.001s21.5 19 35.5 19c5.33301 0 12.833 -1.16699 22.5 -3.5s16.834 -3.5 21.501 -3.5c17.333 0 26 22.667 26 68v69c0 12 -1.83301 19.5 -5.5 22.5s-12.167 4.5 -25.5 4.5h-100c-17.333 0 -29.333 -1.66699 -36 -5s-14 -11.333 -22 -24z
M476 429.002l1 19.001v81c0 18 -2.33301 29 -7 33c-2.66699 2 -7 3 -13 3c-7.33301 0 -13 -2 -17 -6s-10.333 -14 -19 -30l-52 -96c-3.33301 -4.66699 -5 -9.33398 -5 -14.001c0 -12.667 9.33301 -19 28 -19h54c18.667 0 28.667 9.66699 30 29z" />
    <glyph glyph-name="Ccedilla" unicode="&#xc7;" horiz-adv-x="637" 
d="M314 685c64 0 119.666 -23.332 166.999 -69.999c-0.666992 2 -1 5.33301 -1 10c0 37.333 20 56 60 56c18.667 0 33.834 -5.83301 45.501 -17.5s17.5 -26.834 17.5 -45.501c0 -8.66699 -1 -21.334 -3 -38.001c-3.33301 -27.333 -5 -47 -5 -59
c0 -8.66699 1.16699 -21.5 3.5 -38.5s3.5 -29.833 3.5 -38.5c0 -20.667 -7.5 -37.334 -22.5 -50.001s-34.5 -19 -58.5 -19c-50.667 0 -75.334 21 -74.001 63l1 31c0.666992 22 -8.33301 40.167 -27 54.5s-42.334 21.5 -71.001 21.5c-89.333 0 -134 -70.667 -134 -212
c0 -73.333 10.833 -126.833 32.5 -160.5s56.167 -50.5 103.5 -50.5c29.333 0 53.333 6.83301 72 20.5s27.667 31.5 27 53.5l-1 36c-0.666992 20.667 6 37.334 20 50.001s32 19 54 19c28 0 50.167 -9.33301 66.5 -28s24.5 -44 24.5 -76c0 -60 -23.333 -110.333 -70 -151
s-105.334 -61.667 -176.001 -63l-20 -40c19.333 5.33301 38 8 56 8c30.667 0 54.834 -7.5 72.501 -22.5s26.5 -35.833 26.5 -62.5c0 -40 -17.333 -74 -52 -102s-77 -42 -127 -42c-43.333 0 -82.666 9.83301 -117.999 29.5s-53 41.5 -53 65.5
c0 11.333 3.83301 21.333 11.5 30s16.834 13 27.501 13c7.33301 0 17 -3.33301 29 -10c44 -24.667 80.667 -37 110 -37c16.667 0 30.667 3.5 42 10.5s17 15.5 17 25.5c0 18.667 -15.667 28 -47 28c-5.33301 0 -13.333 -0.5 -24 -1.5s-18.667 -1.5 -24 -1.5
c-14.667 0 -27 4.83301 -37 14.5s-15 21.167 -15 34.5c0 8.66699 4 19.334 12 32.001l21 32c-36 7.33301 -65.667 17.333 -89 30c-105.333 56.667 -158 160 -158 310c0 111.333 25.167 198.833 75.5 262.5s119.833 95.5 208.5 95.5z" />
    <glyph glyph-name="Egrave" unicode="&#xc8;" horiz-adv-x="746" 
d="M382 545c-22 0 -36.667 -2 -44 -6c-10 -6 -15 -19.333 -15 -40v-56c0 -11.333 1.5 -19.833 4.5 -25.5s10.833 -8.5 23.5 -8.5c29.333 0 44 10.667 44 32v13c-0.666992 4 -1 9 -1 15c0 28 16.333 42 49 42c34 0 51 -17 51 -51c0 -9.33301 -0.666992 -19.666 -2 -30.999
c-2.66699 -22 -4 -42.333 -4 -61c0 -17.333 1.33301 -39.333 4 -66s4 -45.334 4 -56.001c0 -39.333 -17.667 -59 -53 -59c-33.333 0 -50 17 -50 51v5c0 3.33301 0.666992 11.333 2 24c0 16 -14.333 24 -43 24c-19.333 0 -29 -10.667 -29 -32v-75
c0 -23.333 4.16699 -39.166 12.5 -47.499s23.833 -12.5 46.5 -12.5h58c42.667 0 72.5 3.66699 89.5 11s25.5 20.333 25.5 39c0 9.33301 -1 20.5 -3 33.5s-3 23.833 -3 32.5c0 24.667 7 44 21 58s33 21 57 21c48.667 0 73 -26.667 73 -80c0 -17.333 -1 -35.666 -3 -54.999
c-3.33301 -32 -5 -52 -5 -60c0 -7.33301 1.66699 -21.666 5 -42.999c2 -12.667 3 -25.667 3 -39c0 -31.333 -19.667 -47 -59 -47c-12.667 0 -33.667 1 -63 3c-48.667 3.33301 -126.334 5.66602 -233.001 6.99902h-89c-33.333 0 -61 -1 -83 -3l-76 -7
c-0.666992 0 -2 -0.333008 -4 -1h-5c-20.667 0 -37.5 7 -50.5 21s-19.5 31.667 -19.5 53c0 18.667 5.16699 34.334 15.5 47.001s23.5 19 39.5 19c5.33301 0 13.333 -1.16699 24 -3.5s18.334 -3.5 23.001 -3.5c18 0 27 22.667 27 68v277c0 44.667 -9 67 -27 67
c-4 0 -12 -1.33301 -24 -4c-8.66699 -2 -16.334 -3 -23.001 -3c-15.333 0 -28.333 6.33301 -39 19s-16 28.334 -16 47.001c0 48.667 24.333 73 73 73c11.333 0 34.333 -1.33301 69 -4c52 -4 102.333 -6 151 -6c4.66699 0 44.667 1 120 3
c54.667 1.33301 90.667 2.66602 108 3.99902c28.667 2 58.667 3 90 3c37.333 0 56 -16.333 56 -49c0 -10.667 -1.16699 -26.334 -3.5 -47.001s-3.5 -36.334 -3.5 -47.001s1.5 -25.834 4.5 -45.501s4.5 -34.5 4.5 -44.5c0 -19.333 -7.16699 -35.666 -21.5 -48.999
s-32.166 -20 -53.499 -20c-50 0 -75 25.667 -75 77c0 8.66699 1.5 20.667 4.5 36s4.5 26.666 4.5 33.999c0 14.667 -7.66699 23.667 -23 27c-5.33301 1.33301 -19.333 2 -42 2h-99zM439 716c-15.333 0 -35.665 5 -60.998 15l-91 36c-43.333 17.333 -65 38 -65 62
c0 18 6.16699 34 18.5 48s26.166 21 41.499 21s33.666 -5.66699 54.999 -17l93 -50c20 -10.667 32.333 -18 37 -22c12 -9.33301 18 -21 18 -35c0 -14.667 -4.83301 -28 -14.5 -40s-20.167 -18 -31.5 -18z" />
    <glyph glyph-name="Eacute" unicode="&#xc9;" horiz-adv-x="746" 
d="M382 545c-22 0 -36.667 -2 -44 -6c-10 -6 -15 -19.333 -15 -40v-56c0 -11.333 1.5 -19.833 4.5 -25.5s10.833 -8.5 23.5 -8.5c29.333 0 44 10.667 44 32v13c-0.666992 4 -1 9 -1 15c0 28 16.333 42 49 42c34 0 51 -17 51 -51c0 -9.33301 -0.666992 -19.666 -2 -30.999
c-2.66699 -22 -4 -42.333 -4 -61c0 -17.333 1.33301 -39.333 4 -66s4 -45.334 4 -56.001c0 -39.333 -17.667 -59 -53 -59c-33.333 0 -50 17 -50 51v5c0 3.33301 0.666992 11.333 2 24c0 16 -14.333 24 -43 24c-19.333 0 -29 -10.667 -29 -32v-75
c0 -23.333 4.16699 -39.166 12.5 -47.499s23.833 -12.5 46.5 -12.5h58c42.667 0 72.5 3.66699 89.5 11s25.5 20.333 25.5 39c0 9.33301 -1 20.5 -3 33.5s-3 23.833 -3 32.5c0 24.667 7 44 21 58s33 21 57 21c48.667 0 73 -26.667 73 -80c0 -17.333 -1 -35.666 -3 -54.999
c-3.33301 -32 -5 -52 -5 -60c0 -7.33301 1.66699 -21.666 5 -42.999c2 -12.667 3 -25.667 3 -39c0 -31.333 -19.667 -47 -59 -47c-12.667 0 -33.667 1 -63 3c-48.667 3.33301 -126.334 5.66602 -233.001 6.99902h-89c-33.333 0 -61 -1 -83 -3l-76 -7
c-0.666992 0 -2 -0.333008 -4 -1h-5c-20.667 0 -37.5 7 -50.5 21s-19.5 31.667 -19.5 53c0 18.667 5.16699 34.334 15.5 47.001s23.5 19 39.5 19c5.33301 0 13.333 -1.16699 24 -3.5s18.334 -3.5 23.001 -3.5c18 0 27 22.667 27 68v277c0 44.667 -9 67 -27 67
c-4 0 -12 -1.33301 -24 -4c-8.66699 -2 -16.334 -3 -23.001 -3c-15.333 0 -28.333 6.33301 -39 19s-16 28.334 -16 47.001c0 48.667 24.333 73 73 73c11.333 0 34.333 -1.33301 69 -4c52 -4 102.333 -6 151 -6c4.66699 0 44.667 1 120 3
c54.667 1.33301 90.667 2.66602 108 3.99902c28.667 2 58.667 3 90 3c37.333 0 56 -16.333 56 -49c0 -10.667 -1.16699 -26.334 -3.5 -47.001s-3.5 -36.334 -3.5 -47.001s1.5 -25.834 4.5 -45.501s4.5 -34.5 4.5 -44.5c0 -19.333 -7.16699 -35.666 -21.5 -48.999
s-32.166 -20 -53.499 -20c-50 0 -75 25.667 -75 77c0 8.66699 1.5 20.667 4.5 36s4.5 26.666 4.5 33.999c0 14.667 -7.66699 23.667 -23 27c-5.33301 1.33301 -19.333 2 -42 2h-99zM255 774c0 14 6.00098 25.668 18.001 35.001c4.66699 4 16.667 11.333 36 22l93 50
c21.333 11.333 39.666 17 54.999 17c16 0 30.167 -6.83301 42.5 -20.5s18.5 -29.834 18.5 -48.501c0 -24 -22 -44.667 -66 -62l-90 -36c-24.667 -10 -45 -15 -61 -15c-16.667 0 -29.667 10.333 -39 31c-4.66699 10.667 -7 19.667 -7 27z" />
    <glyph glyph-name="Ecircumflex" unicode="&#xca;" horiz-adv-x="746" 
d="M382 545c-22 0 -36.667 -2 -44 -6c-10 -6 -15 -19.333 -15 -40v-56c0 -11.333 1.5 -19.833 4.5 -25.5s10.833 -8.5 23.5 -8.5c29.333 0 44 10.667 44 32v13c-0.666992 4 -1 9 -1 15c0 28 16.333 42 49 42c34 0 51 -17 51 -51c0 -9.33301 -0.666992 -19.666 -2 -30.999
c-2.66699 -22 -4 -42.333 -4 -61c0 -17.333 1.33301 -39.333 4 -66s4 -45.334 4 -56.001c0 -39.333 -17.667 -59 -53 -59c-33.333 0 -50 17 -50 51v5c0 3.33301 0.666992 11.333 2 24c0 16 -14.333 24 -43 24c-19.333 0 -29 -10.667 -29 -32v-75
c0 -23.333 4.16699 -39.166 12.5 -47.499s23.833 -12.5 46.5 -12.5h58c42.667 0 72.5 3.66699 89.5 11s25.5 20.333 25.5 39c0 9.33301 -1 20.5 -3 33.5s-3 23.833 -3 32.5c0 24.667 7 44 21 58s33 21 57 21c48.667 0 73 -26.667 73 -80c0 -17.333 -1 -35.666 -3 -54.999
c-3.33301 -32 -5 -52 -5 -60c0 -7.33301 1.66699 -21.666 5 -42.999c2 -12.667 3 -25.667 3 -39c0 -31.333 -19.667 -47 -59 -47c-12.667 0 -33.667 1 -63 3c-48.667 3.33301 -126.334 5.66602 -233.001 6.99902h-89c-33.333 0 -61 -1 -83 -3l-76 -7
c-0.666992 0 -2 -0.333008 -4 -1h-5c-20.667 0 -37.5 7 -50.5 21s-19.5 31.667 -19.5 53c0 18.667 5.16699 34.334 15.5 47.001s23.5 19 39.5 19c5.33301 0 13.333 -1.16699 24 -3.5s18.334 -3.5 23.001 -3.5c18 0 27 22.667 27 68v277c0 44.667 -9 67 -27 67
c-4 0 -12 -1.33301 -24 -4c-8.66699 -2 -16.334 -3 -23.001 -3c-15.333 0 -28.333 6.33301 -39 19s-16 28.334 -16 47.001c0 48.667 24.333 73 73 73c11.333 0 34.333 -1.33301 69 -4c52 -4 102.333 -6 151 -6c4.66699 0 44.667 1 120 3
c54.667 1.33301 90.667 2.66602 108 3.99902c28.667 2 58.667 3 90 3c37.333 0 56 -16.333 56 -49c0 -10.667 -1.16699 -26.334 -3.5 -47.001s-3.5 -36.334 -3.5 -47.001s1.5 -25.834 4.5 -45.501s4.5 -34.5 4.5 -44.5c0 -19.333 -7.16699 -35.666 -21.5 -48.999
s-32.166 -20 -53.499 -20c-50 0 -75 25.667 -75 77c0 8.66699 1.5 20.667 4.5 36s4.5 26.666 4.5 33.999c0 14.667 -7.66699 23.667 -23 27c-5.33301 1.33301 -19.333 2 -42 2h-99zM487 729l-110 41.001l-113 -41c-24 -8.66699 -41.333 -13 -52 -13c-11.333 0 -21 5 -29 15
s-12 22.333 -12 37c0 20 17.667 39 53 57l67 34c42 21.333 71.333 32 88 32s44.667 -10.667 84 -32l63 -34c32 -17.333 48 -35.333 48 -54c0 -14.667 -4 -27.334 -12 -38.001s-17.333 -16 -28 -16c-10 0 -25.667 4 -47 12z" />
    <glyph glyph-name="Edieresis" unicode="&#xcb;" horiz-adv-x="746" 
d="M382 545c-22 0 -36.667 -2 -44 -6c-10 -6 -15 -19.333 -15 -40v-56c0 -11.333 1.5 -19.833 4.5 -25.5s10.833 -8.5 23.5 -8.5c29.333 0 44 10.667 44 32v13c-0.666992 4 -1 9 -1 15c0 28 16.333 42 49 42c34 0 51 -17 51 -51c0 -9.33301 -0.666992 -19.666 -2 -30.999
c-2.66699 -22 -4 -42.333 -4 -61c0 -17.333 1.33301 -39.333 4 -66s4 -45.334 4 -56.001c0 -39.333 -17.667 -59 -53 -59c-33.333 0 -50 17 -50 51v5c0 3.33301 0.666992 11.333 2 24c0 16 -14.333 24 -43 24c-19.333 0 -29 -10.667 -29 -32v-75
c0 -23.333 4.16699 -39.166 12.5 -47.499s23.833 -12.5 46.5 -12.5h58c42.667 0 72.5 3.66699 89.5 11s25.5 20.333 25.5 39c0 9.33301 -1 20.5 -3 33.5s-3 23.833 -3 32.5c0 24.667 7 44 21 58s33 21 57 21c48.667 0 73 -26.667 73 -80c0 -17.333 -1 -35.666 -3 -54.999
c-3.33301 -32 -5 -52 -5 -60c0 -7.33301 1.66699 -21.666 5 -42.999c2 -12.667 3 -25.667 3 -39c0 -31.333 -19.667 -47 -59 -47c-12.667 0 -33.667 1 -63 3c-48.667 3.33301 -126.334 5.66602 -233.001 6.99902h-89c-33.333 0 -61 -1 -83 -3l-76 -7
c-0.666992 0 -2 -0.333008 -4 -1h-5c-20.667 0 -37.5 7 -50.5 21s-19.5 31.667 -19.5 53c0 18.667 5.16699 34.334 15.5 47.001s23.5 19 39.5 19c5.33301 0 13.333 -1.16699 24 -3.5s18.334 -3.5 23.001 -3.5c18 0 27 22.667 27 68v277c0 44.667 -9 67 -27 67
c-4 0 -12 -1.33301 -24 -4c-8.66699 -2 -16.334 -3 -23.001 -3c-15.333 0 -28.333 6.33301 -39 19s-16 28.334 -16 47.001c0 48.667 24.333 73 73 73c11.333 0 34.333 -1.33301 69 -4c52 -4 102.333 -6 151 -6c4.66699 0 44.667 1 120 3
c54.667 1.33301 90.667 2.66602 108 3.99902c28.667 2 58.667 3 90 3c37.333 0 56 -16.333 56 -49c0 -10.667 -1.16699 -26.334 -3.5 -47.001s-3.5 -36.334 -3.5 -47.001s1.5 -25.834 4.5 -45.501s4.5 -34.5 4.5 -44.5c0 -19.333 -7.16699 -35.666 -21.5 -48.999
s-32.166 -20 -53.499 -20c-50 0 -75 25.667 -75 77c0 8.66699 1.5 20.667 4.5 36s4.5 26.666 4.5 33.999c0 14.667 -7.66699 23.667 -23 27c-5.33301 1.33301 -19.333 2 -42 2h-99zM270 718c-24 0 -44.5 8.5 -61.5 25.5s-25.5 37.167 -25.5 60.5s8.5 43.5 25.5 60.5
s37.5 25.5 61.5 25.5c23.333 0 43.5 -8.33301 60.5 -25s25.5 -37 25.5 -61s-8.5 -44.333 -25.5 -61s-37.167 -25 -60.5 -25zM476 718c-24 0 -44.5 8.33301 -61.5 25s-25.5 37 -25.5 61c0 23.333 8.5 43.5 25.5 60.5s37.167 25.5 60.5 25.5c24 0 44.5 -8.33301 61.5 -25
s25.5 -37 25.5 -61c0 -23.333 -8.5 -43.5 -25.5 -60.5s-37.167 -25.5 -60.5 -25.5z" />
    <glyph glyph-name="Igrave" unicode="&#xcc;" horiz-adv-x="473" 
d="M120 127c13.333 0 21.665 8.66895 24.998 26.002c1.33301 6.66699 2 20.667 2 42v277c0 21.333 -0.666992 35 -2 41c-3.33301 17.333 -11.666 26 -24.999 26c-5.33301 0 -13.166 -1.16699 -23.499 -3.5s-18.5 -3.5 -24.5 -3.5c-15.333 0 -28.166 6.33301 -38.499 19
s-15.5 28.334 -15.5 47.001c0 22.667 6.5 40.5 19.5 53.5s30.5 19.5 52.5 19.5c10 0 33.333 -2 70 -6c24.667 -2.66699 48.667 -4 72 -4c18.667 0 45.5 1.66699 80.5 5s58.167 5 69.5 5c48.667 0 73 -24.333 73 -73c0 -18.667 -5.16699 -34.334 -15.5 -47.001
s-23.166 -19 -38.499 -19c-5.33301 0 -13.333 1.16699 -24 3.5s-18.667 3.5 -24 3.5c-18 0 -27 -22.333 -27 -67v-277c0 -45.333 9 -68 27 -68c5.33301 0 13.333 1.16699 24 3.5s18.667 3.5 24 3.5c15.333 0 28.166 -6.33301 38.499 -19s15.5 -28.334 15.5 -47.001
c0 -21.333 -6.5 -39 -19.5 -53s-29.5 -21 -49.5 -21c-4 0 -7 0.333008 -9 1l-63 8c-16 2 -33.667 3 -53 3c-30 0 -61.333 -1.66699 -94 -5c-39.333 -4 -65 -6 -77 -6c-21.333 0 -38.666 6.66699 -51.999 20s-20 31 -20 53c0 19.333 5.16699 35.166 15.5 47.499
s23.5 18.5 39.5 18.5c5.33301 0 13.166 -1.16699 23.499 -3.5s18.166 -3.5 23.499 -3.5zM322.999 716.002c-16.667 0 -37.333 5 -62 15l-90 36c-43.333 17.333 -65 38 -65 62c0 18 6 34 18 48s26 21 42 21c15.333 0 33.666 -5.66699 54.999 -17l93 -50
c19.333 -10.667 31.333 -18 36 -22c12 -9.33301 18 -21 18 -35c0 -14.667 -4.66699 -28 -14 -40s-19.666 -18 -30.999 -18z" />
    <glyph glyph-name="Iacute" unicode="&#xcd;" horiz-adv-x="473" 
d="M120 127c13.333 0 21.665 8.66895 24.998 26.002c1.33301 6.66699 2 20.667 2 42v277c0 21.333 -0.666992 35 -2 41c-3.33301 17.333 -11.666 26 -24.999 26c-5.33301 0 -13.166 -1.16699 -23.499 -3.5s-18.5 -3.5 -24.5 -3.5c-15.333 0 -28.166 6.33301 -38.499 19
s-15.5 28.334 -15.5 47.001c0 22.667 6.5 40.5 19.5 53.5s30.5 19.5 52.5 19.5c10 0 33.333 -2 70 -6c24.667 -2.66699 48.667 -4 72 -4c18.667 0 45.5 1.66699 80.5 5s58.167 5 69.5 5c48.667 0 73 -24.333 73 -73c0 -18.667 -5.16699 -34.334 -15.5 -47.001
s-23.166 -19 -38.499 -19c-5.33301 0 -13.333 1.16699 -24 3.5s-18.667 3.5 -24 3.5c-18 0 -27 -22.333 -27 -67v-277c0 -45.333 9 -68 27 -68c5.33301 0 13.333 1.16699 24 3.5s18.667 3.5 24 3.5c15.333 0 28.166 -6.33301 38.499 -19s15.5 -28.334 15.5 -47.001
c0 -21.333 -6.5 -39 -19.5 -53s-29.5 -21 -49.5 -21c-4 0 -7 0.333008 -9 1l-63 8c-16 2 -33.667 3 -53 3c-30 0 -61.333 -1.66699 -94 -5c-39.333 -4 -65 -6 -77 -6c-21.333 0 -38.666 6.66699 -51.999 20s-20 31 -20 53c0 19.333 5.16699 35.166 15.5 47.499
s23.5 18.5 39.5 18.5c5.33301 0 13.166 -1.16699 23.499 -3.5s18.166 -3.5 23.499 -3.5zM104.999 774.002c0 13.333 6.33398 25.001 19.001 35.001c4.66699 4 16.667 11.333 36 22l93 50c21.333 11.333 39.666 17 54.999 17c16 0 30 -6.83301 42 -20.5
s18 -29.834 18 -48.501c0 -24 -22 -44.667 -66 -62l-90 -36c-24.667 -10 -45 -15 -61 -15c-16.667 0 -29.667 10.333 -39 31c-4.66699 10.667 -7 19.667 -7 27z" />
    <glyph glyph-name="Icircumflex" unicode="&#xce;" horiz-adv-x="473" 
d="M120 127c13.333 0 21.665 8.66895 24.998 26.002c1.33301 6.66699 2 20.667 2 42v277c0 21.333 -0.666992 35 -2 41c-3.33301 17.333 -11.666 26 -24.999 26c-5.33301 0 -13.166 -1.16699 -23.499 -3.5s-18.5 -3.5 -24.5 -3.5c-15.333 0 -28.166 6.33301 -38.499 19
s-15.5 28.334 -15.5 47.001c0 22.667 6.5 40.5 19.5 53.5s30.5 19.5 52.5 19.5c10 0 33.333 -2 70 -6c24.667 -2.66699 48.667 -4 72 -4c18.667 0 45.5 1.66699 80.5 5s58.167 5 69.5 5c48.667 0 73 -24.333 73 -73c0 -18.667 -5.16699 -34.334 -15.5 -47.001
s-23.166 -19 -38.499 -19c-5.33301 0 -13.333 1.16699 -24 3.5s-18.667 3.5 -24 3.5c-18 0 -27 -22.333 -27 -67v-277c0 -45.333 9 -68 27 -68c5.33301 0 13.333 1.16699 24 3.5s18.667 3.5 24 3.5c15.333 0 28.166 -6.33301 38.499 -19s15.5 -28.334 15.5 -47.001
c0 -21.333 -6.5 -39 -19.5 -53s-29.5 -21 -49.5 -21c-4 0 -7 0.333008 -9 1l-63 8c-16 2 -33.667 3 -53 3c-30 0 -61.333 -1.66699 -94 -5c-39.333 -4 -65 -6 -77 -6c-21.333 0 -38.666 6.66699 -51.999 20s-20 31 -20 53c0 19.333 5.16699 35.166 15.5 47.499
s23.5 18.5 39.5 18.5c5.33301 0 13.166 -1.16699 23.499 -3.5s18.166 -3.5 23.499 -3.5zM350.999 729.002l-110 41.001l-113 -41c-24 -8.66699 -41.333 -13 -52 -13c-11.333 0 -20.833 5 -28.5 15s-11.5 22.333 -11.5 37c0 20.667 17.333 39.667 52 57l67 34
c42 21.333 71.333 32 88 32s44.667 -10.667 84 -32l63 -34c32 -17.333 48 -35.333 48 -54c0 -14.667 -4 -27.334 -12 -38.001s-17.333 -16 -28 -16c-10 0 -25.667 4 -47 12z" />
    <glyph glyph-name="Idieresis" unicode="&#xcf;" horiz-adv-x="473" 
d="M120 127c13.333 0 21.665 8.66895 24.998 26.002c1.33301 6.66699 2 20.667 2 42v277c0 21.333 -0.666992 35 -2 41c-3.33301 17.333 -11.666 26 -24.999 26c-5.33301 0 -13.166 -1.16699 -23.499 -3.5s-18.5 -3.5 -24.5 -3.5c-15.333 0 -28.166 6.33301 -38.499 19
s-15.5 28.334 -15.5 47.001c0 22.667 6.5 40.5 19.5 53.5s30.5 19.5 52.5 19.5c10 0 33.333 -2 70 -6c24.667 -2.66699 48.667 -4 72 -4c18.667 0 45.5 1.66699 80.5 5s58.167 5 69.5 5c48.667 0 73 -24.333 73 -73c0 -18.667 -5.16699 -34.334 -15.5 -47.001
s-23.166 -19 -38.499 -19c-5.33301 0 -13.333 1.16699 -24 3.5s-18.667 3.5 -24 3.5c-18 0 -27 -22.333 -27 -67v-277c0 -45.333 9 -68 27 -68c5.33301 0 13.333 1.16699 24 3.5s18.667 3.5 24 3.5c15.333 0 28.166 -6.33301 38.499 -19s15.5 -28.334 15.5 -47.001
c0 -21.333 -6.5 -39 -19.5 -53s-29.5 -21 -49.5 -21c-4 0 -7 0.333008 -9 1l-63 8c-16 2 -33.667 3 -53 3c-30 0 -61.333 -1.66699 -94 -5c-39.333 -4 -65 -6 -77 -6c-21.333 0 -38.666 6.66699 -51.999 20s-20 31 -20 53c0 19.333 5.16699 35.166 15.5 47.499
s23.5 18.5 39.5 18.5c5.33301 0 13.166 -1.16699 23.499 -3.5s18.166 -3.5 23.499 -3.5zM133.999 718.002c-24 0 -44.5 8.5 -61.5 25.5s-25.5 37.167 -25.5 60.5s8.5 43.5 25.5 60.5s37.5 25.5 61.5 25.5s44.333 -8.33301 61 -25s25 -37 25 -61s-8.5 -44.333 -25.5 -61
s-37.167 -25 -60.5 -25zM339.999 718.002c-24 0 -44.5 8.33301 -61.5 25s-25.5 37 -25.5 61c0 23.333 8.5 43.5 25.5 60.5s37.5 25.5 61.5 25.5c23.333 0 43.5 -8.33301 60.5 -25s25.5 -37 25.5 -61c0 -23.333 -8.5 -43.5 -25.5 -60.5s-37.167 -25.5 -60.5 -25.5z" />
    <glyph glyph-name="Eth" unicode="&#xd0;" horiz-adv-x="746" 
d="M136 286c-2.66699 1.33301 -7 1.99805 -13 1.99805h-24c-35.333 0 -53 17.333 -53 52c0 38.667 18.333 58 55 58h18c11.333 0 18.666 1.66699 21.999 5h6v69c0 44.667 -9 67 -27 67c-5.33301 0 -13.166 -1.16699 -23.499 -3.5s-18.5 -3.5 -24.5 -3.5
c-15.333 0 -28.166 6.33301 -38.499 19s-15.5 28.334 -15.5 47.001c0 22 6.66699 39.667 20 53s30.666 20 51.999 20c11.333 0 34.666 -2 69.999 -6c23.333 -2.66699 45.666 -4 66.999 -4c8 0 26.667 1 56 3l73 5c19.333 1.33301 38.333 2 57 2c120.667 0 207 -51 259 -153
c29.333 -57.333 44 -119 44 -185s-14 -126.667 -42 -182s-65.333 -96 -112 -122c-41.333 -22.667 -90.666 -34 -147.999 -34c-22.667 0 -42 0.666992 -58 2l-73 6c-16 1.33301 -34.667 2 -56 2c-26.667 0 -49 -1 -67 -3l-40 -4c-15.333 -2 -25.333 -3 -30 -3
c-21.333 0 -38.666 6.66699 -51.999 20s-20 31 -20 53c0 18.667 5.16699 34.334 15.5 47.001s23.166 19 38.499 19c6 0 14.333 -1.16699 25 -3.5s18.334 -3.5 23.001 -3.5c18 0 27 22.667 27 68v91h-11zM380 542.998c-22.667 0 -37.835 -3.49902 -45.502 -10.499
s-11.5 -20.833 -11.5 -41.5v-93h27c38.667 0 58 -18 58 -54c0 -37.333 -18.333 -56 -55 -56l-30 -1v-111c0 -20.667 3.83301 -34.667 11.5 -42s22.834 -11 45.501 -11c36.667 0 69.667 15 99 45c34 35.333 51 87.666 51 156.999c0 78 -17 135.667 -51 173
c-15.333 16.667 -32 28.667 -50 36c-15.333 6 -31.666 9 -48.999 9z" />
    <glyph glyph-name="Ntilde" unicode="&#xd1;" horiz-adv-x="874" 
d="M417 604l175.999 -428.001v296c0 44.667 -8.66699 67 -26 67c-4.66699 0 -11.5 -1.16699 -20.5 -3.5s-15.833 -3.5 -20.5 -3.5c-14 0 -25.833 6.33301 -35.5 19s-14.5 28.334 -14.5 47.001c0 22 6.33301 39.667 19 53s29.334 20 50.001 20c10.667 0 29 -1.66699 55 -5
s49 -5 69 -5c18 0 39 1.33301 63 4c36 4 58.333 6 67 6c21.333 0 38.666 -6.66699 51.999 -20s20 -31 20 -53c0 -18.667 -5.33301 -34.334 -16 -47.001s-23.667 -19 -39 -19c-6 0 -14 1.16699 -24 3.5s-17.667 3.5 -23 3.5c-13.333 0 -22 -8.33301 -26 -25
c-1.33301 -6.66699 -2 -20.667 -2 -42v-407c0 -44 -18 -66 -54 -66c-6.66699 0 -16.834 0.5 -30.501 1.5s-23.834 1.5 -30.501 1.5c-0.666992 0 -17 -0.666992 -49 -2h-22c-19.333 0 -33.666 4.66699 -42.999 14c-5.33301 5.33301 -13 19.666 -23 42.999l-193 440v-302
c0 -45.333 8.66699 -68 26 -68c4.66699 0 11.834 1.16699 21.501 3.5s16.834 3.5 21.501 3.5c14 0 25.833 -6.33301 35.5 -19s14.5 -28.334 14.5 -47.001c0 -48.667 -23.333 -73 -70 -73c-13.333 0 -35.333 2 -66 6c-20.667 2.66699 -41.334 4 -62.001 4
c-17.333 0 -40.666 -1.66699 -69.999 -5s-48 -5 -56 -5c-48.667 0 -73 24.333 -73 73c0 18.667 5.16699 34.334 15.5 47.001s23.166 19 38.499 19c6 0 14.167 -1.16699 24.5 -3.5s18.166 -3.5 23.499 -3.5c18 0 27 22.667 27 68v277c0 44.667 -9 67 -27 67
c-5.33301 0 -13.166 -1.16699 -23.499 -3.5s-18.5 -3.5 -24.5 -3.5c-15.333 0 -28.166 6.33301 -38.499 19s-15.5 28.334 -15.5 47.001c0 22 6.66699 39.667 20 53s30.666 20 51.999 20c14 0 34.333 -1.66699 61 -5s47.667 -5 63 -5c12.667 0 34.334 1.33301 65.001 4
c14 0.666992 30 2 48 4c8 1.33301 16.667 2 26 2c18 0 32 -7 42 -21c4 -5.33301 11.333 -20.666 22 -45.999zM514.999 842.999c10.667 0 20 2.66699 28 8l29 19c8 5.33301 16.333 8 25 8c30 0 45 -16.333 45 -49c0 -27.333 -13.667 -51.5 -41 -72.5
s-58.666 -31.5 -93.999 -31.5c-26.667 0 -62 9.66699 -106 29c-15.333 6.66699 -28 10 -38 10c-9.33301 0 -18.333 -3 -27 -9l-25 -17c-12 -8 -22.333 -12 -31 -12c-12.667 0 -23.834 5 -33.501 15s-14.5 21.667 -14.5 35c0 28 13 52.667 39 74s56.333 32 91 32
c22.667 0 56 -8.66699 100 -26c22 -8.66699 39.667 -13 53 -13z" />
    <glyph glyph-name="Ograve" unicode="&#xd2;" 
d="M348 -18c-101.333 0 -179.667 30.668 -235 92.001s-83 148.333 -83 261c0 108.667 27.5 194.167 82.5 256.5s130.833 93.5 227.5 93.5c101.333 0 180.333 -30.333 237 -91s85 -145.334 85 -254.001c0 -112.667 -27.5 -200.5 -82.5 -263.5s-132.167 -94.5 -231.5 -94.5z
M418.999 716.001c-16.667 0 -37.334 5 -62.001 15l-90 36c-44 17.333 -66 38 -66 62c0 18 6.16699 34 18.5 48s26.5 21 42.5 21c14.667 0 32.667 -5.66699 54 -17l93 -50c20 -10.667 32.333 -18 37 -22c12 -9.33301 18 -21 18 -35c0 -14.667 -4.66699 -28 -14 -40
s-19.666 -18 -30.999 -18zM346.999 545.001c-86.667 0 -130.001 -70.667 -130.001 -212c0 -67.333 8.33301 -117.333 25 -150c20.667 -40.667 55.334 -61 104.001 -61c86 0 129 68.667 129 206c0 76 -10.167 131.167 -30.5 165.5s-52.833 51.5 -97.5 51.5z" />
    <glyph glyph-name="Oacute" unicode="&#xd3;" 
d="M348 -18c-101.333 0 -179.667 30.668 -235 92.001s-83 148.333 -83 261c0 108.667 27.5 194.167 82.5 256.5s130.833 93.5 227.5 93.5c101.333 0 180.333 -30.333 237 -91s85 -145.334 85 -254.001c0 -112.667 -27.5 -200.5 -82.5 -263.5s-132.167 -94.5 -231.5 -94.5z
M213.999 774.001c0 13.333 6.33301 25.001 19 35.001c4.66699 4 16.667 11.333 36 22l93 50c21.333 11.333 39.666 17 54.999 17c16 0 30 -6.83301 42 -20.5s18 -29.834 18 -48.501c0 -24 -21.667 -44.667 -65 -62l-91 -36c-25.333 -10 -45.666 -15 -60.999 -15
c-16.667 0 -29.667 10.333 -39 31c-4.66699 10.667 -7 19.667 -7 27zM346.999 545.002c-86.667 0 -130.001 -70.667 -130.001 -212c0 -67.333 8.33301 -117.333 25 -150c20.667 -40.667 55.334 -61 104.001 -61c86 0 129 68.667 129 206c0 76 -10.167 131.167 -30.5 165.5
s-52.833 51.5 -97.5 51.5z" />
    <glyph glyph-name="Ocircumflex" unicode="&#xd4;" 
d="M348 -18c-101.333 0 -179.667 30.668 -235 92.001s-83 148.333 -83 261c0 108.667 27.5 194.167 82.5 256.5s130.833 93.5 227.5 93.5c101.333 0 180.333 -30.333 237 -91s85 -145.334 85 -254.001c0 -112.667 -27.5 -200.5 -82.5 -263.5s-132.167 -94.5 -231.5 -94.5z
M459.999 729.001l-109.999 41.001l-113 -41c-24 -8.66699 -41.333 -13 -52 -13c-11.333 0 -20.833 5 -28.5 15s-11.5 22.333 -11.5 37c0 14 5.66699 26 17 36c5.33301 4.66699 17.333 11.667 36 21l66 34c41.333 21.333 70.666 32 87.999 32c16.667 0 44.667 -10.667 84 -32
l63 -34c32 -17.333 48 -35.333 48 -54c0 -14.667 -4 -27.334 -12 -38.001s-17.333 -16 -28 -16c-10 0 -25.667 4 -47 12zM347 545.002c-86.667 0 -130.001 -70.667 -130.001 -212c0 -67.333 8.33301 -117.333 25 -150c20.667 -40.667 55.334 -61 104.001 -61
c86 0 129 68.667 129 206c0 76 -10.167 131.167 -30.5 165.5s-52.833 51.5 -97.5 51.5z" />
    <glyph glyph-name="Otilde" unicode="&#xd5;" 
d="M348 -18c-101.333 0 -179.667 30.668 -235 92.001s-83 148.333 -83 261c0 108.667 27.5 194.167 82.5 256.5s130.833 93.5 227.5 93.5c101.333 0 180.333 -30.333 237 -91s85 -145.334 85 -254.001c0 -112.667 -27.5 -200.5 -82.5 -263.5s-132.167 -94.5 -231.5 -94.5z
M423.999 843.001c10.667 0 20.001 2.66699 28.001 8l29 19c8 5.33301 16.333 8 25 8c30 0 45 -16.333 45 -49c0 -27.333 -13.667 -51.5 -41 -72.5s-59 -31.5 -95 -31.5c-26 0 -61 9.66699 -105 29c-15.333 6.66699 -28 10 -38 10c-9.33301 0 -18.333 -3 -27 -9l-25 -17
c-12 -8 -22.333 -12 -31 -12c-12.667 0 -23.834 5 -33.501 15s-14.5 21.667 -14.5 35c0 28 13 52.667 39 74s56.333 32 91 32c22.667 0 56 -8.66699 100 -26c22 -8.66699 39.667 -13 53 -13zM347 545.001c-86.667 0 -130.001 -70.667 -130.001 -212
c0 -67.333 8.33301 -117.333 25 -150c20.667 -40.667 55.334 -61 104.001 -61c86 0 129 68.667 129 206c0 76 -10.167 131.167 -30.5 165.5s-52.833 51.5 -97.5 51.5z" />
    <glyph glyph-name="Odieresis" unicode="&#xd6;" 
d="M348 -18c-101.333 0 -179.667 30.668 -235 92.001s-83 148.333 -83 261c0 108.667 27.5 194.167 82.5 256.5s130.833 93.5 227.5 93.5c101.333 0 180.333 -30.333 237 -91s85 -145.334 85 -254.001c0 -112.667 -27.5 -200.5 -82.5 -263.5s-132.167 -94.5 -231.5 -94.5z
M259.999 718.001c-24 0 -44.5 8.5 -61.5 25.5s-25.5 37.167 -25.5 60.5s8.5 43.5 25.5 60.5s37.5 25.5 61.5 25.5s44.333 -8.33301 61 -25s25 -37 25 -61s-8.5 -44.333 -25.5 -61s-37.167 -25 -60.5 -25zM465.999 718.001c-24 0 -44.5 8.33301 -61.5 25s-25.5 37 -25.5 61
c0 23.333 8.5 43.5 25.5 60.5s37.5 25.5 61.5 25.5c23.333 0 43.5 -8.33301 60.5 -25s25.5 -37 25.5 -61c0 -23.333 -8.5 -43.5 -25.5 -60.5s-37.167 -25.5 -60.5 -25.5zM346.999 545.001c-86.667 0 -130.001 -70.667 -130.001 -212c0 -67.333 8.33301 -117.333 25 -150
c20.667 -40.667 55.334 -61 104.001 -61c86 0 129 68.667 129 206c0 76 -10.167 131.167 -30.5 165.5s-52.833 51.5 -97.5 51.5z" />
    <glyph glyph-name="multiply" unicode="&#xd7;" horiz-adv-x="500" 
d="M54 451l85 85l107 -108l109 109l92 -92l-109 -109l108 -107l-85 -85l-107 108l-109 -109l-92 92l109 109z" />
    <glyph glyph-name="Oslash" unicode="&#xd8;" 
d="M652 687l-72.001 -99.999c10.667 -14 25 -36 43 -66c25.333 -52 38 -117 38 -195c0 -104 -28.5 -187.333 -85.5 -250s-132.833 -94 -227.5 -94c-60.667 0 -115 12 -163 36l-43 -63c-8 -12 -15.667 -19.667 -23 -23s-18.333 -5 -33 -5c-46 0 -69 8.66699 -69 26
c0 6 5 16.333 15 31l71 102c-48.667 56 -73 136.667 -73 242c0 161.333 53 268.666 159 321.999c46.667 23.333 96 35 148 35c56 0 109.333 -11 160 -33l44 62c10.667 15.333 28.334 23 53.001 23c46 0 69 -9 69 -27c0 -5.33301 -3.66699 -13 -11 -23zM213.999 222.001
l195 310c-20 10 -41.333 15 -64 15c-92.667 0 -139 -78.333 -139 -235c0 -30.667 2.66699 -60.667 8 -90zM471.999 449.001l-196 -309c18 -14 41 -21 69 -21c93.333 0 140 71.333 140 214c0 40 -4.33301 78.667 -13 116z" />
    <glyph glyph-name="Ugrave" unicode="&#xd9;" horiz-adv-x="837" 
d="M702 482l-0.00292969 -43.9971l1 -88v-31c0 -74.667 -1 -119.334 -3 -134.001c-5.33301 -50.667 -21.666 -90.334 -48.999 -119.001c-52.667 -56 -132.334 -84 -239.001 -84c-110 0 -188 29 -234 87c-28 35.333 -42 87.666 -42 156.999c0 6 1 43 3 111
c1.33301 45.333 2 81.666 2 108.999v39c0 36 -9.66699 54 -29 54c-4.66699 0 -12 -1.16699 -22 -3.5s-18 -3.5 -24 -3.5c-15.333 0 -28.166 6.16699 -38.499 18.5s-15.5 27.833 -15.5 46.5c0 22.667 7.16699 40.667 21.5 54s33.166 20 56.499 20
c14.667 0 36.667 -1.66699 66 -5s51.333 -5 66 -5c12.667 0 31.5 1.66699 56.5 5s43.833 5 56.5 5c20 0 36 -6.66699 48 -20s18 -31.333 18 -54c0 -40 -13.667 -60 -41 -60h-10c-3.33301 0.666992 -7.66602 1 -12.999 1c-11.333 0 -18 -7 -20 -21v-35v-229
c0 -46 7.83301 -78.5 23.5 -97.5s42.167 -28.5 79.5 -28.5s64.5 9.83301 81.5 29.5s25.5 51.834 25.5 96.501v229c0 24.667 -1.33301 40.167 -4 46.5s-8.66699 9.5 -18 9.5c-4.66699 0 -8.66699 -0.333008 -12 -1h-10c-27.333 0 -41 20.333 -41 61
c0 22 6.16699 39.667 18.5 53s28.5 20 48.5 20c12.667 0 31.834 -1.66699 57.501 -5s44.834 -5 57.501 -5c14.667 0 36.667 1.66699 66 5s51.333 5 66 5c22.667 0 40.834 -6.66699 54.501 -20s20.5 -31.333 20.5 -54c0 -19.333 -5.16699 -35 -15.5 -47
s-23.833 -18 -40.5 -18c-5.33301 0 -12.833 1.16699 -22.5 3.5s-16.834 3.5 -21.501 3.5c-19.333 0 -29 -19 -29 -57zM493.997 716.003c-16 0 -36.3311 5 -60.998 15l-90 36c-44 17.333 -66 38 -66 62c0 18 6.16699 34 18.5 48s26.166 21 41.499 21
s33.666 -5.66699 54.999 -17l93 -50c20 -10.667 32.333 -18 37 -22c12 -9.33301 18 -21 18 -35c0 -14.667 -4.66699 -28 -14 -40s-20 -18 -32 -18z" />
    <glyph glyph-name="Uacute" unicode="&#xda;" horiz-adv-x="837" 
d="M702 482l-0.00292969 -43.9971l1 -88v-31c0 -74.667 -1 -119.334 -3 -134.001c-5.33301 -50.667 -21.666 -90.334 -48.999 -119.001c-52.667 -56 -132.334 -84 -239.001 -84c-110 0 -188 29 -234 87c-28 35.333 -42 87.666 -42 156.999c0 6 1 43 3 111
c1.33301 45.333 2 81.666 2 108.999v39c0 36 -9.66699 54 -29 54c-4.66699 0 -12 -1.16699 -22 -3.5s-18 -3.5 -24 -3.5c-15.333 0 -28.166 6.16699 -38.499 18.5s-15.5 27.833 -15.5 46.5c0 22.667 7.16699 40.667 21.5 54s33.166 20 56.499 20
c14.667 0 36.667 -1.66699 66 -5s51.333 -5 66 -5c12.667 0 31.5 1.66699 56.5 5s43.833 5 56.5 5c20 0 36 -6.66699 48 -20s18 -31.333 18 -54c0 -40 -13.667 -60 -41 -60h-10c-3.33301 0.666992 -7.66602 1 -12.999 1c-11.333 0 -18 -7 -20 -21v-35v-229
c0 -46 7.83301 -78.5 23.5 -97.5s42.167 -28.5 79.5 -28.5s64.5 9.83301 81.5 29.5s25.5 51.834 25.5 96.501v229c0 24.667 -1.33301 40.167 -4 46.5s-8.66699 9.5 -18 9.5c-4.66699 0 -8.66699 -0.333008 -12 -1h-10c-27.333 0 -41 20.333 -41 61
c0 22 6.16699 39.667 18.5 53s28.5 20 48.5 20c12.667 0 31.834 -1.66699 57.501 -5s44.834 -5 57.501 -5c14.667 0 36.667 1.66699 66 5s51.333 5 66 5c22.667 0 40.834 -6.66699 54.501 -20s20.5 -31.333 20.5 -54c0 -19.333 -5.16699 -35 -15.5 -47
s-23.833 -18 -40.5 -18c-5.33301 0 -12.833 1.16699 -22.5 3.5s-16.834 3.5 -21.501 3.5c-19.333 0 -29 -19 -29 -57zM289.997 774.003c0 13.333 6.33398 25.001 19.001 35.001c4.66699 4 16.667 11.333 36 22l93 50c21.333 11.333 39.666 17 54.999 17
c16 0 30 -6.83301 42 -20.5s18 -29.834 18 -48.501c0 -24 -22 -44.667 -66 -62l-90 -36c-24.667 -10 -45 -15 -61 -15c-16.667 0 -29.667 10.333 -39 31c-4.66699 10.667 -7 19.667 -7 27z" />
    <glyph glyph-name="Ucircumflex" unicode="&#xdb;" horiz-adv-x="837" 
d="M702 482l-0.00292969 -43.9971l1 -88v-31c0 -74.667 -1 -119.334 -3 -134.001c-5.33301 -50.667 -21.666 -90.334 -48.999 -119.001c-52.667 -56 -132.334 -84 -239.001 -84c-110 0 -188 29 -234 87c-28 35.333 -42 87.666 -42 156.999c0 6 1 43 3 111
c1.33301 45.333 2 81.666 2 108.999v39c0 36 -9.66699 54 -29 54c-4.66699 0 -12 -1.16699 -22 -3.5s-18 -3.5 -24 -3.5c-15.333 0 -28.166 6.16699 -38.499 18.5s-15.5 27.833 -15.5 46.5c0 22.667 7.16699 40.667 21.5 54s33.166 20 56.499 20
c14.667 0 36.667 -1.66699 66 -5s51.333 -5 66 -5c12.667 0 31.5 1.66699 56.5 5s43.833 5 56.5 5c20 0 36 -6.66699 48 -20s18 -31.333 18 -54c0 -40 -13.667 -60 -41 -60h-10c-3.33301 0.666992 -7.66602 1 -12.999 1c-11.333 0 -18 -7 -20 -21v-35v-229
c0 -46 7.83301 -78.5 23.5 -97.5s42.167 -28.5 79.5 -28.5s64.5 9.83301 81.5 29.5s25.5 51.834 25.5 96.501v229c0 24.667 -1.33301 40.167 -4 46.5s-8.66699 9.5 -18 9.5c-4.66699 0 -8.66699 -0.333008 -12 -1h-10c-27.333 0 -41 20.333 -41 61
c0 22 6.16699 39.667 18.5 53s28.5 20 48.5 20c12.667 0 31.834 -1.66699 57.501 -5s44.834 -5 57.501 -5c14.667 0 36.667 1.66699 66 5s51.333 5 66 5c22.667 0 40.834 -6.66699 54.501 -20s20.5 -31.333 20.5 -54c0 -19.333 -5.16699 -35 -15.5 -47
s-23.833 -18 -40.5 -18c-5.33301 0 -12.833 1.16699 -22.5 3.5s-16.834 3.5 -21.501 3.5c-19.333 0 -29 -19 -29 -57zM535.997 729.003l-110 41.001l-113 -41c-24 -8.66699 -41.333 -13 -52 -13c-11.333 0 -20.833 5 -28.5 15s-11.5 22.333 -11.5 37
c0 20.667 17.333 39.667 52 57l67 34c42 21.333 71.333 32 88 32s44.667 -10.667 84 -32l63 -34c32 -17.333 48 -35.333 48 -54c0 -14.667 -4 -27.334 -12 -38.001s-17.333 -16 -28 -16c-10 0 -25.667 4 -47 12z" />
    <glyph glyph-name="Udieresis" unicode="&#xdc;" horiz-adv-x="837" 
d="M702 482l-0.00292969 -43.9971l1 -88v-31c0 -74.667 -1 -119.334 -3 -134.001c-5.33301 -50.667 -21.666 -90.334 -48.999 -119.001c-52.667 -56 -132.334 -84 -239.001 -84c-110 0 -188 29 -234 87c-28 35.333 -42 87.666 -42 156.999c0 6 1 43 3 111
c1.33301 45.333 2 81.666 2 108.999v39c0 36 -9.66699 54 -29 54c-4.66699 0 -12 -1.16699 -22 -3.5s-18 -3.5 -24 -3.5c-15.333 0 -28.166 6.16699 -38.499 18.5s-15.5 27.833 -15.5 46.5c0 22.667 7.16699 40.667 21.5 54s33.166 20 56.499 20
c14.667 0 36.667 -1.66699 66 -5s51.333 -5 66 -5c12.667 0 31.5 1.66699 56.5 5s43.833 5 56.5 5c20 0 36 -6.66699 48 -20s18 -31.333 18 -54c0 -40 -13.667 -60 -41 -60h-10c-3.33301 0.666992 -7.66602 1 -12.999 1c-11.333 0 -18 -7 -20 -21v-35v-229
c0 -46 7.83301 -78.5 23.5 -97.5s42.167 -28.5 79.5 -28.5s64.5 9.83301 81.5 29.5s25.5 51.834 25.5 96.501v229c0 24.667 -1.33301 40.167 -4 46.5s-8.66699 9.5 -18 9.5c-4.66699 0 -8.66699 -0.333008 -12 -1h-10c-27.333 0 -41 20.333 -41 61
c0 22 6.16699 39.667 18.5 53s28.5 20 48.5 20c12.667 0 31.834 -1.66699 57.501 -5s44.834 -5 57.501 -5c14.667 0 36.667 1.66699 66 5s51.333 5 66 5c22.667 0 40.834 -6.66699 54.501 -20s20.5 -31.333 20.5 -54c0 -19.333 -5.16699 -35 -15.5 -47
s-23.833 -18 -40.5 -18c-5.33301 0 -12.833 1.16699 -22.5 3.5s-16.834 3.5 -21.501 3.5c-19.333 0 -29 -19 -29 -57zM318.997 718.003c-23.333 0 -43.5 8.5 -60.5 25.5s-25.5 37.167 -25.5 60.5s8.33301 43.5 25 60.5s37 25.5 61 25.5s44.333 -8.33301 61 -25
s25 -37 25 -61s-8.33301 -44.333 -25 -61s-37 -25 -61 -25zM524.997 718.003c-24 0 -44.333 8.33301 -61 25s-25 37 -25 61c0 23.333 8.33301 43.5 25 60.5s37 25.5 61 25.5s44.333 -8.33301 61 -25s25 -37 25 -61c0 -23.333 -8.33301 -43.5 -25 -60.5s-37 -25.5 -61 -25.5z
" />
    <glyph glyph-name="Yacute" unicode="&#xdd;" horiz-adv-x="746" 
d="M320 490l54.002 -107.997l60 108c11.333 20.667 17 34 17 40c0 7.33301 -6.66699 14.666 -20 21.999c-17.333 9.33301 -26 25.333 -26 48c0 47.333 24 71 72 71c15.333 0 30 -1 44 -3c32.667 -4.66699 54.667 -7 66 -7c12 0 29.5 1.66699 52.5 5s40.167 5 51.5 5
c21.333 0 38.5 -6.66699 51.5 -20s19.5 -31.333 19.5 -54c0 -18.667 -4.83301 -34.167 -14.5 -46.5s-21.834 -18.5 -36.501 -18.5c-6 0 -15 1.33301 -27 4c-8.66699 2 -15.334 3 -20.001 3c-9.33301 0 -16.333 -2.33301 -21 -7s-14.334 -18.667 -29.001 -42l-132 -211
c-14.667 -24 -22.667 -50 -24 -78l-1 -28c-1.33301 -30.667 9.33398 -46 32.001 -46c7.33301 0 17.666 1.16699 30.999 3.5s23.333 3.5 30 3.5c16 0 29.167 -6.33301 39.5 -19s15.5 -29 15.5 -49c0 -22 -6.66699 -39.333 -20 -52s-31.333 -19 -54 -19
c-16.667 0 -42 1.66699 -76 5s-59.667 5 -77 5c-18.667 0 -46.334 -1.66699 -83.001 -5s-64.334 -5 -83.001 -5c-22 0 -39.667 6.66699 -53 20s-20 30.666 -20 51.999c0 44.667 19 67 57 67c6.66699 0 16.834 -1.16699 30.501 -3.5s23.834 -3.5 30.501 -3.5
c19.333 0 29 15.333 29 46v28c0 20.667 -8.66699 45 -26 73l-148 243c-8.66699 14.667 -20 22 -34 22c-4 0 -10.333 -1 -19 -3c-11.333 -2.66699 -20.333 -4 -27 -4c-32 0 -48 20.333 -48 61c0 52 23.333 78 70 78c12 0 31 -1.66699 57 -5s46 -5 60 -5c18.667 0 42 2 70 6
c18.667 2.66699 33.667 4 45 4c45.333 0 68 -25 68 -75c0 -20.667 -7.66699 -35 -23 -43c-9.33301 -5.33301 -16 -9 -20 -11s-6 -5.33301 -6 -10v-3c0 -6 1.33301 -11.333 4 -16c0.666992 -2.66699 4.33398 -10.334 11.001 -23.001zM241.002 780.003
c0 12.667 6.33398 24.335 19.001 35.002c4.66699 3.33301 16.667 10.333 36 21l93 51c19.333 10.667 37.666 16 54.999 16c16 0 30 -6.83301 42 -20.5s18 -29.834 18 -48.501c0 -24.667 -21.667 -45.334 -65 -62.001l-91 -35c-28 -10.667 -48.333 -16 -61 -16
c-16.667 0 -29.667 10.333 -39 31c-4.66699 10.667 -7 20 -7 28z" />
    <glyph glyph-name="Thorn" unicode="&#xde;" 
d="M323 500l26.001 1.99902c48 2.66699 75.333 4 82 4c72.667 0 131.5 -14.667 176.5 -44s67.5 -67.666 67.5 -114.999c0 -48.667 -23.167 -87.5 -69.5 -116.5s-109.5 -43.5 -189.5 -43.5c-6.66699 0 -19.334 0.333008 -38.001 1h-28c-18 0.666992 -27 -6.33301 -27 -21v-53
c0 -16 10 -24 30 -24c8 0 18 0.666992 30 2c14.667 2 27 3 37 3c16.667 0 30 -4.16699 40 -12.5s15 -19.833 15 -34.5c0 -15.333 -6.66699 -27.833 -20 -37.5s-30.666 -14.5 -51.999 -14.5c-18.667 0 -46.334 1.33301 -83.001 4s-64.334 4 -83.001 4
c-28.667 0 -52.667 -1 -72 -3l-49 -3c-13.333 -1.33301 -22.333 -2 -27 -2c-21.333 0 -38.5 4.83301 -51.5 14.5s-19.5 22.167 -19.5 37.5c0 13.333 5.16699 24.5 15.5 33.5s23.166 13.5 38.499 13.5c6 0 14.333 -0.833008 25 -2.5s18.334 -2.5 23.001 -2.5
c18 0 27 26 27 78v197c0 15.333 -0.666992 25 -2 29l2 2c-1.33301 120.667 -10.333 181 -27 181c-4.66699 0 -12.334 -0.833008 -23.001 -2.5s-19 -2.5 -25 -2.5c-15.333 0 -28.166 4.5 -38.499 13.5s-15.5 20.167 -15.5 33.5c0 15.333 6.5 27.833 19.5 37.5
s30.167 14.5 51.5 14.5c4.66699 0 13.667 -0.666992 27 -2l49 -3c19.333 -2 43.333 -3 72 -3c18.667 0 46.334 1.33301 83.001 4s64.334 4 83.001 4c21.333 0 38.666 -4.83301 51.999 -14.5s20 -22.167 20 -37.5c0 -14.667 -5 -26.167 -15 -34.5s-23.333 -12.5 -40 -12.5
c-10 0 -22.333 1 -37 3c-12 1.33301 -22 2 -30 2c-20 0 -30 -8 -30 -24v-53zM323.001 307.999c0 -13.333 1.66699 -21.499 5 -24.499s12.333 -4.5 27 -4.5l16 -1c78.667 -3.33301 118 18.667 118 66c0 45.333 -35.333 68 -106 68c-17.333 0 -29.333 -0.666992 -36 -2
c-12 -2.66699 -19.333 -8.33398 -22 -17.001c-1.33301 -3.33301 -2 -7.33301 -2 -12v-73z" />
    <glyph glyph-name="germandbls" unicode="&#xdf;" horiz-adv-x="728" 
d="M96 168l-0.00195312 219h-47c-34.667 0 -52 18 -52 54c0 37.333 17 56 51 56h57c4.66699 54 32.334 98.167 83.001 132.5s114.334 51.5 191.001 51.5c72 0 131.667 -15.833 179 -47.5s71 -71.5 71 -119.5c0 -23.333 -8 -45.166 -24 -65.499s-36.333 -34.833 -61 -43.5
c-16 -5.33301 -24 -12 -24 -20c0 -9.33301 10 -17.333 30 -24c32.667 -10.667 64.667 -29 96 -55c36.667 -30.667 55 -74 55 -130c0 -57.333 -16.667 -103.833 -50 -139.5s-77.333 -53.5 -132 -53.5c-50 0 -95.333 20 -136 60v-12c0 -26.667 -13.667 -40 -41 -40
c-32.667 0 -49 16.667 -49 50c0 7.33301 0.666992 18.666 2 33.999c2 21.333 2.66699 36.666 2 45.999l-3 54c0 0.666992 -0.333008 1.33398 -1 2.00098v3c0 38.667 23.667 58 71 58c36 0 54.667 -17 56 -51c2 -51.333 24.667 -77 68 -77c16.667 0 30.5 5.66699 41.5 17
s16.5 25.666 16.5 42.999c0 19.333 -6.5 34.5 -19.5 45.5s-40.5 25.5 -82.5 43.5c-48.667 20.667 -81.667 38 -99 52s-26 30 -26 48c0 18.667 5.66699 33.5 17 44.5s35.333 24.167 72 39.5c34.667 14.667 52 33.334 52 56.001c0 18.667 -8.33301 33.834 -25 45.501
s-38.334 17.5 -65.001 17.5c-80.667 0 -121 -41.333 -121 -124v-389c0 -35.333 -11.333 -53 -34 -53c-8.66699 0 -21.667 1.33301 -39 4s-30.333 4 -39 4c-13.333 0 -26.666 -1 -39.999 -3c-22 -3.33301 -35 -5 -39 -5c-18 0 -32.667 6.16699 -44 18.5
s-17 28.166 -17 47.499c0 37.333 16.333 56 49 56c4 0 9.5 -1 16.5 -3s12.167 -3 15.5 -3c12 0 18 18.667 18 56z" />
    <glyph glyph-name="agrave" unicode="&#xe0;" horiz-adv-x="583" 
d="M477 -17c-54.667 0 -91.332 22.0039 -109.999 66.0039c-46.667 -44 -102 -66 -166 -66c-52.667 0 -94.667 13.833 -126 41.5s-47 64.5 -47 110.5c0 70 30.333 115.333 91 136c26 8.66699 56 16 90 22c47.333 8 79.5 17.167 96.5 27.5s25.5 26.166 25.5 47.499
c0 15.333 -6.5 28.166 -19.5 38.499s-29.167 15.5 -48.5 15.5c-22 0 -33 -7 -33 -21c0 -4.66699 0.333008 -9.33398 1 -14.001v-4c0 -18.667 -7.83301 -34.334 -23.5 -47.001s-35.167 -19 -58.5 -19c-26.667 0 -48.667 8 -66 24s-26 36 -26 60c0 36 19 64.333 57 85
s90.333 31 157 31c72 0 125.667 -11 161 -33c38 -24 57 -68.667 57 -134v-207c0 -21.333 5.33301 -32 16 -32c5.33301 0 10.333 0.333008 15 1c2 0.666992 4.33301 1 7 1c15.333 0 28.333 -5.33301 39 -16s16 -23.667 16 -39c0 -22 -9.83301 -40 -29.5 -54
s-44.834 -21 -75.501 -21zM353.002 547.004c-13.333 0 -33.6641 5.33203 -60.9971 15.999l-90 35c-44 17.333 -66 38 -66 62c0 18.667 6.16699 34.834 18.5 48.501s26.166 20.5 41.499 20.5c17.333 0 35.666 -5.33301 54.999 -16l93 -51
c21.333 -12 33.666 -19.333 36.999 -22c12 -9.33301 18 -21 18 -35c0 -14.667 -4.66699 -28 -14 -40s-20 -18 -32 -18zM332.004 197.003v21.999c-4.66699 -2.66699 -34 -11 -88 -25c-36.667 -9.33301 -55 -23.666 -55 -42.999c0 -30.667 18 -46 54 -46
c59.333 0 89 30.667 89 92z" />
    <glyph glyph-name="aacute" unicode="&#xe1;" horiz-adv-x="583" 
d="M477 -17c-54.667 0 -91.332 22.0039 -109.999 66.0039c-46.667 -44 -102 -66 -166 -66c-52.667 0 -94.667 13.833 -126 41.5s-47 64.5 -47 110.5c0 70 30.333 115.333 91 136c26 8.66699 56 16 90 22c47.333 8 79.5 17.167 96.5 27.5s25.5 26.166 25.5 47.499
c0 15.333 -6.5 28.166 -19.5 38.499s-29.167 15.5 -48.5 15.5c-22 0 -33 -7 -33 -21c0 -4.66699 0.333008 -9.33398 1 -14.001v-4c0 -18.667 -7.83301 -34.334 -23.5 -47.001s-35.167 -19 -58.5 -19c-26.667 0 -48.667 8 -66 24s-26 36 -26 60c0 36 19 64.333 57 85
s90.333 31 157 31c72 0 125.667 -11 161 -33c38 -24 57 -68.667 57 -134v-207c0 -21.333 5.33301 -32 16 -32c5.33301 0 10.333 0.333008 15 1c2 0.666992 4.33301 1 7 1c15.333 0 28.333 -5.33301 39 -16s16 -23.667 16 -39c0 -22 -9.83301 -40 -29.5 -54
s-44.834 -21 -75.501 -21zM160.002 606.004c0 13.333 6 25.002 18 35.002c4.66699 3.33301 16.667 10.333 36 21l93 51c19.333 10.667 37.666 16 54.999 16c16 0 30.167 -6.83301 42.5 -20.5s18.5 -29.834 18.5 -48.501c0 -24 -22 -44.667 -66 -62l-90 -35
c-27.333 -10.667 -47.666 -16 -60.999 -16c-16 0 -29 10.333 -39 31c-4.66699 9.33301 -7 18.666 -7 27.999zM332.002 197.006v21.999c-4.66699 -2.66699 -34 -11 -88 -25c-36.667 -9.33301 -55 -23.666 -55 -42.999c0 -30.667 18 -46 54 -46c59.333 0 89 30.667 89 92z" />
    <glyph glyph-name="acircumflex" unicode="&#xe2;" horiz-adv-x="583" 
d="M477 -17c-54.667 0 -91.332 22.0039 -109.999 66.0039c-46.667 -44 -102 -66 -166 -66c-52.667 0 -94.667 13.833 -126 41.5s-47 64.5 -47 110.5c0 70 30.333 115.333 91 136c26 8.66699 56 16 90 22c47.333 8 79.5 17.167 96.5 27.5s25.5 26.166 25.5 47.499
c0 15.333 -6.5 28.166 -19.5 38.499s-29.167 15.5 -48.5 15.5c-22 0 -33 -7 -33 -21c0 -4.66699 0.333008 -9.33398 1 -14.001v-4c0 -18.667 -7.83301 -34.334 -23.5 -47.001s-35.167 -19 -58.5 -19c-26.667 0 -48.667 8 -66 24s-26 36 -26 60c0 36 19 64.333 57 85
s90.333 31 157 31c72 0 125.667 -11 161 -33c38 -24 57 -68.667 57 -134v-207c0 -21.333 5.33301 -32 16 -32c5.33301 0 10.333 0.333008 15 1c2 0.666992 4.33301 1 7 1c15.333 0 28.333 -5.33301 39 -16s16 -23.667 16 -39c0 -22 -9.83301 -40 -29.5 -54
s-44.834 -21 -75.501 -21zM392.002 560.004l-110 42.001l-113 -42c-23.333 -8.66699 -40.333 -13 -51 -13c-11.333 0 -21 5 -29 15s-12 22.333 -12 37c0 12 3.5 21.667 10.5 29s21.167 16.666 42.5 27.999l67 35c40.667 21.333 70 32 88 32c17.333 0 45.333 -10.667 84 -32
l63 -35c32 -18 48 -36 48 -54c0 -14.667 -4 -27.167 -12 -37.5s-17.667 -15.5 -29 -15.5c-12 0 -27.667 3.66699 -47 11zM332.002 197.005v21.999c-4.66699 -2.66699 -34 -11 -88 -25c-36.667 -9.33301 -55 -23.666 -55 -42.999c0 -30.667 18 -46 54 -46
c59.333 0 89 30.667 89 92z" />
    <glyph glyph-name="atilde" unicode="&#xe3;" horiz-adv-x="583" 
d="M477 -17c-54.667 0 -91.332 22.0039 -109.999 66.0039c-46.667 -44 -102 -66 -166 -66c-52.667 0 -94.667 13.833 -126 41.5s-47 64.5 -47 110.5c0 70 30.333 115.333 91 136c26 8.66699 56 16 90 22c47.333 8 79.5 17.167 96.5 27.5s25.5 26.166 25.5 47.499
c0 15.333 -6.5 28.166 -19.5 38.499s-29.167 15.5 -48.5 15.5c-22 0 -33 -7 -33 -21c0 -4.66699 0.333008 -9.33398 1 -14.001v-4c0 -18.667 -7.83301 -34.334 -23.5 -47.001s-35.167 -19 -58.5 -19c-26.667 0 -48.667 8 -66 24s-26 36 -26 60c0 36 19 64.333 57 85
s90.333 31 157 31c72 0 125.667 -11 161 -33c38 -24 57 -68.667 57 -134v-207c0 -21.333 5.33301 -32 16 -32c5.33301 0 10.333 0.333008 15 1c2 0.666992 4.33301 1 7 1c15.333 0 28.333 -5.33301 39 -16s16 -23.667 16 -39c0 -22 -9.83301 -40 -29.5 -54
s-44.834 -21 -75.501 -21zM357.002 674.004c10 0 19.002 2.66602 27.002 7.99902l30 20c7.33301 4.66699 15.666 7 24.999 7c30 0 45 -16 45 -48c0 -27.333 -13.833 -51.666 -41.5 -72.999s-59.167 -32 -94.5 -32c-26 0 -61 9.66699 -105 29
c-16.667 7.33301 -29.334 11 -38.001 11c-8 0 -17 -3.33301 -27 -10l-25 -17c-12 -8 -22.333 -12 -31 -12c-13.333 0 -24.666 5 -33.999 15s-14 22 -14 36c0 28 13 52.667 39 74s56 32 90 32c21.333 0 54.666 -9 99.999 -27c22 -8.66699 40 -13 54 -13zM332.004 197.003
v21.999c-4.66699 -2.66699 -34 -11 -88 -25c-36.667 -9.33301 -55 -23.666 -55 -42.999c0 -30.667 18 -46 54 -46c59.333 0 89 30.667 89 92z" />
    <glyph glyph-name="adieresis" unicode="&#xe4;" horiz-adv-x="583" 
d="M477 -17c-54.667 0 -91.332 22.0039 -109.999 66.0039c-46.667 -44 -102 -66 -166 -66c-52.667 0 -94.667 13.833 -126 41.5s-47 64.5 -47 110.5c0 70 30.333 115.333 91 136c26 8.66699 56 16 90 22c47.333 8 79.5 17.167 96.5 27.5s25.5 26.166 25.5 47.499
c0 15.333 -6.5 28.166 -19.5 38.499s-29.167 15.5 -48.5 15.5c-22 0 -33 -7 -33 -21c0 -4.66699 0.333008 -9.33398 1 -14.001v-4c0 -18.667 -7.83301 -34.334 -23.5 -47.001s-35.167 -19 -58.5 -19c-26.667 0 -48.667 8 -66 24s-26 36 -26 60c0 36 19 64.333 57 85
s90.333 31 157 31c72 0 125.667 -11 161 -33c38 -24 57 -68.667 57 -134v-207c0 -21.333 5.33301 -32 16 -32c5.33301 0 10.333 0.333008 15 1c2 0.666992 4.33301 1 7 1c15.333 0 28.333 -5.33301 39 -16s16 -23.667 16 -39c0 -22 -9.83301 -40 -29.5 -54
s-44.834 -21 -75.501 -21zM175.002 550.004c-23.333 0 -43.5 8.5 -60.5 25.5s-25.5 37.167 -25.5 60.5s8.33301 43.5 25 60.5s37 25.5 61 25.5s44.333 -8.33301 61 -25s25 -37 25 -61s-8.33301 -44.333 -25 -61s-37 -25 -61 -25zM381.002 550.004
c-24 0 -44.333 8.33301 -61 25s-25 37 -25 61c0 23.333 8.33301 43.5 25 60.5s37 25.5 61 25.5s44.333 -8.33301 61 -25s25 -37 25 -61c0 -23.333 -8.33301 -43.5 -25 -60.5s-37 -25.5 -61 -25.5zM332.002 197.004v21.999c-4.66699 -2.66699 -34 -11 -88 -25
c-36.667 -9.33301 -55 -23.666 -55 -42.999c0 -30.667 18 -46 54 -46c59.333 0 89 30.667 89 92z" />
    <glyph glyph-name="aring" unicode="&#xe5;" horiz-adv-x="583" 
d="M477 -17c-54.667 0 -91.332 22.0039 -109.999 66.0039c-46.667 -44 -102 -66 -166 -66c-52.667 0 -94.667 13.833 -126 41.5s-47 64.5 -47 110.5c0 70 30.333 115.333 91 136c26 8.66699 56 16 90 22c47.333 8 79.5 17.167 96.5 27.5s25.5 26.166 25.5 47.499
c0 15.333 -6.5 28.166 -19.5 38.499s-29.167 15.5 -48.5 15.5c-22 0 -33 -7 -33 -21c0 -4.66699 0.333008 -9.33398 1 -14.001v-4c0 -18.667 -7.83301 -34.334 -23.5 -47.001s-35.167 -19 -58.5 -19c-26.667 0 -48.667 8 -66 24s-26 36 -26 60c0 36 19 64.333 57 85
s90.333 31 157 31c72 0 125.667 -11 161 -33c38 -24 57 -68.667 57 -134v-207c0 -21.333 5.33301 -32 16 -32c5.33301 0 10.333 0.333008 15 1c2 0.666992 4.33301 1 7 1c15.333 0 28.333 -5.33301 39 -16s16 -23.667 16 -39c0 -22 -9.83301 -40 -29.5 -54
s-44.834 -21 -75.501 -21zM274.002 539.004c-32.667 0 -60.667 11.665 -84 34.998s-35 51.666 -35 84.999c0 32.667 11.667 60.834 35 84.501s51.333 35.5 84 35.5c33.333 0 61.833 -11.667 85.5 -35s35.5 -51.666 35.5 -84.999s-11.833 -61.666 -35.5 -84.999
s-52.167 -35 -85.5 -35zM332.002 197.002v21.999c-4.66699 -2.66699 -34 -11 -88 -25c-36.667 -9.33301 -55 -23.666 -55 -42.999c0 -30.667 18 -46 54 -46c59.333 0 89 30.667 89 92zM275.002 710.001c-13.333 0 -25 -5.16699 -35 -15.5s-15 -22.166 -15 -35.499
s5 -25 15 -35s21.667 -15 35 -15c12.667 0 24 5.16699 34 15.5s15 22.166 15 35.499s-4.83301 25 -14.5 35s-21.167 15 -34.5 15z" />
    <glyph glyph-name="ae" unicode="&#xe6;" horiz-adv-x="837" 
d="M414 47c-4 5.33301 -8.99805 13.666 -14.998 24.999c-23.333 -32 -50.333 -54.333 -81 -67c-35.333 -14.667 -71.666 -22 -108.999 -22c-55.333 0 -99.333 13.667 -132 41s-49 64.333 -49 111c0 74 33.667 120.667 101 140c22.667 6.66699 48 12.334 76 17.001
c49.333 8.66699 82.5 18 99.5 28s25.5 25.333 25.5 46c0 16.667 -6 30.167 -18 40.5s-27.667 15.5 -47 15.5c-23.333 0 -35 -8.33301 -35 -25v-11c0 -20.667 -7.33301 -37 -22 -49s-34.334 -18 -59.001 -18c-27.333 0 -49.333 7.5 -66 22.5s-25 34.833 -25 59.5
c0 34.667 18.167 62.667 54.5 84s84.166 32 143.499 32c76 0 128.667 -22 158 -66c44.667 44 100 66 166 66c68.667 0 123.5 -20.667 164.5 -62s61.5 -96.333 61.5 -165c0 -25.333 -3.16699 -42.833 -9.5 -52.5s-18.166 -14.5 -35.499 -14.5h-253
c-17.333 0 -26 -7.33301 -26 -22c0 -28 8.83301 -51.167 26.5 -69.5s40.167 -27.5 67.5 -27.5s52.666 11.333 75.999 34c17.333 16.667 29 27 35 31c12.667 8.66699 27 13 43 13c19.333 0 35.333 -5.5 48 -16.5s19 -25.5 19 -43.5c0 -39.333 -21 -72.333 -63 -99
s-94 -40 -156 -40c-78.667 0 -133.334 21.333 -164.001 64zM489.002 346c0 -11.333 6.99902 -17.001 20.999 -17.001h119c11.333 0 17 6.66699 17 20c0 16 -7.66699 30.167 -23 42.5s-32.666 18.5 -51.999 18.5c-28.667 0 -51.667 -11 -69 -33
c-8.66699 -11.333 -13 -21.666 -13 -30.999zM332.001 204.999c0 5.33301 -0.333008 10.3311 -1 14.998c-11.333 -5.33301 -31.333 -11.166 -60 -17.499s-48 -12.166 -58 -17.499c-18 -8 -27 -19.667 -27 -35c0 -30 19.333 -45 58 -45c58.667 0 88 33.333 88 100z" />
    <glyph glyph-name="ccedilla" unicode="&#xe7;" horiz-adv-x="528" 
d="M327 344c0 10 3.3291 20.001 9.99609 30.001c-15.333 10.667 -32.333 16 -51 16c-29.333 0 -53.166 -12.167 -71.499 -36.5s-27.5 -56.833 -27.5 -97.5c0 -42 9.66699 -75.667 29 -101s45 -38 77 -38c33.333 0 58 19.333 74 58c8 18.667 16.333 31.5 25 38.5
s22.334 10.5 41.001 10.5c22.667 0 41 -6.66699 55 -20s21 -31 21 -53c0 -43.333 -19.5 -81 -58.5 -113s-87.833 -49.667 -146.5 -53l-23 -49c20 3.33301 33 5 39 5c28.667 0 52.5 -8.16699 71.5 -24.5s28.5 -36.5 28.5 -60.5c0 -33.333 -15.5 -61.166 -46.5 -83.499
s-69.167 -33.5 -114.5 -33.5c-40.667 0 -74.5 6.66699 -101.5 20s-40.5 29.666 -40.5 48.999c0 9.33301 3.16699 17.666 9.5 24.999s13.833 11 22.5 11c6.66699 0 16 -2 28 -6c33.333 -11.333 60.333 -17 81 -17c40 0 60 9.66699 60 29c0 18.667 -18.333 28 -55 28
c-6 0 -15.333 -0.5 -28 -1.5s-22 -1.5 -28 -1.5c-24 0 -36 11 -36 33c0 10 3.33301 20.667 10 32l30 51l-11 4c-38.667 14 -67.667 29 -87 45c-21.333 16.667 -39.666 40.667 -54.999 72c-20.667 42.667 -31 89 -31 139c0 81.333 24 146 72 194s112.667 72 194 72
c58.667 0 107.167 -13.833 145.5 -41.5s57.5 -62.834 57.5 -105.501c0 -26.667 -8.66699 -48.167 -26 -64.5s-39.666 -24.5 -66.999 -24.5c-22.667 0 -41 5.83301 -55 17.5s-21 26.834 -21 45.501z" />
    <glyph glyph-name="egrave" unicode="&#xe8;" horiz-adv-x="546" 
d="M515 293c0 -28 -3.50098 -46.6699 -10.501 -56.0029s-20.833 -14 -41.5 -14h-244c-12 0 -19.5 -1.16699 -22.5 -3.5s-4.5 -8.16602 -4.5 -17.499c0 -28 9 -51.333 27 -70s40.667 -28 68 -28c28 0 56.667 15.333 86 46c20 21.333 42 32 66 32
c20 0 36.167 -5.66699 48.5 -17s18.5 -25.666 18.5 -42.999c0 -38.667 -21.167 -71.5 -63.5 -98.5s-93.833 -40.5 -154.5 -40.5c-79.333 0 -142.666 24 -189.999 72s-71 112 -71 192c0 80.667 23.5 145.834 70.5 195.501s108.5 74.5 184.5 74.5
c70.667 0 127.167 -20.333 169.5 -61s63.5 -95 63.5 -163zM352.999 546.997c-14 0 -34.665 5.33203 -61.998 15.999l-90 35c-44 17.333 -66 38 -66 62c0 18.667 6.16699 34.834 18.5 48.501s26.166 20.5 41.499 20.5c17.333 0 35.666 -5.33301 54.999 -16l93 -51
c21.333 -12 33.666 -19.333 36.999 -22c12 -9.33301 18 -21 18 -35c0 -14.667 -4.66699 -28 -14 -40s-19.666 -18 -30.999 -18zM197.001 342.996c0 -4 1.00098 -7.33301 3.00098 -10s9 -4 21 -4h112c10 0 16.167 1.16699 18.5 3.5s3.5 6.5 3.5 12.5
c0 17.333 -7.66699 32.5 -23 45.5s-33.333 19.5 -54 19.5c-26.667 0 -48.334 -10.333 -65.001 -31c-10.667 -13.333 -16 -25.333 -16 -36z" />
    <glyph glyph-name="eacute" unicode="&#xe9;" horiz-adv-x="546" 
d="M515 293c0 -28 -3.50098 -46.6699 -10.501 -56.0029s-20.833 -14 -41.5 -14h-244c-12 0 -19.5 -1.16699 -22.5 -3.5s-4.5 -8.16602 -4.5 -17.499c0 -28 9 -51.333 27 -70s40.667 -28 68 -28c28 0 56.667 15.333 86 46c20 21.333 42 32 66 32
c20 0 36.167 -5.66699 48.5 -17s18.5 -25.666 18.5 -42.999c0 -38.667 -21.167 -71.5 -63.5 -98.5s-93.833 -40.5 -154.5 -40.5c-79.333 0 -142.666 24 -189.999 72s-71 112 -71 192c0 80.667 23.5 145.834 70.5 195.501s108.5 74.5 184.5 74.5
c70.667 0 127.167 -20.333 169.5 -61s63.5 -95 63.5 -163zM147.999 605.997c0 12.667 6.33301 24.334 19 35.001c4.66699 3.33301 16.667 10.333 36 21l93 51c19.333 10.667 37.666 16 54.999 16c16 0 30 -6.83301 42 -20.5s18 -29.834 18 -48.501
c0 -24 -22 -44.667 -66 -62l-90 -35c-27.333 -10.667 -47.666 -16 -60.999 -16c-16.667 0 -29.667 10.333 -39 31c-4.66699 10.667 -7 20 -7 28zM196.999 342.997c0 -4 1.00098 -7.33301 3.00098 -10s9 -4 21 -4h112c10 0 16.167 1.16699 18.5 3.5s3.5 6.5 3.5 12.5
c0 17.333 -7.66699 32.5 -23 45.5s-33.333 19.5 -54 19.5c-26.667 0 -48.334 -10.333 -65.001 -31c-10.667 -13.333 -16 -25.333 -16 -36z" />
    <glyph glyph-name="ecircumflex" unicode="&#xea;" horiz-adv-x="546" 
d="M515 293c0 -28 -3.50098 -46.6699 -10.501 -56.0029s-20.833 -14 -41.5 -14h-244c-12 0 -19.5 -1.16699 -22.5 -3.5s-4.5 -8.16602 -4.5 -17.499c0 -28 9 -51.333 27 -70s40.667 -28 68 -28c28 0 56.667 15.333 86 46c20 21.333 42 32 66 32
c20 0 36.167 -5.66699 48.5 -17s18.5 -25.666 18.5 -42.999c0 -38.667 -21.167 -71.5 -63.5 -98.5s-93.833 -40.5 -154.5 -40.5c-79.333 0 -142.666 24 -189.999 72s-71 112 -71 192c0 80.667 23.5 145.834 70.5 195.501s108.5 74.5 184.5 74.5
c70.667 0 127.167 -20.333 169.5 -61s63.5 -95 63.5 -163zM390.999 559.997l-110 42.001l-113 -42c-23.333 -8.66699 -40.333 -13 -51 -13c-11.333 0 -21 5 -29 15s-12 22.333 -12 37c0 12 3.5 21.667 10.5 29s21.167 16.666 42.5 27.999l67 35c40.667 21.333 70 32 88 32
c17.333 0 45.333 -10.667 84 -32l63 -35c32 -18 48 -36 48 -54c0 -14.667 -4 -27.167 -12 -37.5s-17.667 -15.5 -29 -15.5c-12 0 -27.667 3.66699 -47 11zM196.999 342.998c0 -4 1.00098 -7.33301 3.00098 -10s9 -4 21 -4h112c10 0 16.167 1.16699 18.5 3.5
s3.5 6.5 3.5 12.5c0 17.333 -7.66699 32.5 -23 45.5s-33.333 19.5 -54 19.5c-26.667 0 -48.334 -10.333 -65.001 -31c-10.667 -13.333 -16 -25.333 -16 -36z" />
    <glyph glyph-name="edieresis" unicode="&#xeb;" horiz-adv-x="546" 
d="M515 293c0 -28 -3.50098 -46.6699 -10.501 -56.0029s-20.833 -14 -41.5 -14h-244c-12 0 -19.5 -1.16699 -22.5 -3.5s-4.5 -8.16602 -4.5 -17.499c0 -28 9 -51.333 27 -70s40.667 -28 68 -28c28 0 56.667 15.333 86 46c20 21.333 42 32 66 32
c20 0 36.167 -5.66699 48.5 -17s18.5 -25.666 18.5 -42.999c0 -38.667 -21.167 -71.5 -63.5 -98.5s-93.833 -40.5 -154.5 -40.5c-79.333 0 -142.666 24 -189.999 72s-71 112 -71 192c0 80.667 23.5 145.834 70.5 195.501s108.5 74.5 184.5 74.5
c70.667 0 127.167 -20.333 169.5 -61s63.5 -95 63.5 -163zM180.999 549.997c-24 0 -44.333 8.5 -61 25.5s-25 37.167 -25 60.5s8.33301 43.5 25 60.5s37 25.5 61 25.5s44.333 -8.33301 61 -25s25 -37 25 -61s-8.33301 -44.333 -25 -61s-37 -25 -61 -25zM386.999 549.997
c-24 0 -44.333 8.33301 -61 25s-25 37 -25 61c0 23.333 8.33301 43.5 25 60.5s37 25.5 61 25.5s44.333 -8.33301 61 -25s25 -37 25 -61c0 -23.333 -8.33301 -43.5 -25 -60.5s-37 -25.5 -61 -25.5zM196.999 342.997c0 -4 1.00098 -7.33301 3.00098 -10s9 -4 21 -4h112
c10 0 16.167 1.16699 18.5 3.5s3.5 6.5 3.5 12.5c0 17.333 -7.66699 32.5 -23 45.5s-33.333 19.5 -54 19.5c-26.667 0 -48.334 -10.333 -65.001 -31c-10.667 -13.333 -16 -25.333 -16 -36z" />
    <glyph glyph-name="igrave" unicode="&#xec;" horiz-adv-x="364" 
d="M241 503c18.667 0 28 -12.999 28 -38.999v-301c0 -34 6.33301 -51 19 -51c2.66699 0 7.5 0.833008 14.5 2.5s12.833 2.5 17.5 2.5c28 0 42 -17.333 42 -52c0 -46 -19.667 -69 -59 -69c-6.66699 0 -25.334 1.66699 -56.001 5c-18.667 2 -40 3 -64 3
c-12 0 -29.667 -1.33301 -53 -4s-40.666 -4 -51.999 -4c-18 0 -32.667 6.16699 -44 18.5s-17 28.166 -17 47.499c0 38 16 57 48 57l26 -6c2.66699 -0.666992 5 -1 7 -1c12 0 18 18.667 18 56v162c0 38 -5.66699 57 -17 57c-2 0 -8 -1.66699 -18 -5
c-6.66699 -1.33301 -12 -2 -16 -2c-32 0 -48 18.667 -48 56c0 20 5.66699 36.167 17 48.5s26.333 18.5 45 18.5c7.33301 0 18 -1 32 -3c23.333 -3.33301 42 -5 56 -5c11.333 0 26 1.33301 44 4s28 4 30 4zM262 547.001c-12.667 0 -32.9971 5.33105 -60.9971 15.998l-91 35
c-43.333 16.667 -65 37.334 -65 62.001c0 18.667 6.16699 34.834 18.5 48.501s26.166 20.5 41.499 20.5c17.333 0 35.666 -5.33301 54.999 -16l93 -51c21.333 -12 33.666 -19.333 36.999 -22c12 -9.33301 18 -21 18 -35c0 -14.667 -4.83301 -28 -14.5 -40
s-20.167 -18 -31.5 -18z" />
    <glyph glyph-name="iacute" unicode="&#xed;" horiz-adv-x="364" 
d="M51 606c0 13.333 6.00098 25.002 18.001 35.002c4.66699 3.33301 16.667 10.333 36 21l93 51c19.333 10.667 37.666 16 54.999 16c16 0 30 -6.83301 42 -20.5s18 -29.834 18 -48.501c0 -24.667 -21.667 -45.334 -65 -62.001l-91 -35c-28 -10.667 -48.333 -16 -61 -16
c-16.667 0 -29.667 10.333 -39 31c-4 8.66699 -6 18 -6 28zM243.001 503.002c18.667 0 28.0049 -12.999 28.0049 -38.999v-301c0 -34 6.33301 -51 19 -51c4 0 9.33301 1 16 3c3.33301 1.33301 8.66602 2 15.999 2c28.667 0 43 -17.333 43 -52c0 -46 -20 -69 -60 -69
c-8 0 -28 1.66699 -60 5c-19.333 2 -41 3 -65 3c-12 0 -29.5 -1.33301 -52.5 -4s-40.167 -4 -51.5 -4c-18.667 0 -33.667 6.16699 -45 18.5s-17 28.166 -17 47.499c0 38 16.333 57 49 57c5.33301 0 11.333 -1.16699 18 -3.5s11.667 -3.5 15 -3.5c11.333 0 17 18.667 17 56
v162c0 38 -5.66699 57 -17 57c-2.66699 0 -7.83398 -1.16699 -15.501 -3.5s-13.5 -3.5 -17.5 -3.5c-32.667 0 -49 18.667 -49 56c0 20 5.83301 36.167 17.5 48.5s26.834 18.5 45.501 18.5c9.33301 0 23.666 -1.33301 42.999 -4s33.666 -4 42.999 -4
c11.333 0 26.666 1.33301 45.999 4s30.666 4 33.999 4z" />
    <glyph glyph-name="icircumflex" unicode="&#xee;" horiz-adv-x="364" 
d="M241 503c18.667 0 28 -12.999 28 -38.999v-301c0 -34 6.33301 -51 19 -51c2.66699 0 7.5 0.833008 14.5 2.5s12.833 2.5 17.5 2.5c28 0 42 -17.333 42 -52c0 -46 -19.667 -69 -59 -69c-6.66699 0 -25.334 1.66699 -56.001 5c-18.667 2 -40 3 -64 3
c-12 0 -29.667 -1.33301 -53 -4s-40.666 -4 -51.999 -4c-18 0 -32.667 6.16699 -44 18.5s-17 28.166 -17 47.499c0 38 16 57 48 57l26 -6c2.66699 -0.666992 5 -1 7 -1c12 0 18 18.667 18 56v162c0 38 -5.66699 57 -17 57c-2 0 -8 -1.66699 -18 -5
c-6.66699 -1.33301 -12 -2 -16 -2c-32 0 -48 18.667 -48 56c0 20 5.66699 36.167 17 48.5s26.333 18.5 45 18.5c7.33301 0 18 -1 32 -3c23.333 -3.33301 42 -5 56 -5c11.333 0 26 1.33301 44 4s28 4 30 4zM274 560.001l-94 41.999l-97 -42c-20 -8.66699 -34.667 -13 -44 -13
c-10 0 -18.333 5 -25 15s-10 22.667 -10 38c0 18.667 15 37.334 45 56.001l57 35c34.667 21.333 60 32 76 32c15.333 0 39.333 -10.667 72 -32l54 -35c27.333 -18 41 -36 41 -54c0 -14.667 -3.5 -27.167 -10.5 -37.5s-15.167 -15.5 -24.5 -15.5
c-10 0 -23.333 3.66699 -40 11z" />
    <glyph glyph-name="idieresis" unicode="&#xef;" horiz-adv-x="364" 
d="M241 503c18.667 0 28 -12.999 28 -38.999v-301c0 -34 6.33301 -51 19 -51c2.66699 0 7.5 0.833008 14.5 2.5s12.833 2.5 17.5 2.5c28 0 42 -17.333 42 -52c0 -46 -19.667 -69 -59 -69c-6.66699 0 -25.334 1.66699 -56.001 5c-18.667 2 -40 3 -64 3
c-12 0 -29.667 -1.33301 -53 -4s-40.666 -4 -51.999 -4c-18 0 -32.667 6.16699 -44 18.5s-17 28.166 -17 47.499c0 38 16 57 48 57l26 -6c2.66699 -0.666992 5 -1 7 -1c12 0 18 18.667 18 56v162c0 38 -5.66699 57 -17 57c-2 0 -8 -1.66699 -18 -5
c-6.66699 -1.33301 -12 -2 -16 -2c-32 0 -48 18.667 -48 56c0 20 5.66699 36.167 17 48.5s26.333 18.5 45 18.5c7.33301 0 18 -1 32 -3c23.333 -3.33301 42 -5 56 -5c11.333 0 26 1.33301 44 4s28 4 30 4zM74 550.001c-24 0 -44.5 8.5 -61.5 25.5s-25.5 37.167 -25.5 60.5
s8.5 43.5 25.5 60.5s37.167 25.5 60.5 25.5c24 0 44.5 -8.33301 61.5 -25s25.5 -37 25.5 -61s-8.5 -44.333 -25.5 -61s-37.167 -25 -60.5 -25zM279 550.001c-23.333 0 -43.5 8.33301 -60.5 25s-25.5 37 -25.5 61c0 23.333 8.5 43.5 25.5 60.5s37.167 25.5 60.5 25.5
c24 0 44.5 -8.33301 61.5 -25s25.5 -37 25.5 -61c0 -23.333 -8.5 -43.5 -25.5 -60.5s-37.5 -25.5 -61.5 -25.5z" />
    <glyph glyph-name="eth" unicode="&#xf0;" horiz-adv-x="564" 
d="M365 650l-31.002 -31l15 -11c86.667 -63.333 142.667 -136.666 168 -219.999c12.667 -41.333 19 -87 19 -137c1.33301 -10.667 2 -22 2 -34c0 -72.667 -22.167 -129.334 -66.5 -170.001s-106.166 -61 -185.499 -61c-82.667 0 -146.5 19.833 -191.5 59.5
s-67.5 95.5 -67.5 167.5c0 71.333 22.333 126.833 67 166.5s107.334 59.5 188.001 59.5c10 0 19.667 -0.333008 29 -1c-6.66699 10 -13.667 19.667 -21 29c-16 19.333 -34 37.333 -54 54l-51 -51c-24.667 -25.333 -46 -29 -64 -11c-19.333 19.333 -16 41.666 10 66.999
l13 13l25 25l-26 14c-32 15.333 -53.833 28 -65.5 38s-17.5 22.333 -17.5 37c0 13.333 6 24.5 18 33.5s26.333 13.5 43 13.5c30.667 0 67 -8.66699 109 -26c11.333 -4.66699 22.333 -9.66699 33 -15l44 44c27.333 27.333 50 32 68 14c19.333 -19.333 16 -41.666 -10 -66.999
zM281.998 335c-29.333 0 -52.5 -10.999 -69.5 -32.999s-25.5 -51.667 -25.5 -89c0 -38.667 8.5 -68.834 25.5 -90.501s40.833 -32.5 71.5 -32.5c62 0 93 41 93 123c0 81.333 -31.667 122 -95 122z" />
    <glyph glyph-name="ntilde" unicode="&#xf1;" horiz-adv-x="674" 
d="M235 475l0.00195312 -47.999c51.333 60 109.333 90 174 90c69.333 0 118.333 -26 147 -78c15.333 -26.667 23 -68.667 23 -126v-150c0 -34 6.66699 -51 20 -51c3.33301 0 8.33301 1 15 3c3.33301 1.33301 8.33301 2 15 2c29.333 0 44 -17.333 44 -52
c0 -46 -20 -69 -60 -69c-10.667 0 -26.667 1.33301 -48 4s-37.333 4 -48 4c-16.667 0 -34.334 -1.33301 -53.001 -4s-34 -4 -46 -4c-39.333 0 -59 20.333 -59 61c0 35.333 13.667 54 41 56c18 1.33301 27 9.66602 27 24.999v140c0 38.667 -5 65.834 -15 81.501
s-27 23.5 -51 23.5c-27.333 0 -49.833 -9.33301 -67.5 -28s-26.5 -42.334 -26.5 -71.001v-104c0 -30 1.33301 -48.167 4 -54.5s10.334 -10.5 23.001 -12.5c24 -3.33301 36 -21.333 36 -54c0 -42 -17.667 -63 -53 -63c-10 0 -22.333 1 -37 3c-24.667 3.33301 -43 5 -55 5
s-29.833 -1.33301 -53.5 -4s-41.5 -4 -53.5 -4c-42 0 -63 22.333 -63 67c0 37.333 16 56 48 56c5.33301 0 11.333 -1.16699 18 -3.5s11.667 -3.5 15 -3.5c11.333 0 17 18.667 17 56v162c0 38 -5.66699 57 -17 57c-2.66699 0 -7.83398 -1.16699 -15.501 -3.5
s-13.5 -3.5 -17.5 -3.5c-32 0 -48 18.333 -48 55c0 20 5.5 36.333 16.5 49s25.5 19 43.5 19c5.33301 0 16.666 -1.66699 33.999 -5c10 -2 18.667 -3 26 -3c8 0 21.667 1.33301 41 4s30 4 32 4c18 0 27 -9.33301 27 -28zM422.002 674.001
c9.33301 0 18.667 2.66602 28 7.99902l29 20c6.66699 4.66699 15 7 25 7c30 0 45 -16 45 -48c0 -27.333 -13.667 -51.666 -41 -72.999s-59 -32 -95 -32c-26 0 -61 9.66699 -105 29c-16.667 7.33301 -29.334 11 -38.001 11c-8 0 -17 -3.33301 -27 -10l-25 -17
c-12 -8 -22.333 -12 -31 -12c-13.333 0 -24.666 5 -33.999 15s-14 22 -14 36c0 28 13 52.667 39 74s56 32 90 32c20.667 0 50.667 -7.66699 90 -23l10 -4c22 -8.66699 40 -13 54 -13z" />
    <glyph glyph-name="ograve" unicode="&#xf2;" horiz-adv-x="564" 
d="M286 -17c-82.667 0 -146.502 23.332 -191.502 69.999s-67.5 112.334 -67.5 197.001c0 84 22.333 149.5 67 196.5s107.334 70.5 188.001 70.5c79.333 0 141.833 -23.333 187.5 -70s68.5 -110.667 68.5 -192c0 -85.333 -22.167 -152 -66.5 -200s-106.166 -72 -185.499 -72z
M354.998 546.999c-14 0 -34.667 5.33008 -62 15.9971l-90 35c-43.333 16.667 -65 37.334 -65 62.001c0 18.667 6 34.834 18 48.501s26 20.5 42 20.5c17.333 0 35.666 -5.33301 54.999 -16l93 -51c20.667 -11.333 33 -18.666 37 -21.999c11.333 -9.33301 17 -21 17 -35
c0 -14.667 -4.66699 -28 -14 -40s-19.666 -18 -30.999 -18zM281.998 393.996c-29.333 0 -52.5 -12.833 -69.5 -38.5s-25.5 -60.834 -25.5 -105.501c0 -45.333 8.5 -80.666 25.5 -105.999s40.833 -38 71.5 -38c62 0 93 48 93 144s-31.667 144 -95 144z" />
    <glyph glyph-name="oacute" unicode="&#xf3;" horiz-adv-x="564" 
d="M286 -17c-82.667 0 -146.502 23.332 -191.502 69.999s-67.5 112.334 -67.5 197.001c0 84 22.333 149.5 67 196.5s107.334 70.5 188.001 70.5c79.333 0 141.833 -23.333 187.5 -70s68.5 -110.667 68.5 -192c0 -85.333 -22.167 -152 -66.5 -200s-106.166 -72 -185.499 -72z
M150.998 605.999c0 13.333 6.00098 25.001 18.001 35.001c4.66699 3.33301 16.667 10.333 36 21l93 51c19.333 10.667 37.666 16 54.999 16c16 0 30.167 -6.83301 42.5 -20.5s18.5 -29.834 18.5 -48.501c0 -24 -22 -44.667 -66 -62l-90 -35c-27.333 -10.667 -48 -16 -62 -16
c-16.667 0 -29.667 10.333 -39 31c-4 8.66699 -6 18 -6 28zM281.999 394c-29.333 0 -52.5 -12.833 -69.5 -38.5s-25.5 -60.834 -25.5 -105.501c0 -45.333 8.5 -80.666 25.5 -105.999s40.833 -38 71.5 -38c62 0 93 48 93 144s-31.667 144 -95 144z" />
    <glyph glyph-name="ocircumflex" unicode="&#xf4;" horiz-adv-x="564" 
d="M286 -17c-82.667 0 -146.502 23.332 -191.502 69.999s-67.5 112.334 -67.5 197.001c0 84 22.333 149.5 67 196.5s107.334 70.5 188.001 70.5c79.333 0 141.833 -23.333 187.5 -70s68.5 -110.667 68.5 -192c0 -85.333 -22.167 -152 -66.5 -200s-106.166 -72 -185.499 -72z
M395.998 559.999l-110 42.001l-113 -42c-23.333 -8.66699 -40.333 -13 -51 -13c-11.333 0 -21 5 -29 15s-12 22.333 -12 37c0 12 3.5 21.667 10.5 29s21.167 16.666 42.5 27.999l67 35c40.667 21.333 70 32 88 32c17.333 0 45.333 -10.667 84 -32l63 -35
c32 -18 48 -36 48 -54c0 -14.667 -4 -27.167 -12 -37.5s-17.667 -15.5 -29 -15.5c-12 0 -27.667 3.66699 -47 11zM281.998 394c-29.333 0 -52.5 -12.833 -69.5 -38.5s-25.5 -60.834 -25.5 -105.501c0 -45.333 8.5 -80.666 25.5 -105.999s40.833 -38 71.5 -38
c62 0 93 48 93 144s-31.667 144 -95 144z" />
    <glyph glyph-name="otilde" unicode="&#xf5;" horiz-adv-x="564" 
d="M286 -17c-82.667 0 -146.502 23.332 -191.502 69.999s-67.5 112.334 -67.5 197.001c0 84 22.333 149.5 67 196.5s107.334 70.5 188.001 70.5c79.333 0 141.833 -23.333 187.5 -70s68.5 -110.667 68.5 -192c0 -85.333 -22.167 -152 -66.5 -200s-106.166 -72 -185.499 -72z
M346.998 673.999c10.667 0 20.001 2.66602 28.001 7.99902l29 20c6.66699 4.66699 15 7 25 7c30 0 45 -16 45 -48c0 -27.333 -13.667 -51.666 -41 -72.999s-59 -32 -95 -32c-26 0 -61 9.66699 -105 29c-16.667 7.33301 -29.334 11 -38.001 11c-8 0 -17 -3.33301 -27 -10
l-25 -17c-12 -8 -22.333 -12 -31 -12c-13.333 0 -24.666 5 -33.999 15s-14 22 -14 36c0 28 13 52.667 39 74s56.333 32 91 32c21.333 0 54.666 -9 99.999 -27c22 -8.66699 39.667 -13 53 -13zM281.999 393.998c-29.333 0 -52.5 -12.833 -69.5 -38.5
s-25.5 -60.834 -25.5 -105.501c0 -45.333 8.5 -80.666 25.5 -105.999s40.833 -38 71.5 -38c62 0 93 48 93 144s-31.667 144 -95 144z" />
    <glyph glyph-name="odieresis" unicode="&#xf6;" horiz-adv-x="564" 
d="M286 -17c-82.667 0 -146.502 23.332 -191.502 69.999s-67.5 112.334 -67.5 197.001c0 84 22.333 149.5 67 196.5s107.334 70.5 188.001 70.5c79.333 0 141.833 -23.333 187.5 -70s68.5 -110.667 68.5 -192c0 -85.333 -22.167 -152 -66.5 -200s-106.166 -72 -185.499 -72z
M179.998 549.999c-24 0 -44.5 8.5 -61.5 25.5s-25.5 37.167 -25.5 60.5s8.5 43.5 25.5 60.5s37.167 25.5 60.5 25.5c24 0 44.5 -8.33301 61.5 -25s25.5 -37 25.5 -61s-8.5 -44.333 -25.5 -61s-37.167 -25 -60.5 -25zM384.998 549.999c-23.333 0 -43.5 8.33301 -60.5 25
s-25.5 37 -25.5 61c0 23.333 8.5 43.5 25.5 60.5s37.167 25.5 60.5 25.5c24 0 44.5 -8.33301 61.5 -25s25.5 -37 25.5 -61c0 -23.333 -8.5 -43.5 -25.5 -60.5s-37.5 -25.5 -61.5 -25.5zM281.998 393.999c-29.333 0 -52.5 -12.833 -69.5 -38.5s-25.5 -60.834 -25.5 -105.501
c0 -45.333 8.5 -80.666 25.5 -105.999s40.833 -38 71.5 -38c62 0 93 48 93 144s-31.667 144 -95 144z" />
    <glyph glyph-name="divide" unicode="&#xf7;" horiz-adv-x="500" 
d="M175 510c0 20.667 7.33301 38.167 22 52.5s32.334 21.5 53.001 21.5s38.167 -7.16699 52.5 -21.5s21.5 -31.833 21.5 -52.5s-7.33301 -38.167 -22 -52.5s-32 -21.5 -52 -21.5c-20.667 0 -38.334 7.16699 -53.001 21.5s-22 31.833 -22 52.5zM175 170
c0 20.667 7.33301 38.167 22 52.5s32.334 21.5 53.001 21.5s38.167 -7.16699 52.5 -21.5s21.5 -31.833 21.5 -52.5s-7.33301 -38.167 -22 -52.5s-32 -21.5 -52 -21.5c-20.667 0 -38.334 7.16699 -53.001 21.5s-22 31.833 -22 52.5zM33 280v120h434v-120h-434z" />
    <glyph glyph-name="oslash" unicode="&#xf8;" horiz-adv-x="564" 
d="M523 537l-57.001 -87.001c47.333 -48.667 71 -114 71 -196c0 -86 -22.333 -152.667 -67 -200s-107.334 -71 -188.001 -71c-33.333 0 -70.333 6.33301 -111 19l-22 -33c-10.667 -16 -20 -26 -28 -30s-22.333 -6 -43 -6c-30 0 -45 5 -45 15c0 4.66699 3 11.667 9 21l54 83
c-18.667 22.667 -32.667 44.334 -42 65.001c-18 40.667 -27 85.667 -27 135c0 83.333 22.333 148.333 67 195s106.334 70 185.001 70c34 0 71 -6 111 -18l32 51c8 12 16.667 20 26 24c6.66699 2 18.334 3 35.001 3c32 0 48 -7 48 -21c0 -6 -2.66699 -12.333 -8 -19z
M190.999 178.999l124 212.999c-11.333 5.33301 -23 8 -35 8c-66 0 -99 -50.333 -99 -151c0 -25.333 3.33301 -48.666 10 -69.999zM372.999 325.998l-128 -217c16 -6 30 -9 42 -9c64 0 96 51.333 96 154c0 26 -3.33301 50 -10 72z" />
    </font>
</defs>
</svg>
