<svg xmlns="http://www.w3.org/2000/svg" width="50" height="50" viewBox="0 0 50 50" xmlns:xlink="http://www.w3.org/1999/xlink">
  <defs>
    <path id="a" d="M31.5,7.45 L35.05,8.35 C38.85,9.35 46.45,11.3 46.45,11.3 C48.05,11.85 49.3,13.05 50,14.6 L50,20.5 L0,20.5 L0,14.6 C0.65,13.05 1.95,11.85 3.55,11.3 C3.55,11.3 11.15,9.35 14.95,8.35 C16.15,8.05 18.5,7.45 18.5,7.45 L18.5,0 L31.5,0 L31.5,7.45 L31.5,7.45 Z"/>
    <path id="c" d="M31.5,7.45 L35.05,8.35 C38.85,9.35 46.45,11.3 46.45,11.3 C48.05,11.85 49.3,13.05 50,14.6 L50,20.5 L0,20.5 L0,14.6 C0.65,13.05 1.95,11.85 3.55,11.3 C3.55,11.3 11.15,9.35 14.95,8.35 C16.15,8.05 18.5,7.45 18.5,7.45 L18.5,0 L31.5,0 L31.5,7.45 L31.5,7.45 Z"/>
    <path id="e" d="M31.5,7.45 L35.05,8.35 C38.85,9.35 46.45,11.3 46.45,11.3 C48.05,11.85 49.3,13.05 50,14.6 L50,20.5 L0,20.5 L0,14.6 C0.65,13.05 1.95,11.85 3.55,11.3 C3.55,11.3 11.15,9.35 14.95,8.35 C16.15,8.05 18.5,7.45 18.5,7.45 L18.5,0 L31.5,0 L31.5,7.45 L31.5,7.45 Z"/>
    <rect id="g" width="15.5" height="2.5"/>
    <rect id="h" width="15.5" height="2.5"/>
    <path id="j" d="M31.5,7.47442623 L35.05,8.37737705 C38.85,9.38065574 46.45,11.3370492 46.45,11.3370492 C48.05,11.8888525 49.3,13.0927869 50,14.6478689 L50,20.5672131 L0,20.5672131 L0,14.6478689 C0.65,13.0927869 1.95,11.8888525 3.55,11.3370492 C3.55,11.3370492 11.15,9.38065574 14.95,8.37737705 C16.15,8.07639344 18.5,7.47442623 18.5,7.47442623 L18.5,0 L31.5,0 L31.5,7.47442623 L31.5,7.47442623 Z"/>
    <path id="l" d="M31.5,7.47442623 L35.05,8.37737705 C38.85,9.38065574 46.45,11.3370492 46.45,11.3370492 C48.05,11.8888525 49.3,13.0927869 50,14.6478689 L50,20.5672131 L0,20.5672131 L0,14.6478689 C0.65,13.0927869 1.95,11.8888525 3.55,11.3370492 C3.55,11.3370492 11.15,9.38065574 14.95,8.37737705 C16.15,8.07639344 18.5,7.47442623 18.5,7.47442623 L18.5,0 L31.5,0 L31.5,7.47442623 L31.5,7.47442623 Z"/>
    <path id="n" d="M31.5,7.47442623 L35.05,8.37737705 C38.85,9.38065574 46.45,11.3370492 46.45,11.3370492 C48.05,11.8888525 49.3,13.0927869 50,14.6478689 L50,20.5672131 L0,20.5672131 L0,14.6478689 C0.65,13.0927869 1.95,11.8888525 3.55,11.3370492 C3.55,11.3370492 11.15,9.38065574 14.95,8.37737705 C16.15,8.07639344 18.5,7.47442623 18.5,7.47442623 L18.5,0 L31.5,0 L31.5,7.47442623 L31.5,7.47442623 Z"/>
  </defs>
  <g fill="none" fill-rule="evenodd">
    <g transform="translate(30)">
      <rect width="50" height="50" fill="#F5EEE5"/>
      <path fill="#E6C19C" d="M31.5,36.95 L35.05,37.85 C38.85,38.85 46.45,40.8 46.45,40.8 C48.05,41.35 49.3,42.55 50,44.1 L50,50 L0,50 L0,44.1 C0.65,42.55 1.95,41.35 3.55,40.8 C3.55,40.8 11.15,38.85 14.95,37.85 C16.15,37.55 18.5,36.95 18.5,36.95 L18.5,29.5 L31.5,29.5 L31.5,36.95 L31.5,36.95 Z"/>
      <g transform="translate(0 29.5)">
        <mask id="b" fill="white">
          <use xlink:href="#a"/>
        </mask>
        <path fill="#D4B08C" d="M25.1,-24 L25.2,-24 L25.2,-24 C26.85,-24 29.3,-23.9 30.9,-23 C32.55,-22.05 34.55,-20.2 35.15,-16.95 C36.35,-10.1 34.1,0.75 32,4.25 C30,7.6 27.1,8.85 25.25,8.95 L25.2,8.95 L25.1,8.95 L25,8.95 L24.95,8.95 C23.1,8.85 20.2,7.6 18.2,4.25 C16.1,0.75 13.85,-10.1 15.05,-16.95 C15.65,-20.2 17.65,-22.05 19.3,-23 C20.9,-23.9 23.35,-24 25,-24 L25,-24 L25.1,-24 L25.1,-24 Z" mask="url(#b)"/>
        <g>
          <mask id="d" fill="white">
            <use xlink:href="#c"/>
          </mask>
          <path fill="#8EBF1D" d="M0,-0.5 L50,-0.5 L50,20.5 L0,20.5 L0,-0.5 L0,-0.5 Z M25,15.5 C31.75,15.4 35.5,8 35.5,8 C35.5,8 30.5,-0.5 25,-0.5 C19.5,-0.5 14.5,8 14.5,8 C14.5,8 18.25,15.6 25,15.5 L25,15.5 Z" mask="url(#d)"/>
        </g>
        <g>
          <mask id="f" fill="white">
            <use xlink:href="#e"/>
          </mask>
          <path fill="#70A619" d="M25,-3 C18.45,-3 12.55,7.1 12.55,7.1 C12.55,7.1 17,16.1 25,16 C33,15.9 37.45,7.1 37.45,7.1 C37.45,7.1 31.55,-3 25,-3 L25,-3 Z M25,14 C18.95,14 14.6,6.95 14.6,6.95 C14.6,6.95 19.5,-1 25,-1 C30.5,-1 35.4,6.95 35.4,6.95 C35.4,6.95 31.05,14 25,14 L25,14 Z" mask="url(#f)"/>
        </g>
      </g>
      <path fill="#F2CEA5" d="M24.9,10 C34.45,10 35.25,16.4 35.3,17.05 C35.85,23 33.8,29.6 31.9,32.4 C29.9,35.35 27,36.45 25.15,36.55 L25,36.55 L24.9,36.55 C23,36.45 20.1,35.35 18.1,32.4 C16.2,29.6 14.15,23 14.7,17 C14.75,16.35 15.35,10 24.9,10 L24.9,10 Z"/>
      <g transform="translate(17 22)">
        <g>
          <mask id="i" fill="white">
            <use xlink:href="#h"/>
          </mask>
          <circle cx="3.5" cy="2" r="1" fill="#291F21" mask="url(#i)"/>
        </g>
      </g>
      <path fill="#CC9872" d="M18.45,22.45 L17.6,21.95 C18.15,21.05 19.1,20.55 20.2,20.5 C21.8,20.5 23.05,20.9 23.8,21.7 L23.1,22.4 C22.5,21.8 21.45,21.5 20.15,21.5 C19.7,21.5 18.9,21.65 18.45,22.45 L18.45,22.45 Z"/>
      <path fill="#6B363E" d="M13.25,18.3 C13.25,18.8 13.6,20.65 13.85,21.35 C14.65,21.7 15,23.55 15,23.55 L15,19.55 C18,18.7 21.4,17 23.35,14.4 C23.95,16.2 23.3,17.45 23.3,17.45 C23.3,17.45 26.65,17.55 29.15,15.65 C30.65,14.5 32.45,11.05 32.45,11.05 C32.45,11.05 31.55,7.1 24.95,7.65 C22.15,7.9 20.8,9.6 16.25,9.15 C16.25,9.15 16.7,10.25 17.2,10.9 C15.2,11.8 13.25,14.35 13.25,18.3 L13.25,18.3 Z"/>
    </g>
    <rect width="50" height="50.164" fill="#EA4249"/>
    <path fill="#FFFFFF" d="M31.5,37.0711475 L35.05,37.9740984 C38.85,38.977377 46.45,40.9337705 46.45,40.9337705 C48.05,41.4855738 49.3,42.6895082 50,44.2445902 L50,50.1639344 L0,50.1639344 L0,44.2445902 C0.65,42.6895082 1.95,41.4855738 3.55,40.9337705 C3.55,40.9337705 11.15,38.977377 14.95,37.9740984 C16.15,37.6731148 18.5,37.0711475 18.5,37.0711475 L18.5,29.5967213 L31.5,29.5967213 L31.5,37.0711475 L31.5,37.0711475 Z"/>
    <g transform="translate(0 29.597)">
      <mask id="k" fill="white">
        <use xlink:href="#j"/>
      </mask>
      <path fill="#CFCEC5" d="M25.1,-24.0786885 L25.2,-24.0786885 L25.2,-24.0786885 C26.85,-24.0786885 29.3,-23.9783607 30.9,-23.0754098 C32.55,-22.1222951 34.55,-20.2662295 35.15,-17.0055738 C36.35,-10.1331148 34.1,0.752459016 32,4.26393443 C30,7.62491803 27.1,8.87901639 25.25,8.97934426 L25.2,8.97934426 L25.1,8.97934426 L25,8.97934426 L24.95,8.97934426 C23.1,8.87901639 20.2,7.62491803 18.2,4.26393443 C16.1,0.752459016 13.85,-10.1331148 15.05,-17.0055738 C15.65,-20.2662295 17.65,-22.1222951 19.3,-23.0754098 C20.9,-23.9783607 23.35,-24.0786885 25,-24.0786885 L25,-24.0786885 L25.1,-24.0786885 L25.1,-24.0786885 Z" mask="url(#k)"/>
      <g>
        <mask id="m" fill="white">
          <use xlink:href="#l"/>
        </mask>
        <path fill="#FFFFFF" d="M0,-0.501639344 L50,-0.501639344 L50,20.5672131 L0,20.5672131 L0,-0.501639344 L0,-0.501639344 Z M25,15.5508197 C31.75,15.4504918 35.5,8.02622951 35.5,8.02622951 C35.5,8.02622951 30.5,-0.501639344 25,-0.501639344 C19.5,-0.501639344 14.5,8.02622951 14.5,8.02622951 C14.5,8.02622951 18.25,15.6511475 25,15.5508197 L25,15.5508197 Z" mask="url(#m)"/>
      </g>
      <g/>
    </g>
    <path fill="#FFFFFF" d="M24.9,10.0327869 C34.45,10.0327869 35.25,16.4537705 35.3,17.1059016 C35.85,23.0754098 33.8,29.6970492 31.9,32.5062295 C29.9,35.4659016 27,36.5695082 25.15,36.6698361 L25,36.6698361 L24.9,36.6698361 C23,36.5695082 20.1,35.4659016 18.1,32.5062295 C16.2,29.6970492 14.15,23.0754098 14.7,17.0557377 C14.75,16.4036066 15.35,10.0327869 24.9,10.0327869 L24.9,10.0327869 Z"/>
  </g>
</svg>
