<svg xmlns="http://www.w3.org/2000/svg" width="125" height="125" viewBox="0 0 125 125" xmlns:xlink="http://www.w3.org/1999/xlink">
  <defs>
    <path id="a" d="M79.38,18.7593443 L88.326,21.0255738 C97.902,23.5436066 117.054,28.4537705 117.054,28.4537705 C121.086,29.8386885 124.236,32.8603279 126,36.7632787 L126,51.6196721 L0,51.6196721 L0,36.7632787 C1.638,32.8603279 4.914,29.8386885 8.946,28.4537705 C8.946,28.4537705 28.098,23.5436066 37.674,21.0255738 C40.698,20.2701639 46.62,18.7593443 46.62,18.7593443 L46.62,0 L79.38,0 L79.38,18.7593443 L79.38,18.7593443 Z"/>
    <path id="c" d="M79.38,18.7593443 L88.326,21.0255738 C97.902,23.5436066 117.054,28.4537705 117.054,28.4537705 C121.086,29.8386885 124.236,32.8603279 126,36.7632787 L126,51.6196721 L0,51.6196721 L0,36.7632787 C1.638,32.8603279 4.914,29.8386885 8.946,28.4537705 C8.946,28.4537705 28.098,23.5436066 37.674,21.0255738 C40.698,20.2701639 46.62,18.7593443 46.62,18.7593443 L46.62,0 L79.38,0 L79.38,18.7593443 L79.38,18.7593443 Z"/>
    <path id="e" d="M79.38,18.7593443 L88.326,21.0255738 C97.902,23.5436066 117.054,28.4537705 117.054,28.4537705 C121.086,29.8386885 124.236,32.8603279 126,36.7632787 L126,51.6196721 L0,51.6196721 L0,36.7632787 C1.638,32.8603279 4.914,29.8386885 8.946,28.4537705 C8.946,28.4537705 28.098,23.5436066 37.674,21.0255738 C40.698,20.2701639 46.62,18.7593443 46.62,18.7593443 L46.62,0 L79.38,0 L79.38,18.7593443 L79.38,18.7593443 Z"/>
  </defs>
  <g fill="none" fill-rule="evenodd">
    <rect width="126" height="125.902" fill="#EA4249"/>
    <path fill="#FFFFFF" d="M79.38,93.0413115 L88.326,95.307541 C97.902,97.8255738 117.054,102.735738 117.054,102.735738 C121.086,104.120656 124.236,107.142295 126,111.045246 L126,125.901639 L0,125.901639 L0,111.045246 C1.638,107.142295 4.914,104.120656 8.946,102.735738 C8.946,102.735738 28.098,97.8255738 37.674,95.307541 C40.698,94.5521311 46.62,93.0413115 46.62,93.0413115 L46.62,74.2819672 L79.38,74.2819672 L79.38,93.0413115 L79.38,93.0413115 Z"/>
    <g transform="translate(0 74.282)">
      <mask id="b" fill="white">
        <use xlink:href="#a"/>
      </mask>
      <path fill="#CFCEC5" d="M63.252,-60.4327869 L63.504,-60.4327869 L63.504,-60.4327869 C67.662,-60.4327869 73.836,-60.1809836 77.868,-57.9147541 C82.026,-55.522623 87.066,-50.8642623 88.578,-42.6806557 C91.602,-25.4321311 85.932,1.88852459 80.64,10.7016393 C75.6,19.1370492 68.292,22.2845902 63.63,22.5363934 L63.504,22.5363934 L63.252,22.5363934 L63,22.5363934 L62.874,22.5363934 C58.212,22.2845902 50.904,19.1370492 45.864,10.7016393 C40.572,1.88852459 34.902,-25.4321311 37.926,-42.6806557 C39.438,-50.8642623 44.478,-55.522623 48.636,-57.9147541 C52.668,-60.1809836 58.842,-60.4327869 63,-60.4327869 L63,-60.4327869 L63.252,-60.4327869 L63.252,-60.4327869 Z" mask="url(#b)"/>
      <g>
        <mask id="d" fill="white">
          <use xlink:href="#c"/>
        </mask>
        <path fill="#FFFFFF" d="M0,-1.25901639 L126,-1.25901639 L126,51.6196721 L0,51.6196721 L0,-1.25901639 L0,-1.25901639 Z M63,39.0295082 C80.01,38.7777049 89.46,20.1442623 89.46,20.1442623 C89.46,20.1442623 76.86,-1.25901639 63,-1.25901639 C49.14,-1.25901639 36.54,20.1442623 36.54,20.1442623 C36.54,20.1442623 45.99,39.2813115 63,39.0295082 L63,39.0295082 Z" mask="url(#d)"/>
      </g>
      <g/>
    </g>
    <path fill="#FFFFFF" d="M62.748,25.1803279 C86.814,25.1803279 88.83,41.2957377 88.956,42.932459 C90.342,57.9147541 85.176,74.5337705 80.388,81.5842623 C75.348,89.012459 68.04,91.7822951 63.378,92.0340984 L63,92.0340984 L62.748,92.0340984 C57.96,91.7822951 50.652,89.012459 45.612,81.5842623 C40.824,74.5337705 35.658,57.9147541 37.044,42.8065574 C37.17,41.1698361 38.682,25.1803279 62.748,25.1803279 L62.748,25.1803279 Z"/>
  </g>
</svg>
