<?xml version="1.0" encoding="utf-8"?>
<!-- Generator: Adobe Illustrator 22.0.1, SVG Export Plug-In . SVG Version: 6.00 Build 0)  -->
<svg version="1.1" id="Layer_1" xmlns="http://www.w3.org/2000/svg" xmlns:xlink="http://www.w3.org/1999/xlink" x="0px" y="0px"
	 viewBox="0 0 56 56" style="enable-background:new 0 0 56 56;" xml:space="preserve">
<path d="M24.2,14.2c0-2.6,1.3-3.9,3.8-3.9s3.8,1.3,3.8,3.9c0,2.6-1.3,3.8-3.8,3.8S24.2,16.8,24.2,14.2 M35.4,21.3v11.2h-3.1v13.3
	h-8.5V32.5h-3.1V21.3c0-0.5,0.2-0.9,0.5-1.3c0.3-0.3,0.8-0.5,1.3-0.5h11.3c0.5,0,0.9,0.2,1.2,0.5C35.2,20.4,35.4,20.8,35.4,21.3z
	 M28.1,5.6c-6.2,0-11.5,2.2-15.8,6.6c-4.5,4.6-6.7,9.9-6.7,15.9c0,6.1,2.2,11.4,6.7,15.8c4.4,4.4,9.7,6.7,15.9,6.7
	c6.1,0,11.4-2.2,16-6.7c4.3-4.2,6.5-9.4,6.5-15.8c0-6.2-2.2-11.6-6.6-15.9C39.6,7.8,34.3,5.6,28.1,5.6z M28,0.6
	c7.7,0,14.2,2.6,19.5,7.9c5.3,5.3,8,11.8,8,19.5c0,7.7-2.6,14.1-7.9,19.3c-5.6,5.5-12.1,8.2-19.7,8.2c-7.4,0-13.9-2.7-19.3-8.1
	c-5.4-5.4-8.1-11.9-8.1-19.4s2.7-14,8.1-19.5C13.9,3.3,20.4,0.6,28,0.6z"/>
</svg>
