<?xml version="1.0" encoding="UTF-8"?>
<svg width="29px" height="28px" viewBox="0 0 29 28" version="1.1" xmlns="http://www.w3.org/2000/svg" xmlns:xlink="http://www.w3.org/1999/xlink">
    <!-- Generator: Sketch 59.1 (86144) - https://sketch.com -->
    <title>Shape 2</title>
    <desc>Created with Sketch.</desc>
    <g id="Page-1" stroke="none" stroke-width="1" fill="none" fill-rule="evenodd">
        <g id="Events" transform="translate(-172.000000, -361.000000)" fill="#FFFFFF" fill-rule="nonzero">
            <g id="Shape-2" transform="translate(172.500000, 361.000000)">
                <path d="M23.3333333,23.3333333 L18.6666667,23.3333333 L18.6666667,18.6666667 L23.3333333,18.6666667 L23.3333333,23.3333333 Z M16.3333333,11.6666667 L11.6666667,11.6666667 L11.6666667,16.3333333 L16.3333333,16.3333333 L16.3333333,11.6666667 Z M23.3333333,11.6666667 L18.6666667,11.6666667 L18.6666667,16.3333333 L23.3333333,16.3333333 L23.3333333,11.6666667 Z M9.33333333,18.6666667 L4.66666667,18.6666667 L4.66666667,23.3333333 L9.33333333,23.3333333 L9.33333333,18.6666667 Z M16.3333333,18.6666667 L11.6666667,18.6666667 L11.6666667,23.3333333 L16.3333333,23.3333333 L16.3333333,18.6666667 Z M9.33333333,11.6666667 L4.66666667,11.6666667 L4.66666667,16.3333333 L9.33333333,16.3333333 L9.33333333,11.6666667 Z M28,2.33333333 L28,28 L0,28 L0,2.33333333 L3.5,2.33333333 L3.5,3.5 C3.5,4.78683333 4.5465,5.83333333 5.83333333,5.83333333 C7.12016667,5.83333333 8.16666667,4.78683333 8.16666667,3.5 L8.16666667,2.33333333 L19.8333333,2.33333333 L19.8333333,3.5 C19.8333333,4.78683333 20.8798333,5.83333333 22.1666667,5.83333333 C23.4535,5.83333333 24.5,4.78683333 24.5,3.5 L24.5,2.33333333 L28,2.33333333 Z M25.6666667,9.33333333 L2.33333333,9.33333333 L2.33333333,25.6666667 L25.6666667,25.6666667 L25.6666667,9.33333333 Z M23.3333333,1.16666667 C23.3333333,0.522666667 22.8118333,0 22.1666667,0 C21.5215,0 21,0.522666667 21,1.16666667 L21,3.5 C21,4.144 21.5215,4.66666667 22.1666667,4.66666667 C22.8118333,4.66666667 23.3333333,4.144 23.3333333,3.5 L23.3333333,1.16666667 Z M7,3.5 C7,4.144 6.4785,4.66666667 5.83333333,4.66666667 C5.18816667,4.66666667 4.66666667,4.144 4.66666667,3.5 L4.66666667,1.16666667 C4.66666667,0.522666667 5.18816667,0 5.83333333,0 C6.4785,0 7,0.522666667 7,1.16666667 L7,3.5 Z" id="Shape"></path>
            </g>
        </g>
    </g>
</svg>