<svg id="calendar" width="18px" height="18px" viewBox="0 0 18 18" version="1.1" xmlns="http://www.w3.org/2000/svg" xmlns:xlink="http://www.w3.org/1999/xlink">
        <path d="M15,15 L12,15 L12,12 L15,12 L15,15 Z M10.5,7.5 L7.5,7.5 L7.5,10.5 L10.5,10.5 L10.5,7.5 Z M15,7.5 L12,7.5 L12,10.5 L15,10.5 L15,7.5 Z M6,12 L3,12 L3,15 L6,15 L6,12 Z M10.5,12 L7.5,12 L7.5,15 L10.5,15 L10.5,12 Z M6,7.5 L3,7.5 L3,10.5 L6,10.5 L6,7.5 Z M18,1.5 L18,18 L0,18 L0,1.5 L2.25,1.5 L2.25,2.25 C2.25,3.07725 2.92275,3.75 3.75,3.75 C4.57725,3.75 5.25,3.07725 5.25,2.25 L5.25,1.5 L12.75,1.5 L12.75,2.25 C12.75,3.07725 13.42275,3.75 14.25,3.75 C15.07725,3.75 15.75,3.07725 15.75,2.25 L15.75,1.5 L18,1.5 Z M16.5,6 L1.5,6 L1.5,16.5 L16.5,16.5 L16.5,6 Z M15,0.75 C15,0.336 14.66475,0 14.25,0 C13.83525,0 13.5,0.336 13.5,0.75 L13.5,2.25 C13.5,2.664 13.83525,3 14.25,3 C14.66475,3 15,2.664 15,2.25 L15,0.75 Z M4.5,2.25 C4.5,2.664 4.16475,3 3.75,3 C3.33525,3 3,2.664 3,2.25 L3,0.75 C3,0.336 3.33525,0 3.75,0 C4.16475,0 4.5,0.336 4.5,0.75 L4.5,2.25 Z" id="Shape"></path>
</svg>