<?xml version="1.0" encoding="utf-8"?>
<!-- Generator: Adobe Illustrator 22.0.1, SVG Export Plug-In . SVG Version: 6.00 Build 0)  -->
<svg version="1.1" id="Layer_1" xmlns="http://www.w3.org/2000/svg" xmlns:xlink="http://www.w3.org/1999/xlink" x="0px" y="0px"
	 viewBox="0 0 56 56" style="enable-background:new 0 0 56 56;" xml:space="preserve">
<path d="M43.6,23.6l-3.6,1.9c-0.4-0.8-0.9-1.4-1.4-1.7c-0.6-0.3-1.1-0.5-1.6-0.5c-2.5,0-3.7,1.6-3.7,4.9c0,1.5,0.3,2.6,0.9,3.5
	c0.6,0.9,1.5,1.3,2.7,1.3c1.6,0,2.7-0.8,3.4-2.4l3.4,1.7c-0.8,1.3-1.8,2.4-3,3.2c-1.3,0.8-2.7,1.2-4.2,1.2c-2.5,0-4.5-0.8-6-2.3
	c-1.5-1.5-2.2-3.6-2.2-6.3c0-2.6,0.8-4.7,2.3-6.2c1.5-1.5,3.4-2.3,5.8-2.3C39.7,19.6,42.1,20.9,43.6,23.6 M27.7,23.6L24,25.5
	c-0.4-0.8-0.9-1.4-1.4-1.7c-0.6-0.3-1.1-0.5-1.6-0.5c-2.5,0-3.7,1.6-3.7,4.9c0,1.5,0.3,2.6,0.9,3.5c0.6,0.9,1.5,1.3,2.7,1.3
	c1.6,0,2.7-0.8,3.4-2.4l3.4,1.7c-0.7,1.3-1.7,2.4-3,3.2c-1.3,0.8-2.7,1.2-4.2,1.2c-2.5,0-4.4-0.8-5.9-2.3c-1.5-1.5-2.3-3.6-2.3-6.3
	c0-2.6,0.8-4.7,2.3-6.2c1.5-1.5,3.4-2.3,5.8-2.3C23.8,19.6,26.2,20.9,27.7,23.6z M28.1,5.6c-6.3,0-11.6,2.2-15.8,6.6
	c-2.2,2.2-3.8,4.7-5,7.4c-1.2,2.7-1.7,5.6-1.7,8.6c0,2.9,0.6,5.8,1.7,8.5c1.2,2.7,2.8,5.2,5,7.3c2.2,2.1,4.6,3.8,7.3,4.9
	c2.7,1.1,5.6,1.7,8.5,1.7c2.9,0,5.8-0.6,8.6-1.7c2.8-1.1,5.3-2.8,7.5-5c4.3-4.2,6.4-9.4,6.4-15.8c0-3-0.6-5.9-1.7-8.6
	s-2.7-5.1-4.9-7.3C39.6,7.8,34.3,5.6,28.1,5.6z M28,0.6c7.7,0,14.2,2.7,19.6,8c2.6,2.6,4.5,5.5,5.9,8.9c1.3,3.3,2,6.8,2,10.6
	c0,3.8-0.7,7.3-2,10.6c-1.3,3.3-3.3,6.2-5.9,8.7c-2.7,2.6-5.7,4.7-9.1,6.1c-3.4,1.4-6.9,2.1-10.5,2.1s-7.1-0.7-10.4-2.1
	c-3.3-1.4-6.3-3.4-8.9-6c-2.6-2.6-4.6-5.6-6-8.9c-1.4-3.3-2.1-6.8-2.1-10.5c0-3.6,0.7-7.1,2.1-10.5c1.4-3.4,3.4-6.4,6.1-9
	C13.9,3.3,20.3,0.6,28,0.6z"/>
</svg>
