<svg id="comment" viewBox="0 0 18 16" version="1.1" xmlns="http://www.w3.org/2000/svg" xmlns:xlink="http://www.w3.org/1999/xlink">
    <g id="Page-1" stroke="none" stroke-width="1">
        <g id="Work-areas---specific" transform="translate(-426.000000, -2122.000000)">
            <g id="iconmonstr-speech-bubble-3-copy-3" transform="translate(426.000000, 2122.000000)">
                <path d="M9,1.29189588e-15 C4.2465,1.29189588e-15 0,3.07345455 0,7.27781818 C0,8.76872727 0.55425,10.2327273 1.53525,11.3687273 C1.5765,12.6996364 0.768,14.6094545 0.0405,16 C1.992,15.6581818 4.76625,14.9032727 6.024,14.1556364 C12.951,15.7898182 18,11.6792727 18,7.27781818 C18,3.05090909 13.72425,0 9,1.29189588e-15 Z M5.25,8.36363636 C4.62825,8.36363636 4.125,7.87563636 4.125,7.27272727 C4.125,6.66981818 4.62825,6.18181818 5.25,6.18181818 C5.87175,6.18181818 6.375,6.66981818 6.375,7.27272727 C6.375,7.87563636 5.87175,8.36363636 5.25,8.36363636 Z M9,8.36363636 C8.37825,8.36363636 7.875,7.87563636 7.875,7.27272727 C7.875,6.66981818 8.37825,6.18181818 9,6.18181818 C9.62175,6.18181818 10.125,6.66981818 10.125,7.27272727 C10.125,7.87563636 9.62175,8.36363636 9,8.36363636 Z M12.75,8.36363636 C12.129,8.36363636 11.625,7.87563636 11.625,7.27272727 C11.625,6.66981818 12.129,6.18181818 12.75,6.18181818 C13.37175,6.18181818 13.875,6.66981818 13.875,7.27272727 C13.875,7.87563636 13.37175,8.36363636 12.75,8.36363636 Z" id="Shape"></path>
            </g>
        </g>
    </g>
</svg>