<?xml version="1.0" encoding="UTF-8"?>
<svg width="24px" height="28px" viewBox="0 0 24 28" version="1.1"
    xmlns="http://www.w3.org/2000/svg"
    xmlns:xlink="http://www.w3.org/1999/xlink">
    <!-- Generator: Sketch 64 (93537) - https://sketch.com -->
    <title>library</title>
    <desc>Created with Sketch.</desc>
    <g id="Page-1" stroke="none" stroke-width="1" fill="none" fill-rule="evenodd">
        <g id="library" fill="#FFFFFF">
            <g id="Fill-1">
                <path d="M1.17563054,15.019233 C1.05691027,15.7683656 0.97157701,16.542625 1.17391209,17.3217275 C1.27142179,17.6969775 1.49094136,17.9206119 1.80153872,18.0613449 C3.57591083,18.8654603 5.3540635,19.6590348 7.1179776,20.4929491 C8.4799711,21.1369023 9.8262531,21.8262091 11.1715039,22.5164276 C11.4274055,22.6477024 11.5963045,22.6126046 11.8089994,22.4148947 C15.56273,18.9256279 19.3223033,15.4448507 23.0806492,11.9623071 C23.1253289,11.9208279 23.1686829,11.8769557 23.2157684,11.8394079 C23.4536017,11.6500166 23.7326287,11.6891028 23.8949485,11.9327361 C24.0576119,12.1768822 24.0313442,12.5111089 23.8163417,12.7220374 C23.5353508,12.9976918 23.2451293,13.2606973 22.9574609,13.5271783 C19.7423413,16.5065586 16.5258469,19.4838878 13.3131331,22.4668007 C12.9621276,22.7927087 12.6269319,23.1423191 12.2944857,23.4938667 C11.948341,23.8598864 11.5747993,23.9308797 11.1405227,23.7269593 C8.2156737,22.3534736 5.2871422,20.9904716 2.36381519,19.6127126 C1.94088037,19.4134073 1.53925432,19.1534216 1.13512425,18.9256279 C1.14199804,19.0293259 1.15829876,19.1399181 1.15515645,19.2498266 C1.13787377,19.863696 1.08371808,20.4788758 1.10497774,21.090694 C1.12451896,21.6545946 1.38739254,22.0391319 1.8693929,22.255986 C4.11029932,23.2640218 6.3476216,24.2833389 8.5769407,25.3253899 C9.4559519,25.7362505 10.3141943,26.2083043 11.1744989,26.6710139 C11.4136579,26.7996678 11.5847663,26.7807514 11.7949572,26.5853206 C15.5741699,23.0715537 19.3592254,19.5662764 23.1436426,16.0600305 C23.4214421,15.8026088 23.7150023,15.819246 23.8994655,16.0946725 C24.074109,16.3554558 24.017793,16.6840987 23.7544284,16.94021 C23.7356237,16.9584426 23.7161807,16.9759915 23.6970322,16.9937113 C22.7191366,17.8999293 21.7410446,18.8059194 20.7632472,19.7122513 C18.257847,22.0346307 15.7511211,24.3551299 13.2486667,26.6818395 C12.9042405,27.0020498 12.5796009,27.3510335 12.2483331,27.6900462 C11.9275723,28.0183472 11.5745538,28.0831869 11.178034,27.8972143 C8.214839,26.5075471 5.2489926,25.1253439 2.28864533,23.7274721 C1.81283138,23.5028121 1.35616587,23.2210042 0.89832199,22.9483696 C0.61767474,22.7812563 0.42977463,22.5131799 0.35617592,22.1456217 C0.07906377,20.7614244 -0.04314249,19.3758026 0.29823965,17.9791272 C0.323329,17.8763978 0.31144716,17.7528719 0.29156225,17.6452425 C0.0711589,16.4533992 -0.00366727,15.2607012 0.24717717,14.0605963 C0.26519633,13.9744472 0.24963209,13.8733132 0.23239851,13.7835745 C-0.02507423,12.4423377 -0.11772318,11.1021835 0.21207171,9.7554769 C0.34493236,9.2130566 0.60294518,8.8000879 0.99519341,8.4576566 C4.15404612,5.70014441 7.4679029,3.20221911 10.7149366,0.5922202 C11.5087127,-0.04580739 12.2838804,-0.16813684 13.162597,0.22443416 C15.9850756,1.48539045 18.8105001,2.73745835 21.6347954,3.99311578 C21.7340236,4.0372729 21.8337427,4.08051839 21.9312524,4.12940459 C22.4363291,4.38249608 22.5072273,4.89392094 22.084538,5.30637689 C21.8469993,5.53815902 21.5903121,5.74344687 21.3419226,5.96024407 C18.0866895,8.8016263 14.8306217,11.641641 11.5778434,14.4867267 C11.3112384,14.7199333 11.0543548,14.7716683 10.7358526,14.6271748 C7.766913,13.2799555 4.79424198,11.9437327 1.82279839,10.6039773 C1.35744243,10.3941313 1.10831645,10.5464876 1.06118185,11.1242906 C1.01517652,11.6881912 0.9854228,12.2585302 1.00427664,12.8235133 C1.02460344,13.4329385 1.29341794,13.8402665 1.81597369,14.0731882 C3.97483646,15.0356994 6.1279547,16.0164432 8.272628,17.0207184 C9.2346157,17.471178 10.1740671,17.987161 11.1185266,18.4865637 C11.3321543,18.599492 11.4858819,18.5794361 11.673291,18.4052576 C15.4522092,14.8939978 19.2359881,11.38986 23.0207981,7.8872036 C23.1142817,7.8007696 23.2242133,7.7194066 23.3375818,7.6849355 C23.5493929,7.6204946 23.7739206,7.7685207 23.8632799,7.9956307 C23.9613297,8.2447338 23.9035898,8.51093 23.6963449,8.7042527 C22.9758729,9.3762385 22.252946,10.0446918 21.5306574,10.7140567 C18.7509927,13.2902113 15.9701987,15.8645997 13.1930381,18.4444008 C12.8612302,18.7526459 12.539782,19.0779842 12.2310013,19.4169399 C11.8578524,19.826604 11.4592705,19.8778832 10.991165,19.6576104 C8.9080122,18.6770376 6.8180347,17.7161787 4.73473455,16.7361187 C3.55371829,16.1804797 2.38085238,15.6015372 1.17563054,15.019233" fill-rule="nonzero"></path>
            </g>
        </g>
    </g>
</svg>