<?xml version="1.0" encoding="utf-8"?>
<!-- Generator: Adobe Illustrator 22.0.1, SVG Export Plug-In . SVG Version: 6.00 Build 0)  -->
<svg version="1.1" id="Layer_1" xmlns="http://www.w3.org/2000/svg" xmlns:xlink="http://www.w3.org/1999/xlink" x="0px" y="0px"
	 viewBox="0 0 56 56" style="enable-background:new 0 0 56 56;" xml:space="preserve">
<path d="M28.1,5.5c-6.2,0-11.5,2.2-15.8,6.6c-1.1,1.1-2.1,2.3-3,3.7l10.5,4.7c0.5-1.4,1.3-2.6,2.6-3.5c1.3-0.9,2.8-1.3,4.5-1.4v-4.2
	h3.2v4.2c2.5,0.1,4.8,1,6.9,2.6l-3.6,3.7c-1.5-1.1-3.1-1.6-4.7-1.6c-0.9,0-1.6,0.2-2.3,0.5c-0.7,0.3-1,0.9-1,1.7
	c0,0.2,0.1,0.5,0.2,0.7l3.5,1.6l2.4,1.1l4.4,2L49.8,34c0.5-1.9,0.7-3.9,0.7-5.9c0-6.3-2.2-11.6-6.6-15.9C39.6,7.7,34.3,5.5,28.1,5.5
	 M6.7,20.7c-0.8,2.3-1.2,4.7-1.2,7.4c0,6.1,2.2,11.4,6.7,15.8c4.5,4.4,9.8,6.6,15.9,6.6c6.2,0,11.5-2.2,16-6.7
	c1.6-1.5,2.9-3.1,3.8-4.8l-10.4-4.6c-0.4,1.7-1.2,3.1-2.6,4.2c-1.4,1.1-3,1.7-4.9,1.9v4.2h-3.2v-4.2c-3,0-5.8-1.1-8.3-3.3l3.8-3.8
	c1.8,1.7,3.8,2.5,6.1,2.5c0.9,0,1.8-0.2,2.4-0.6c0.7-0.4,1-1.1,1-2.1c0-0.7-0.2-1.2-0.7-1.7l-2.6-1.1l-3.2-1.5l-4.4-1.9L6.7,20.7z
	 M28,0.6c7.7,0,14.2,2.7,19.5,7.9c5.3,5.3,8,11.8,8,19.5s-2.6,14.1-7.9,19.3c-5.6,5.5-12.1,8.2-19.7,8.2c-7.5,0-13.9-2.7-19.3-8.1
	C3.2,42,0.5,35.6,0.5,28.1c0-7.5,2.7-14,8.1-19.5C13.9,3.2,20.4,0.6,28,0.6z"/>
</svg>
