<?xml version="1.0" encoding="utf-8"?>
<!-- Generator: Adobe Illustrator 22.0.1, SVG Export Plug-In . SVG Version: 6.00 Build 0)  -->
<svg version="1.1" id="Layer_1" xmlns="http://www.w3.org/2000/svg" xmlns:xlink="http://www.w3.org/1999/xlink" x="0px" y="0px"
	 viewBox="0 0 56 56" style="enable-background:new 0 0 56 56;" xml:space="preserve">
<path d="M15.8,24.3c0.5-3.4,1.9-6,4.1-7.8c2.2-1.8,4.9-2.8,8-2.8c4.3,0,7.8,1.4,10.3,4.2S42,24.2,42,28.6c0,4.2-1.3,7.7-4,10.5
	c-2.6,2.8-6.1,4.2-10.3,4.2c-3.1,0-5.8-0.9-8-2.8c-2.3-1.9-3.6-4.5-4.1-7.9h6.9c0.2,3.3,2.2,5,6,5c1.9,0,3.5-0.8,4.7-2.5
	c1.2-1.7,1.8-3.9,1.8-6.7c0-2.9-0.5-5.1-1.6-6.6c-1.1-1.5-2.6-2.3-4.7-2.3c-3.7,0-5.7,1.6-6.2,4.9h2l-5.4,5.4l-5.4-5.4H15.8
	 M28.1,5.7c-6.2,0-11.5,2.2-15.8,6.6c-4.5,4.5-6.7,9.8-6.7,15.9c0,6.1,2.2,11.4,6.7,15.8c4.4,4.4,9.7,6.7,15.9,6.7
	c6.1,0,11.4-2.2,16-6.7c4.3-4.2,6.5-9.4,6.5-15.7c0-6.3-2.2-11.6-6.6-15.9C39.6,7.9,34.3,5.7,28.1,5.7z M28,0.7
	c7.7,0,14.2,2.7,19.5,8c5.3,5.3,8,11.8,8,19.5c0,7.7-2.6,14.1-7.9,19.3c-5.5,5.4-12.1,8.1-19.7,8.1c-7.4,0-13.9-2.7-19.3-8.1
	c-5.4-5.4-8.1-11.9-8.1-19.4c0-7.5,2.7-14,8.1-19.5C14,3.4,20.4,0.7,28,0.7z"/>
</svg>
