<?xml version="1.0" encoding="UTF-8"?>
<svg width="56px" height="56px" viewBox="0 0 56 56" version="1.1" xmlns="http://www.w3.org/2000/svg" xmlns:xlink="http://www.w3.org/1999/xlink">
    <!-- Generator: Sketch 59 (86127) - https://sketch.com -->
    <title>Shape</title>
    <desc>Created with Sketch.</desc>
    <g id="Page-1" stroke="none" stroke-width="1" fill="none" fill-rule="evenodd">
        <g id="chevron" transform="translate(-267.000000, 0.000000)" fill="#000000" fill-rule="nonzero">
            <g id="sa" transform="translate(267.000000, 0.000000)">
                <path d="M15.8,24.3 C16.3,20.9 17.7,18.3 19.9,16.5 C22.1,14.7 24.8,13.7 27.9,13.7 C32.2,13.7 35.7,15.1 38.2,17.9 C40.7,20.7 42,24.2 42,28.6 C42,32.8 40.7,36.3 38,39.1 C35.4,41.9 31.9,43.3 27.7,43.3 C24.6,43.3 21.9,42.4 19.7,40.5 C17.4,38.6 16.1,36 15.6,32.6 L22.5,32.6 C22.7,35.9 24.7,37.6 28.5,37.6 C30.4,37.6 32,36.8 33.2,35.1 C34.4,33.4 35,31.2 35,28.4 C35,25.5 34.5,23.3 33.4,21.8 C32.3,20.3 30.8,19.5 28.7,19.5 C25,19.5 23,21.1 22.5,24.4 L24.5,24.4 L19.1,29.8 L13.7,24.4 L15.8,24.4 M28.1,5.7 C21.9,5.7 16.6,7.9 12.3,12.3 C7.8,16.8 5.6,22.1 5.6,28.2 C5.6,34.3 7.8,39.6 12.3,44 C16.7,48.4 22,50.7 28.2,50.7 C34.3,50.7 39.6,48.5 44.2,44 C48.5,39.8 50.7,34.6 50.7,28.3 C50.7,22 48.5,16.7 44.1,12.4 C39.6,7.9 34.3,5.7 28.1,5.7 Z M28,0.7 C35.7,0.7 42.2,3.4 47.5,8.7 C52.8,14 55.5,20.5 55.5,28.2 C55.5,35.9 52.9,42.3 47.6,47.5 C42.1,52.9 35.5,55.6 27.9,55.6 C20.5,55.6 14,52.9 8.6,47.5 C3.2,42.1 0.5,35.6 0.5,28.1 C0.5,20.6 3.2,14.1 8.6,8.6 C14,3.4 20.4,0.7 28,0.7 Z" id="Shape"></path>
            </g>
        </g>
    </g>
</svg>