<?xml version="1.0" encoding="UTF-8"?>
<svg width="346px" height="316px" viewBox="0 0 346 316" version="1.1" xmlns="http://www.w3.org/2000/svg" xmlns:xlink="http://www.w3.org/1999/xlink">
    <!-- Generator: Sketch 59 (86127) - https://sketch.com -->
    <title>stories</title>
    <desc>Created with Sketch.</desc>
    <g id="Page-1" stroke="none" stroke-width="1" fill="none" fill-rule="evenodd">
        <g id="stories" transform="translate(1.000000, 0.000000)" fill="#000000" fill-rule="nonzero" stroke="#000000">
            <path d="M315.4,29.2 L315.4,215.3 L148.7,215.3 L86.3,259.8 L86.3,215.3 L29,215.3 L29,29.2 L315.4,29.2 Z M344,0.5 L0.4,0.5 L0.4,243.6 L57.7,243.6 L57.7,315.5 L157.9,243.6 L344,243.6 C344,243.6 344,0.5 344,0.5 Z M272.4,86.4 L72,86.4 L72,72.1 L272.4,72.1 L272.4,86.4 Z M272.4,115.1 L72,115.1 L72,129.4 L272.4,129.4 L272.4,115.1 Z M186.5,158 L72,158 L72,172.3 L186.5,172.3 L186.5,158 Z" id="Shape"></path>
        </g>
    </g>
</svg>