<svg id="thematic-areas" viewBox="0 0 516 470" version="1.1" xmlns="http://www.w3.org/2000/svg" xmlns:xlink="http://www.w3.org/1999/xlink">
    <!-- Generator: Sketch 48.2 (47327) - http://www.bohemiancoding.com/sketch -->
    <desc>Created with Sketch.</desc>
    <defs></defs>
    <g id="Page-1" >
        <g id="Assets" transform="translate(-52.000000, -1124.000000)" >
            <g id="thematic-areas" transform="translate(52.000000, 1124.000000)">
                <path d="M296.8,367.1 L304.9,313.1 C279.8,299.7 272.7,298.1 270.4,288.6 C268,279 273.6,274.3 289.5,250.8 L257,206.9 C230.2,215 223.8,219.1 215.2,214 C206.8,208.9 207.4,201.6 202,173.8 L148,165.7 C134.6,190.7 133.1,197.8 123.5,200.2 C113.6,202.7 108.8,196.7 85.7,181.1 L41.8,213.5 C50,240.7 54,246.8 48.9,255.3 C43.8,263.7 36.6,263.1 8.7,268.5 L0.6,322.5 C25.6,335.9 32.7,337.4 35.1,347 C37.5,356.6 31.9,361.3 16,384.8 L48.4,428.7 C74.8,420.7 81.4,416.3 90.1,421.6 C98.5,426.7 97.9,433.9 103.3,461.8 L157.3,469.9 C170.6,445 172.2,437.8 181.9,435.4 C191.7,433 196.4,438.8 219.6,454.5 L263.5,422.1 C255.3,395 251.3,388.8 256.4,380.4 C261.7,372 268.9,372.6 296.8,367.1 Z M235.2,367.5 C225.5,383.6 229.8,397.7 234.6,412.6 L219.2,424 C206.7,415.3 194.5,406.7 176,411.3 C157.7,415.9 150.8,428.9 143.7,442.7 L124.8,439.8 C122.1,424.4 119.3,410 103.2,400.3 C86.8,390.4 72.3,395.1 58.1,399.7 L46.7,384.3 C55.7,371.5 63.9,359.4 59.4,341 C54.8,322.8 41.8,315.8 28,308.7 L30.8,289.8 C46.2,287.1 60.6,284.3 70.3,268.2 C80,252.1 75.7,238 70.9,223.1 L86.3,211.7 C98.7,220.3 111,229 129.6,224.4 C147.9,219.9 154.8,206.9 161.9,193 L180.8,195.9 C183.5,211.3 186.3,225.7 202.4,235.4 C218.8,245.3 233.2,240.6 247.5,236 L258.9,251.4 C250,264.2 241.7,276.4 246.2,294.7 C250.7,312.9 263.7,319.9 277.6,327 L274.7,345.9 C259.4,348.6 244.9,351.4 235.2,367.5 Z M158.3,280.8 C178.7,283.9 192.8,303 189.7,323.4 C186.6,343.8 167.5,357.9 147.1,354.8 C126.7,351.7 112.6,332.6 115.7,312.2 C118.8,291.9 137.9,277.8 158.3,280.8 Z M162.1,256.1 C128,251 96.2,274.4 91.1,308.5 C86,342.6 109.4,374.4 143.5,379.5 C177.6,384.6 209.4,361.2 214.5,327.1 C219.6,293 196.1,261.3 162.1,256.1 Z" id="Shape"></path>
                <g id="Group" transform="translate(255.000000, 115.000000)">
                    <path d="M246.7,190.6 L260.5,145.8 C240.9,131.2 235.1,129 234.3,120.6 C233.5,112.2 238.8,108.9 255.3,90.9 L233.4,49.4 C209.6,52.9 203.6,55.5 197,50.1 C190.5,44.7 191.9,38.6 190.9,14.3 L146.1,0.5 C131.5,20.1 129.3,25.9 120.9,26.7 C112.2,27.5 108.9,21.9 91.2,5.7 L49.7,27.6 C53.2,51.7 55.8,57.5 50.4,64 C45,70.5 39,69 14.6,70.1 L0.8,114.9 C20.3,129.4 26.2,131.7 27,140.1 C27.8,148.6 22.5,151.8 6,169.8 L27.9,211.3 C51.4,207.9 57.6,205 64.3,210.6 C70.8,216 69.3,222 70.4,246.5 L115.2,260.3 C129.7,240.9 132,234.9 140.5,234.1 C149.1,233.3 152.3,238.9 170.1,255.1 L211.6,233.2 C208.1,209.1 205.5,203.4 210.9,196.8 C216.2,190.2 222.3,191.7 246.7,190.6 Z M194.3,183 C184,195.5 185.8,208 188,221.2 L173.5,228.9 C164,219.9 154.8,211 138.4,212.6 C122.3,214.1 114.7,224.3 106.9,235.2 L91.2,230.4 C90.9,217 90.4,204.4 77.9,194 C65.2,183.5 52.3,185.6 39.7,187.7 L32,173.2 C41.2,163.5 49.8,154.2 48.3,138.1 C46.8,122 36.6,114.5 25.7,106.7 L30.5,91 C43.9,90.7 56.5,90.2 66.9,77.7 C77.2,65.2 75.4,52.7 73.2,39.5 L87.7,31.8 C97.1,40.7 106.5,49.7 122.8,48.1 C138.9,46.6 146.4,36.4 154.3,25.5 L170,30.3 C170.3,43.7 170.9,56.3 183.3,66.7 C196,77.2 208.8,75.1 221.5,73 L229.2,87.5 C220,97.2 211.4,106.5 212.9,122.6 C214.4,138.7 224.6,146.2 235.5,154.1 L230.7,169.8 C217.3,170.1 204.6,170.6 194.3,183 Z" id="Shape"></path>
                    <path d="M133.3,102.6 C147.3,106.4 155.6,120.8 151.8,134.8 C148,148.8 133.6,157.1 119.6,153.3 C105.6,149.5 97.3,135.1 101.1,121.1 C104.9,107.1 119.3,98.9 133.3,102.6 Z M137.8,85.8 C114.5,79.5 90.5,93.3 84.2,116.6 C77.9,139.9 91.7,163.9 115,170.2 C138.3,176.5 162.3,162.7 168.6,139.4 C175,116.1 161.2,92.1 137.8,85.8 Z" id="Shape"></path>
                </g>
                <g id="Group-3" transform="translate(125.000000, 0.000000)">
                    <path d="M211.2,127.3 L211.7,88.8 C192.9,81.8 187.8,81.4 185.3,75 C182.7,68.6 186.2,64.7 195,46.8 L168.2,19.2 C150.3,27.4 146.1,30.9 139.7,28.1 C133.3,25.4 133,20.2 126.6,1.3 L88.1,0.8 C81.1,19.6 80.7,24.7 74.3,27.2 C67.6,29.9 63.7,26.2 46.1,17.5 L18.5,44.3 C26.8,62.5 30.2,66.4 27.4,72.8 C24.7,79.2 19.6,79.4 0.6,85.9 L0.1,124.4 C18.8,131.3 24,131.8 26.5,138.2 C29.1,144.7 25.6,148.5 16.8,166.4 L43.6,194 C61.3,185.9 65.5,182.2 72.1,185.1 C78.5,187.8 78.7,192.9 85.2,211.9 L123.7,212.4 C130.6,193.7 131.1,188.5 137.6,185.9 C144.2,183.3 148,186.9 165.8,195.6 L193.4,168.8 C185.1,150.6 181.7,146.7 184.5,140.3 C187.1,134 192.2,133.7 211.2,127.3 Z M168.2,133.4 C163,145.6 167.3,155 172.1,164.9 L162.4,174.3 C152.8,169.4 143.5,164.6 131,169.6 C118.6,174.5 115.1,184.3 111.4,194.6 L97.9,194.4 C94.5,183.9 91.2,174.1 79,168.8 C66.6,163.5 57,168.1 47.5,172.7 L38.1,163 C43.1,153.2 47.7,143.9 42.8,131.6 C37.9,119.3 28.1,115.7 17.8,112.1 L18,98.6 C28.5,95.2 38.3,91.9 43.6,79.7 C48.9,67.5 44.5,58.1 39.7,48.2 L49.4,38.8 C58.9,43.7 68.3,48.5 80.8,43.5 C93.1,38.6 96.7,28.8 100.3,18.5 L113.8,18.7 C117.2,29.2 120.5,39 132.7,44.3 C145.1,49.6 154.7,45 164.2,40.4 L173.6,50.1 C168.6,59.9 164,69.2 168.9,81.5 C173.8,93.8 183.5,97.4 193.9,101 L193.7,114.5 C183.3,117.9 173.5,121.2 168.2,133.4 Z" id="Shape"></path>
                    <path d="M85.6,93.5 C88.9,83 100.1,77.1 110.6,80.4 C121.1,83.7 127,94.9 123.7,105.4 C120.4,115.9 109.2,121.8 98.7,118.5 C88.1,115.2 82.3,104 85.6,93.5 Z M72.9,89.5 C67.4,107 77.1,125.7 94.7,131.2 C112.2,136.7 130.9,127 136.4,109.4 C141.9,91.9 132.2,73.2 114.6,67.7 C97,62.2 78.4,72 72.9,89.5 Z" id="Shape"></path>
                </g>
            </g>
        </g>
    </g>
</svg>