<?xml version="1.0" encoding="utf-8"?>
<!-- Generator: Adobe Illustrator 22.0.1, SVG Export Plug-In . SVG Version: 6.00 Build 0)  -->
<svg version="1.1" id="tools" xmlns="http://www.w3.org/2000/svg" xmlns:xlink="http://www.w3.org/1999/xlink" x="0px" y="0px"
	 viewBox="0 0 500 500" style="enable-background:new 0 0 500 500;" xml:space="preserve">
<path d="M407.5,300.5l8.9-59c-27.4-14.7-35.2-16.4-37.7-26.8c-2.6-10.5,3.5-15.6,20.8-41.3l-35.4-48c-29.3,8.9-36.3,13.3-45.7,7.7
	c-9.2-5.6-8.6-13.6-14.5-43.9l-59-8.9c-14.7,27.4-16.3,35.1-26.8,37.7c-10.8,2.7-16-3.8-41.3-20.8l-48,35.4
	c9,29.7,13.3,36.4,7.7,45.7c-5.6,9.2-13.4,8.5-43.9,14.5l-8.9,59c27.3,14.6,35.1,16.3,37.7,26.8c2.6,10.5-3.5,15.6-20.8,41.3
	l35.4,48c28.9-8.8,36.1-13.5,45.6-7.7c9.2,5.6,8.5,13.4,14.5,43.9l59,8.9c14.6-27.2,16.3-35.1,26.9-37.8
	c10.7-2.6,15.8,3.7,41.2,20.9l48-35.4c-9-29.6-13.3-36.4-7.7-45.6C369.1,305.7,377,306.4,407.5,300.5z M340.2,300.9
	c-10.6,17.6-5.9,33-0.7,49.3l-16.8,12.4c-13.6-9.5-27-18.9-47.2-13.9c-20,5-27.6,19.2-35.4,34.4l-20.7-3.1c-3-16.8-6-32.6-23.6-43.2
	c-18-10.8-33.7-5.7-49.3-0.7l-12.4-16.8c9.8-14,18.8-27.2,13.8-47.3c-5-19.9-19.2-27.5-34.4-35.3l3.1-20.7c16.8-3,32.6-6,43.2-23.6
	c10.6-17.6,5.9-33,0.7-49.3l16.8-12.4c13.5,9.5,27,18.9,47.3,13.9c20-5,27.5-19.2,35.3-34.4l20.7,3.1c3,16.8,6,32.6,23.6,43.2
	c18,10.8,33.7,5.7,49.3,0.7l12.4,16.8c-9.8,14-18.8,27.3-13.9,47.3c5,19.9,19.2,27.5,34.4,35.3l-3.1,20.7
	C366.6,280.2,350.8,283.2,340.2,300.9z M256.2,206.1c22.3,3.4,37.7,24.3,34.4,46.6c-3.4,22.3-24.3,37.7-46.6,34.4
	s-37.7-24.3-34.4-46.6C212.9,218.2,233.8,202.7,256.2,206.1z M260.2,179.1c-37.3-5.6-72,20-77.6,57.3c-5.6,37.3,20,72,57.3,77.6
	c37.3,5.6,72-20,77.6-57.3C323.1,219.5,297.5,184.7,260.2,179.1z"/>
</svg>
