<?xml version="1.0" encoding="UTF-8"?>
<svg width="334px" height="333px" viewBox="0 0 334 333" version="1.1" xmlns="http://www.w3.org/2000/svg" xmlns:xlink="http://www.w3.org/1999/xlink">
    <!-- Generator: Sketch 59 (86127) - https://sketch.com -->
    <title>Shape</title>
    <desc>Created with Sketch.</desc>
    <g id="Page-1" stroke="none" stroke-width="1" fill="none" fill-rule="evenodd">
        <g id="chevron" transform="translate(-66.000000, -601.000000)" fill="#000000" fill-rule="nonzero">
            <g id="sa">
                <g id="stories-of-change">
                    <g id="tools-and-methods" transform="translate(66.000000, 601.000000)">
                        <path d="M324.5,220.5 L333.4,161.5 C306,146.8 298.2,145.1 295.7,134.7 C293.1,124.2 299.2,119.1 316.5,93.4 L281.1,45.4 C251.8,54.3 244.8,58.7 235.4,53.1 C226.2,47.5 226.8,39.5 220.9,9.2 L161.9,0.3 C147.2,27.7 145.6,35.4 135.1,38 C124.3,40.7 119.1,34.2 93.8,17.2 L45.8,52.6 C54.8,82.3 59.1,89 53.5,98.3 C47.9,107.5 40.1,106.8 9.6,112.8 L0.7,171.8 C28,186.4 35.8,188.1 38.4,198.6 C41,209.1 34.9,214.2 17.6,239.9 L53,287.9 C81.9,279.1 89.1,274.4 98.6,280.2 C107.8,285.8 107.1,293.6 113.1,324.1 L172.1,333 C186.7,305.8 188.4,297.9 199,295.2 C209.7,292.6 214.8,298.9 240.2,316.1 L288.2,280.7 C279.2,251.1 274.9,244.3 280.5,235.1 C286.1,225.7 294,226.4 324.5,220.5 Z M257.2,220.9 C246.6,238.5 251.3,253.9 256.5,270.2 L239.7,282.6 C226.1,273.1 212.7,263.7 192.5,268.7 C172.5,273.7 164.9,287.9 157.1,303.1 L136.4,300 C133.4,283.2 130.4,267.4 112.8,256.8 C94.8,246 79.1,251.1 63.5,256.1 L51.1,239.3 C60.9,225.3 69.9,212.1 64.9,192 C59.9,172.1 45.7,164.5 30.5,156.7 L33.6,136 C50.4,133 66.2,130 76.8,112.4 C87.4,94.8 82.7,79.4 77.5,63.1 L94.3,50.7 C107.8,60.2 121.3,69.6 141.6,64.6 C161.6,59.6 169.1,45.4 176.9,30.2 L197.6,33.3 C200.6,50.1 203.6,65.9 221.2,76.5 C239.2,87.3 254.9,82.2 270.5,77.2 L282.9,94 C273.1,108 264.1,121.3 269,141.3 C274,161.2 288.2,168.8 303.4,176.6 L300.3,197.3 C283.6,200.2 267.8,203.2 257.2,220.9 Z M173.2,126.1 C195.5,129.5 210.9,150.4 207.6,172.7 C204.2,195 183.3,210.4 161,207.1 C138.7,203.8 123.3,182.8 126.6,160.5 C129.9,138.2 150.8,122.7 173.2,126.1 Z M177.2,99.1 C139.9,93.5 105.2,119.1 99.6,156.4 C94,193.7 119.6,228.4 156.9,234 C194.2,239.6 228.9,214 234.5,176.7 C240.1,139.5 214.5,104.7 177.2,99.1 Z" id="Shape"></path>
                    </g>
                </g>
            </g>
        </g>
    </g>
</svg>