<?xml version="1.0" encoding="UTF-8"?>
<svg width="516px" height="470px" viewBox="0 0 516 470" version="1.1" xmlns="http://www.w3.org/2000/svg" xmlns:xlink="http://www.w3.org/1999/xlink">
    <!-- Generator: Sketch 59 (86127) - https://sketch.com -->
    <title>thematic-areas</title>
    <desc>Created with Sketch.</desc>
    <g id="Page-1" stroke="none" stroke-width="1" fill="none" fill-rule="evenodd">
        <g id="chevron" fill="#000000" fill-rule="nonzero">
            <g id="sa">
                <g id="stories-of-change">
                    <g id="thematic-areas">
                        <path d="M296.8,367.1 L304.9,313.1 C279.8,299.7 272.7,298.1 270.4,288.6 C268,279 273.6,274.3 289.5,250.8 L257,206.9 C230.2,215 223.8,219.1 215.2,214 C206.8,208.9 207.4,201.6 202,173.8 L148,165.7 C134.6,190.7 133.1,197.8 123.5,200.2 C113.6,202.7 108.8,196.7 85.7,181.1 L41.8,213.5 C50,240.7 54,246.8 48.9,255.3 C43.8,263.7 36.6,263.1 8.7,268.5 L0.6,322.5 C25.6,335.9 32.7,337.4 35.1,347 C37.5,356.6 31.9,361.3 16,384.8 L48.4,428.7 C74.8,420.7 81.4,416.3 90.1,421.6 C98.5,426.7 97.9,433.9 103.3,461.8 L157.3,469.9 C170.6,445 172.2,437.8 181.9,435.4 C191.7,433 196.4,438.8 219.6,454.5 L263.5,422.1 C255.3,395 251.3,388.8 256.4,380.4 C261.7,372 268.9,372.6 296.8,367.1 Z M235.2,367.5 C225.5,383.6 229.8,397.7 234.6,412.6 L219.2,424 C206.7,415.3 194.5,406.7 176,411.3 C157.7,415.9 150.8,428.9 143.7,442.7 L124.8,439.8 C122.1,424.4 119.3,410 103.2,400.3 C86.8,390.4 72.3,395.1 58.1,399.7 L46.7,384.3 C55.7,371.5 63.9,359.4 59.4,341 C54.8,322.8 41.8,315.8 28,308.7 L30.8,289.8 C46.2,287.1 60.6,284.3 70.3,268.2 C80,252.1 75.7,238 70.9,223.1 L86.3,211.7 C98.7,220.3 111,229 129.6,224.4 C147.9,219.9 154.8,206.9 161.9,193 L180.8,195.9 C183.5,211.3 186.3,225.7 202.4,235.4 C218.8,245.3 233.2,240.6 247.5,236 L258.9,251.4 C250,264.2 241.7,276.4 246.2,294.7 C250.7,312.9 263.7,319.9 277.6,327 L274.7,345.9 C259.4,348.6 244.9,351.4 235.2,367.5 Z M158.3,280.8 C178.7,283.9 192.8,303 189.7,323.4 C186.6,343.8 167.5,357.9 147.1,354.8 C126.7,351.7 112.6,332.6 115.7,312.2 C118.8,291.9 137.9,277.8 158.3,280.8 Z M162.1,256.1 C128,251 96.2,274.4 91.1,308.5 C86,342.6 109.4,374.4 143.5,379.5 C177.6,384.6 209.4,361.2 214.5,327.1 C219.6,293 196.1,261.3 162.1,256.1 Z" id="Shape"></path>
                        <path d="M501.7,305.6 L515.5,260.8 C495.9,246.2 490.1,244 489.3,235.6 C488.5,227.2 493.8,223.9 510.3,205.9 L488.4,164.4 C464.6,167.9 458.6,170.5 452,165.1 C445.5,159.7 446.9,153.6 445.9,129.3 L401.1,115.5 C386.5,135.1 384.3,140.9 375.9,141.7 C367.2,142.5 363.9,136.9 346.2,120.7 L304.7,142.6 C308.2,166.7 310.8,172.5 305.4,179 C300,185.5 294,184 269.6,185.1 L255.8,229.9 C275.3,244.4 281.2,246.7 282,255.1 C282.8,263.6 277.5,266.8 261,284.8 L282.9,326.3 C306.4,322.9 312.6,320 319.3,325.6 C325.8,331 324.3,337 325.4,361.5 L370.2,375.3 C384.7,355.9 387,349.9 395.5,349.1 C404.1,348.3 407.3,353.9 425.1,370.1 L466.6,348.2 C463.1,324.1 460.5,318.4 465.9,311.8 C471.2,305.2 477.3,306.7 501.7,305.6 Z M449.3,298 C439,310.5 440.8,323 443,336.2 L428.5,343.9 C419,334.9 409.8,326 393.4,327.6 C377.3,329.1 369.7,339.3 361.9,350.2 L346.2,345.4 C345.9,332 345.4,319.4 332.9,309 C320.2,298.5 307.3,300.6 294.7,302.7 L287,288.2 C296.2,278.5 304.8,269.2 303.3,253.1 C301.8,237 291.6,229.5 280.7,221.7 L285.5,206 C298.9,205.7 311.5,205.2 321.9,192.7 C332.2,180.2 330.4,167.7 328.2,154.5 L342.7,146.8 C352.1,155.7 361.5,164.7 377.8,163.1 C393.9,161.6 401.4,151.4 409.3,140.5 L425,145.3 C425.3,158.7 425.9,171.3 438.3,181.7 C451,192.2 463.8,190.1 476.5,188 L484.2,202.5 C475,212.2 466.4,221.5 467.9,237.6 C469.4,253.7 479.6,261.2 490.5,269.1 L485.7,284.8 C472.3,285.1 459.6,285.6 449.3,298 Z" id="Shape"></path>
                        <path d="M388.3,217.6 C402.3,221.4 410.6,235.8 406.8,249.8 C403,263.8 388.6,272.1 374.6,268.3 C360.6,264.5 352.3,250.1 356.1,236.1 C359.9,222.1 374.3,213.9 388.3,217.6 Z M392.8,200.8 C369.5,194.5 345.5,208.3 339.2,231.6 C332.9,254.9 346.7,278.9 370,285.2 C393.3,291.5 417.3,277.7 423.6,254.4 C430,231.1 416.2,207.1 392.8,200.8 Z" id="Shape"></path>
                        <path d="M336.2,127.3 L336.7,88.8 C317.9,81.8 312.8,81.4 310.3,75 C307.7,68.6 311.2,64.7 320,46.8 L293.2,19.2 C275.3,27.4 271.1,30.9 264.7,28.1 C258.3,25.4 258,20.2 251.6,1.3 L213.1,0.8 C206.1,19.6 205.7,24.7 199.3,27.2 C192.6,29.9 188.7,26.2 171.1,17.5 L143.5,44.3 C151.8,62.5 155.2,66.4 152.4,72.8 C149.7,79.2 144.6,79.4 125.6,85.9 L125.1,124.4 C143.8,131.3 149,131.8 151.5,138.2 C154.1,144.7 150.6,148.5 141.8,166.4 L168.6,194 C186.3,185.9 190.5,182.2 197.1,185.1 C203.5,187.8 203.7,192.9 210.2,211.9 L248.7,212.4 C255.6,193.7 256.1,188.5 262.6,185.9 C269.2,183.3 273,186.9 290.8,195.6 L318.4,168.8 C310.1,150.6 306.7,146.7 309.5,140.3 C312.1,134 317.2,133.7 336.2,127.3 Z M293.2,133.4 C288,145.6 292.3,155 297.1,164.9 L287.4,174.3 C277.8,169.4 268.5,164.6 256,169.6 C243.6,174.5 240.1,184.3 236.4,194.6 L222.9,194.4 C219.5,183.9 216.2,174.1 204,168.8 C191.6,163.5 182,168.1 172.5,172.7 L163.1,163 C168.1,153.2 172.7,143.9 167.8,131.6 C162.9,119.3 153.1,115.7 142.8,112.1 L143,98.6 C153.5,95.2 163.3,91.9 168.6,79.7 C173.9,67.5 169.5,58.1 164.7,48.2 L174.4,38.8 C183.9,43.7 193.3,48.5 205.8,43.5 C218.1,38.6 221.7,28.8 225.3,18.5 L238.8,18.7 C242.2,29.2 245.5,39 257.7,44.3 C270.1,49.6 279.7,45 289.2,40.4 L298.6,50.1 C293.6,59.9 289,69.2 293.9,81.5 C298.8,93.8 308.5,97.4 318.9,101 L318.7,114.5 C308.3,117.9 298.5,121.2 293.2,133.4 Z" id="Shape"></path>
                        <path d="M210.6,93.5 C213.9,83 225.1,77.1 235.6,80.4 C246.1,83.7 252,94.9 248.7,105.4 C245.4,115.9 234.2,121.8 223.7,118.5 C213.1,115.2 207.3,104 210.6,93.5 Z M197.9,89.5 C192.4,107 202.1,125.7 219.7,131.2 C237.2,136.7 255.9,127 261.4,109.4 C266.9,91.9 257.2,73.2 239.6,67.7 C222,62.2 203.4,72 197.9,89.5 Z" id="Shape"></path>
                    </g>
                </g>
            </g>
        </g>
    </g>
</svg>