<?xml version="1.0" encoding="utf-8"?>
<!-- Generator: Adobe Illustrator 22.0.1, SVG Export Plug-In . SVG Version: 6.00 Build 0)  -->
<svg version="1.1" id="Layer_1" xmlns="http://www.w3.org/2000/svg" xmlns:xlink="http://www.w3.org/1999/xlink" x="0px" y="0px"
	 viewBox="0 0 500 500" style="enable-background:new 0 0 500 500;" xml:space="preserve">
<style type="text/css">
	.st0{fill:#231F20;}
	.st1{fill:#FFFFFF;}
	.st2{clip-path:url(#SVGID_2_);}
	.st3{clip-path:url(#SVGID_4_);}
</style>
<g id="Layer_2_1_">
</g>
<path class="st0" d="M1095.3,126.2l-1.4-0.6c-3.5-1.5-6.5-2.7-9.1-3.8c-10.1-4.1-12.5-5.2-13.9-9.1c-1.4-3.8-0.1-6.2,5.4-15.8
	c1.4-2.4,3-5.2,4.8-8.5l0.7-1.3L1055.9,58l-1.4,0.6c-3.5,1.4-6.4,2.7-9,3.7c-10.1,4.3-12.6,5.2-16.3,3.4c-3.6-1.8-4.5-4.3-7.4-15
	c-0.8-2.6-1.6-5.7-2.7-9.3l-0.4-1.4l-38.9-2.3l-0.6,1.4c-1.5,3.5-2.7,6.5-3.8,9.1c-4.1,10.1-5.2,12.5-9.1,13.9
	c-4,1.4-6.2,0.1-15.5-5.1c-2.5-1.4-5.4-3-8.8-5l-1.3-0.7l-29.1,25.9l0.6,1.4c1.4,3.5,2.7,6.4,3.7,9c4.3,10.1,5.2,12.6,3.5,16.2
	c-1.8,3.6-4.3,4.5-14.9,7.3c-2.7,0.7-5.8,1.6-9.4,2.6l-1.4,0.4l-2.3,38.9l1.4,0.6c3.4,1.4,6.5,2.6,9,3.6c10.2,4.1,12.6,5.2,14,9.1
	c1.4,3.8,0.1,6.2-5.4,15.7c-1.4,2.5-3,5.2-4.8,8.5l-0.7,1.3l25.9,29.1l1.4-0.6c3.7-1.5,6.6-2.7,9.2-3.8c9.6-4.1,12.3-5.2,16-3.3
	c3.6,1.8,4.5,4.3,7.3,14.9c0.7,2.7,1.6,5.8,2.6,9.5l0.4,1.4l38.9,2.3l0.6-1.4c1.4-3.4,2.6-6.4,3.6-8.9c4.1-10.2,5.2-12.7,9.2-14.1
	c3.8-1.4,6.1-0.2,15.3,5.1c2.5,1.4,5.3,3.1,8.8,5l1.3,0.7l29.1-25.9l-0.6-1.4c-1.4-3.5-2.7-6.4-3.7-9c-4.3-10.1-5.2-12.6-3.4-16.3
	c1.8-3.6,4.3-4.5,14.9-7.3c2.7-0.7,5.8-1.6,9.5-2.6l1.4-0.4L1095.3,126.2z M1048.6,166.4c-5.6,11.6-2.1,21,1.6,30l-7.2,6.4
	c-8.4-4.9-17.3-9.3-29.5-5.2c-12.2,4.2-16.5,13.7-20,22.3l-9.5-0.5c-2.5-9.4-5.7-18.9-17.2-24.5c-3.3-1.6-6.4-2.5-9.4-2.9
	c-7.5-0.8-14.1,1.7-20.6,4.4l-6.4-7.2c4.9-8.4,9.3-17.3,5.1-29.6c-4.2-12.2-13.3-16.4-22.3-20l0.5-9.5c9.4-2.5,18.9-5.7,24.5-17.2
	c5.6-11.6,2.1-21-1.6-30l7.2-6.4c8.4,4.9,17.3,9.3,29.6,5.1c12.2-4.2,16.4-13.3,20-22.3l9.5,0.5c2.5,9,5.7,18.9,17.2,24.5
	c11.6,5.6,21,2.1,30-1.6l6.4,7.2c-4.9,8.5-9.3,17.4-5.1,29.6s13.3,16.4,22.3,20l-0.5,9.5C1063.8,151.8,1054.2,154.8,1048.6,166.4z"
	/>
<path class="st0" d="M1034,357.8l-1.4-0.6c-3.5-1.5-6.5-2.7-9.1-3.8c-10.1-4.1-12.5-5.2-13.9-9.1c-1.4-3.9-0.1-6.2,5.4-15.8
	c1.4-2.4,3-5.2,4.8-8.5l0.7-1.3l-25.9-29.1l-1.4,0.6c-3.5,1.4-6.4,2.7-9,3.7c-10.1,4.3-12.6,5.2-16.3,3.4c-3.6-1.8-4.5-4.3-7.4-15
	c-0.8-2.6-1.6-5.7-2.7-9.3l-0.4-1.4l-38.9-2.3l-0.6,1.4c-1.5,3.5-2.7,6.5-3.8,9.1c-4.1,10.1-5.2,12.5-9.1,13.9
	c-4,1.4-6.2,0.1-15.5-5.1c-2.5-1.4-5.4-3-8.8-5l-1.3-0.7l-29.1,25.9l0.6,1.4c1.4,3.5,2.7,6.4,3.7,9c4.3,10.1,5.2,12.6,3.5,16.2
	s-4.3,4.5-14.9,7.3c-2.7,0.7-5.8,1.6-9.4,2.6l-1.4,0.4l-2.3,38.9l1.4,0.6c3.4,1.4,6.5,2.6,9,3.6c10.2,4.1,12.6,5.2,14,9.1
	c1.4,3.8,0.1,6.2-5.4,15.7c-1.4,2.5-3,5.2-4.8,8.5l-0.7,1.3l25.9,29.1l1.4-0.6c3.7-1.5,6.6-2.7,9.2-3.8c9.6-4.1,12.3-5.2,16-3.3
	c3.6,1.8,4.5,4.3,7.3,14.9c0.7,2.7,1.6,5.8,2.6,9.5l0.4,1.4l38.9,2.3l0.6-1.4c1.4-3.4,2.6-6.4,3.6-8.9c4.1-10.2,5.2-12.7,9.2-14.1
	c3.8-1.4,6.1-0.2,15.3,5.1c2.5,1.4,5.3,3.1,8.8,5l1.3,0.7l29.1-25.9l-0.6-1.4c-1.4-3.5-2.7-6.4-3.7-9c-4.3-10.1-5.2-12.6-3.4-16.3
	c1.8-3.6,4.3-4.5,14.9-7.3c2.7-0.7,5.8-1.6,9.5-2.6l1.4-0.4L1034,357.8z M987.3,398c-5.6,11.6-2.1,21,1.6,30l-7.2,6.4
	c-8.4-4.9-17.3-9.3-29.5-5.2c-12.2,4.2-16.5,13.7-20,22.3l-9.5-0.5c-2.5-9.4-5.7-18.9-17.2-24.5c-3.3-1.6-6.4-2.5-9.4-2.9
	c-7.5-0.8-14.1,1.7-20.6,4.4l-6.4-7.2c4.9-8.4,9.3-17.3,5.1-29.6c-4.2-12.2-13.3-16.4-22.3-20l0.5-9.5c9.4-2.5,18.9-5.7,24.5-17.2
	c5.6-11.6,2.1-21-1.6-30l7.2-6.4c8.4,4.9,17.3,9.3,29.6,5.1c12.2-4.2,16.4-13.3,20-22.3l9.5,0.5c2.5,9,5.7,18.9,17.2,24.5
	c11.6,5.6,21,2.1,30-1.6l6.4,7.2c-4.9,8.5-9.3,17.4-5.1,29.6s13.3,16.4,22.3,20l-0.5,9.5C1002.5,383.4,993,386.4,987.3,398z"/>
<path class="st0" d="M860.6,204.7l-1.3-0.8c-3.3-1.9-6-3.6-8.5-4.9c-9.5-5.4-11.7-6.8-12.6-10.8c-0.8-4,0.7-6.2,7.4-14.9
	c1.7-2.2,3.7-4.7,5.8-7.8l0.8-1.2l-21.8-32.2l-1.5,0.4c-3.7,0.9-6.7,1.8-9.4,2.5c-10.6,2.9-13.2,3.5-16.6,1.3
	c-3.3-2.2-3.9-4.9-5.4-15.8c-0.4-2.7-0.8-5.8-1.4-9.5l-0.2-1.5l-38.3-7.4l-0.8,1.3c-1.9,3.3-3.6,6-4.9,8.5
	c-5.4,9.5-6.8,11.7-10.8,12.6c-4.1,0.8-6.2-0.7-14.7-7.1c-2.3-1.8-4.9-3.7-8.1-6.1l-1.2-0.8L685,132.1l0.4,1.5
	c0.9,3.7,1.8,6.7,2.5,9.4c2.9,10.6,3.5,13.2,1.3,16.5s-4.9,3.9-15.7,5.3c-2.8,0.4-5.9,0.8-9.6,1.4l-1.5,0.2l-7.4,38.2l1.3,0.8
	c3.2,1.9,6.1,3.5,8.4,4.8c9.6,5.4,11.8,6.8,12.7,10.8c0.8,4-0.7,6.2-7.4,14.8c-1.8,2.3-3.7,4.7-5.8,7.8l-0.8,1.2l21.8,32.2l1.5-0.4
	c3.8-1,6.9-1.8,9.6-2.6c10.1-2.8,12.9-3.5,16.3-1.1c3.3,2.2,3.9,4.9,5.3,15.7c0.4,2.8,0.8,5.9,1.4,9.7l0.2,1.5l38.3,7.4l0.8-1.3
	c1.9-3.2,3.4-6,4.8-8.3c5.4-9.6,6.9-11.9,11-12.7c4-0.8,6.1,0.7,14.5,7.1c2.3,1.8,4.9,3.8,8.1,6.1l1.2,0.8l32.2-21.8l-0.4-1.5
	c-0.9-3.7-1.8-6.7-2.5-9.4c-2.9-10.6-3.5-13.2-1.3-16.6c2.2-3.3,4.9-3.9,15.7-5.3c2.8-0.4,5.9-0.8,9.7-1.4l1.5-0.2L860.6,204.7z
	 M809,238.4c-7.1,10.8-4.9,20.5-2.4,29.9l-7.9,5.4c-7.7-5.9-15.9-11.5-28.6-9.1c-12.6,2.6-18.2,11.4-22.8,19.5l-9.4-1.8
	c-1.3-9.6-3.1-19.5-13.8-26.6c-3.1-2.1-6-3.3-8.9-4.1c-7.3-1.8-14.2-0.2-21,1.7l-5.4-7.9c5.9-7.7,11.5-15.9,9-28.7
	c-2.6-12.6-11-18-19.5-22.8l1.8-9.4c9.6-1.3,19.5-3.1,26.6-13.8c7.1-10.8,4.9-20.5,2.4-29.9l7.9-5.4c7.7,5.9,15.9,11.5,28.7,9
	c12.6-2.6,18-11,22.8-19.5l9.4,1.8c1.3,9.3,3.1,19.5,13.8,26.6c10.8,7.1,20.5,4.9,29.9,2.4l5.4,7.9c-5.9,7.8-11.6,16-9,28.7
	c2.6,12.6,11,18,19.5,22.8l-1.8,9.4C826,225.9,816.1,227.6,809,238.4z"/>
<path d="M341.2,142.3l0.5-38.5c-18.8-7-23.9-7.4-26.4-13.8c-2.6-6.4,0.9-10.3,9.7-28.2l-26.8-27.6c-17.9,8.2-22.1,11.7-28.5,8.9
	c-6.4-2.7-6.7-7.9-13.1-26.8l-38.5-0.5c-7,18.8-7.4,23.9-13.8,26.4c-6.7,2.7-10.6-1-28.2-9.7l-27.6,26.8
	c8.3,18.2,11.7,22.1,8.9,28.5c-2.7,6.4-7.8,6.6-26.8,13.1l-0.5,38.5c18.7,6.9,23.9,7.4,26.4,13.8c2.6,6.5-0.9,10.3-9.7,28.2
	l26.8,27.6c17.7-8.1,21.9-11.8,28.5-8.9c6.4,2.7,6.6,7.8,13.1,26.8l38.5,0.5c6.9-18.7,7.4-23.9,13.9-26.5c6.6-2.6,10.4,1,28.2,9.7
	l27.6-26.8c-8.3-18.2-11.7-22.1-8.9-28.5C317.1,149,322.2,148.7,341.2,142.3z M298.2,148.4c-5.2,12.2-0.9,21.6,3.9,31.5l-9.7,9.4
	c-9.6-4.9-18.9-9.7-31.4-4.7c-12.4,4.9-15.9,14.7-19.6,25l-13.5-0.2c-3.4-10.5-6.7-20.3-18.9-25.6c-12.4-5.3-22-0.7-31.5,3.9
	l-9.4-9.7c5-9.8,9.6-19.1,4.7-31.4c-4.9-12.3-14.7-15.9-25-19.5l0.2-13.5c10.5-3.4,20.3-6.7,25.6-18.9c5.3-12.2,0.9-21.6-3.9-31.5
	l9.7-9.4c9.5,4.9,18.9,9.7,31.4,4.7c12.3-4.9,15.9-14.7,19.5-25l13.5,0.2c3.4,10.5,6.7,20.3,18.9,25.6c12.4,5.3,22,0.7,31.5-3.9
	l9.4,9.7c-5,9.8-9.6,19.1-4.7,31.4c4.9,12.3,14.6,15.9,25,19.5l-0.2,13.5C313.3,132.9,303.5,136.2,298.2,148.4z"/>
<rect x="117.1" y="112.2" transform="matrix(0.1354 0.9908 -0.9908 0.1354 283.1333 -22.691)" class="st1" width="74.9" height="77.4"/>
<rect x="299.6" y="94.7" transform="matrix(6.094651e-02 0.9981 -0.9981 6.094651e-02 454.5673 -211.2335)" class="st1" width="79.8" height="82.5"/>
<path d="M465.7,322.6l13.8-44.8c-19.6-14.6-25.4-16.8-26.2-25.2c-0.8-8.4,4.5-11.7,21-29.7l-21.9-41.5c-23.8,3.5-29.8,6.1-36.4,0.7
	c-6.5-5.4-5.1-11.5-6.1-35.8l-44.8-13.8c-14.6,19.6-16.8,25.4-25.2,26.2c-8.7,0.8-12-4.8-29.7-21l-41.5,21.9
	c3.5,24.1,6.1,29.9,0.7,36.4c-5.4,6.5-11.4,5-35.8,6.1l-13.8,44.8c19.5,14.5,25.4,16.8,26.2,25.2c0.8,8.5-4.5,11.7-21,29.7
	l21.9,41.5c23.5-3.4,29.7-6.3,36.4-0.7c6.5,5.4,5,11.4,6.1,35.9l44.8,13.8c14.5-19.4,16.8-25.4,25.3-26.2c8.6-0.8,11.8,4.8,29.6,21
	l41.5-21.9c-3.5-24.1-6.1-29.8-0.7-36.4C435.2,322.2,441.3,323.7,465.7,322.6z M413.3,315c-10.3,12.5-8.5,25-6.3,38.2l-14.5,7.7
	c-9.5-9-18.7-17.9-35.1-16.3c-16.1,1.5-23.7,11.7-31.5,22.6l-15.7-4.8c-0.3-13.4-0.8-26-13.3-36.4c-12.7-10.5-25.6-8.4-38.2-6.3
	l-7.7-14.5c9.2-9.7,17.8-19,16.3-35.1c-1.5-16.1-11.7-23.6-22.6-31.4l4.8-15.7c13.4-0.3,26-0.8,36.4-13.3c10.3-12.5,8.5-25,6.3-38.2
	l14.5-7.7c9.4,8.9,18.8,17.9,35.1,16.3c16.1-1.5,23.6-11.7,31.5-22.6l15.7,4.8c0.3,13.4,0.9,26,13.3,36.4
	c12.7,10.5,25.5,8.4,38.2,6.3l7.7,14.5c-9.2,9.7-17.8,19-16.3,35.1c1.5,16.1,11.7,23.6,22.6,31.5l-4.8,15.7
	C436.3,302.1,423.6,302.6,413.3,315z"/>
<path class="st1" d="M270.1,259.4c0,22.8,38,43.8,27,60.8c-16.5,25.5-93.9,45.8-123.9,45.8c-50,0-90.5-46.1-90.5-102.9
	s40.5-102.9,90.5-102.9c38.7,0,87.1,18.7,100.1,57.6C277.1,229.1,270.1,246.6,270.1,259.4z"/>
<rect x="233.7" y="149" transform="matrix(0.674 0.7388 -0.7388 0.674 232.0758 -141.0019)" class="st1" width="84.1" height="86.9"/>
<path class="st1" d="M330.9,403.5l-64.8-3.8c-6.3-0.4-11-5.7-10.7-12l4.7-79.6c0.4-6.3,5.7-11,12-10.7l64.8,3.8
	c6.3,0.4,11,5.7,10.7,12l-4.7,79.6C342.5,399.1,337.2,403.8,330.9,403.5z"/>
<path d="M305.8,342.1l8.1-54c-25.1-13.4-32.2-15-34.5-24.5c-2.4-9.6,3.2-14.3,19.1-37.8L266,181.9c-26.8,8.1-33.2,12.2-41.8,7.1
	c-8.4-5.1-7.8-12.4-13.2-40.2l-54-8.1c-13.4,25-14.9,32.1-24.5,34.5c-9.9,2.5-14.7-3.5-37.8-19.1l-43.9,32.4
	c8.2,27.2,12.2,33.3,7.1,41.8c-5.1,8.4-12.3,7.8-40.2,13.2l-8.1,54c25,13.4,32.1,14.9,34.5,24.5c2.4,9.6-3.2,14.3-19.1,37.8
	l32.4,43.9c26.4-8,33-12.4,41.7-7.1c8.4,5.1,7.8,12.3,13.2,40.2l54,8.1c13.3-24.9,14.9-32.1,24.6-34.5c9.8-2.4,14.5,3.4,37.7,19.1
	l43.9-32.4c-8.2-27.1-12.2-33.3-7.1-41.7C270.7,347,277.9,347.6,305.8,342.1z M244.2,342.5c-9.7,16.1-5.4,30.2-0.6,45.1l-15.4,11.4
	c-12.5-8.7-24.7-17.3-43.2-12.7c-18.3,4.6-25.2,17.6-32.3,31.4l-18.9-2.9c-2.7-15.4-5.5-29.8-21.6-39.5c-16.4-9.9-30.9-5.2-45.1-0.6
	l-11.4-15.4c9-12.8,17.2-24.9,12.7-43.3c-4.6-18.2-17.6-25.2-31.4-32.3l2.8-18.9c15.4-2.7,29.8-5.5,39.5-21.6
	c9.7-16.1,5.4-30.2,0.6-45.1l15.4-11.4c12.4,8.6,24.7,17.3,43.3,12.7c18.3-4.5,25.2-17.5,32.3-31.4l18.9,2.9
	c2.7,15.4,5.5,29.8,21.6,39.5c16.4,9.9,30.8,5.2,45.1,0.6l11.4,15.4c-8.9,12.8-17.2,25-12.7,43.3c4.5,18.2,17.5,25.2,31.4,32.3
	l-2.9,18.9C268.4,323.6,253.9,326.4,244.2,342.5z M167.3,255.8c20.4,3.1,34.5,22.2,31.4,42.6c-3.1,20.4-22.2,34.5-42.6,31.4
	s-34.5-22.2-31.4-42.6C127.8,266.9,146.9,252.8,167.3,255.8z M171.1,231.1c-34.1-5.1-65.9,18.3-71,52.4s18.3,65.9,52.4,71
	c34.1,5.1,65.9-18.3,71-52.4S205.1,236.3,171.1,231.1z"/>
<g>
	<defs>
		<polygon id="SVGID_1_" points="347,334.1 439,326.4 426.7,179.9 334.7,187.7 350.5,254.1 		"/>
	</defs>
	<clipPath id="SVGID_2_">
		<use xlink:href="#SVGID_1_"  style="overflow:visible;"/>
	</clipPath>
	<path class="st2" d="M352.3,234.6c14,3.8,22.3,18.2,18.5,32.2c-3.8,14-18.2,22.3-32.2,18.5s-22.3-18.2-18.5-32.2
		S338.3,230.9,352.3,234.6z M356.8,217.8c-23.3-6.3-47.3,7.5-53.6,30.8c-6.3,23.3,7.5,47.3,30.8,53.6c23.3,6.3,47.3-7.5,53.6-30.8
		C394,248.1,380.2,224.1,356.8,217.8z"/>
</g>
<g>
	<defs>
		<polygon id="SVGID_3_" points="291,115.5 287.9,45.4 176.3,50.3 179.3,120.4 230.3,110.4 		"/>
	</defs>
	<clipPath id="SVGID_4_">
		<use xlink:href="#SVGID_3_"  style="overflow:visible;"/>
	</clipPath>
	<path class="st3" d="M215.6,108.5c3.3-10.5,14.5-16.4,25-13.1c10.5,3.3,16.4,14.5,13.1,25c-3.3,10.5-14.5,16.4-25,13.1
		C218.1,130.2,212.3,119,215.6,108.5z M202.9,104.5c-5.5,17.5,4.2,36.2,21.8,41.7c17.5,5.5,36.2-4.2,41.7-21.8
		c5.5-17.5-4.2-36.2-21.8-41.7S208.4,87,202.9,104.5z"/>
</g>
</svg>
