<svg xmlns="http://www.w3.org/2000/svg" viewBox="0 0 50 50" xmlns:xlink="http://www.w3.org/1999/xlink">
  <defs>
    <path id="j" d="M31.5,7.47442623 L35.05,8.37737705 C38.85,9.38065574 46.45,11.3370492 46.45,11.3370492 C48.05,11.8888525 49.3,13.0927869 50,14.6478689 L50,20.5672131 L0,20.5672131 L0,14.6478689 C0.65,13.0927869 1.95,11.8888525 3.55,11.3370492 C3.55,11.3370492 11.15,9.38065574 14.95,8.37737705 C16.15,8.07639344 18.5,7.47442623 18.5,7.47442623 L18.5,0 L31.5,0 L31.5,7.47442623 L31.5,7.47442623 Z"/>
    <path id="l" d="M31.5,7.47442623 L35.05,8.37737705 C38.85,9.38065574 46.45,11.3370492 46.45,11.3370492 C48.05,11.8888525 49.3,13.0927869 50,14.6478689 L50,20.5672131 L0,20.5672131 L0,14.6478689 C0.65,13.0927869 1.95,11.8888525 3.55,11.3370492 C3.55,11.3370492 11.15,9.38065574 14.95,8.37737705 C16.15,8.07639344 18.5,7.47442623 18.5,7.47442623 L18.5,0 L31.5,0 L31.5,7.47442623 L31.5,7.47442623 Z"/>
    <path id="n" d="M31.5,7.47442623 L35.05,8.37737705 C38.85,9.38065574 46.45,11.3370492 46.45,11.3370492 C48.05,11.8888525 49.3,13.0927869 50,14.6478689 L50,20.5672131 L0,20.5672131 L0,14.6478689 C0.65,13.0927869 1.95,11.8888525 3.55,11.3370492 C3.55,11.3370492 11.15,9.38065574 14.95,8.37737705 C16.15,8.07639344 18.5,7.47442623 18.5,7.47442623 L18.5,0 L31.5,0 L31.5,7.47442623 L31.5,7.47442623 Z"/>
  </defs>
  <g fill="none" fill-rule="evenodd">
    <rect width="50" height="50.164" fill="#ed1c24"/>
    <path fill="#FFFFFF" d="M31.5,37.0711475 L35.05,37.9740984 C38.85,38.977377 46.45,40.9337705 46.45,40.9337705 C48.05,41.4855738 49.3,42.6895082 50,44.2445902 L50,50.1639344 L0,50.1639344 L0,44.2445902 C0.65,42.6895082 1.95,41.4855738 3.55,40.9337705 C3.55,40.9337705 11.15,38.977377 14.95,37.9740984 C16.15,37.6731148 18.5,37.0711475 18.5,37.0711475 L18.5,29.5967213 L31.5,29.5967213 L31.5,37.0711475 L31.5,37.0711475 Z"/>
    <g transform="translate(0 29.597)">
      <mask id="k" fill="white">
        <use xlink:href="#j"/>
      </mask>
      <path fill="#CFCEC5" d="M25.1,-24.0786885 L25.2,-24.0786885 L25.2,-24.0786885 C26.85,-24.0786885 29.3,-23.9783607 30.9,-23.0754098 C32.55,-22.1222951 34.55,-20.2662295 35.15,-17.0055738 C36.35,-10.1331148 34.1,0.752459016 32,4.26393443 C30,7.62491803 27.1,8.87901639 25.25,8.97934426 L25.2,8.97934426 L25.1,8.97934426 L25,8.97934426 L24.95,8.97934426 C23.1,8.87901639 20.2,7.62491803 18.2,4.26393443 C16.1,0.752459016 13.85,-10.1331148 15.05,-17.0055738 C15.65,-20.2662295 17.65,-22.1222951 19.3,-23.0754098 C20.9,-23.9783607 23.35,-24.0786885 25,-24.0786885 L25,-24.0786885 L25.1,-24.0786885 L25.1,-24.0786885 Z" mask="url(#k)"/>
      <g>
        <mask id="m" fill="white">
          <use xlink:href="#l"/>
        </mask>
        <path fill="#FFFFFF" d="M0,-0.501639344 L50,-0.501639344 L50,20.5672131 L0,20.5672131 L0,-0.501639344 L0,-0.501639344 Z M25,15.5508197 C31.75,15.4504918 35.5,8.02622951 35.5,8.02622951 C35.5,8.02622951 30.5,-0.501639344 25,-0.501639344 C19.5,-0.501639344 14.5,8.02622951 14.5,8.02622951 C14.5,8.02622951 18.25,15.6511475 25,15.5508197 L25,15.5508197 Z" mask="url(#m)"/>
      </g>
      <g/>
    </g>
    <path fill="#FFFFFF" d="M24.9,10.0327869 C34.45,10.0327869 35.25,16.4537705 35.3,17.1059016 C35.85,23.0754098 33.8,29.6970492 31.9,32.5062295 C29.9,35.4659016 27,36.5695082 25.15,36.6698361 L25,36.6698361 L24.9,36.6698361 C23,36.5695082 20.1,35.4659016 18.1,32.5062295 C16.2,29.6970492 14.15,23.0754098 14.7,17.0557377 C14.75,16.4036066 15.35,10.0327869 24.9,10.0327869 L24.9,10.0327869 Z"/>
  </g>
</svg>
